<?xml version="1.0" encoding="utf-8"?>
<!-- Generator: Adobe Illustrator 15.1.0, SVG Export Plug-In . SVG Version: 6.00 Build 0)  -->
<!DOCTYPE svg PUBLIC "-//W3C//DTD SVG 1.1//EN" "http://www.w3.org/Graphics/SVG/1.1/DTD/svg11.dtd">
<svg version="1.1" id="Layer_2" xmlns="http://www.w3.org/2000/svg" xmlns:xlink="http://www.w3.org/1999/xlink" x="0px" y="0px"
	 width="500px" height="340px" viewBox="0 0 500 340" enable-background="new 0 0 500 340" xml:space="preserve">
<g>
	<path fill="#4C4C4C" d="M47.195,224.309c0.742-0.85,1.38-1.793,1.911-2.828c0.531-1.035,0.943-2.11,1.234-3.228
		c0.293-1.114,0.44-2.203,0.44-3.267c0-2.363-0.452-4.58-1.355-6.652c-0.903-2.07-2.131-3.884-3.685-5.438
		c-1.554-1.553-3.366-2.78-5.437-3.685c-2.072-0.901-4.29-1.354-6.653-1.354H5.091v57.119h28.56c2.363,0,4.581-0.449,6.653-1.354
		c2.071-0.9,3.883-2.131,5.437-3.686c1.553-1.553,2.781-3.365,3.685-5.436c0.903-2.072,1.355-4.289,1.355-6.652
		c0-1.062-0.141-2.156-0.42-3.285c-0.279-1.131-0.685-2.211-1.214-3.248c-0.531-1.035-1.169-1.984-1.913-2.846
		c-0.743-0.865-1.58-1.55-2.507-2.055C45.626,225.861,46.451,225.158,47.195,224.309z M38.909,240.081
		c-0.292,0.69-0.697,1.296-1.214,1.812c-0.519,0.52-1.121,0.924-1.812,1.215c-0.69,0.293-1.434,0.438-2.231,0.438H16.524v-11.394
		H33.65c0.797,0,1.541,0.147,2.231,0.438c0.691,0.293,1.293,0.697,1.812,1.216c0.518,0.518,0.922,1.123,1.214,1.812
		c0.293,0.69,0.438,1.433,0.438,2.229C39.347,238.646,39.202,239.391,38.909,240.081z M38.909,217.238
		c-0.292,0.703-0.697,1.312-1.214,1.83c-0.519,0.52-1.121,0.924-1.812,1.215c-0.69,0.295-1.434,0.439-2.231,0.439H16.524V209.29
		H33.65c0.797,0,1.541,0.146,2.231,0.438c0.691,0.293,1.293,0.696,1.812,1.215c0.518,0.52,0.922,1.121,1.214,1.812
		c0.293,0.69,0.438,1.435,0.438,2.229C39.347,215.784,39.202,216.535,38.909,217.238z"/>
	<path fill="#4C4C4C" d="M97.781,204.551c-2.071-2.07-4.495-3.703-7.269-4.898c-2.777-1.195-5.743-1.793-8.902-1.793
		c-3.161,0-6.13,0.598-8.902,1.793c-2.777,1.195-5.193,2.828-7.251,4.898c-2.057,2.07-3.683,4.495-4.878,7.27
		c-1.194,2.775-1.792,5.744-1.792,8.902v34.256H70.18v-11.432h22.863v11.432h11.432v-34.256c0-3.158-0.598-6.127-1.792-8.902
		C101.486,209.046,99.854,206.621,97.781,204.551z M93.042,232.154H70.179v-11.432c0-1.565,0.297-3.049,0.896-4.44
		c0.596-1.396,1.416-2.609,2.45-3.646c1.034-1.035,2.25-1.853,3.644-2.449c1.394-0.598,2.873-0.897,4.442-0.897
		c1.566,0,3.046,0.3,4.44,0.897c1.394,0.597,2.61,1.414,3.646,2.449c1.035,1.035,1.851,2.25,2.449,3.646
		c0.596,1.393,0.896,2.875,0.896,4.44V232.154L93.042,232.154z"/>
	<polygon fill="#4C4C4C" points="148.648,235.5 126.621,197.857 114.392,197.857 114.392,254.979 125.824,254.979 125.824,217.377 
		147.852,254.979 160.081,254.979 160.081,197.857 148.648,197.857 	"/>
	<polygon fill="#4C4C4C" points="203.377,197.857 182.108,226.418 182.108,197.857 170.675,197.857 170.675,254.979 
		182.108,254.979 182.108,243.547 190.829,231.876 203.377,254.979 216.364,254.979 198.319,221.957 216.364,197.857 	"/>
	<path fill="#4C4C4C" d="M260.021,204.551c-2.073-2.07-4.498-3.703-7.271-4.898c-2.773-1.195-5.741-1.793-8.902-1.793
		c-3.163,0-6.127,0.598-8.904,1.793c-2.772,1.195-5.19,2.828-7.249,4.898c-2.058,2.07-3.683,4.495-4.878,7.27
		c-1.196,2.775-1.793,5.744-1.793,8.902v34.256h11.393v-11.432h22.865v11.432h11.432v-34.256c0-3.158-0.601-6.127-1.794-8.902
		C263.723,209.046,262.09,206.621,260.021,204.551z M255.279,232.154h-22.864v-11.432c0-1.565,0.299-3.049,0.897-4.44
		c0.596-1.396,1.414-2.609,2.449-3.646c1.036-1.035,2.252-1.853,3.646-2.449c1.396-0.599,2.875-0.897,4.44-0.897
		s3.046,0.3,4.44,0.897c1.396,0.598,2.611,1.414,3.646,2.449s1.852,2.25,2.449,3.646c0.596,1.393,0.896,2.875,0.896,4.44V232.154
		L255.279,232.154z"/>
	<polygon fill="#4C4C4C" points="270.334,209.29 287.504,209.29 287.504,254.979 298.896,254.979 298.896,209.29 316.025,209.29 
		316.025,197.857 270.334,197.857 	"/>
	<polygon fill="#4C4C4C" points="356.334,220.723 333.51,220.723 333.51,197.857 322.076,197.857 322.076,254.979 333.51,254.979 
		333.51,232.154 356.334,232.154 356.334,254.979 367.766,254.979 367.766,197.857 356.334,197.857 	"/>
	<polygon fill="#4C4C4C" points="483.659,197.857 483.659,235.5 461.631,197.857 449.402,197.857 449.402,254.979 460.834,254.979 
		460.834,217.377 482.86,254.979 495.091,254.979 495.091,197.857 	"/>
	<path fill="#4C4C4C" d="M442.849,217.621l-2.811-7.194c-0.124-0.293-3.792-0.39-6.758-0.42c-1.073-1.604-2.302-3.103-3.687-4.487
		c-1.001-1-2.062-1.908-3.175-2.746c0.064-2.95,0.083-6.543-0.199-6.67l-7.085-3.201c-0.299-0.137-2.928,2.397-5.011,4.478
		c-1.76-0.327-3.559-0.503-5.402-0.503c-1.463,0-2.893,0.111-4.296,0.316c-2.091-2.205-4.803-4.98-5.093-4.866l-7.219,2.694
		c-0.304,0.106-0.322,4.166-0.294,7.185c-1.411,0.983-2.741,2.083-3.973,3.313c-0.929,0.93-1.787,1.908-2.576,2.936
		c-3.062-0.126-7.217-0.237-7.344,0.057l-3.111,6.995c-0.137,0.31,2.707,3.209,4.873,5.354c-0.342,1.799-0.522,3.643-0.522,5.531
		c0,1.279,0.085,2.537,0.239,3.772c-2.188,2.05-4.965,4.729-4.852,5.024l2.805,7.207c0.121,0.287,3.836,0.375,6.812,0.398
		c1.076,1.602,2.302,3.091,3.679,4.469c0.983,0.982,2.026,1.883,3.123,2.711c-0.061,2.965-0.072,6.604,0.211,6.731l7.088,3.188
		c0.29,0.137,2.925-2.391,5.008-4.461c1.769,0.334,3.58,0.512,5.442,0.512c1.451,0,2.872-0.107,4.267-0.311
		c2.091,2.204,4.784,4.967,5.082,4.861l7.196-2.692c0.314-0.108,0.337-4.157,0.312-7.177c1.425-1,2.767-2.116,4.017-3.363
		c0.913-0.914,1.759-1.879,2.533-2.891c3.063,0.117,7.208,0.22,7.342-0.075l3.111-6.991c0.13-0.304-2.714-3.199-4.877-5.344
		c0.35-1.809,0.534-3.664,0.534-5.572c0-1.271-0.085-2.525-0.24-3.758C440.188,220.588,442.962,217.915,442.849,217.621z
		 M425.451,233.421c-0.955,2.19-2.248,4.11-3.884,5.757c-1.632,1.646-3.559,2.947-5.775,3.904c-2.215,0.956-4.574,1.434-7.069,1.434
		c-2.523,0-4.888-0.478-7.09-1.434c-2.206-0.957-4.131-2.258-5.775-3.904c-1.647-1.646-2.948-3.564-3.905-5.757
		c-0.955-2.188-1.431-4.534-1.431-7.028c0-2.496,0.476-4.853,1.431-7.072c0.957-2.217,2.258-4.141,3.905-5.774
		c1.646-1.633,3.569-2.928,5.775-3.883c2.202-0.956,4.565-1.435,7.09-1.435c2.495,0,4.854,0.479,7.069,1.435
		c2.218,0.955,4.146,2.25,5.775,3.883c1.636,1.634,2.929,3.56,3.884,5.774c0.956,2.221,1.435,4.576,1.435,7.072
		C426.886,228.887,426.407,231.23,425.451,233.421z"/>
</g>
<g>
	<g>
		<path fill="#4C4C4C" d="M286.107,2.645c0,0-5.407,5.963-16.047,5.582c-9.479-0.338-32.371,10.758-17.541,29.629
			c4.101-8.395,12.16-16.899,23.004-18.113c0,0-12.076,4.431-17.887,23.37c13.497,10.915,25.588-1.843,28.471-6.969
			C289.253,30.56,291.695,16.602,286.107,2.645z"/>
		<path fill="#4C4C4C" d="M226.705,37.452c5.322,4.143,5.144,8.593,14.065,6.193c1.505-0.405,2.872-0.178,4.059,0.334l0.003-0.009
			c0,0,0.831-16.289-10.363-19.515c-10.459-3.01-11.167,4.709-23.729,4.01c0,0,0,20.239,12.562,25.125
			c5.149,2.002,13.059,0.519,17.637-3.053C225.771,49.267,226.705,37.452,226.705,37.452z"/>
		<path fill="#4C4C4C" d="M309.133,100.284c0-4.445-3.607-8.048-8.054-8.048c-0.491,0-0.972,0.058-1.44,0.144
			c-8.396-13.03-24.242-22.241-42.809-23.704c0.029,2.073,0.109,4.182,0.24,6.305c5.098,0.625,9.869,1.8,9.869,1.8
			c1.636,0.399,2.336,1.954,1.557,3.451l-0.037,0.066c-0.781,1.494-2.762,2.411-4.41,2.036c0,0-4.462-1.019-9.029-1.429
			c-0.291-0.027-0.586-0.052-0.867-0.071l-0.01-0.002c-0.582-0.041-1.133-0.068-1.66-0.084c-0.043,0-0.09-0.001-0.133-0.003
			c-0.246-0.006-0.494-0.008-0.723-0.008c-0.174,0-0.355,0-0.541,0.003c-0.053,0.001-0.105,0.003-0.158,0.005
			c-0.128,0.003-0.26,0.006-0.392,0.011c-0.07,0.002-0.134,0.004-0.203,0.008c-0.119,0.005-0.242,0.01-0.363,0.016
			c-0.08,0.004-0.156,0.008-0.234,0.013c-0.115,0.007-0.231,0.013-0.351,0.021c-0.081,0.005-0.164,0.012-0.245,0.016
			c-0.112,0.008-0.225,0.016-0.337,0.025c-0.095,0.008-0.185,0.013-0.277,0.021c-0.092,0.008-0.187,0.017-0.285,0.026
			c-0.229,0.021-0.46,0.042-0.689,0.065c-0.041,0.004-0.081,0.008-0.116,0.011c-0.164,0.017-0.328,0.036-0.488,0.053
			c0,0-0.013,0-0.016,0.001c-3.974,0.447-7.507,1.239-7.507,1.239c-1.643,0.374-3.674-0.522-4.509-1.989l-0.061-0.105
			c-0.836-1.467-0.181-2.998,1.461-3.402c0,0,3.809-0.936,8.257-1.581c0.181-2.099,0.309-4.262,0.361-6.385
			c-5.242,0.536-10.254,1.689-14.925,3.372c-6.323-3.423-18.746-8.958-21.576-1.413c-1.418,3.781,4.683,4.105,4.152,11.423
			c-4.197,3.588-7.684,7.753-10.27,12.342h-3.596c-4.231,0-7.669,3.688-7.669,8.235v13.175c0,4.53,3.408,8.203,7.623,8.23
			c2.731,9.58,9.125,17.977,17.886,24.123c1.15,7.329,7.478,12.943,15.132,12.943c3.502,0,6.723-1.188,9.306-3.169
			c3.44,0.565,6.988,0.868,10.63,0.868c4.073,0,8.041-0.384,11.863-1.089c2.627,2.115,5.968,3.39,9.603,3.39
			c8.073,0,14.673-6.243,15.274-14.164c10.874-8.271,17.693-20.16,17.693-33.373c0-2.271-0.207-4.499-0.596-6.679
			C307.666,105.584,309.133,103.111,309.133,100.284z M215.714,102.972c-2.468,0-4.471-2.003-4.471-4.475
			c0-2.468,2.003-4.473,4.471-4.473c2.471,0,4.472,2.005,4.472,4.473C220.187,100.969,218.186,102.972,215.714,102.972z"/>
		<path fill="#4C4C4C" d="M246.279,79c1.753-0.208,3.614-0.357,5.348-0.357c1.178,0,2.412,0.07,3.639,0.181
			c-1.312-14.515-0.139-27.534,2.365-35.701c-1.199-0.97-2.408-2.122-3.622-3.488c-0.536-0.602-1.032-1.197-1.495-1.785
			c-1.793,3.669-2.824,7.32-2.996,10.331c0,0-1.801-2.967-4.686-4.208l-1.162,3.502c-0.633,1.142-1.575,2.17-2.729,3.069
			c0.053,0.004,0.103,0.009,0.159,0.014C249.195,51.188,246.872,74.079,246.279,79z"/>
	</g>
</g>
<g>
	<path fill="#4C4C4C" d="M40.657,316.555c-0.696,0.298-1.371,0.691-2.023,1.182c-0.653,0.489-1.313,1.025-1.981,1.607
		c-0.667,0.583-1.359,1.197-2.076,1.842c-0.718,0.647-1.491,1.285-2.321,1.918c-0.831,0.633-1.736,1.235-2.716,1.811
		s-2.062,1.079-3.248,1.513s-2.492,0.777-3.918,1.033c-1.427,0.256-3.007,0.384-4.738,0.384c-1.917,0-3.646-0.389-5.187-1.161
		c-1.541-0.774-2.857-1.818-3.95-3.131c-1.094-1.312-1.935-2.84-2.524-4.579c-0.589-1.737-0.883-3.566-0.883-5.483
		c0-1.307,0.141-2.708,0.425-4.207c0.284-1.497,0.692-3.023,1.225-4.578c0.533-1.556,1.183-3.104,1.949-4.653
		c0.767-1.548,1.636-3.031,2.609-4.451c0.972-1.42,2.04-2.736,3.205-3.949c1.164-1.215,2.406-2.272,3.727-3.174
		c1.32-0.9,2.712-1.608,4.175-2.119c1.462-0.513,2.981-0.768,4.558-0.768c1.021,0,2.059,0.182,3.109,0.544
		c1.051,0.361,1.994,0.919,2.833,1.671c0.836,0.752,1.523,1.704,2.055,2.854c0.532,1.149,0.798,2.505,0.798,4.065
		c0,1.053-0.167,2.113-0.5,3.186s-0.791,2.102-1.374,3.088s-1.268,1.913-2.055,2.779c-0.788,0.865-1.636,1.615-2.544,2.247
		c-0.909,0.632-1.853,1.133-2.833,1.502c-0.98,0.367-1.959,0.553-2.939,0.553c-1.292,0-2.257-0.174-2.896-0.521
		c-0.639-0.348-0.958-0.849-0.958-1.501c0-0.115-0.003-0.248-0.01-0.404c-0.007-0.155-0.01-0.319-0.01-0.489
		c0-0.256,0.013-0.522,0.042-0.8c0.029-0.276,0.086-0.527,0.171-0.756c0.084-0.228,0.209-0.412,0.373-0.555
		c0.162-0.142,0.386-0.212,0.67-0.212c0.171,0,0.32,0.024,0.447,0.074c0.128,0.05,0.271,0.103,0.427,0.159s0.344,0.109,0.564,0.16
		c0.22,0.051,0.5,0.074,0.841,0.074c0.909,0,1.828-0.199,2.757-0.597c0.93-0.397,1.768-0.959,2.514-1.683
		c0.745-0.725,1.356-1.588,1.832-2.588c0.476-1.002,0.713-2.104,0.713-3.312c0-0.64-0.085-1.246-0.256-1.819
		c-0.171-0.576-0.447-1.08-0.831-1.513c-0.383-0.435-0.877-0.782-1.48-1.044c-0.604-0.266-1.338-0.396-2.204-0.396
		c-1.022,0-2.02,0.225-2.993,0.672s-1.906,1.056-2.8,1.822c-0.895,0.767-1.743,1.674-2.546,2.726
		c-0.801,1.051-1.544,2.177-2.225,3.375c-0.682,1.2-1.296,2.45-1.843,3.749s-1.011,2.595-1.395,3.888
		c-0.383,1.292-0.679,2.544-0.884,3.759c-0.206,1.213-0.309,2.331-0.309,3.354c0,1.462,0.181,2.735,0.542,3.823
		c0.363,1.086,0.877,1.99,1.544,2.716c0.667,0.723,1.485,1.263,2.45,1.617c0.965,0.354,2.051,0.532,3.258,0.532
		c1.506,0,2.908-0.188,4.207-0.563c1.3-0.376,2.538-0.87,3.716-1.48c1.179-0.609,2.318-1.299,3.418-2.064
		c1.102-0.768,2.201-1.537,3.302-2.312c1.1-0.772,2.222-1.511,3.364-2.215c1.143-0.702,2.353-1.295,3.631-1.777L40.657,316.555
		L40.657,316.555z"/>
	<path fill="#4C4C4C" d="M49.516,307.801c0.412,0.823,0.721,1.692,0.927,2.608s0.309,1.793,0.309,2.631
		c0,0.839-0.093,1.683-0.277,2.534c-0.185,0.852-0.451,1.676-0.799,2.471c-0.348,0.795-0.773,1.541-1.278,2.236
		c-0.504,0.694-1.079,1.299-1.725,1.811c-0.646,0.511-1.353,0.915-2.12,1.213c-0.767,0.301-1.583,0.448-2.449,0.448
		c-1.249,0-2.318-0.272-3.205-0.819c-0.888-0.547-1.615-1.261-2.183-2.141c-0.568-0.881-0.983-1.875-1.246-2.982
		c-0.263-1.106-0.394-2.229-0.394-3.363c0-1.562,0.234-3.021,0.703-4.377c0.468-1.356,1.139-2.534,2.012-3.536
		c0.874-1.001,1.942-1.789,3.206-2.363c1.263-0.575,2.684-0.862,4.259-0.862c1.35,0,2.613,0.209,3.792,0.629
		c1.179,0.418,2.283,0.979,3.312,1.683c1.029,0.702,1.987,1.508,2.875,2.417c0.888,0.909,1.715,1.846,2.482,2.812l-0.404,3.002
		c-0.383-0.511-0.902-1.062-1.556-1.66c-0.652-0.597-1.345-1.178-2.076-1.746c-0.731-0.566-1.452-1.104-2.162-1.607
		c-0.71-0.504-1.32-0.927-1.832-1.269L49.516,307.801z M42.935,319.663c0.483,0,0.951-0.245,1.406-0.734
		c0.455-0.488,0.852-1.106,1.193-1.854c0.34-0.746,0.614-1.568,0.819-2.47c0.206-0.9,0.309-1.766,0.309-2.589
		c0-0.652-0.049-1.26-0.148-1.819c-0.099-0.561-0.248-1.048-0.447-1.459c-0.199-0.412-0.455-0.738-0.767-0.979
		s-0.689-0.362-1.129-0.362c-0.581,0-1.135,0.248-1.66,0.746c-0.526,0.496-0.988,1.132-1.385,1.904
		c-0.396,0.775-0.71,1.629-0.937,2.567c-0.227,0.938-0.341,1.838-0.341,2.705c0,0.595,0.057,1.156,0.171,1.682
		c0.113,0.525,0.291,0.984,0.532,1.373c0.243,0.393,0.561,0.705,0.958,0.938C41.905,319.545,42.382,319.663,42.935,319.663z"/>
	<path fill="#4C4C4C" d="M79.057,319.578c-1.009,0.78-2.003,1.478-2.982,2.087c-0.412,0.256-0.844,0.508-1.299,0.758
		c-0.455,0.246-0.902,0.466-1.342,0.659c-0.44,0.19-0.87,0.348-1.289,0.469c-0.419,0.12-0.806,0.182-1.161,0.182
		c-0.199,0-0.494-0.043-0.884-0.127c-0.391-0.087-0.816-0.262-1.277-0.522c-0.462-0.263-0.924-0.643-1.385-1.139
		c-0.461-0.498-0.862-1.157-1.203-1.981c-0.525,0.511-1.083,0.998-1.672,1.459s-1.2,0.862-1.832,1.202
		c-0.631,0.342-1.271,0.614-1.917,0.82c-0.646,0.207-1.296,0.31-1.948,0.31c-0.923,0-1.722-0.199-2.396-0.598
		c-0.674-0.396-1.236-0.926-1.682-1.586c-0.447-0.66-0.781-1.409-1.001-2.247c-0.221-0.837-0.331-1.704-0.331-2.599
		c0-0.907,0.117-1.827,0.351-2.758c0.235-0.931,0.575-1.831,1.022-2.705c0.447-0.873,0.991-1.696,1.63-2.471
		c0.638-0.773,1.363-1.462,2.171-2.065c0.81-0.604,1.69-1.104,2.641-1.501s1.966-0.646,3.046-0.746
		c0.042-1.816,0.205-3.611,0.489-5.389c0.284-1.773,0.66-3.463,1.129-5.068c0.468-1.604,1.019-3.088,1.65-4.451
		c0.632-1.362,1.324-2.54,2.077-3.535c0.752-0.992,1.555-1.77,2.407-2.331s1.731-0.841,2.641-0.841c0.667,0,1.235,0.173,1.705,0.521
		c0.468,0.349,0.847,0.812,1.138,1.386c0.292,0.576,0.501,1.242,0.628,2.002c0.128,0.758,0.192,1.545,0.192,2.354
		c0,0.497-0.021,1.008-0.064,1.534c-0.184,2.001-0.526,3.894-1.022,5.675c-0.497,1.782-1.079,3.518-1.746,5.207
		s-1.393,3.365-2.172,5.027c-0.78,1.66-1.541,3.386-2.279,5.175c-0.071,0.199-0.142,0.439-0.213,0.724
		c-0.07,0.284-0.138,0.593-0.202,0.926c-0.064,0.335-0.117,0.676-0.16,1.022c-0.042,0.348-0.064,0.686-0.064,1.012
		c0,0.412,0.024,0.804,0.075,1.172c0.049,0.37,0.131,0.699,0.245,0.99c0.113,0.291,0.266,0.521,0.458,0.692
		c0.192,0.17,0.43,0.256,0.713,0.256c0.269,0,0.564-0.054,0.884-0.161c0.319-0.105,0.656-0.251,1.01-0.437
		c0.355-0.185,0.714-0.394,1.076-0.628c0.362-0.234,0.713-0.472,1.055-0.714c0.78-0.566,1.596-1.214,2.449-1.938L79.057,319.578z
		 M64.403,307.651c-0.938,0.455-1.771,1.055-2.502,1.801c-0.731,0.745-1.342,1.552-1.831,2.417
		c-0.491,0.865-0.864,1.739-1.119,2.618c-0.256,0.881-0.383,1.677-0.383,2.386c0,0.285,0.033,0.569,0.096,0.853
		c0.064,0.284,0.181,0.54,0.351,0.768c0.171,0.227,0.412,0.412,0.724,0.554c0.312,0.143,0.718,0.213,1.214,0.213
		c0.256,0,0.508-0.063,0.756-0.191c0.249-0.127,0.486-0.294,0.713-0.499c0.228-0.207,0.444-0.439,0.649-0.704
		c0.207-0.263,0.394-0.535,0.565-0.819c0.397-0.653,0.759-1.392,1.086-2.215c-0.043-0.198-0.079-0.515-0.107-0.948
		c-0.028-0.432-0.049-0.916-0.064-1.448c-0.014-0.53-0.028-1.081-0.042-1.65c-0.015-0.567-0.025-1.085-0.033-1.556
		c-0.007-0.467-0.018-0.851-0.031-1.148C64.432,307.779,64.417,307.637,64.403,307.651z M74.413,292.212
		c0.086-0.994,0.128-1.782,0.128-2.364c0-0.767-0.067-1.3-0.202-1.598c-0.135-0.299-0.33-0.447-0.585-0.447
		c-0.455,0-0.866,0.287-1.235,0.863c-0.37,0.574-0.696,1.311-0.98,2.203c-0.285,0.895-0.533,1.883-0.746,2.96
		c-0.213,1.08-0.391,2.124-0.532,3.132c-0.142,1.008-0.256,1.917-0.34,2.727c-0.086,0.809-0.142,1.385-0.17,1.725
		c-0.057,0.695-0.104,1.367-0.139,2.014c-0.036,0.646-0.061,1.235-0.075,1.768c-0.014,0.533-0.021,0.998-0.021,1.396
		s0,0.701,0,0.915v0.213c0.81-1.846,1.554-3.685,2.236-5.516c0.284-0.781,0.572-1.602,0.862-2.46
		c0.291-0.859,0.557-1.722,0.799-2.589c0.241-0.865,0.45-1.717,0.628-2.557C74.218,293.759,74.341,292.964,74.413,292.212z"/>
	<path fill="#4C4C4C" d="M85.062,323.753c-1.334,0-2.502-0.242-3.503-0.725s-1.835-1.132-2.502-1.949
		c-0.667-0.815-1.168-1.76-1.501-2.833c-0.334-1.069-0.5-2.196-0.5-3.375c0-0.795,0.078-1.636,0.233-2.523
		c0.156-0.887,0.395-1.757,0.713-2.608c0.32-0.852,0.721-1.663,1.204-2.438c0.483-0.772,1.048-1.453,1.693-2.045
		c0.646-0.588,1.37-1.057,2.172-1.404c0.803-0.348,1.694-0.522,2.674-0.522c0.795,0,1.534,0.128,2.214,0.384
		c0.682,0.256,1.275,0.615,1.779,1.077c0.504,0.46,0.898,1.019,1.182,1.672c0.284,0.653,0.426,1.384,0.426,2.193
		c0,0.88-0.217,1.76-0.649,2.64c-0.434,0.882-1.033,1.712-1.8,2.492c-0.767,0.781-1.679,1.478-2.737,2.088
		c-1.058,0.61-2.204,1.086-3.439,1.427c0.212,0.383,0.422,0.702,0.629,0.958c0.205,0.255,0.415,0.454,0.627,0.597
		c0.214,0.143,0.437,0.241,0.672,0.299c0.233,0.058,0.486,0.085,0.755,0.085c0.853,0,1.75-0.171,2.694-0.513
		c0.944-0.341,1.863-0.767,2.758-1.276c0.895-0.512,1.739-1.068,2.535-1.672c0.794-0.604,1.469-1.176,2.023-1.714l2.748,2.854
		c-1.25,1.293-2.577,2.437-3.983,3.429c-0.61,0.427-1.268,0.846-1.97,1.258c-0.703,0.411-1.441,0.775-2.215,1.098
		c-0.774,0.316-1.576,0.573-2.407,0.767C86.755,323.656,85.914,323.753,85.062,323.753z M82.229,313.743
		c0.511,0,1.068-0.131,1.672-0.396c0.603-0.262,1.164-0.6,1.683-1.012c0.518-0.411,0.955-0.857,1.31-1.342
		c0.354-0.482,0.532-0.951,0.532-1.405c0-0.64-0.118-1.164-0.352-1.575c-0.234-0.413-0.522-0.617-0.863-0.617
		c-0.61,0-1.132,0.111-1.564,0.341c-0.434,0.227-0.796,0.521-1.086,0.884c-0.292,0.361-0.526,0.773-0.703,1.235
		c-0.178,0.46-0.312,0.925-0.404,1.395c-0.093,0.469-0.153,0.924-0.181,1.363C82.244,313.055,82.229,313.43,82.229,313.743z"/>
	<path fill="#4C4C4C" d="M123.952,318.981c-1.364,0.796-2.577,1.49-3.643,2.088c-1.065,0.596-2.012,1.094-2.843,1.49
		s-1.569,0.695-2.216,0.896c-0.645,0.199-1.232,0.298-1.756,0.298c-1.079,0-2.03-0.327-2.854-0.979
		c-0.823-0.653-1.512-1.595-2.065-2.823c-0.554-1.229-0.969-2.714-1.247-4.461c-0.277-1.746-0.415-3.712-0.415-5.899
		c0-0.852,0.036-1.76,0.107-2.726c0.07-0.967,0.17-1.924,0.298-2.877c-0.426-0.057-0.756-0.108-0.99-0.158
		c-0.235-0.051-0.483-0.1-0.746-0.148c-0.263-0.05-0.596-0.104-1-0.16c-0.405-0.057-0.991-0.127-1.758-0.213
		c-0.34-0.043-0.603-0.125-0.788-0.246c-0.184-0.119-0.319-0.263-0.404-0.426c-0.085-0.162-0.135-0.332-0.149-0.511
		c-0.015-0.178-0.022-0.33-0.022-0.458c0-0.283,0.138-0.5,0.416-0.648c0.276-0.149,0.631-0.258,1.064-0.33
		c0.434-0.07,0.908-0.109,1.427-0.117c0.518-0.008,1.015-0.004,1.491,0.011s0.901,0.024,1.277,0.032
		c0.376,0.008,0.635-0.004,0.777-0.032c0.384-1.917,0.871-3.772,1.459-5.567c0.588-1.798,1.25-3.396,1.981-4.793
		c0.731-1.398,1.529-2.52,2.396-3.365c0.866-0.846,1.774-1.268,2.726-1.268c0.611,0,1.168,0.17,1.672,0.512
		c0.504,0.34,0.935,0.795,1.289,1.362c0.355,0.567,0.628,1.231,0.82,1.991c0.192,0.759,0.289,1.552,0.289,2.375
		c0,0.695-0.1,1.432-0.299,2.203c-0.199,0.775-0.468,1.562-0.81,2.365c-0.341,0.803-0.742,1.613-1.203,2.438
		c-0.462,0.824-0.948,1.641-1.459,2.449c0.127,0.014,0.34,0.025,0.639,0.033c0.299,0.007,0.642,0.017,1.033,0.031
		c0.391,0.015,0.813,0.031,1.268,0.053c0.454,0.021,0.895,0.039,1.319,0.055c0.427,0.016,0.824,0.027,1.193,0.041
		c0.369,0.016,0.674,0.029,0.916,0.043c0.284,0.014,0.49,0.156,0.618,0.427c0.128,0.269,0.192,0.609,0.192,1.022
		c0,0.496-0.143,0.9-0.427,1.213c-0.284,0.312-0.596,0.47-0.937,0.47h-8.179c-0.412,0.567-0.826,1.124-1.245,1.671
		s-0.806,1.039-1.161,1.479c-0.057,0.882-0.107,1.747-0.149,2.6c-0.015,0.369-0.029,0.749-0.043,1.139
		c-0.015,0.392-0.028,0.777-0.043,1.161c-0.014,0.384-0.024,0.753-0.031,1.107c-0.007,0.354-0.011,0.682-0.011,0.979
		c0,0.768,0.07,1.413,0.213,1.938c0.141,0.524,0.348,0.954,0.618,1.288s0.6,0.575,0.99,0.724c0.391,0.148,0.826,0.225,1.309,0.225
		c0.299,0,0.672-0.07,1.119-0.214c0.447-0.141,0.937-0.337,1.47-0.584c0.532-0.25,1.092-0.544,1.682-0.885
		c0.589-0.341,1.171-0.715,1.746-1.119c0.575-0.403,1.125-0.829,1.65-1.276c0.525-0.446,1.001-0.905,1.428-1.374L123.952,318.981
		L123.952,318.981z M117.137,292.02c0-0.156-0.01-0.33-0.033-0.521c-0.021-0.192-0.067-0.373-0.138-0.544
		c-0.071-0.169-0.181-0.312-0.33-0.426c-0.148-0.113-0.358-0.172-0.628-0.172c-0.369,0-0.742,0.328-1.118,0.98
		c-0.376,0.653-0.738,1.487-1.086,2.503c-0.348,1.015-0.675,2.134-0.979,3.354c-0.306,1.221-0.586,2.406-0.842,3.555
		c0.213,0.029,0.426,0.055,0.639,0.076s0.433,0.046,0.66,0.074c0.425-0.725,0.87-1.508,1.331-2.354
		c0.461-0.845,0.876-1.674,1.246-2.491c0.369-0.816,0.673-1.578,0.916-2.289C117.015,293.057,117.137,292.475,117.137,292.02z"/>
	<path fill="#4C4C4C" d="M130.638,310.505c0.583-0.767,1.236-1.59,1.96-2.47c0.724-0.88,1.476-1.7,2.257-2.46
		c0.78-0.761,1.558-1.392,2.332-1.896c0.773-0.505,1.502-0.758,2.183-0.758c0.17,0,0.362,0.033,0.575,0.098
		c0.212,0.063,0.416,0.18,0.606,0.353c0.192,0.169,0.352,0.407,0.479,0.712c0.128,0.307,0.192,0.699,0.192,1.184
		c0,0.965-0.135,1.904-0.404,2.82c-0.27,0.916-0.564,1.832-0.884,2.748c-0.319,0.916-0.61,1.85-0.873,2.801
		s-0.394,1.944-0.394,2.981c0,0.567,0.086,1.021,0.256,1.363c0.17,0.341,0.39,0.511,0.66,0.511c0.341,0,0.703-0.071,1.086-0.213
		c0.383-0.143,0.767-0.326,1.15-0.555c0.384-0.228,0.76-0.485,1.129-0.777c0.369-0.291,0.717-0.592,1.044-0.904
		c0.78-0.724,1.547-1.547,2.3-2.471l0.361,5.665c-0.256,0.198-0.578,0.447-0.969,0.746c-0.391,0.298-0.823,0.613-1.299,0.946
		c-0.475,0.334-0.99,0.671-1.544,1.014c-0.554,0.34-1.111,0.643-1.672,0.903c-0.561,0.265-1.122,0.479-1.683,0.649
		s-1.097,0.256-1.608,0.256c-0.781,0-1.459-0.21-2.034-0.629c-0.575-0.419-1.047-0.951-1.417-1.597
		c-0.369-0.646-0.646-1.354-0.831-2.12c-0.185-0.768-0.276-1.489-0.276-2.171c0-0.455,0.061-0.963,0.181-1.524
		c0.121-0.56,0.27-1.124,0.447-1.691c0.177-0.567,0.376-1.122,0.596-1.661c0.22-0.54,0.426-1.022,0.618-1.449
		c0.191-0.425,0.358-0.772,0.5-1.043c0.141-0.27,0.233-0.425,0.276-0.468l-0.447-0.064c-0.242,0.157-0.649,0.553-1.225,1.191
		c-0.575,0.64-1.224,1.446-1.948,2.419c-0.725,0.972-1.474,2.064-2.247,3.278c-0.774,1.216-1.474,2.468-2.099,3.761
		c-0.312,0.639-0.567,1.195-0.767,1.672c-0.2,0.476-0.394,0.865-0.585,1.171c-0.192,0.306-0.401,0.536-0.629,0.691
		c-0.227,0.156-0.519,0.234-0.873,0.234c-0.468,0-0.838-0.135-1.107-0.404c-0.27-0.271-0.477-0.629-0.618-1.075
		c-0.142-0.447-0.234-0.955-0.276-1.522c-0.043-0.567-0.064-1.15-0.064-1.746c0-0.951,0.011-2.198,0.032-3.738
		c0.022-1.54,0.089-3.248,0.202-5.123c0.114-1.872,0.277-3.846,0.49-5.92c0.213-2.072,0.515-4.121,0.905-6.145
		c0.391-2.021,0.88-3.954,1.47-5.792c0.589-1.839,1.306-3.458,2.151-4.854c0.846-1.399,1.835-2.512,2.971-3.334
		c1.137-0.824,2.442-1.234,3.919-1.234c0.767,0,1.395,0.113,1.886,0.34c0.489,0.229,0.879,0.547,1.171,0.959
		c0.29,0.411,0.493,0.904,0.607,1.479c0.114,0.575,0.17,1.219,0.17,1.928c0,1.052-0.149,2.216-0.447,3.494
		c-0.298,1.276-0.693,2.604-1.182,3.981c-0.49,1.377-1.048,2.772-1.672,4.185c-0.625,1.414-1.265,2.783-1.917,4.11
		c-0.654,1.328-1.296,2.58-1.927,3.76c-0.632,1.179-1.19,2.216-1.672,3.109L130.638,310.505z M132.535,297.346
		c0.838-2.174,1.444-4.006,1.82-5.496c0.376-1.492,0.564-2.592,0.564-3.302c0-1.079-0.142-1.618-0.426-1.618
		c-0.369,0-0.916,0.604-1.639,1.812c-0.724,1.206-1.577,2.96-2.556,5.261c-0.241,0.78-0.465,1.59-0.67,2.428
		c-0.207,0.838-0.391,1.672-0.555,2.502c-0.163,0.832-0.312,1.647-0.447,2.449c-0.135,0.803-0.252,1.565-0.351,2.289
		c-0.242,1.689-0.426,3.344-0.554,4.963c0.383-0.895,0.802-1.868,1.257-2.918c0.454-1.051,0.901-2.09,1.342-3.119
		c0.439-1.029,0.855-2.002,1.246-2.918C131.957,298.76,132.279,297.982,132.535,297.346z"/>
	<path fill="#4C4C4C" d="M152.319,323.753c-1.335,0-2.503-0.242-3.503-0.725c-1.001-0.482-1.835-1.132-2.502-1.949
		c-0.667-0.815-1.168-1.76-1.501-2.833c-0.334-1.069-0.5-2.196-0.5-3.375c0-0.795,0.078-1.636,0.233-2.523
		c0.156-0.887,0.395-1.757,0.713-2.608c0.319-0.852,0.721-1.663,1.204-2.438c0.483-0.772,1.048-1.453,1.693-2.045
		c0.646-0.588,1.37-1.057,2.172-1.404c0.803-0.348,1.694-0.522,2.673-0.522c0.795,0,1.534,0.128,2.215,0.384
		c0.682,0.256,1.275,0.615,1.778,1.077c0.504,0.46,0.898,1.019,1.182,1.672c0.284,0.653,0.426,1.384,0.426,2.193
		c0,0.88-0.217,1.76-0.65,2.64c-0.433,0.882-1.033,1.712-1.799,2.492c-0.767,0.781-1.679,1.478-2.737,2.088
		s-2.205,1.086-3.439,1.427c0.212,0.383,0.422,0.702,0.628,0.958c0.205,0.255,0.415,0.454,0.628,0.597s0.437,0.241,0.671,0.299
		c0.234,0.058,0.486,0.085,0.755,0.085c0.853,0,1.75-0.171,2.694-0.513c0.945-0.341,1.864-0.767,2.758-1.276
		c0.895-0.512,1.739-1.068,2.535-1.672c0.794-0.604,1.469-1.176,2.023-1.714l2.748,2.854c-1.25,1.293-2.577,2.437-3.983,3.429
		c-0.611,0.427-1.268,0.846-1.97,1.258c-0.703,0.411-1.442,0.775-2.215,1.098c-0.774,0.316-1.576,0.573-2.407,0.767
		C154.012,323.656,153.171,323.753,152.319,323.753z M149.487,313.743c0.511,0,1.068-0.131,1.672-0.396
		c0.604-0.262,1.164-0.6,1.683-1.012c0.518-0.411,0.955-0.857,1.31-1.342c0.354-0.482,0.532-0.951,0.532-1.405
		c0-0.64-0.117-1.164-0.352-1.575c-0.233-0.413-0.521-0.617-0.862-0.617c-0.61,0-1.132,0.111-1.565,0.341
		c-0.433,0.227-0.796,0.521-1.086,0.884c-0.292,0.361-0.526,0.773-0.703,1.235c-0.178,0.46-0.312,0.925-0.404,1.395
		c-0.093,0.469-0.153,0.924-0.181,1.363C149.501,313.055,149.487,313.43,149.487,313.743z"/>
	<path fill="#4C4C4C" d="M184.69,297.939c0,0.028-0.007,0.127-0.021,0.299c-0.015,0.17-0.092,0.354-0.235,0.554
		c-0.141,0.199-0.372,0.377-0.691,0.532c-0.319,0.156-0.785,0.234-1.396,0.234c-0.823,0-1.467-0.047-1.927-0.14
		c-0.462-0.092-0.803-0.22-1.022-0.384c-0.22-0.163-0.355-0.348-0.404-0.553c-0.051-0.207-0.075-0.416-0.075-0.629
		c0-2.115,0.532-3.931,1.597-5.44c1.065-1.513,2.558-2.751,4.483-3.718c1.924-0.965,4.231-1.676,6.922-2.129
		c2.69-0.455,5.661-0.683,8.913-0.683c2.158,0,4.419,0.071,6.784,0.214c2.364,0.141,4.802,0.391,7.315,0.744
		c0.724,0.199,1.225,0.483,1.501,0.854c0.277,0.369,0.416,0.76,0.416,1.172c0,0.27-0.04,0.553-0.117,0.852
		c-0.078,0.299-0.195,0.575-0.351,0.83c-0.157,0.256-0.366,0.465-0.629,0.628c-0.263,0.164-0.572,0.246-0.926,0.246
		c-0.058,0-0.117-0.005-0.181-0.011c-0.064-0.008-0.132-0.018-0.202-0.033c-0.924-0.154-1.924-0.294-3.003-0.416
		c-1.079-0.118-2.208-0.22-3.387-0.297c-1.178-0.077-2.396-0.134-3.652-0.169c-1.257-0.036-2.532-0.056-3.824-0.056
		c-0.383,0-0.841,0.021-1.373,0.064c-0.532,0.042-1.047,0.092-1.544,0.148c-0.568,0.058-1.158,0.129-1.769,0.213
		c0,0.156-0.013,0.334-0.042,0.533c-0.03,0.199-0.071,0.476-0.128,0.83c-0.058,0.354-0.125,0.81-0.203,1.362
		c-0.078,0.554-0.175,1.267-0.288,2.142c-0.114,0.871-0.241,1.926-0.383,3.162c-0.142,1.233-0.298,2.705-0.468,4.407h11.82
		c0.34,0,0.603,0.068,0.788,0.203c0.184,0.136,0.319,0.306,0.405,0.511c0.084,0.207,0.135,0.428,0.148,0.66
		c0.015,0.234,0.022,0.459,0.022,0.672c0,0.681-0.15,1.19-0.447,1.532c-0.298,0.342-0.604,0.512-0.916,0.512
		c-0.1,0-0.427,0.012-0.98,0.031c-0.553,0.021-1.228,0.046-2.023,0.075c-0.795,0.028-1.669,0.061-2.62,0.096
		c-0.951,0.035-1.871,0.068-2.758,0.096c-0.887,0.028-1.696,0.055-2.427,0.074c-0.732,0.022-1.282,0.032-1.651,0.032
		c-0.255,1.718-0.547,3.373-0.874,4.963c-0.327,1.59-0.734,3.076-1.225,4.461c-0.489,1.386-1.068,2.646-1.736,3.781
		c-0.667,1.135-1.462,2.108-2.385,2.916c-0.923,0.81-1.987,1.439-3.194,1.886c-1.207,0.448-2.592,0.671-4.153,0.671
		c-0.327,0-0.717-0.021-1.171-0.062c-0.455-0.044-0.93-0.115-1.427-0.213c-0.497-0.102-0.99-0.231-1.48-0.396
		c-0.49-0.164-0.927-0.365-1.309-0.606c-0.383-0.24-0.696-0.521-0.938-0.84c-0.242-0.321-0.362-0.687-0.362-1.099
		c0-0.213,0.046-0.492,0.138-0.84c0.092-0.349,0.234-0.687,0.426-1.013c0.192-0.326,0.433-0.61,0.725-0.854
		c0.291-0.239,0.642-0.361,1.054-0.361c0.469,0,0.962,0.078,1.48,0.233c0.518,0.157,1.054,0.331,1.608,0.521
		c0.553,0.192,1.121,0.365,1.704,0.521s1.171,0.234,1.768,0.234c0.468,0,0.923-0.188,1.363-0.563
		c0.44-0.378,0.854-0.895,1.246-1.555c0.391-0.661,0.764-1.436,1.119-2.321c0.354-0.889,0.688-1.846,1-2.877
		c0.312-1.027,0.603-2.104,0.874-3.227c0.269-1.121,0.518-2.242,0.745-3.364h-2.619c-0.242,0-0.54-0.028-0.895-0.085
		c-0.355-0.056-0.697-0.152-1.022-0.288c-0.327-0.135-0.603-0.313-0.831-0.543c-0.228-0.226-0.34-0.511-0.34-0.853
		c0-0.241,0.063-0.467,0.192-0.682c0.127-0.212,0.34-0.369,0.637-0.468c0.795-0.172,1.492-0.319,2.088-0.448
		c0.596-0.127,1.125-0.236,1.587-0.328c0.46-0.094,0.869-0.176,1.225-0.246c0.354-0.069,0.681-0.129,0.979-0.172
		c0.34-1.519,0.61-2.838,0.809-3.959c0.199-1.123,0.37-2.142,0.511-3.057c0.142-0.917,0.277-1.777,0.405-2.589
		c0.128-0.81,0.276-1.668,0.447-2.577c-1.236,0.355-2.308,0.781-3.216,1.278c-0.91,0.497-1.662,1.03-2.257,1.598
		c-0.598,0.567-1.038,1.156-1.321,1.767C184.833,296.762,184.69,297.357,184.69,297.939z"/>
	<path fill="#4C4C4C" d="M218.725,304.691c0,0.384-0.042,0.904-0.127,1.564s-0.196,1.385-0.33,2.173
		c-0.135,0.787-0.28,1.601-0.437,2.438c-0.156,0.839-0.302,1.619-0.437,2.343c-0.135,0.725-0.245,1.36-0.33,1.907
		s-0.128,0.926-0.128,1.139c0,0.397,0.007,0.764,0.021,1.096c0.014,0.334,0.056,0.625,0.127,0.874c0.071,0.25,0.182,0.44,0.33,0.576
		c0.149,0.136,0.366,0.202,0.65,0.202c0.312,0,0.691-0.079,1.139-0.235c0.447-0.154,0.923-0.363,1.427-0.628
		c0.504-0.263,1.02-0.56,1.544-0.895c0.526-0.334,1.025-0.686,1.502-1.055c0.476-0.369,0.908-0.734,1.299-1.097
		c0.391-0.361,0.706-0.7,0.948-1.012c0,0.468,0.003,0.896,0.01,1.277c0.006,0.384,0.011,0.748,0.011,1.096
		c0,0.349,0.003,0.708,0.01,1.077c0.007,0.368,0.01,0.78,0.01,1.233c-0.312,0.313-0.698,0.647-1.161,1.003
		c-0.46,0.354-0.972,0.709-1.534,1.062c-0.56,0.355-1.156,0.697-1.788,1.022c-0.632,0.326-1.267,0.613-1.906,0.862
		c-0.639,0.25-1.271,0.447-1.895,0.598c-0.625,0.148-1.208,0.223-1.747,0.223c-0.54,0-1.001-0.106-1.384-0.318
		c-0.383-0.214-0.713-0.511-0.99-0.895c-0.278-0.383-0.511-0.842-0.703-1.375c-0.192-0.532-0.359-1.124-0.501-1.777
		c-0.511,0.667-1.051,1.281-1.618,1.843c-0.569,0.562-1.147,1.046-1.736,1.458c-0.59,0.412-1.186,0.735-1.789,0.97
		c-0.604,0.234-1.189,0.352-1.757,0.352c-0.469,0-0.909-0.078-1.321-0.234c-0.412-0.154-0.777-0.418-1.097-0.786
		c-0.319-0.37-0.572-0.856-0.756-1.46c-0.184-0.604-0.276-1.353-0.276-2.247c0-1.094,0.131-2.483,0.394-4.175
		c0.263-1.688,0.585-3.62,0.969-5.793c0.028-0.212,0.082-0.501,0.16-0.861c0.078-0.361,0.185-0.756,0.319-1.184
		c0.134-0.426,0.302-0.858,0.5-1.299c0.199-0.44,0.434-0.838,0.703-1.192c0.271-0.354,0.586-0.645,0.948-0.873
		c0.363-0.227,0.77-0.349,1.225-0.362c0.752,0.03,1.292,0.126,1.618,0.288c0.327,0.164,0.491,0.365,0.491,0.605
		c-0.128,0.754-0.266,1.592-0.417,2.516c-0.148,0.924-0.301,1.852-0.458,2.79c-0.156,0.938-0.305,1.849-0.447,2.736
		c-0.141,0.887-0.269,1.678-0.383,2.374c-0.113,0.695-0.202,1.256-0.266,1.683s-0.095,0.646-0.095,0.661
		c0,0.256,0.024,0.499,0.074,0.733c0.049,0.234,0.124,0.443,0.223,0.628c0.1,0.187,0.227,0.334,0.383,0.447
		c0.156,0.114,0.342,0.171,0.554,0.171c0.312,0,0.632-0.081,0.958-0.245c0.327-0.163,0.635-0.396,0.926-0.703
		c0.292-0.304,0.55-0.682,0.777-1.127c0.228-0.449,0.398-0.956,0.511-1.523l2.109-10.818c0.071-0.342,0.358-0.629,0.862-0.863
		s1.076-0.353,1.714-0.353c0.724,0,1.299,0.128,1.726,0.384C218.51,303.967,218.725,304.293,218.725,304.691z"/>
	<path fill="#4C4C4C" d="M241.002,318.981c-1.364,0.796-2.577,1.49-3.643,2.088c-1.065,0.596-2.011,1.094-2.843,1.49
		c-0.831,0.396-1.569,0.695-2.216,0.896c-0.645,0.199-1.231,0.298-1.756,0.298c-1.08,0-2.031-0.327-2.854-0.979
		c-0.823-0.653-1.513-1.595-2.066-2.823c-0.554-1.229-0.969-2.714-1.246-4.461c-0.277-1.746-0.415-3.712-0.415-5.899
		c0-0.852,0.036-1.76,0.107-2.726c0.07-0.967,0.169-1.924,0.297-2.877c-0.425-0.057-0.756-0.108-0.99-0.158
		c-0.234-0.051-0.483-0.1-0.746-0.148c-0.263-0.05-0.596-0.104-1-0.16c-0.405-0.057-0.991-0.127-1.758-0.213
		c-0.34-0.043-0.604-0.125-0.788-0.246c-0.184-0.119-0.319-0.263-0.404-0.426c-0.085-0.162-0.135-0.332-0.149-0.511
		c-0.015-0.178-0.022-0.33-0.022-0.458c0-0.283,0.138-0.5,0.416-0.648c0.276-0.149,0.632-0.258,1.064-0.33
		c0.434-0.07,0.909-0.109,1.427-0.117c0.519-0.008,1.015-0.004,1.492,0.011c0.476,0.015,0.9,0.024,1.276,0.032
		s0.636-0.004,0.778-0.032c0.383-1.917,0.87-3.772,1.459-5.567c0.589-1.798,1.25-3.396,1.981-4.793
		c0.731-1.398,1.529-2.52,2.396-3.365c0.866-0.846,1.773-1.268,2.724-1.268c0.611,0,1.169,0.17,1.672,0.512
		c0.503,0.34,0.936,0.795,1.288,1.362c0.355,0.567,0.629,1.231,0.82,1.991c0.192,0.759,0.289,1.552,0.289,2.375
		c0,0.695-0.1,1.432-0.299,2.203c-0.199,0.775-0.468,1.562-0.811,2.365c-0.34,0.803-0.741,1.613-1.202,2.438
		c-0.463,0.824-0.948,1.641-1.459,2.449c0.128,0.014,0.341,0.025,0.639,0.033c0.298,0.007,0.642,0.017,1.033,0.031
		c0.39,0.015,0.812,0.031,1.267,0.053c0.453,0.021,0.895,0.039,1.32,0.055c0.427,0.016,0.823,0.027,1.194,0.041
		c0.368,0.016,0.673,0.029,0.915,0.043c0.284,0.014,0.49,0.156,0.618,0.427c0.127,0.269,0.191,0.609,0.191,1.022
		c0,0.496-0.143,0.9-0.427,1.213c-0.284,0.312-0.596,0.47-0.938,0.47h-8.177c-0.412,0.567-0.827,1.124-1.247,1.671
		c-0.418,0.547-0.805,1.039-1.161,1.479c-0.055,0.882-0.106,1.747-0.148,2.6c-0.014,0.369-0.029,0.749-0.042,1.139
		c-0.015,0.392-0.029,0.777-0.042,1.161c-0.014,0.384-0.024,0.753-0.032,1.107c-0.007,0.354-0.01,0.682-0.01,0.979
		c0,0.768,0.069,1.413,0.212,1.938c0.142,0.524,0.349,0.954,0.618,1.288s0.599,0.575,0.991,0.724
		c0.39,0.148,0.826,0.225,1.309,0.225c0.298,0,0.671-0.07,1.119-0.214c0.448-0.141,0.937-0.337,1.47-0.584
		c0.532-0.25,1.092-0.544,1.682-0.885c0.588-0.341,1.171-0.715,1.746-1.119c0.576-0.403,1.125-0.829,1.65-1.276
		c0.525-0.446,1.001-0.905,1.428-1.374v5.45H241.002z M234.187,292.02c0-0.156-0.011-0.33-0.033-0.521
		c-0.021-0.192-0.066-0.373-0.138-0.544c-0.071-0.169-0.183-0.312-0.331-0.426s-0.358-0.172-0.628-0.172
		c-0.369,0-0.741,0.328-1.118,0.98c-0.377,0.653-0.739,1.487-1.086,2.503c-0.349,1.015-0.676,2.134-0.981,3.354
		c-0.305,1.221-0.584,2.406-0.84,3.555c0.212,0.029,0.425,0.055,0.638,0.076s0.433,0.046,0.66,0.074
		c0.426-0.725,0.87-1.508,1.332-2.354c0.461-0.845,0.875-1.674,1.246-2.491c0.369-0.816,0.674-1.578,0.916-2.289
		C234.065,293.057,234.187,292.475,234.187,292.02z"/>
	<path fill="#4C4C4C" d="M256.271,304.691c0,0.384-0.043,0.904-0.127,1.564c-0.086,0.66-0.195,1.385-0.33,2.173
		c-0.135,0.787-0.281,1.601-0.438,2.438c-0.155,0.839-0.302,1.619-0.437,2.343c-0.135,0.725-0.246,1.36-0.33,1.907
		s-0.129,0.926-0.129,1.139c0,0.397,0.008,0.764,0.021,1.096c0.016,0.334,0.057,0.625,0.127,0.874c0.071,0.25,0.182,0.44,0.33,0.576
		s0.366,0.202,0.65,0.202c0.312,0,0.691-0.079,1.139-0.235c0.447-0.154,0.924-0.363,1.428-0.628c0.504-0.263,1.02-0.56,1.544-0.895
		c0.526-0.334,1.025-0.686,1.503-1.055c0.476-0.369,0.907-0.734,1.299-1.097c0.392-0.361,0.705-0.7,0.947-1.012
		c0,0.468,0.004,0.896,0.012,1.277c0.006,0.384,0.01,0.748,0.01,1.096c0,0.349,0.003,0.708,0.011,1.077
		c0.007,0.368,0.01,0.78,0.01,1.233c-0.312,0.313-0.698,0.647-1.159,1.003c-0.461,0.354-0.973,0.709-1.533,1.062
		c-0.562,0.355-1.156,0.697-1.789,1.022c-0.631,0.326-1.269,0.613-1.905,0.862c-0.64,0.25-1.271,0.447-1.896,0.598
		c-0.625,0.148-1.207,0.223-1.748,0.223c-0.539,0-1-0.106-1.385-0.318c-0.382-0.214-0.713-0.511-0.988-0.895
		c-0.277-0.383-0.512-0.842-0.704-1.375c-0.192-0.532-0.359-1.124-0.501-1.777c-0.511,0.667-1.05,1.281-1.619,1.843
		c-0.568,0.562-1.146,1.046-1.736,1.458c-0.588,0.412-1.185,0.735-1.789,0.97c-0.603,0.234-1.189,0.352-1.755,0.352
		c-0.47,0-0.91-0.078-1.322-0.234c-0.412-0.154-0.777-0.418-1.097-0.786c-0.32-0.37-0.572-0.856-0.756-1.46
		c-0.185-0.604-0.277-1.353-0.277-2.247c0-1.094,0.132-2.483,0.394-4.175c0.264-1.688,0.585-3.62,0.969-5.793
		c0.028-0.212,0.081-0.501,0.16-0.861c0.078-0.361,0.185-0.756,0.319-1.184c0.135-0.426,0.302-0.858,0.5-1.299
		c0.199-0.44,0.433-0.838,0.703-1.192c0.271-0.354,0.586-0.645,0.948-0.873c0.362-0.227,0.77-0.349,1.225-0.362
		c0.751,0.03,1.291,0.126,1.618,0.288c0.327,0.164,0.49,0.365,0.49,0.605c-0.128,0.754-0.267,1.592-0.416,2.516
		c-0.148,0.924-0.301,1.852-0.458,2.79c-0.156,0.938-0.305,1.849-0.448,2.736c-0.141,0.887-0.269,1.678-0.382,2.374
		c-0.114,0.695-0.202,1.256-0.267,1.683c-0.064,0.427-0.096,0.646-0.096,0.661c0,0.256,0.024,0.499,0.075,0.733
		c0.049,0.234,0.123,0.443,0.223,0.628c0.1,0.187,0.227,0.334,0.384,0.447c0.156,0.114,0.341,0.171,0.555,0.171
		c0.311,0,0.631-0.081,0.958-0.245c0.326-0.163,0.635-0.396,0.926-0.703c0.291-0.304,0.549-0.682,0.777-1.127
		c0.228-0.449,0.398-0.956,0.511-1.523l2.108-10.818c0.07-0.342,0.357-0.629,0.861-0.863s1.076-0.353,1.717-0.353
		c0.723,0,1.298,0.128,1.725,0.384C256.059,303.967,256.271,304.293,256.271,304.691z"/>
	<path fill="#4C4C4C" d="M260.829,319.302c0-0.625,0.035-1.353,0.106-2.184c0.07-0.83,0.166-1.706,0.287-2.631
		c0.12-0.922,0.262-1.863,0.426-2.821c0.162-0.958,0.338-1.871,0.521-2.736c0.184-0.864,0.368-1.661,0.555-2.387
		c0.184-0.723,0.368-1.318,0.553-1.788c0.115-0.312,0.228-0.56,0.342-0.743c0.113-0.186,0.244-0.332,0.395-0.438
		c0.148-0.106,0.334-0.179,0.553-0.214c0.221-0.034,0.494-0.053,0.82-0.053c0.368,0,0.656,0.019,0.862,0.053
		c0.206,0.035,0.358,0.121,0.458,0.256s0.159,0.33,0.182,0.586c0.021,0.256,0.031,0.604,0.031,1.043c0,0.525,0,1.161,0,1.907
		s0.014,1.479,0.043,2.203h0.232c0.285-0.567,0.604-1.201,0.959-1.905c0.354-0.702,0.768-1.358,1.234-1.971
		c0.471-0.608,1.002-1.125,1.6-1.543c0.595-0.42,1.285-0.629,2.064-0.629c0.271,0,0.533,0.047,0.787,0.139
		c0.256,0.093,0.479,0.224,0.672,0.394c0.191,0.173,0.344,0.382,0.459,0.63c0.112,0.248,0.17,0.529,0.17,0.842
		c0,0.24-0.035,0.578-0.106,1.011c-0.071,0.434-0.147,0.888-0.235,1.362c-0.084,0.477-0.162,0.938-0.232,1.386
		c-0.07,0.446-0.106,0.817-0.106,1.119c0,0.51,0.05,0.936,0.149,1.275c0.099,0.34,0.23,0.614,0.395,0.82
		c0.162,0.205,0.348,0.352,0.555,0.437c0.205,0.085,0.422,0.127,0.647,0.127c0.64,0,1.3-0.141,1.981-0.426
		c0.682-0.283,1.306-0.604,1.873-0.958c0.668-0.412,1.321-0.88,1.961-1.403l-0.32,4.981c-0.369,0.242-0.788,0.511-1.258,0.811
		c-0.467,0.298-0.969,0.578-1.5,0.841c-0.533,0.265-1.086,0.483-1.661,0.659c-0.575,0.179-1.16,0.267-1.757,0.267
		c-1.065,0-1.924-0.216-2.577-0.649c-0.653-0.432-1.173-1.001-1.556-1.702c-0.384-0.703-0.668-1.491-0.853-2.363
		c-0.185-0.873-0.333-1.758-0.446-2.653h-0.341l-3.812,10.629c-0.198,0.554-0.389,1.012-0.563,1.372
		c-0.179,0.362-0.358,0.658-0.543,0.885c-0.187,0.229-0.384,0.389-0.599,0.479c-0.213,0.092-0.446,0.139-0.701,0.139
		c-0.583,0-1.053-0.124-1.405-0.373c-0.354-0.248-0.629-0.583-0.819-1.002c-0.192-0.417-0.32-0.894-0.384-1.427
		C260.861,320.419,260.829,319.869,260.829,319.302z"/>
	<path fill="#4C4C4C" d="M286.43,323.753c-1.336,0-2.504-0.242-3.505-0.725c-1-0.482-1.835-1.132-2.502-1.949
		c-0.667-0.815-1.168-1.76-1.501-2.833c-0.334-1.069-0.501-2.196-0.501-3.375c0-0.795,0.078-1.636,0.233-2.523
		c0.156-0.887,0.396-1.757,0.714-2.608c0.319-0.852,0.721-1.663,1.204-2.438c0.482-0.772,1.047-1.453,1.691-2.045
		c0.646-0.588,1.37-1.057,2.172-1.404c0.803-0.348,1.694-0.522,2.676-0.522c0.793,0,1.533,0.128,2.214,0.384
		c0.682,0.256,1.274,0.615,1.778,1.077c0.504,0.46,0.896,1.019,1.182,1.672c0.283,0.653,0.426,1.384,0.426,2.193
		c0,0.88-0.217,1.76-0.648,2.64c-0.434,0.882-1.033,1.712-1.799,2.492c-0.769,0.781-1.681,1.478-2.738,2.088
		c-1.059,0.61-2.203,1.086-3.438,1.427c0.213,0.383,0.422,0.702,0.629,0.958c0.205,0.255,0.415,0.454,0.628,0.597
		s0.438,0.241,0.672,0.299c0.232,0.058,0.485,0.085,0.756,0.085c0.853,0,1.75-0.171,2.692-0.513
		c0.945-0.341,1.863-0.767,2.759-1.276c0.895-0.512,1.739-1.068,2.534-1.672s1.47-1.176,2.022-1.714l2.748,2.854
		c-1.25,1.293-2.577,2.437-3.982,3.429c-0.609,0.427-1.268,0.846-1.971,1.258c-0.702,0.411-1.441,0.775-2.215,1.098
		c-0.773,0.316-1.575,0.573-2.407,0.767C288.121,323.656,287.279,323.753,286.43,323.753z M283.596,313.743
		c0.512,0,1.069-0.131,1.674-0.396c0.603-0.262,1.162-0.6,1.682-1.012c0.52-0.411,0.955-0.857,1.311-1.342
		c0.354-0.482,0.532-0.951,0.532-1.405c0-0.64-0.118-1.164-0.353-1.575c-0.232-0.413-0.521-0.617-0.862-0.617
		c-0.61,0-1.132,0.111-1.563,0.341c-0.435,0.227-0.797,0.521-1.086,0.884c-0.293,0.361-0.527,0.773-0.705,1.235
		c-0.177,0.46-0.312,0.925-0.404,1.395c-0.092,0.469-0.151,0.924-0.18,1.363C283.609,313.055,283.596,313.43,283.596,313.743z"/>
	<path fill="#4C4C4C" d="M320.675,307.801c0.412,0.823,0.722,1.692,0.927,2.608s0.311,1.793,0.311,2.631
		c0,0.839-0.094,1.683-0.277,2.534c-0.185,0.852-0.451,1.676-0.799,2.471s-0.773,1.541-1.277,2.236
		c-0.504,0.694-1.08,1.299-1.726,1.811c-0.646,0.511-1.353,0.915-2.119,1.213c-0.767,0.301-1.583,0.448-2.448,0.448
		c-1.25,0-2.318-0.272-3.205-0.819c-0.89-0.547-1.615-1.261-2.184-2.141c-0.568-0.881-0.982-1.875-1.247-2.982
		c-0.263-1.106-0.394-2.229-0.394-3.363c0-1.562,0.234-3.021,0.703-4.377c0.467-1.356,1.14-2.534,2.012-3.536
		c0.873-1.001,1.941-1.789,3.205-2.363c1.264-0.575,2.685-0.862,4.26-0.862c1.35,0,2.611,0.209,3.792,0.629
		c1.178,0.418,2.282,0.979,3.312,1.683c1.028,0.702,1.987,1.508,2.875,2.417c0.887,0.909,1.715,1.846,2.481,2.812l-0.404,3.002
		c-0.384-0.511-0.901-1.062-1.556-1.66c-0.653-0.597-1.346-1.178-2.077-1.746c-0.729-0.566-1.451-1.104-2.16-1.607
		c-0.711-0.504-1.319-0.927-1.832-1.269L320.675,307.801z M314.094,319.663c0.482,0,0.951-0.245,1.406-0.734
		c0.455-0.488,0.852-1.106,1.191-1.854c0.341-0.747,0.615-1.568,0.819-2.47c0.206-0.9,0.31-1.766,0.31-2.589
		c0-0.652-0.049-1.26-0.147-1.819c-0.101-0.562-0.249-1.048-0.448-1.459c-0.197-0.412-0.453-0.738-0.767-0.979
		s-0.688-0.362-1.129-0.362c-0.581,0-1.136,0.248-1.66,0.746c-0.526,0.496-0.987,1.132-1.385,1.904
		c-0.397,0.775-0.712,1.629-0.937,2.567c-0.229,0.938-0.343,1.838-0.343,2.705c0,0.595,0.058,1.156,0.171,1.682
		c0.112,0.525,0.291,0.984,0.531,1.373c0.243,0.393,0.562,0.705,0.959,0.938C313.064,319.545,313.541,319.663,314.094,319.663z"/>
	<path fill="#4C4C4C" d="M324.913,324.562c0-0.071,0.019-0.505,0.053-1.3c0.036-0.795,0.104-1.853,0.202-3.174
		c0.102-1.32,0.234-2.843,0.406-4.566c0.17-1.726,0.394-3.55,0.67-5.476c0.275-1.924,0.604-3.896,0.979-5.92
		c0.375-2.023,0.823-3.994,1.342-5.909c0.521-1.917,1.111-3.724,1.779-5.421c0.668-1.695,1.416-3.18,2.247-4.451
		c0.83-1.271,1.757-2.275,2.779-3.014c1.021-0.738,2.144-1.107,3.364-1.107c0.482,0,0.99,0.086,1.522,0.256s1.019,0.447,1.458,0.832
		c0.44,0.383,0.807,0.892,1.098,1.521c0.291,0.633,0.437,1.41,0.437,2.332c0,0.838-0.131,1.799-0.394,2.887
		c-0.265,1.085-0.633,2.246-1.107,3.482c-0.477,1.233-1.037,2.521-1.684,3.854c-0.646,1.334-1.353,2.666-2.118,3.992
		c-0.767,1.327-1.572,2.634-2.417,3.918c-0.846,1.286-1.708,2.489-2.588,3.609l-0.043,0.342c0.285-0.143,0.498-0.234,0.64-0.276
		c0.142-0.043,0.291-0.064,0.446-0.064c0.185,0,0.334,0.02,0.447,0.055s0.217,0.073,0.31,0.117c0.093,0.042,0.188,0.082,0.288,0.116
		c0.099,0.036,0.22,0.054,0.361,0.054c1.404,0,2.647-0.167,3.727-0.5s1.988-0.707,2.727-1.12c0.866-0.466,1.619-1.013,2.258-1.639
		l-0.47,5.176c-0.937,0.512-1.916,0.908-2.938,1.192c-1.021,0.284-1.965,0.497-2.832,0.639c-1.008,0.157-2.008,0.256-3.002,0.298
		c0.512,0.938,0.972,1.91,1.385,2.918c0.354,0.867,0.678,1.836,0.969,2.908c0.291,1.07,0.438,2.154,0.438,3.248
		c0,0.127-0.019,0.396-0.053,0.809c-0.035,0.411-0.097,0.915-0.183,1.514c-0.086,0.596-0.206,1.255-0.362,1.979
		c-0.156,0.727-0.357,1.456-0.605,2.193c-0.249,0.738-0.551,1.452-0.905,2.141c-0.354,0.689-0.771,1.299-1.246,1.832
		c-0.476,0.532-1.022,0.961-1.64,1.288c-0.618,0.327-1.317,0.49-2.1,0.49c-0.779,0-1.461-0.179-2.045-0.532
		c-0.58-0.356-1.078-0.835-1.49-1.438c-0.412-0.603-0.756-1.306-1.032-2.107s-0.493-1.65-0.648-2.545
		c-0.155-0.896-0.267-1.808-0.329-2.737C324.945,326.326,324.913,325.428,324.913,324.562z M330.602,314.339
		c-0.058,0-0.121,0.16-0.192,0.479s-0.138,0.732-0.202,1.234c-0.062,0.506-0.125,1.069-0.182,1.693
		c-0.057,0.626-0.106,1.24-0.148,1.844c-0.042,0.604-0.078,1.163-0.105,1.684c-0.028,0.517-0.043,0.926-0.043,1.224
		c0,2.087,0.039,3.747,0.117,4.984c0.077,1.233,0.176,2.172,0.299,2.812c0.119,0.639,0.256,1.053,0.403,1.245
		c0.148,0.19,0.302,0.288,0.458,0.288c0.482,0,0.868-0.221,1.16-0.662c0.291-0.439,0.512-0.996,0.66-1.671s0.248-1.413,0.299-2.214
		c0.049-0.804,0.074-1.572,0.074-2.312c0-0.498-0.039-1.105-0.117-1.832c-0.078-0.725-0.186-1.479-0.32-2.268
		c-0.134-0.789-0.291-1.572-0.468-2.354c-0.177-0.778-0.36-1.479-0.554-2.097c-0.189-0.618-0.387-1.119-0.586-1.502
		C330.954,314.53,330.77,314.339,330.602,314.339z M335.773,291.104c-0.822,2.045-1.469,3.845-1.938,5.398
		c-0.469,1.557-0.822,2.936-1.062,4.143c-0.244,1.209-0.414,2.27-0.512,3.186c-0.101,0.915-0.199,1.764-0.3,2.545
		c0.866-1.632,1.739-3.241,2.62-4.824c0.88-1.583,1.675-3.052,2.385-4.408c0.709-1.355,1.289-2.553,1.735-3.588
		c0.448-1.037,0.671-1.824,0.671-2.363c0-0.752-0.105-1.303-0.318-1.652c-0.214-0.348-0.505-0.521-0.873-0.521
		c-0.654,0-1.149,0.174-1.492,0.521C336.352,289.887,336.045,290.408,335.773,291.104z"/>
	<path fill="#4C4C4C" d="M364.396,297.939c0,0.028-0.006,0.127-0.021,0.299c-0.015,0.17-0.092,0.354-0.235,0.554
		c-0.141,0.199-0.371,0.377-0.69,0.532c-0.318,0.156-0.784,0.234-1.396,0.234c-0.822,0-1.467-0.047-1.927-0.14
		c-0.463-0.092-0.803-0.22-1.022-0.384c-0.222-0.163-0.354-0.348-0.404-0.553c-0.051-0.207-0.074-0.416-0.074-0.629
		c0-2.115,0.531-3.931,1.598-5.44c1.064-1.513,2.56-2.751,4.482-3.718c1.925-0.965,4.23-1.676,6.922-2.129
		c2.689-0.455,5.661-0.683,8.912-0.683c2.158,0,4.42,0.071,6.785,0.214c2.361,0.141,4.802,0.391,7.314,0.744
		c0.723,0.199,1.223,0.483,1.499,0.854c0.279,0.369,0.417,0.76,0.417,1.172c0,0.27-0.04,0.553-0.116,0.852
		c-0.079,0.299-0.195,0.575-0.353,0.83c-0.156,0.256-0.365,0.465-0.628,0.628c-0.263,0.164-0.571,0.246-0.927,0.246
		c-0.059,0-0.117-0.005-0.182-0.011c-0.063-0.008-0.133-0.018-0.203-0.033c-0.922-0.154-1.924-0.294-3.002-0.416
		c-1.078-0.118-2.209-0.22-3.387-0.297c-1.179-0.077-2.396-0.134-3.652-0.169c-1.256-0.036-2.531-0.056-3.822-0.056
		c-0.385,0-0.842,0.021-1.374,0.064c-0.531,0.042-1.047,0.092-1.544,0.148c-0.567,0.058-1.157,0.129-1.768,0.213
		c0,0.156-0.015,0.334-0.043,0.533c-0.029,0.199-0.072,0.476-0.127,0.83c-0.059,0.354-0.125,0.81-0.203,1.362
		c-0.078,0.554-0.175,1.267-0.287,2.142c-0.114,0.871-0.241,1.926-0.383,3.162c-0.143,1.233-0.3,2.705-0.47,4.407h11.82
		c0.341,0,0.603,0.068,0.786,0.203c0.185,0.136,0.32,0.306,0.404,0.511c0.086,0.207,0.137,0.428,0.149,0.66
		c0.015,0.234,0.022,0.459,0.022,0.672c0,0.681-0.15,1.19-0.449,1.532c-0.297,0.342-0.604,0.512-0.914,0.512
		c-0.1,0-0.426,0.012-0.981,0.031c-0.553,0.021-1.227,0.046-2.021,0.075c-0.797,0.028-1.67,0.061-2.62,0.096
		c-0.951,0.035-1.871,0.068-2.759,0.096c-0.887,0.028-1.696,0.055-2.428,0.074c-0.731,0.022-1.281,0.032-1.649,0.032
		c-0.257,1.718-0.548,3.373-0.874,4.963c-0.327,1.59-0.734,3.076-1.225,4.461c-0.49,1.386-1.068,2.646-1.736,3.781
		c-0.668,1.135-1.463,2.108-2.385,2.916c-0.924,0.81-1.986,1.439-3.194,1.886c-1.207,0.448-2.591,0.671-4.153,0.671
		c-0.326,0-0.716-0.021-1.171-0.062c-0.455-0.044-0.931-0.115-1.427-0.213c-0.497-0.102-0.99-0.231-1.48-0.396
		s-0.927-0.365-1.31-0.606c-0.384-0.24-0.696-0.521-0.937-0.84c-0.242-0.321-0.363-0.687-0.363-1.099
		c0-0.213,0.045-0.492,0.139-0.84c0.093-0.349,0.234-0.687,0.427-1.013c0.19-0.326,0.433-0.61,0.724-0.854
		c0.291-0.239,0.644-0.361,1.056-0.361c0.468,0,0.962,0.078,1.479,0.233c0.519,0.157,1.055,0.331,1.607,0.521
		c0.554,0.192,1.121,0.365,1.704,0.521c0.581,0.156,1.171,0.234,1.767,0.234c0.469,0,0.924-0.188,1.363-0.563
		c0.439-0.378,0.855-0.895,1.246-1.555c0.391-0.661,0.764-1.436,1.118-2.321c0.354-0.889,0.688-1.846,1.001-2.877
		c0.312-1.027,0.604-2.104,0.873-3.227c0.27-1.121,0.518-2.242,0.744-3.364h-2.618c-0.241,0-0.54-0.028-0.896-0.085
		c-0.354-0.056-0.695-0.152-1.021-0.288c-0.327-0.135-0.604-0.313-0.831-0.543c-0.227-0.226-0.342-0.511-0.342-0.853
		c0-0.241,0.064-0.467,0.192-0.682c0.128-0.212,0.341-0.369,0.638-0.468c0.795-0.172,1.492-0.319,2.088-0.448
		c0.597-0.127,1.125-0.236,1.588-0.328c0.461-0.094,0.869-0.176,1.225-0.246c0.354-0.069,0.682-0.129,0.979-0.172
		c0.341-1.519,0.609-2.838,0.81-3.959c0.2-1.123,0.369-2.142,0.511-3.057c0.144-0.917,0.277-1.777,0.405-2.589
		c0.128-0.81,0.276-1.668,0.448-2.577c-1.236,0.355-2.309,0.781-3.217,1.278c-0.909,0.497-1.661,1.03-2.258,1.598
		c-0.598,0.567-1.037,1.156-1.32,1.767C364.54,296.762,364.396,297.357,364.396,297.939z"/>
	<path fill="#4C4C4C" d="M395.449,319.217c-0.512,0.469-1.146,0.968-1.906,1.501c-0.759,0.532-1.579,1.021-2.459,1.471
		c-0.881,0.445-1.779,0.818-2.693,1.116c-0.916,0.301-1.787,0.448-2.609,0.448c-0.738,0-1.359-0.103-1.863-0.31
		c-0.505-0.206-0.913-0.493-1.225-0.861c-0.312-0.37-0.535-0.82-0.672-1.354c-0.135-0.533-0.201-1.117-0.201-1.758
		c0-0.895,0.103-1.935,0.31-3.12c0.205-1.185,0.457-2.413,0.755-3.684c0.299-1.271,0.614-2.538,0.947-3.804
		c0.334-1.264,0.63-2.426,0.885-3.492c0.1-0.368,0.299-0.686,0.596-0.947c0.299-0.263,0.636-0.476,1.014-0.639
		c0.375-0.162,0.767-0.283,1.171-0.361c0.403-0.078,0.771-0.117,1.097-0.117c0.598,0,1.002,0.11,1.215,0.33
		c0.213,0.221,0.318,0.514,0.318,0.885c0,0.312-0.07,0.763-0.214,1.352c-0.142,0.59-0.317,1.258-0.531,2.003
		s-0.44,1.547-0.681,2.405c-0.242,0.858-0.471,1.719-0.682,2.578c-0.213,0.857-0.393,1.694-0.533,2.513
		c-0.142,0.818-0.213,1.552-0.213,2.204c0,0.639,0.07,1.146,0.213,1.522c0.142,0.375,0.433,0.563,0.873,0.563
		c0.511,0,1.078-0.177,1.703-0.532c0.625-0.354,1.256-0.783,1.896-1.288s1.265-1.024,1.875-1.564
		c0.61-0.539,1.149-1.001,1.618-1.386v4.325H395.449z M385.93,297.323c0-0.326,0.07-0.696,0.213-1.108
		c0.143-0.41,0.373-0.799,0.692-1.16c0.319-0.363,0.745-0.666,1.278-0.916c0.531-0.248,1.195-0.373,1.99-0.373
		c0.496,0,0.965,0.058,1.405,0.172c0.439,0.113,0.823,0.287,1.15,0.521c0.325,0.233,0.585,0.543,0.776,0.927
		c0.191,0.385,0.287,0.838,0.287,1.362c0,0.483-0.078,0.95-0.234,1.405c-0.155,0.455-0.403,0.858-0.745,1.214
		c-0.341,0.354-0.771,0.644-1.288,0.862c-0.52,0.222-1.141,0.332-1.862,0.332c-1.251,0-2.173-0.297-2.77-0.886
		C386.229,299.087,385.93,298.302,385.93,297.323z"/>
	<path fill="#4C4C4C" d="M393.938,319.302c0-0.938,0.058-2.021,0.172-3.249c0.111-1.228,0.254-2.477,0.426-3.747
		c0.171-1.27,0.361-2.496,0.574-3.674c0.215-1.179,0.42-2.187,0.617-3.024c0.156-0.652,0.458-1.199,0.905-1.641
		s1.055-0.66,1.82-0.66c0.768,0,1.3,0.234,1.598,0.705c0.299,0.467,0.447,1.092,0.447,1.872c0,0.214-0.021,0.501-0.064,0.863
		c-0.041,0.362-0.095,0.759-0.157,1.192c-0.064,0.434-0.134,0.881-0.202,1.341c-0.071,0.463-0.141,0.888-0.204,1.277
		c-0.063,0.393-0.116,0.732-0.158,1.022c-0.044,0.291-0.063,0.487-0.063,0.585h0.427c0.084-0.155,0.22-0.407,0.403-0.756
		c0.186-0.349,0.396-0.748,0.64-1.202c0.241-0.455,0.501-0.935,0.776-1.438c0.276-0.505,0.535-0.986,0.777-1.447
		c0.241-0.462,0.461-0.871,0.66-1.226c0.199-0.354,0.348-0.617,0.446-0.787c0.455-0.768,0.973-1.293,1.556-1.578
		c0.581-0.282,1.229-0.426,1.938-0.426c0.711,0,1.273,0.299,1.692,0.896c0.418,0.598,0.629,1.421,0.629,2.47
		c0,0.157-0.032,0.419-0.096,0.79c-0.064,0.369-0.146,0.809-0.246,1.32c-0.099,0.511-0.209,1.071-0.33,1.683
		c-0.12,0.608-0.229,1.234-0.329,1.873s-0.182,1.271-0.245,1.896s-0.096,1.199-0.096,1.726c0,0.881,0.109,1.604,0.329,2.172
		c0.221,0.568,0.564,0.853,1.034,0.853c0.213,0,0.457-0.063,0.732-0.191c0.277-0.127,0.576-0.294,0.896-0.5
		c0.32-0.206,0.646-0.443,0.979-0.714c0.334-0.271,0.663-0.546,0.99-0.83c0.752-0.668,1.54-1.42,2.363-2.259l0.362,4.771
		l-1.063,0.811c-0.583,0.439-1.176,0.881-1.778,1.319c-0.604,0.44-1.231,0.835-1.886,1.184c-0.654,0.348-1.336,0.632-2.045,0.852
		c-0.709,0.221-1.455,0.33-2.236,0.33c-0.779,0-1.438-0.563-1.97-1.693c-0.532-1.129-0.799-2.778-0.799-4.95
		c0-0.854,0.058-1.771,0.171-2.76c0.113-0.985,0.256-2.047,0.426-3.185h-0.341l-5.58,11.075c-0.284,0.582-0.604,0.979-0.958,1.191
		c-0.354,0.214-0.767,0.32-1.235,0.32c-0.583,0-1.052-0.124-1.404-0.373c-0.355-0.248-0.629-0.583-0.82-1.002
		c-0.191-0.417-0.318-0.894-0.383-1.427C393.971,320.419,393.938,319.869,393.938,319.302z"/>
	<path fill="#4C4C4C" d="M415.192,295.428c0-1.193,0.245-2.234,0.734-3.119c0.49-0.89,1.179-1.645,2.065-2.27
		c0.887-0.624,1.953-1.141,3.195-1.545c1.241-0.404,2.607-0.721,4.1-0.947c1.491-0.227,3.088-0.383,4.792-0.469
		c1.704-0.085,3.464-0.127,5.281-0.127c2.471,0,5.059,0.1,7.764,0.298c2.704,0.199,5.526,0.562,8.465,1.086
		c0.683,0.144,1.161,0.397,1.438,0.767c0.275,0.369,0.415,0.782,0.415,1.235c0,0.284-0.064,0.562-0.192,0.831
		s-0.298,0.518-0.512,0.745c-0.212,0.228-0.46,0.407-0.743,0.543c-0.286,0.135-0.583,0.202-0.896,0.202
		c-1.094,0-2.233-0.057-3.42-0.17c-1.186-0.113-2.421-0.241-3.706-0.385c-1.284-0.142-2.607-0.283-3.972-0.425
		c-1.363-0.143-2.769-0.249-4.217-0.319c-0.255,1.59-0.582,3.301-0.979,5.131c-0.397,1.832-0.835,3.703-1.311,5.613
		c-0.477,1.909-0.972,3.812-1.491,5.707c-0.518,1.896-1.02,3.706-1.501,5.431c-0.481,1.728-0.934,3.319-1.353,4.782
		c-0.42,1.463-0.765,2.719-1.033,3.77c-0.113,0.482-0.287,0.927-0.521,1.331s-0.498,0.757-0.789,1.054
		c-0.291,0.299-0.594,0.53-0.904,0.693c-0.312,0.163-0.604,0.244-0.873,0.244c-0.811,0-1.478-0.191-2.001-0.574
		c-0.526-0.384-0.79-1.002-0.79-1.854c0-0.27,0.044-0.566,0.128-0.895c0.186-1.292,0.43-2.562,0.735-3.812
		c0.305-1.25,0.663-2.553,1.075-3.907c0.411-1.355,0.881-2.793,1.405-4.313c0.525-1.52,1.105-3.189,1.746-5.016
		c0.639-1.823,1.331-3.837,2.077-6.037c0.745-2.201,1.551-4.649,2.417-7.349c-0.752,0.058-1.518,0.121-2.289,0.192
		c-0.773,0.07-1.526,0.166-2.258,0.286c-0.732,0.122-1.413,0.273-2.045,0.459s-1.187,0.419-1.661,0.702
		c-0.477,0.284-0.853,0.625-1.13,1.022c-0.276,0.397-0.414,0.865-0.414,1.405c0,0.028-0.019,0.185-0.055,0.47
		c-0.035,0.282-0.158,0.592-0.373,0.926c-0.212,0.332-0.55,0.639-1.011,0.914c-0.462,0.276-1.118,0.416-1.971,0.416
		c-0.852,0-1.513-0.143-1.98-0.426c-0.468-0.285-0.809-0.597-1.021-0.938C415.363,296.395,415.222,295.938,415.192,295.428z"/>
	<path fill="#4C4C4C" d="M494.729,313.572c-0.753,0.924-1.521,1.747-2.301,2.471c-0.327,0.312-0.675,0.613-1.043,0.904
		c-0.37,0.292-0.746,0.551-1.13,0.777c-0.383,0.229-0.767,0.412-1.149,0.555c-0.384,0.142-0.743,0.213-1.086,0.213
		c-0.27,0-0.489-0.17-0.659-0.511c-0.171-0.342-0.257-0.796-0.257-1.363c0-1.037,0.132-2.03,0.395-2.981
		c0.264-0.951,0.555-1.885,0.874-2.801s0.614-1.832,0.885-2.748c0.27-0.916,0.404-1.855,0.404-2.82c0-0.483-0.064-0.877-0.192-1.184
		c-0.128-0.305-0.288-0.543-0.479-0.712c-0.191-0.173-0.396-0.288-0.606-0.353c-0.213-0.063-0.403-0.098-0.576-0.098
		c-0.68,0-1.407,0.253-2.182,0.758c-0.774,0.504-1.552,1.135-2.333,1.896c-0.781,0.76-1.533,1.58-2.258,2.46
		c-0.723,0.88-1.377,1.703-1.959,2.47l-0.425-0.297c0.48-0.895,1.04-1.932,1.671-3.109c0.632-1.18,1.273-2.432,1.928-3.76
		c0.653-1.327,1.292-2.696,1.917-4.11c0.624-1.412,1.182-2.808,1.672-4.185c0.489-1.377,0.884-2.705,1.183-3.981
		c0.298-1.278,0.446-2.442,0.446-3.494c0-0.709-0.057-1.353-0.171-1.928c-0.113-0.574-0.315-1.067-0.605-1.479
		c-0.291-0.412-0.683-0.73-1.172-0.959c-0.489-0.227-1.117-0.34-1.886-0.34c-1.477,0-2.782,0.41-3.919,1.234
		c-1.136,0.822-2.125,1.935-2.971,3.334c-0.845,1.396-1.562,3.017-2.15,4.854c-0.591,1.838-1.079,3.771-1.47,5.792
		c-0.391,2.023-0.693,4.072-0.905,6.145c-0.213,2.074-0.376,4.047-0.489,5.92c-0.093,1.533-0.152,2.949-0.185,4.259
		c-0.279,0.308-0.564,0.617-0.882,0.939c-0.752,0.767-1.544,1.469-2.375,2.107c-0.829,0.639-1.656,1.168-2.479,1.586
		c-0.822,0.419-1.576,0.629-2.258,0.629c-0.695,0-1.265-0.152-1.704-0.456c-0.439-0.307-0.788-0.69-1.044-1.15
		c-0.255-0.463-0.43-0.971-0.521-1.523c-0.093-0.554-0.14-1.085-0.14-1.598c0-0.341,0.015-0.764,0.043-1.266
		c0.028-0.506,0.094-1.034,0.191-1.589c0.1-0.554,0.234-1.11,0.404-1.672c0.171-0.561,0.4-1.064,0.691-1.512
		c0.29-0.447,0.644-0.811,1.056-1.086c0.412-0.276,0.907-0.415,1.489-0.415c0.241,0,0.396,0.111,0.469,0.341
		c0.07,0.227,0.106,0.511,0.106,0.851c0,0.229-0.01,0.484-0.032,0.768c-0.021,0.285-0.03,0.556-0.03,0.811
		c0,0.625,0.102,1.115,0.309,1.47c0.205,0.354,0.644,0.531,1.311,0.531c0.438,0,0.838-0.112,1.192-0.34
		c0.354-0.229,0.655-0.528,0.904-0.906c0.249-0.375,0.438-0.798,0.564-1.266c0.127-0.469,0.191-0.944,0.191-1.427
		c0-0.696-0.14-1.347-0.416-1.95c-0.276-0.603-0.659-1.125-1.15-1.565c-0.488-0.439-1.077-0.783-1.767-1.031
		c-0.69-0.248-1.438-0.373-2.247-0.373c-0.951,0-1.825,0.174-2.62,0.521s-1.516,0.814-2.161,1.404
		c-0.646,0.591-1.214,1.274-1.703,2.056c-0.49,0.782-0.901,1.602-1.235,2.46c-0.334,0.859-0.586,1.737-0.756,2.632
		c-0.171,0.895-0.257,1.753-0.257,2.576c0,0.299,0.014,0.593,0.035,0.886c-0.77,0.577-1.581,1.114-2.44,1.605
		c-0.896,0.511-1.813,0.937-2.759,1.276c-0.943,0.342-1.842,0.513-2.693,0.513c-0.27,0-0.522-0.027-0.756-0.085
		c-0.234-0.058-0.458-0.156-0.672-0.299c-0.212-0.143-0.422-0.342-0.627-0.597c-0.206-0.256-0.416-0.575-0.629-0.958
		c1.234-0.341,2.382-0.815,3.438-1.427c1.059-0.61,1.971-1.307,2.737-2.088c0.767-0.78,1.365-1.61,1.799-2.492
		c0.434-0.88,0.65-1.76,0.65-2.64c0-0.811-0.144-1.54-0.427-2.193c-0.284-0.653-0.678-1.212-1.183-1.672
		c-0.504-0.462-1.097-0.821-1.778-1.077c-0.681-0.256-1.419-0.384-2.215-0.384c-0.979,0-1.87,0.176-2.673,0.522
		c-0.803,0.348-1.526,0.816-2.173,1.404c-0.646,0.592-1.21,1.271-1.693,2.045c-0.481,0.775-0.884,1.588-1.203,2.438
		c-0.317,0.853-0.557,1.723-0.714,2.608c-0.155,0.889-0.232,1.729-0.232,2.523c0,1.179,0.166,2.306,0.5,3.375
		c0.334,1.073,0.835,2.018,1.502,2.833c0.668,0.816,1.501,1.467,2.503,1.949c1,0.481,2.169,0.725,3.503,0.725
		c0.852,0,1.692-0.097,2.522-0.287c0.831-0.192,1.634-0.449,2.407-0.767c0.772-0.321,1.512-0.687,2.215-1.099
		c0.703-0.411,1.359-0.831,1.971-1.257c0.133-0.093,0.255-0.205,0.387-0.301c0.216,0.367,0.452,0.72,0.722,1.046
		c0.666,0.811,1.492,1.456,2.48,1.938c0.985,0.481,2.132,0.725,3.438,0.725c0.752,0,1.494-0.118,2.227-0.353
		c0.729-0.233,1.434-0.538,2.107-0.916c0.674-0.374,1.319-0.806,1.938-1.287c0.618-0.482,1.188-0.98,1.715-1.491
		c0.296-0.286,0.588-0.584,0.875-0.889c-0.001,0.061-0.001,0.129-0.001,0.187c0,0.596,0.021,1.179,0.062,1.746
		s0.135,1.075,0.277,1.522c0.141,0.446,0.348,0.806,0.617,1.075c0.27,0.271,0.639,0.404,1.106,0.404
		c0.354,0,0.646-0.078,0.873-0.234c0.228-0.155,0.438-0.387,0.628-0.691c0.192-0.306,0.388-0.695,0.586-1.171
		c0.198-0.477,0.454-1.033,0.768-1.672c0.624-1.293,1.324-2.545,2.098-3.761c0.774-1.214,1.523-2.308,2.247-3.278
		c0.726-0.973,1.373-1.779,1.949-2.419c0.574-0.64,0.981-1.034,1.225-1.191l0.446,0.064c-0.042,0.043-0.135,0.198-0.276,0.468
		c-0.142,0.271-0.309,0.618-0.5,1.043c-0.191,0.427-0.397,0.909-0.618,1.449c-0.22,0.539-0.419,1.094-0.597,1.661
		c-0.177,0.567-0.326,1.133-0.446,1.691c-0.12,0.562-0.182,1.069-0.182,1.524c0,0.682,0.092,1.403,0.276,2.171
		s0.462,1.474,0.831,2.12c0.369,0.646,0.841,1.178,1.416,1.597c0.574,0.419,1.253,0.629,2.035,0.629
		c0.511,0,1.046-0.086,1.606-0.256c0.56-0.17,1.122-0.386,1.683-0.649c0.561-0.262,1.117-0.563,1.672-0.903
		c0.555-0.343,1.068-0.68,1.545-1.014c0.476-0.333,0.907-0.648,1.299-0.946c0.391-0.299,0.713-0.548,0.969-0.746L494.729,313.572z
		 M443.7,312.614c0.028-0.439,0.089-0.896,0.182-1.363c0.092-0.47,0.228-0.935,0.404-1.395c0.177-0.462,0.412-0.874,0.703-1.235
		c0.29-0.362,0.651-0.657,1.086-0.884c0.433-0.229,0.955-0.341,1.564-0.341c0.342,0,0.628,0.204,0.861,0.617
		c0.235,0.411,0.353,0.937,0.353,1.575c0,0.454-0.178,0.923-0.531,1.405c-0.354,0.482-0.792,0.931-1.311,1.342
		c-0.52,0.412-1.08,0.75-1.684,1.012c-0.604,0.265-1.16,0.396-1.671,0.396C443.658,313.43,443.673,313.055,443.7,312.614z
		 M477.414,305.714c-0.454,1.05-0.873,2.023-1.257,2.918c0.128-1.619,0.312-3.272,0.555-4.963c0.099-0.724,0.216-1.487,0.351-2.289
		c0.136-0.802,0.283-1.618,0.447-2.448c0.163-0.83,0.349-1.664,0.556-2.503c0.204-0.838,0.429-1.647,0.67-2.428
		c0.979-2.301,1.833-4.056,2.556-5.261c0.725-1.209,1.271-1.812,1.64-1.812c0.284,0,0.427,0.54,0.427,1.619
		c0,0.71-0.188,1.811-0.563,3.301c-0.375,1.491-0.981,3.323-1.821,5.496c-0.255,0.639-0.578,1.415-0.969,2.331
		s-0.807,1.89-1.245,2.918C478.315,303.624,477.868,304.663,477.414,305.714z"/>
</g>
</svg>
