<?xml version="1.0" encoding="utf-8"?>
<!-- Generator: Adobe Illustrator 15.1.0, SVG Export Plug-In . SVG Version: 6.00 Build 0)  -->
<!DOCTYPE svg PUBLIC "-//W3C//DTD SVG 1.1//EN" "http://www.w3.org/Graphics/SVG/1.1/DTD/svg11.dtd">
<svg version="1.1" id="Layer_1" xmlns="http://www.w3.org/2000/svg" xmlns:xlink="http://www.w3.org/1999/xlink" x="0px" y="0px"
	 width="500px" height="550px" viewBox="0 0 500 550" enable-background="new 0 0 500 550" xml:space="preserve">
<g>
	<g>
		<path fill="#FFFFFF" d="M331.616,392.802c0,31.565-34.973,57.154-78.112,57.154c-43.146,0-78.12-25.59-78.12-57.154
			s34.975-57.156,78.12-57.156C296.644,335.646,331.616,361.237,331.616,392.802z"/>
	</g>
	<path fill="#4C4C4C" d="M220.49,550c-30.761-176.597-39.096-250.372-38.295-256.754c0.848-6.779,10.164-24.556,10.164-24.556
		c-11.857,7.614-22.867,22.859-22.867,22.859c-30.484,12.704-68.594,38.105-68.594,38.105c-43.188,12.703-68.592,27.95-68.592,27.95
		C11.981,398.251,7.747,483.78,7.747,483.78c0,16.45,0.228,41.315,0.516,66.22H220.49z"/>
	<path fill="#424143" d="M75.541,550h34.806c0.197-6.681,0.231-12.031-0.137-15.407c-1.408-12.982-16.652-26.815-24.273-49.399
		c-7.621-22.583-6.773-6.771-6.773-6.771l0.281,15.238c0,0-7.055-14.677-7.338-12.699C71.896,482.432,76.369,523.865,75.541,550z"/>
	<g>
		<path fill="#231F20" d="M235.971,550h56.864l-6.512-46.74c0,0-10.162-84.116-16.941-95.689
			c-6.77-11.573-8.467-30.202-8.467-30.202l-1.696-15.812l-9.311,0.843c0,0-5.081,34.442-12.421,56.744
			c-7.342,22.295-2.541,113.191-2.541,113.191L235.971,550z"/>
		<path d="M233.427,550h5.089l-1.033-17.799c-0.048-0.903-4.693-90.67,2.416-112.264c6.312-19.178,11.008-47.505,12.217-55.187
			l4.844-0.439l1.428,13.311c0.098,1.059,1.883,19.402,8.803,31.232c5.342,9.119,13.801,71.459,16.61,94.71
			c0.001,0.015,0.004,0.03,0.006,0.046l6.462,46.39h5.131l-6.557-47.068c-0.1-0.816-2.631-21.632-5.936-43.556
			c-6.849-45.435-10.225-51.196-11.332-53.088c-6.398-10.938-8.113-28.971-8.131-29.15c0-0.014-0.002-0.027-0.004-0.041
			l-1.695-15.811c-0.148-1.38-1.377-2.386-2.756-2.26l-9.311,0.844c-1.168,0.105-2.113,0.998-2.283,2.159
			c-0.051,0.343-5.133,34.479-12.322,56.319c-7.404,22.49-2.861,110.39-2.664,114.134L233.427,550z"/>
	</g>
	<path fill="#4C4C4C" d="M278.329,550h212.126c0.289-24.904,0.517-49.77,0.517-66.219c0,0-4.238-85.53-24.559-126.176
		c0,0-25.406-15.247-68.594-27.95c0,0-38.104-25.4-68.598-38.105c0,0-11.006-15.245-22.857-22.859c0,0,9.311,17.776,10.158,24.556
		C317.309,299.511,307.934,379.07,278.329,550z"/>
	<g>
		<g>
			<path fill="#DDAE8B" d="M230.993,313.997l23.08,26.037c0,0,54.538-62.245,49.955-70.717c-4.154-7.684-3.168-8.888-8.466-9.104
				c-5.288-0.206-71.344,13.981-71.344,13.981L230.993,313.997z"/>
		</g>
		<g>
			<path fill="#BD9275" d="M243.271,325.004l-0.422-12.705c0,0,15.246-6.347,15.668-10.164c0.422-3.806-2.119,0.421-9.742,0.421
				c-7.617,0-11.43-14.812-11.43-14.812s-21.171-11.438-23.713-13.971c-2.54-2.541-12.038-15.331-12.038-15.331
				s-10.192,13.211-4.262,22.521C203.257,290.284,243.271,323.307,243.271,325.004z"/>
		</g>
		<g>
			<path d="M242.427,307.639c0,0-14.824-13.127-16.938-22.437c-2.119-9.321-2.963,8.888,5.926,15.668
				C240.308,307.639,240.729,308.915,242.427,307.639z"/>
		</g>
		<g>
			<path d="M265.286,297.053l8.473-14.813C273.759,282.239,279.267,291.971,265.286,297.053z"/>
		</g>
		<g>
			<path fill="none" stroke="#000000" stroke-width="20.5397" d="M60.251,427.889"/>
		</g>
		<g>
			<path d="M39.927,356.196c0,0,0,5.642,8.468,23.99c0,0-10.161-9.598-15.524-21.737L39.927,356.196z"/>
		</g>
		<g>
			<path fill="#A4A4A4" d="M289.424,383.571c0,0-52.783-29.917-65.771,9.031c0,0-1.692,1.414-3.668,1.697
				c-1.975,0.28-3.953-3.385-3.953-3.385l-9.312-59.564l62.098,9.033C268.817,340.384,289.424,382.728,289.424,383.571z"/>
		</g>
		<g>
			<path d="M349.829,374.968c-0.125,0-0.253-0.02-0.379-0.059c-9.16-2.863-20.812-12.243-21.305-12.641
				c-0.545-0.441-0.629-1.242-0.188-1.787s1.241-0.63,1.787-0.188c0.115,0.094,11.769,9.473,20.463,12.191
				c0.67,0.209,1.043,0.922,0.834,1.591C350.872,374.62,350.37,374.968,349.829,374.968z"/>
		</g>
		<g>
			<path fill="none" stroke="#000000" stroke-width="20.5397" d="M438.466,427.89"/>
		</g>
		<g>
			<path d="M358.3,330.787c0,0-10.725-12.14-18.631-20.606c-7.905-8.467-16.938-19.763-22.586-27.374
				c-5.637-7.624-11.007-11.019-11.007-11.019v-6.203l2.54,4.794l23.713,23.147l7.34,5.928c0,0,26.814,29.925,25.686,31.622
				c-1.123,1.687-9.879,11.85-12.984,13.825l-4.794-3.671C347.576,341.229,356.321,333.05,358.3,330.787z"/>
		</g>
		<g>
			<path d="M458.794,356.197c0,0,0,5.641-8.472,23.989c0,0,10.16-9.598,15.528-21.737L458.794,356.197z"/>
		</g>
		<g>
			<path d="M486.171,489.995c0,0-7.336,36.697-5.645,39.237c1.693,2.54,7.906-16.655,7.906-20.606
				C488.433,504.673,486.171,489.995,486.171,489.995z"/>
		</g>
		<g>
			<path fill="#231F20" d="M271.646,359.299c0,0-3.396,9.595-6.779,12.987c-3.385,3.385-2.82,5.082-2.82,5.082H246.8
				c0,0-2.822-6.779-5.359-8.475c-2.539-1.689-3.106-10.445-3.106-13.552c0-3.098-1.415-15.235-1.415-15.235l39.52-1.697
				L271.646,359.299z"/>
			<path d="M262.046,379.908H246.8c-1.025,0-1.95-0.616-2.345-1.563c-1.22-2.922-3.259-6.559-4.427-7.34
				c-1.755-1.168-2.9-3.692-3.6-7.943c-0.469-2.846-0.635-5.937-0.635-7.72c0-2.42-1.01-11.606-1.397-14.941
				c-0.082-0.701,0.132-1.405,0.59-1.942s1.119-0.859,1.825-0.89l39.519-1.698c0.788-0.035,1.554,0.305,2.062,0.914
				s0.701,1.42,0.523,2.193l-4.793,20.89c-0.021,0.095-0.049,0.188-0.082,0.279c-0.367,1.037-3.693,10.241-7.375,13.934
				c-1.711,1.71-2.042,2.69-2.102,2.938c0.088,0.642-0.07,1.3-0.456,1.835C263.63,379.516,262.862,379.908,262.046,379.908z
				 M248.452,374.827h11.498c0.488-1.188,1.422-2.641,3.119-4.338c2.399-2.405,5.191-9.276,6.133-11.903l4.016-17.495l-33.468,1.438
				c0.421,3.812,1.124,10.518,1.124,12.813c0,4.851,0.988,10.507,1.998,11.453C245.191,368.363,247.345,372.452,248.452,374.827z"/>
		</g>
		<g>
			<path fill="none" d="M234.101,496.765c0,0-14.681-82.424-22.021-97.104c-7.34-14.677-7.9-45.162-7.9-45.162l-16.938-0.566
				l38.953,172.758L234.101,496.765z"/>
		</g>
		<g>
			<path d="M257.241,344.899c0,0-9.309,11.009-14.393,22.016c0,0-2.446-6.317-2.119-11.213c0.428-6.25,12.066-13.344,12.066-13.344
				S256.397,344.056,257.241,344.899z"/>
		</g>
		<g>
			<g>
				<path fill="#A1A1A0" d="M216.599,390.628c0,0,7.057-23.99,36.695-52.497c0,0-26.25-30.203-46.01-45.173
					c-19.759-14.958-12.749-26.132-12.749-26.132s-10.682,15.979-11.524,26.698C182.161,304.254,189.784,360.146,216.599,390.628z"
					/>
				<path d="M216.599,393.169c-0.721,0-1.42-0.309-1.907-0.863c-14.731-16.746-23.202-40.227-27.714-56.976
					c-5.237-19.443-6.953-36.269-6.5-42.007c0.885-11.248,11.494-27.234,11.945-27.909l2.112,1.412l2.151,1.35l0.021-0.033
					c-0.227,0.386-5.316,9.598,12.109,22.79c19.744,14.957,45.314,44.291,46.394,45.531c0.888,1.021,0.819,2.561-0.156,3.498
					c-28.819,27.719-35.95,51.149-36.019,51.383c-0.262,0.888-0.984,1.563-1.889,1.764
					C216.966,393.148,216.781,393.169,216.599,393.169z M191.494,277.04c-2.71,5.158-5.554,11.631-5.951,16.684
					c-0.413,5.221,1.316,21.633,6.341,40.285c4.076,15.132,11.453,35.896,23.852,51.613c3.314-8.043,12.533-26.436,34.053-47.625
					c-5.957-6.703-27.471-30.463-44.039-43.014C196.771,288.186,192.918,281.984,191.494,277.04z"/>
			</g>
			<g>
				<path fill="#F2F2F2" d="M250.189,338.409c0,0-7.624-3.672-10.446-8.753c0,0-7.34-8.468-12.982-9.593
					c-5.648-1.127-13.346,3.248-17.505,34.436c-1.127,8.467,6.496,31.612,6.496,31.612S227.887,357.605,250.189,338.409z"/>
			</g>
		</g>
		<g>
			<path fill="#F2F2F2" d="M295.071,387.81c0,0-25.688-37.262-41.777-48.27c0,0,47.991-53.916,49.966-62.104
				c1.976-8.182-0.565-11.852-0.565-11.852l13.83,25.122C316.524,290.706,303.826,366.071,295.071,387.81z"/>
			<path d="M295.071,390.351c-0.83,0-1.615-0.406-2.092-1.1c-0.254-0.369-25.605-37-41.121-47.613
				c-0.602-0.412-0.998-1.064-1.087-1.789s0.14-1.451,0.624-1.997c0.12-0.135,12.121-13.626,24.205-27.938
				c22.359-26.482,24.934-32.01,25.189-33.073c1.375-5.696,0.312-8.741-0.094-9.617l-0.228-0.414
				c-0.653-1.185-0.263-2.673,0.888-3.385c1.149-0.712,2.656-0.398,3.426,0.714c0.064,0.092,0.229,0.344,0.434,0.758l13.535,24.584
				c0.275,0.501,0.375,1.082,0.279,1.647c-0.521,3.088-12.846,75.887-21.604,97.631c-0.35,0.867-1.146,1.473-2.076,1.576
				C295.257,390.345,295.163,390.351,295.071,390.351z M257.039,339.144c13.109,10.264,30.528,33.756,37.298,43.216
				c7.91-24.038,18.183-83.304,19.535-91.206l-7.879-14.309c-0.078,0.386-0.166,0.781-0.264,1.187
				c-0.376,1.56-1.375,5.702-26.252,35.167C270.153,324.24,260.882,334.794,257.039,339.144z"/>
		</g>
		<g>
			<path fill="#B98E72" d="M205.09,264.518l-6.762-7.916l-2.639-2.309c0,0,0.329,13.358-0.989,17.151"/>
			<path d="M195.946,271.877l-2.492-0.867c1.018-2.926,1.006-13.036,0.916-16.685l-0.074-3.004l5.035,4.424l6.762,7.916
				l-2.006,1.714l-6.699-7.843l-0.338-0.296C197.069,261.505,196.95,268.989,195.946,271.877z"/>
		</g>
		<g>
			<path fill="#DDAE8B" d="M292.823,267.653l6.762-7.916l2.639-2.309c0,0-0.33,13.358,0.988,17.151"/>
			<path d="M301.966,275.013c-1.004-2.888-1.123-10.373-1.102-14.642l-0.339,0.296l-6.7,7.843l-2.006-1.714l6.824-7.989l4.973-4.351
				l-0.074,3.004c-0.09,3.649-0.101,13.761,0.916,16.686L301.966,275.013z"/>
		</g>
		<g>
			<g>
				<path fill="#3C2517" d="M317.716,263.89c-1.525,0-4.194-0.61-5.506-4.55c-1.148-0.65-4.075-2.143-6.746-2.143
					c-1.285,0-2.285,0.345-3.053,1.055l-2.597-1.945l14.292-28.805l3.115,0.925c-0.513,4.372-1.056,16.601,2.533,20.634
					c0.727,0.817,1.545,1.198,2.572,1.198c0.658,0,1.408-0.16,2.229-0.475l3.117-1.199l-0.942,3.203
					c-0.524,1.782-2.467,5.007-6.236,5.583c0.405,0.397,0.897,0.686,1.472,0.686c0.488,0,1.051-0.189,1.674-0.563l1.968,2.626
					C325.188,260.508,321.419,263.89,317.716,263.89z"/>
			</g>
			<g>
				<path d="M315.583,228.236c0,0-2.783,23.674,6.744,23.674c0.842,0,1.777-0.184,2.821-0.585c0,0-1.321,4.489-5.851,4.489
					c-0.533,0-1.111-0.062-1.736-0.201c0,0,1.295,4.097,4.404,4.097c0.736,0,1.575-0.229,2.523-0.798c0,0-3.609,3.331-6.774,3.331
					c-1.715,0-3.3-0.977-4.11-3.99c0,0-4.196-2.702-8.141-2.702c-1.512,0-2.984,0.396-4.172,1.492L315.583,228.236 M312.628,226.77
					l-14.291,28.805l5.191,3.89c0.287-0.265,0.801-0.618,1.936-0.618c1.852,0,4.055,0.932,5.408,1.639
					c1.787,4.529,5.312,5.054,6.843,5.054c4.24,0,8.251-3.503,9.011-4.205l-2.659-3.55c2.437-1.512,3.788-3.975,4.246-5.529
					l1.885-6.406l-6.233,2.397c-0.631,0.243-1.182,0.366-1.637,0.366c-0.461,0-0.865-0.11-1.342-0.646
					c-0.674-0.758-2.266-3.34-2.463-10.91c-0.118-4.507,0.332-8.396,0.336-8.435L312.628,226.77L312.628,226.77z"/>
			</g>
		</g>
		<g>
			<path fill="#3C2517" d="M322.015,158.971c0,0,16.492,54.257,5.607,68.11s-13.523,4.947-13.523,4.947
				S317.728,164.249,322.015,158.971z"/>
			<path d="M317.602,236.496c-3.077,0-4.644-2.514-5.084-3.999l-0.081-0.273l0.016-0.284c0.01-0.17,0.925-17.17,2.354-34.597
				c2.928-35.718,5.107-38.402,5.93-39.413l1.955-2.407l0.902,2.967c0.041,0.137,4.183,13.833,6.93,29.047
				c3.754,20.783,3.214,34.43-1.604,40.562C324.479,233.75,320.778,236.496,317.602,236.496z M315.765,231.78
				c0.195,0.455,0.742,1.418,1.837,1.418c0.938,0,3.663-0.695,8.724-7.135c7.647-9.733,0.406-43.913-4.407-61.466
				c-0.948,4.713-2.278,14.144-3.825,33.011C316.779,213.635,315.899,229.304,315.765,231.78z"/>
		</g>
		<g>
			<path fill="#603A17" d="M313.604,242.254c0,0,1.648,11.874,8.41,10.555c0,0-3.628,3.463-12.369-2.969"/>
		</g>
		<g>
			<path fill="#603A17" d="M316.902,257.591c0,0,0.165,2.144,1.979,2.639s-2.805,1.814-3.463-1.979L316.902,257.591z"/>
		</g>
		<g>
			<path fill="#DDAE8B" d="M300.933,68.135l-23.746-17.81l-75.197,3.463l-38.094,80.145l14.842,88.061
				c10.389,36.609,55.408,64.809,55.408,64.809s32.156,5.442,42.547-4.948c21.634-21.635,39.576-34.135,39.576-53.924
				s3.959-56.893,3.959-56.893l10.883-46.009L300.933,68.135z"/>
		</g>
		<g>
			<path fill="#B98E72" d="M178.595,231.313l7.805,8.026c0,0,11.795,21.741,25.979,29.986l21.768,15.336l32.402,2.725l7.037-7.916
				c0,0-43.209-3.865-50.189-9.84c-6.98-5.976-15.471-20.093-15.471-20.093l-14.346-48.978l-23.747-11.379L178.595,231.313z"/>
		</g>
		<g>
			<path fill="#B98E72" d="M231.972,244.397c0,0,7.256,12.915,7.256,20.615c0,0.66,2.747-2.137,6.432-3.133
				c4.578-1.239,14.817,1.767,17.646-0.165c6.761-4.618,7.586-16.657,7.586-16.657S248.462,254.952,231.972,244.397z"/>
		</g>
		<g>
			<path fill="#B98E72" d="M298.433,127.637c10.751,2.882,17.684,14.864,12.533,14.513c-2.041-0.137-3.492,9.043-5.442,8.411
				c-7.522-2.437-25.358-9.884-27.541-1.154c0,0-5.899,0.155-7.916,0.33c0,0-2.429-6.652-3.775-7.834
				c-1.343-1.177-1.175-3.86,2.015-6.887c0,0-0.332-4.54,1.18-5.203c1.512-0.675,4.367-2.692,4.367-2.692
				S288.487,124.972,298.433,127.637z"/>
		</g>
		<g>
			<path fill="#DDAE8B" d="M242.36,69.587"/>
		</g>
		<g>
			<path d="M264.349,137.641c0,0-3.958,4.837-2.639,10.115c0,0-0.221-4.178,1.759-4.398
				C265.448,143.138,263.029,139.4,264.349,137.641z"/>
		</g>
		<g>
			<path d="M277.187,53.626l-75.197,3.463l-38.094,80.145l14.842,88.061c10.389,36.609,55.408,64.81,55.408,64.81
				s8.418,1.424,18.03,1.424c9.177,0,19.442-1.298,24.517-6.372c21.634-21.635,39.576-34.136,39.576-53.924
				c0-19.789,3.959-56.893,3.959-56.893l10.883-46.009l-30.178-56.893L277.187,53.626L277.187,53.626z M252.176,284.866
				c-7.306,0-13.978-0.871-16.349-1.219c-5.865-3.865-46.35-26.826-52.58-59.375l-14.557-86.371l36.279-76.328l70.773-3.259
				l21.594,16.196l28.881,54.446l-10.551,44.601l-0.031,0.29c-0.162,1.525-3.564,37.581-3.984,57.383
				c-0.355,16.794-11.096,24.651-26.452,39.26c-3.772,3.589-7.735,4.375-11.835,8.474
				C270.128,282.202,262.643,284.866,252.176,284.866L252.176,284.866z"/>
		</g>
		<g>
			<path fill="#B98E72" d="M242.36,70.906c0,0,37.602-1.319,51.783,6.927c0,0,9.566,13.523,15.173,34.962l15.832-16.162
				l-30.675-38.59l-66.296,0.66L242.36,70.906z"/>
		</g>
		<g>
			<path fill="#B98E72" d="M200.252,149.077c-2.198,0.66-8.686,4.947-8.686,4.947l-7.586-7.256l-0.659-10.225l46.176-3.628
				c0,0,9.137,8.064,13.639,14.586c4.502,6.523,1.203,8.832,1.203,8.832s-0.988-3.628-5.936-3.628c-4.948,0-4.948,0-4.948,0
				s-5.624-0.723-6.927,0.66"/>
		</g>
		<g>
			<path fill="#3C2517" d="M232.687,129.509c0,0-3.078-5.277-7.477-5.717c0,0,0.88,0.33,0.66,1.099c0,0-0.66-0.549-0.989-0.549
				v0.439c0,0-10.555-0.879-22.099,3.408l-11.324,6.487l-3.849,3.846c0,0,20.011-5.825,28.806-2.637
				C216.415,135.885,234.226,138.854,232.687,129.509z"/>
			<path d="M187.886,139.472l-0.977-1.65l3.942-3.939l11.586-6.621c8.304-3.084,16.095-3.545,19.999-3.545
				c0.578,0,1.066,0.01,1.455,0.023v-0.388h0.989c0.093,0,0.188,0.011,0.287,0.032l0.141-0.577c4.845,0.484,8.097,5.97,8.232,6.203
				l0.093,0.158l0.029,0.18c0.32,1.947-0.074,3.59-1.172,4.883c-1.741,2.052-5.17,3.092-10.189,3.092l0,0
				c-3.242,0-5.936-0.443-6.049-0.462l-0.09-0.015l-0.085-0.031c-1.638-0.594-3.851-0.895-6.576-0.895
				C200.193,135.92,188.008,139.437,187.886,139.472z M192.063,135.469l-1.164,1.163c4.398-1.077,12.076-2.69,18.603-2.69
				c2.908,0,5.315,0.33,7.159,0.981c0.473,0.073,2.877,0.421,5.641,0.421l0,0c4.35,0,7.352-0.828,8.682-2.394
				c0.682-0.803,0.93-1.816,0.755-3.094c-0.434-0.682-2.335-3.489-4.937-4.624l-0.396,1.392l-0.966-0.805l-0.64-0.052
				c-0.01-0.001-0.881-0.071-2.363-0.071c-3.76,0-11.248,0.442-19.234,3.393L192.063,135.469z"/>
		</g>
		<g>
			<path fill="#3C2517" d="M276.442,122.033c0,0,26.943-7.571,35.402,11.654c2.42,5.497,0,9.235,0,9.235
				s-9.675-16.052-25.946-11.654c-16.271,4.398-21.05,0.464-16.271-3.518C272.265,125.551,274.024,122.912,276.442,122.033z"/>
			<path d="M311.815,144.789l-0.817-1.355c-0.072-0.12-7.364-11.939-19.511-11.939c-1.748,0-3.542,0.245-5.33,0.729
				c-4.834,1.307-8.94,1.969-12.203,1.969c-4.898,0-6.468-1.492-6.921-2.745c-0.294-0.81-0.429-2.467,1.96-4.458
				c0.897-0.748,1.697-1.556,2.47-2.338c1.476-1.493,2.87-2.904,4.642-3.548l0.07-0.022c0.22-0.062,5.439-1.507,12.074-1.507
				c8.424,0,19.515,2.379,24.502,13.715c2.604,5.917,0.035,10-0.075,10.171L311.815,144.789z M291.487,129.516
				c10.613,0,17.604,7.901,20.146,11.342c0.395-1.438,0.612-3.806-0.693-6.773c-4.558-10.358-14.854-12.533-22.69-12.533
				c-6.09,0-11.041,1.298-11.504,1.423c-1.338,0.5-2.515,1.69-3.875,3.066c-0.806,0.815-1.639,1.659-2.609,2.468
				c-1.036,0.863-1.561,1.731-1.367,2.264c0.24,0.664,1.711,1.439,5.061,1.439c3.045,0,7.086-0.657,11.686-1.9
				C287.597,129.784,289.564,129.516,291.487,129.516z"/>
		</g>
		<g>
			<path fill="#B98E72" d="M234.296,198.248c0,0-5.104,5.827-5.039,4.106c0.066-1.72,3.639-5.018,3.781-8.749
				C233.183,189.879,234.296,198.248,234.296,198.248z"/>
		</g>
		<g>
			<path fill="#B98E72" d="M246.842,151.882c0,0,4.464,1.464,2.101,12.559c-2.365,11.108,1.379,14.483-1.273,16.319
				c-2.656,1.83-9.027,13.249,5.156,16.983c3.835,1.009-4.529,0.257-4.529,0.257s0.734,3.259-7.877,3.358
				c-8.616,0.1-3.846-11.994-3.846-11.994l3.258-0.736c0,0-0.471-4.537,4.514-11.011l-0.652-16.6L246.842,151.882z"/>
		</g>
		<g>
			<path d="M262.302,201.339c0,0,8.154,0.596,7.951-5.294c-0.204-5.89-3.421-8.02-3.979-4.743c0,0-1.047,1.104-1.116-0.757
				c-0.073-1.873-0.095-5.036-1.215-5.794c-1.118-0.755,1.351-5.25,1.346-1.379c-0.004,3.867,5.653,5.957,5.653,5.957
				s6.117,12.506-3.367,12.927C260.673,202.568,262.302,201.339,262.302,201.339z"/>
		</g>
		<g>
			<path d="M240.489,190.161c0,0,0.589-7.864,3.549-10.187c2.96-2.33,0.666-17.336,0.666-17.336l2.154-7.524
				c0,0,2.34-3.99-3.723-7.613c-1.543-0.918,2.093,5.249,2.093,5.249s0.028,3.016-1.757,4.67
				c-1.787,1.654-0.272,14.487,0.258,15.651c0.529,1.164-0.844,6.994-3.031,7.919C238.511,181.911,237.881,190.785,240.489,190.161z
				"/>
		</g>
		<g>
			<path d="M239.297,200.668c0,0-5.831-1.15-2.501-9.639c1.832-4.668-2.889-1.339-3.182,0.659c0,0-2.94,11.348,5.1,11.029
				C244.247,202.501,240.661,200.642,239.297,200.668z"/>
		</g>
		<g>
			<path d="M252.621,203.041c0,0,3.83,1.154,4.698-2.755c0.869-3.912,5.633-2.8,5.633-2.8s2.283,0.304,1.959,1.3
				c-0.324,0.983-2.074-0.162-3.539,0.578c-1.463,0.728-2.621,1.149-3.303,3.816c-0.508,1.986-5.586,1.576-5.586,1.576
				s-0.851-0.25-0.896-0.963C251.543,203.078,252.122,202.952,252.621,203.041z"/>
		</g>
		<g>
			<path d="M243.147,197.519c0,0-3.664,0.142-3.848,1.143c-0.18,0.989,1.695,1.609,2.385,1.453c0.688-0.156,0.475-1.135,1.549-1.094
				c1.074,0.042,3.164,0.728,2.986-0.207c-0.18-0.934-1.941,0.073-2.277-0.518C243.608,197.704,243.504,197.566,243.147,197.519z"/>
		</g>
		<g>
			<path fill="#B98E72" d="M262.368,169.764c0,0-0.082,9.62,1.01,11.088c1.088,1.482,2.027-0.488,1.102-2.538
				C263.554,176.269,262.937,173.66,262.368,169.764z"/>
		</g>
		<g>
			<path fill="#FFFFFF" d="M303.544,148.169c-0.572-1.432-5.387-9.275-15.955-9.275c-0.438,0-0.887,0.012-1.338,0.037
				c-9.114,0.504-13.254,8.11-13.855,9.169c-0.293,0.342-1.123,1.314-1.092,1.843c0.043,0.771,1.135,1,1.781,1.437l0.135,0.091
				l0.157,0.043c1.928,0.531,3.226,1.273,4.479,1.772c2.206,0.877,4.108,2.534,8.99,3.211c0.634,0.088,1.281,0.132,1.922,0.132
				c7.461,0,13.209-5.823,13.703-6.482c0.496-0.66,3.052,0.412,3.052,0.412L303.544,148.169z"/>
		</g>
		<g>
			<path fill="#FFFFFF" d="M229.23,147.904l-0.03-0.03c-0.27-0.265-6.996-7.123-14.441-7.123c-0.936,0-1.857,0.101-2.742,0.299
				c-5.564,1.25-10.305,4.564-11.104,8.027c-0.084,0.358-2.885,2.818-2.859,3.188c0.09,1.269,3.221,1.542,4.178,2.308
				c1.527,1.221,5.467,3.959,10.994,3.959h0.001c3.48,0,7.06-1.407,10.89-3.048c0.63-0.271,1.223-0.513,1.771-0.736
				c2.528-1.033,4.199-2.595,4.512-4.03C230.647,149.579,229.852,148.566,229.23,147.904z"/>
		</g>
		<g>
			<path fill="none" d="M302.099,147.444c-0.572-1.432-3.963-8.574-14.533-8.574c-0.437,0-0.887,0.013-1.336,0.037
				c-9.115,0.504-13.232,7.144-13.834,8.203c-0.293,0.341-0.441,0.821-0.412,1.35c0.044,0.771,0.455,1.493,1.102,1.93l0.135,0.092
				l0.157,0.043c1.928,0.531,3.226,1.047,4.479,1.546c2.206,0.877,4.289,1.706,9.17,2.383c0.635,0.088,1.281,0.132,1.922,0.132
				c7.461,0,12.751-5.868,12.973-6.118l0.406-0.457L302.099,147.444z"/>
		</g>
		<g>
			<circle fill="#3C2517" cx="286.503" cy="146.107" r="6.707"/>
		</g>
		<g>
			<circle cx="286.394" cy="146.493" r="1.814"/>
		</g>
		<g>
			<circle cx="215.976" cy="149.461" r="1.814"/>
		</g>
		<g>
			<circle fill="#FFFFFF" cx="217.623" cy="149.063" r="1.319"/>
		</g>
		<g>
			<circle fill="#3C2517" cx="216.415" cy="149.076" r="6.707"/>
		</g>
		<g>
			<path d="M216.37,142.785c3.416,0,6.185,2.769,6.185,6.184s-2.769,6.185-6.185,6.185s-6.184-2.769-6.184-6.185
				S212.954,142.785,216.37,142.785 M216.37,141.795c-3.955,0-7.174,3.218-7.174,7.174c0,3.956,3.219,7.174,7.174,7.174
				c3.956,0,7.174-3.218,7.174-7.174C223.544,145.013,220.326,141.795,216.37,141.795L216.37,141.795z"/>
		</g>
		<g>
			<circle cx="216.37" cy="149.134" r="2.721"/>
		</g>
		<g>
			<circle fill="#FFFFFF" cx="219.979" cy="148.96" r="1.145"/>
		</g>
		<g>
			<circle fill="#FFFFFF" cx="218.852" cy="146.832" r="0.626"/>
		</g>
		<g>
			<circle fill="#3C2517" cx="286.999" cy="146.217" r="6.707"/>
		</g>
		<g>
			<path d="M286.954,139.926c3.416,0,6.184,2.769,6.184,6.185s-2.768,6.185-6.184,6.185s-6.185-2.769-6.185-6.185
				S283.538,139.926,286.954,139.926 M286.954,138.937c-3.956,0-7.174,3.218-7.174,7.174s3.218,7.174,7.174,7.174
				c3.955,0,7.174-3.218,7.174-7.174S290.909,138.937,286.954,138.937L286.954,138.937z"/>
		</g>
		<g>
			<circle cx="286.954" cy="146.275" r="2.721"/>
		</g>
		<g>
			<circle fill="#FFFFFF" cx="290.563" cy="146.102" r="1.145"/>
		</g>
		<g>
			<circle fill="#FFFFFF" cx="289.436" cy="143.974" r="0.626"/>
		</g>
		<g>
			<path d="M303.544,148.169c-0.572-1.432-5.387-9.275-15.955-9.275c-0.438,0-0.887,0.012-1.338,0.037
				c-9.114,0.504-13.254,8.11-13.855,9.169c-0.293,0.342-1.123,1.314-1.092,1.843c0.043,0.771,1.135,1,1.781,1.437l0.135,0.091
				l0.157,0.043c1.928,0.531,3.226,1.273,4.479,1.772c2.206,0.877,4.108,2.534,8.99,3.211c0.634,0.088,1.281,0.132,1.922,0.132
				c7.461,0,13.209-5.823,13.703-6.482c0.496-0.66,3.052,0.412,3.052,0.412L303.544,148.169z M286.806,154.849
				c-7.531-1.044-7.779-2.803-13.166-4.288c-0.762-0.516-0.824-1.539-0.439-1.869c0,0,3.836-7.295,13.083-7.806
				c10.033-0.554,13.908,5.442,14.897,7.916C301.181,148.802,294.816,155.959,286.806,154.849z"/>
		</g>
		<g>
			<path d="M232.356,151c-0.281-0.818-2.638-2.576-3.126-3.096l-0.03-0.03c-0.27-0.265-6.996-7.123-14.441-7.123
				c-0.936,0-1.857,0.101-2.742,0.299c-5.564,1.25-10.305,4.564-11.104,8.027c-0.084,0.358-2.885,2.818-2.859,3.188
				c0.09,1.269,3.221,1.542,4.178,2.308c1.527,1.221,5.467,3.959,10.994,3.959h0.001c3.48,0,7.06-1.407,10.89-3.048
				c0.63-0.271,1.223-0.513,1.771-0.736c2.528-1.033,4.435-2.592,4.875-3.637C230.858,150.881,233.456,152.54,232.356,151z
				 M224.771,153.694c-10.061,6.708-18.195,1.978-21.494-0.661s1.43-7.09,9.51-8.905c8.081-1.814,15.723,4.452,15.723,4.452
				C230.981,151.22,228.95,150.907,224.771,153.694z"/>
		</g>
		<g>
			<path fill="#3C2517" d="M289.308,234.942c6.486-0.77,9.784-2.529,9.784-2.529c1.649-0.55,2.089-6.486,2.089-6.486
				c0.66,2.529,0.77,3.848,0.77,3.848c1.649-0.879,0.439-7.313,0.439-7.313c1.649,1.649,1.814,5.112,1.814,5.112
				c8.08-8.74,9.4-20.944,9.4-20.944l1.319,1.708l-0.989,25.617l-4.178,13.304l-11.215,13.413l-16.932,16.492l-11.215,7.366
				l-11.764,2.639l-13.962-0.22l-12.864-0.88l-11.324-7.366l-15.831-15.062l-13.964-17.372l-2.639-4.948l-12.093-21.879
				l-0.22-14.292l6.156-13.523l4.398,15.502c0,0,11.543,19.46,16.49,23.088c0,0-1.979-3.628,0-5.442c0,0-0.329,3.545,3.547,7.091
				c3.875,3.545,5.689,2.309,5.689,2.309L289.308,234.942z"/>
		</g>
		<g>
			<path fill="#3C2517" d="M297.937,235.328c-1.154-0.165-17.15-20.12-17.15-20.12c-9.895-10.884-24.078-5.112-24.078-5.112
				s-2.309,2.144-9.234,0.165c-6.928-1.979-19.461-3.298-27.707,5.277c-8.245,8.576-18.635,18.306-18.635,19.955l21.604,32.818
				l61.35,1.814L297.937,235.328z"/>
			<path d="M284.526,270.798l-62.152-1.838l-21.902-33.27v-0.198c0-1.307,3.076-4.518,11.215-12.688
				c2.532-2.542,5.15-5.172,7.605-7.724c4.369-4.544,10.561-6.947,17.9-6.947c4.329,0,8.078,0.812,10.462,1.493
				c1.889,0.54,3.595,0.813,5.071,0.813c2.547,0,3.533-0.827,3.543-0.835l0.082-0.071l0.109-0.049
				c0.158-0.064,3.936-1.578,9.002-1.578c6.266,0,11.734,2.372,15.812,6.857l0.026,0.031c5.821,7.263,15.454,18.98,16.821,19.893
				l0.738,0.105L284.526,270.798z M223.099,267.662l60.543,1.791l13.488-33.882c-0.895-0.769-3.004-3.045-8.709-9.944
				c-3.982-4.814-7.881-9.671-8.137-9.989c-3.874-4.254-8.861-6.411-14.822-6.411c-4.398,0-7.832,1.225-8.417,1.446
				c-0.378,0.291-1.657,1.087-4.319,1.087c-1.599,0-3.427-0.291-5.434-0.864c-2.303-0.658-5.924-1.442-10.1-1.442
				c-7.072,0-12.775,2.201-16.949,6.542c-2.463,2.561-5.086,5.194-7.623,7.741c-4.785,4.805-10.186,10.226-10.781,11.631
				L223.099,267.662z"/>
		</g>
		<g>
			<path fill="#3C2517" d="M297.223,233.403c1.649-0.55,3.519-7.531,3.519-7.531c1.045,1.814,1.209,3.902,1.209,3.902
				c1.649-0.879,0.439-7.313,0.439-7.313c1.649,1.649,1.814,5.112,1.814,5.112c8.08-8.74,9.977-21.436,9.977-21.436l0.743,2.199
				l-0.989,25.617l-4.178,13.304l-11.215,13.413l-16.932,16.492l-11.215,7.366l-11.764,2.639l-13.962-0.22l-12.864-0.88
				l-11.324-7.366l-15.831-15.062l-13.964-17.372l-2.639-4.948l-12.093-21.879l-0.22-14.292l6.156-13.523l4.398,15.502
				c0,0,11.543,19.46,16.49,23.088c0,0-1.979-3.628,0-5.442c0,0-0.329,2.226,1.732,4.7"/>
			<path d="M258.734,288.157l-14.132-0.224l-13.12-0.897l-11.616-7.556l-0.066-0.063l-15.879-15.107l-0.041-0.052l-14.021-17.444
				l-2.684-5.029l-12.205-22.083l-0.227-14.762l7.365-16.179l5.098,17.97c0.797,1.334,8.586,14.305,13.708,20.26
				c-0.003-1.041,0.289-2.114,1.198-2.948l2.057-1.885l-0.409,2.759c-0.009,0.064-0.209,1.855,1.513,3.922l-1.52,1.267
				c-0.075-0.089-0.146-0.178-0.215-0.267l-1.342,1.173c-5.053-3.705-16.283-22.58-16.758-23.381l-0.066-0.111l-3.697-13.033
				l-4.947,10.867l0.213,13.823l11.975,21.663l2.602,4.878l13.863,17.248l15.719,14.954l11.031,7.176l12.582,0.86l13.818,0.218
				l11.473-2.574l10.985-7.214l16.827-16.391l11.056-13.224l4.079-12.99l0.842-21.785c-1.394,4.571-4.055,11.047-8.861,16.247
				l-1.604,1.733l-0.016-0.341c-0.213,0.449-0.504,0.802-0.896,1.01l-1.332,0.711l-0.119-1.506c0-0.007-0.031-0.348-0.133-0.858
				c-0.828,2.416-1.979,4.909-3.295,5.348l-0.627-1.877c-0.006,0.002-0.012,0.004-0.02,0.008c0.656-0.344,2.01-3.548,2.896-6.856
				l0.619-2.312l1.193,2.075c0.069,0.12,0.135,0.241,0.197,0.362c-0.056-0.967-0.182-2.051-0.379-3.097l-0.591-3.146l2.263,2.263
				c0.951,0.951,1.475,2.356,1.763,3.542c6.64-8.299,8.334-19.195,8.351-19.312l1.917-0.17l0.801,2.372l-1.002,25.931l-4.276,13.617
				l-11.409,13.638l-16.999,16.558l-11.444,7.517L258.734,288.157z"/>
		</g>
		<g>
			<path d="M298.952,238.012c-0.568-0.081-1.104-0.158-10.213-11.328c-4.227-5.184-8.375-10.414-8.707-10.834
				c-8.843-9.696-21.439-5.399-22.826-4.884c-0.729,0.541-3.535,2.096-10.005,0.247c-4.031-1.152-17.87-4.193-26.721,5.012
				c-2.464,2.563-5.089,5.197-7.626,7.745c-4.875,4.894-10.4,10.441-10.744,11.628c0-0.001,0.011-0.039,0.011-0.104h-1.979
				c0-1.371,2.41-3.986,11.311-12.921c2.531-2.542,5.15-5.169,7.602-7.72c9.617-10.001,24.392-6.771,28.691-5.543
				c6.152,1.759,8.289,0.061,8.309,0.044l0.133-0.123l0.148-0.051c0.152-0.062,3.773-1.514,8.685-1.598
				c6.56-0.113,12.256,2.294,16.499,6.961l0.043,0.051c6.232,7.871,16.615,20.682,17.941,21.549
				c-0.004-0.003-0.104-0.066-0.271-0.09L298.952,238.012z"/>
		</g>
		<g>
			<path fill="#DDAE8B" d="M282.646,227.372c-1.979-1.814-1.154,0.44-0.769,2.089c0.384,1.649-0.057,1.099-0.057,1.099
				c-7.531-7.091-9.455-5.772-9.455-5.772c0.715,0.165,1.155,0.77,1.155,0.77c-3.739-0.66-7.257-0.33-9.181-0.275
				c-1.924,0.055-0.109-1.044-0.109-1.044c-1.21-1.209-3.078,2.144-4.233,2.749c-1.154,0.604,0.165-2.034-3.737,0.11
				c-3.903,2.144-6.322,0.165-7.477,0.055s-0.11-0.439-0.385-1.154c-0.275-0.715-4.398,1.154-4.398,1.154
				c-0.494-2.253-2.857-2.858-2.857-2.858l-0.028,0.741c-2.722-0.742-9.812-0.907-10.39-0.907s0.494-1.155,0.494-1.155
				c-4.535,0.825-9.399,7.504-9.399,7.504c0.577-1.072,0.083-4.783,0.083-4.783c0,0.248-0.742,0.907-0.742,0.907
				c-2.969,2.226-5.772,5.854-7.257,7.999c-1.484,2.144,3.134-0.413,3.134-0.165c0,0.247,0.659,6.514,4.123,8.905
				c3.463,2.391,3.381,4.37,5.111,9.153c1.732,4.783,6.598,9.235,6.598,9.235c-0.99-1.154,0.082-2.804,0.082-2.804
				s2.391,0.825,5.359,0.66s1.237,0.825,0.66,2.062c-0.578,1.237,4.123-0.989,5.524-3.381c1.401-2.391,4.288-3.875,4.288-3.875
				c3.463-0.742,1.484,1.484,2.391,5.03c0.908,3.546,1.979,0.907,2.639,0.578c0.66-0.33,0.908-5.304,0.908-5.304
				c6.65,2.474,7.201,9.785,8.08,10.83c0.879,1.044,0.494-4.783,0.494-4.783c2.693,0.604,6.928,0.44,8.906-0.989
				s-0.055,2.144,0.989,2.418s5.772-8.686,6.157-11.929s1.648-5.607,4.232-8.411s3.023-4.233,3.463-5.333
				c0.439-1.099,1.484,0.385,1.484,0.385C291.112,237.487,284.626,229.186,282.646,227.372z"/>
		</g>
		<g>
			<path d="M282.646,227.372c-1.979-1.814-1.154,0.44-0.769,2.089c0.384,1.649-0.057,1.099-0.057,1.099
				c-7.531-7.091-9.455-5.772-9.455-5.772c0.715,0.165,1.155,0.77,1.155,0.77c-3.739-0.66-7.257-0.33-9.181-0.275
				c-1.924,0.055-0.109-1.044-0.109-1.044c-1.21-1.209-3.078,2.144-4.233,2.749c-1.154,0.604,0.165-2.034-3.737,0.11
				c-3.903,2.144-6.322,0.165-7.477,0.055s-0.11-0.439-0.385-1.154c-0.275-0.715-4.398,1.154-4.398,1.154
				c-0.494-2.253-2.857-2.858-2.857-2.858l-0.028,0.741c-2.722-0.742-9.812-0.907-10.39-0.907s0.494-1.155,0.494-1.155
				c-4.535,0.825-9.399,7.504-9.399,7.504c0.577-1.072,0.083-4.783,0.083-4.783c0,0.248-0.742,0.907-0.742,0.907
				c-2.969,2.226-5.772,5.854-7.257,7.999c-1.484,2.144,3.134-0.413,3.134-0.165c0,0.247,0.659,6.514,4.123,8.905
				c3.463,2.391,3.381,4.37,5.111,9.153c1.732,4.783,6.598,9.235,6.598,9.235c-0.99-1.154,0.082-2.804,0.082-2.804
				s2.391,0.825,5.359,0.66s1.237,0.825,0.66,2.062c-0.578,1.237,4.123-0.989,5.524-3.381c1.401-2.391,4.288-3.875,4.288-3.875
				c3.463-0.742,1.484,1.484,2.391,5.03c0.908,3.546,1.979,0.907,2.639,0.578c0.66-0.33,0.908-5.304,0.908-5.304
				c6.65,2.474,7.201,9.785,8.08,10.83c0.879,1.044,0.494-4.783,0.494-4.783c2.693,0.604,6.928,0.44,8.906-0.989
				s-0.055,2.144,0.989,2.418s5.772-8.686,6.157-11.929s1.648-5.607,4.232-8.411s3.023-4.233,3.463-5.333
				c0.439-1.099,1.484,0.385,1.484,0.385C291.112,237.487,284.626,229.186,282.646,227.372z M281.053,241.993
				c-1.54,1.979-3.298,6.157-4.397,10.115c-1.1,3.958-7.406,10.002-15.832,4.837c-3.408-2.089-2.419-3.188-2.419-3.188
				s2.968,0.109-0.989-1.43c-3.959-1.539-7.257-2.748-13.963,1.1c0,0,0.549,0.66,2.418-0.44c0,0-2.199,4.838-5.387,5.058
				c-3.189,0.22-11.654-0.88-12.644-7.037c-0.989-6.156-5.388-9.345-5.388-9.345s-5.826-8.246-2.639-10.995
				c0,0-0.879,2.969-0.109,3.079s1.539,0.22,7.916-7.146c0,0,13.412-1.099,14.622,1.1c0,0-0.055,3.023,1.154,1.924
				c1.21-1.1,2.804-1.759,3.903-0.935s4.232,1.319,5.717,1.264s4.947-1.979,5.882-1.814s2.2,2.089,2.858,1.594
				c0.66-0.495,0.166-2.529,1.705-2.419c1.539,0.11,8.41-0.219,13.248,0.661c0,0,5.882,6.541,6.707,6.431
				c0.824-0.11,1.068-0.515,0.109-3.023c-0.715-1.869,0.165-0.605,0.165-0.605s1.759,1.979,1.759,3.738
				C285.45,236.276,282.592,240.014,281.053,241.993z"/>
		</g>
		<g>
			<path fill="#603A17" d="M264.324,280.208c0,0,2.968-11.873,1.483-14.842l5.442-0.989
				C271.25,264.377,267.786,277.735,264.324,280.208z"/>
		</g>
		<g>
			<path fill="#603A17" d="M235.751,272.178c1.26,3.406,2.863,6.885,4.467,8.03c0,0-0.762-3.05-1.32-6.444L235.751,272.178z"/>
		</g>
		<g>
			<path fill="#603A17" d="M218.394,244.068c0,0,5.277,2.639,5.277,9.235s-1.1,6.376,0.439,9.015s-3.23-0.68-3.958-12.313
				C219.933,246.486,218.394,244.068,218.394,244.068z"/>
		</g>
		<g>
			<path fill="#603A17" d="M223.872,226.034c0,0,3.738-6.157,9.674-6.157c0,0-8.795-1.759-9.454,1.1
				S222.552,226.693,223.872,226.034z"/>
		</g>
		<g>
			<path fill="#603A17" d="M258.853,212.624c0,0,10.115-3.079,16.271,2.199l1.1,3.518
				C276.224,218.341,271.606,213.504,258.853,212.624z"/>
		</g>
		<g>
			<path fill="#603A17" d="M286.724,241.429c0,0-1.65,2.309-2.969,3.958c-1.32,1.649-2.145,5.442-2.145,6.432
				c0,0.99,0.495,3.628-0.66,4.948c0,0,2.805-2.309,3.464-5.277c0,0,0.495,1.814,0,2.968c0,0,2.474-12.039,6.927-13.523
				L286.724,241.429z"/>
		</g>
		<g>
			<path d="M252.806,246.376c0,0,13.336-0.024,18.923-3.803c3.022-2.032,0.207,3.474-5.29,5.123c0,0-17.58,4.529-29.712-0.323
				c-8.886-3.548-5.839-4.803-4.591-4.185C233.378,243.804,244.515,247.593,252.806,246.376z"/>
		</g>
		<g>
			<path d="M225.869,236.812c0,0,19.46-1.979,23.089,0c3.627,1.979,8.904-0.989,8.904-0.989s2.639-2.969,18.801,0.989
				c0,0,0.551,0,0.77-0.55c0.221-0.55,0.109-1.429-0.549-1.429c-0.66,0-9.065-5.287-19.461-2.419c-3.188,0.88-3.627,1.539-6.377,1.1
				c0,0-4.947-3.848-25.727,1.319c0,0-0.989,0.66-0.66,1.319C224.989,236.811,225.869,236.812,225.869,236.812z"/>
		</g>
		<g>
			<g>
				<path fill="#3C2517" d="M186.29,244.068c-8.576,8.905-2.639,20.779-2.639,20.779c-16.162-7.586-13.523-22.428-13.523-22.428
					c-5.277,2.968-10.225-1.649-10.225-1.649c7.962,2.969,9.895-12.534,9.895-12.534c-10.885-7.586-11.215-34.302-11.215-34.302
					c-1.648,3.298-6.643,2.309-6.643,2.309c5.231-5.607-6.221-15.337-6.221-15.337c-7.75,11.379-6.596,18.965-6.596,18.965
					c-13.688-3.628-2.639-18.8-2.639-18.8c-8.576-9.565,0.988-35.292,0.988-35.292c-2.968,1.979-6.926,0-6.926,0
					c10.225-2.639,14.512-19.13,14.512-19.13c-10.884-22.429,33.678-64.117,33.678-64.117
					c22.098-35.292,63.844-31.974,63.844-31.974c-1.649-1.319,4.81-7.064,4.81-7.064c0.577,3.133,11.792,9.812,11.792,9.812
					c68.274,4.947,70.254,58.05,70.254,58.05c22.758,22.099,18.846,38.92,18.846,38.92c15.219,41.229-6.643,65.307-6.643,65.307
					c-0.989,23.418,6.643,21.109,6.643,21.109c-3.252,8.246-10.93-6.267-10.93-6.267c-2.639,1.319-6.598,18.141-6.598,18.141
					c0,17.151-6.926,13.853-6.926,13.853c4.947-1.649,2.639-12.534,2.639-12.534c-2.969,5.607-9.235,7.586-9.235,7.586
					c5.277-1.319,8.905-10.555,8.905-10.555c-6.267,6.597-8.246,4.618-8.246,4.618c9.896-1.319,11.215-23.418,11.215-23.418
					C326.798,214.713,322.18,219,322.18,219c8.905-15.832,2.31-37.93-2.309-53.103s-3.298-35.292-3.298-35.292s0-5.937-3.299-10.555
					s-4.617-13.853-4.617-13.853l2.639,1.979c-7.257-24.737-17.812-37.601-17.812-37.601c-25.067-12.534-50.134-6.267-50.134-6.267
					s-13.193,57.061-53.434,68.935c0,0-0.659,23.088,1.649,32.983c2.31,9.895-1.649,13.523,0.33,22.099
					c1.979,8.576,3.298,25.397,19.13,32.324c0,0-13.523-1.649-24.078-20.12c0,0-1.318,13.193,3.629,18.8
					c0,0-8.576-4.288-9.235-9.565c0,0-4.563,14.489,3.298,20.779c4.947,3.958,3.959,7.916,3.959,7.916
					S187.608,240.77,186.29,244.068z"/>
			</g>
			<g>
				<path d="M187.22,268.342l-4.27-2.002c-8.906-4.18-12.368-10.513-13.705-15.09c-0.73-2.501-0.92-4.751-0.926-6.392
					c-0.627,0.136-1.268,0.204-1.918,0.204c-4.267,0-7.488-2.962-7.624-3.088l1.702-2.751c0.486,0.182,0.949,0.274,1.375,0.274
					c3.611,0,5.562-7.03,6.166-10.538c-8.43-6.856-10.452-24.138-10.936-31.564c-0.994,0.418-2.164,0.635-3.477,0.635
					c-1.096,0-1.9-0.153-1.988-0.171l-2.906-0.576l2.021-2.167c0.686-0.735,0.977-1.56,0.918-2.594
					c-0.178-3.067-3.396-6.884-5.621-9.083c-6.082,9.709-5.286,16.126-5.277,16.194l0.34,2.454l-2.395-0.624
					c-3.947-1.046-6.487-3.09-7.547-6.073c-1.861-5.243,1.695-11.72,3.289-14.236c-6.192-8.632-1.766-25.819,0.445-32.865
					c-0.174,0.01-0.35,0.016-0.529,0.016c-2.373,0-4.332-0.946-4.549-1.054l-3.941-1.971l4.268-1.101
					c8.186-2.112,12.339-14.605,13.172-17.396c-10.094-22.888,30.787-62.142,34.145-65.31c19.096-30.289,52.451-32.65,62.236-32.65
					c0.444,0,0.844,0.005,1.197,0.012c0.807-2.229,3.615-4.981,5.408-6.576l2.188-1.945l0.531,2.879
					c0.275,1.277,5.225,5.206,10.682,8.496c15.656,1.181,29.146,4.998,40.096,11.347c8.885,5.151,16.12,11.964,21.505,20.251
					c8.124,12.501,9.521,24.389,9.747,27.332c20.758,20.407,19.439,36.422,18.945,39.513c7.836,21.532,5.56,38.387,2.252,48.759
					c-3.11,9.753-7.604,15.671-8.975,17.329c-0.463,12.547,1.662,16.729,2.982,18.106c0.65,0.678,1.211,0.779,1.487,0.779
					c0.045,0,0.08-0.003,0.104-0.005l3.532-1.431l-1.553,3.627c-1.167,2.957-2.934,3.579-4.211,3.579c-0.001,0-0.002,0-0.002,0
					c-3.279,0-6.553-4.393-8.435-7.45c-1.408,2.993-3.386,9.512-4.766,15.333c-0.017,5.62-0.784,9.77-2.282,12.336
					c-1.637,2.808-3.826,3.227-4.986,3.227c-1.09,0-1.871-0.346-2.016-0.415l-3.693-1.76l3.881-1.293
					c1.773-0.591,2.16-3.719,2.029-6.658c-2,2.073-4.258,3.372-5.721,4.072c-0.652,0.366-1.319,0.637-1.984,0.803l-0.9-3.171
					c0.006-0.002,0.545-0.177,1.355-0.557c0.879-0.514,1.717-1.297,2.484-2.2c-0.611,0.213-1.186,0.319-1.723,0.319
					c-1.264,0-1.944-0.583-2.123-0.762l-2.359-2.36l3.308-0.441c4.431-0.59,7.032-6.884,8.435-12.889
					c-1.492,1.966-2.707,3.106-2.807,3.199l-2.559-2.017c8.643-15.367,1.967-37.3-2.449-51.814
					c-4.566-15.001-3.465-34.314-3.371-35.814c-0.011-0.517-0.191-5.635-2.99-9.554c-3.492-4.889-4.852-14.185-4.908-14.578
					l-0.563-3.941l1.739,1.305c-6.346-19.17-14.39-30.1-15.782-31.907c-12.552-6.19-25.075-7.496-33.401-7.496
					c-7.012,0-12.254,0.894-14.312,1.31c-0.916,3.57-4.365,15.857-11.523,29.394c-4.91,9.286-10.549,17.201-16.762,23.524
					c-7.505,7.64-15.87,12.968-24.879,15.852c-0.095,4.811-0.307,23.069,1.633,31.382c1.268,5.434,0.734,9.193,0.264,12.511
					c-0.42,2.964-0.816,5.763,0.066,9.591c0.248,1.073,0.484,2.267,0.734,3.53c1.729,8.729,4.342,21.918,17.45,27.653l-0.86,3.148
					c-0.533-0.065-12.111-1.645-22.365-16.282c0.127,4.033,0.816,9.361,3.352,12.234l-1.975,2.566
					c-0.676-0.339-5.078-2.62-7.869-6.038c-0.617,4.432-0.635,11.02,3.701,14.489c5.707,4.567,4.578,9.4,4.527,9.604l-0.032,0.128
					l-0.052,0.122c-0.01,0.023-0.998,2.331-2.293,5.57l-0.121,0.299l-0.223,0.232c-7.643,7.937-2.57,18.457-2.35,18.901
					L187.22,268.342z M172.362,239.27l-0.611,3.438c-0.086,0.501-1.803,11.401,8.939,18.591c-0.242-0.991-0.454-2.117-0.577-3.336
					c-0.577-5.722,1.067-10.832,4.763-14.8c1.057-2.636,1.895-4.617,2.136-5.186c0.069-0.513,0.234-3.235-3.401-6.144
					c-8.646-6.917-4.041-21.927-3.842-22.562l3.21,0.291c0.218,1.75,1.685,3.502,3.381,4.966c-1.8-6.305-1.093-13.741-1.052-14.161
					l0.514-5.134l2.56,4.479c3.083,5.394,6.416,9.294,9.56,12.109c-4.314-6.45-5.803-13.965-6.938-19.694
					c-0.246-1.238-0.478-2.407-0.713-3.43c-1.021-4.426-0.562-7.665-0.119-10.796c0.473-3.325,0.918-6.466-0.211-11.298
					c-2.33-9.988-1.719-32.454-1.691-33.405l0.035-1.196l1.146-0.339c20.236-5.971,33.365-24.02,40.815-38.109
					c8.134-15.381,11.445-29.475,11.478-29.615l0.228-0.983l0.979-0.245c0.264-0.066,6.572-1.616,16.066-1.616
					c8.755,0,21.969,1.389,35.205,8.008l0.314,0.157l0.223,0.271c0.439,0.536,10.852,13.408,18.119,38.183l1.396,4.759l-3.167-2.375
					c0.688,2.894,1.833,6.648,3.509,8.995c3.564,4.99,3.605,11.249,3.605,11.513l-0.004,0.107
					c-0.012,0.198-1.243,20.004,3.23,34.705c3.531,11.602,8.454,27.778,6.248,42.183l3.057,0.613
					c-0.014,0.233-0.359,5.764-1.953,11.554c-0.732,2.66-1.603,4.931-2.607,6.809l0.121,0.076l0.824-1.558l0.511,2.409l0.024,0.016
					c-0.004,0.008-0.008,0.019-0.014,0.035l0.422,1.989c0.113,0.532,0.564,2.819,0.585,5.44c0.277-1.708,0.44-3.828,0.44-6.417
					v-0.191l0.043-0.187c0.011-0.042,1.018-4.306,2.336-8.674c2.5-8.28,3.942-9.97,5.129-10.563l1.441-0.72l0.754,1.423
					c1.382,2.608,3.389,5.422,4.998,6.894c-2.986-3.19-4.271-10.265-3.815-21.034l0.025-0.597l0.401-0.442
					c0.051-0.057,5.335-5.994,8.73-16.752c3.131-9.918,5.254-26.102-2.414-46.875l-0.17-0.463l0.111-0.481
					c0.007-0.032,0.863-4.065-0.945-10.629c-1.683-6.102-6.074-15.694-17.444-26.734l-0.474-0.461l-0.025-0.661
					c-0.005-0.128-0.611-13.107-9.348-26.468c-11.536-17.646-32.068-28.02-59.377-29.999l-0.391-0.028l-0.334-0.2
					c-2.839-1.69-8.717-5.404-11.32-8.61c-1.395,1.394-2.543,2.776-2.93,3.539l3.719,2.975l-5.357-0.426
					c-0.009-0.001-1.017-0.078-2.762-0.078c-9.376,0-41.378,2.256-59.555,31.284l-0.113,0.182l-0.157,0.146
					c-0.11,0.104-11.169,10.499-20.746,23.458c-8.638,11.689-17.831,27.898-12.573,38.734l0.266,0.547l-0.153,0.588
					c-0.147,0.569-3.04,11.404-9.843,17.173l3.977-2.651l-1.77,4.767c-0.092,0.248-9.119,24.904-1.309,33.617l0.891,0.993
					l-0.785,1.079c-1.477,2.035-4.994,8.206-3.554,12.252c0.497,1.397,1.549,2.468,3.191,3.24c0.22-3.309,1.462-9.569,6.901-17.557
					l1.033-1.516l1.398,1.188c0.799,0.679,7.816,6.803,8.158,12.684c0.047,0.819-0.033,1.594-0.24,2.322
					c0.973-0.148,1.943-0.542,2.402-1.458l3.124,0.717c0.003,0.259,0.446,25.958,10.509,32.97l0.816,0.569l-0.123,0.988
					c-0.15,1.205-1.404,10.086-6.025,13.245c0.322,0.051,0.654,0.08,0.992,0.08c1.012,0,1.994-0.264,2.918-0.783L172.362,239.27z"/>
			</g>
		</g>
		<g>
			<g>
				<path fill="#603A17" d="M243.351,64.31c0,0-13.854,57.721-61.68,73.882c0,0-29.024,6.597-32.322,19.13
					c0,0,0.918-26.576,40.898-43.538c0,0,17.48-8.906,23.418-35.622s41.395-55.577,64.317-13.853c0,0-11.709-3.133-18.306-2.803
					C253.08,61.836,243.351,64.31,243.351,64.31z"/>
			</g>
			<g>
				<path d="M150.942,157.742l-3.242-0.477c0.01-0.289,0.306-7.171,5.688-16.196c4.891-8.199,15.133-19.844,36.152-28.776
					c0.444-0.24,4.479-2.486,9.088-7.541c4.486-4.918,10.458-13.586,13.428-26.948c3.881-17.462,20.061-36.158,37.963-36.158
					c7.936,0,19.479,3.794,29.409,21.869l1.86,3.385l-3.732-0.998c-0.104-0.028-10.438-2.772-16.854-2.772
					c-0.33,0-0.647,0.007-0.943,0.022c-5.182,0.259-12.482,1.909-15.059,2.524c-0.955,3.556-4.666,16.119-12.824,30.333
					c-5.561,9.688-12.037,18.102-19.25,25.01c-9.05,8.666-19.287,14.969-30.426,18.733l-0.162,0.045
					C174.235,141.576,153.438,148.262,150.942,157.742z M250.019,44.945c-7.393,0-15.172,3.753-21.903,10.569
					c-6.337,6.416-11.017,14.801-12.841,23.006c-6.035,27.163-23.537,36.355-24.279,36.733l-0.104,0.049
					c-20.117,8.535-29.894,19.534-34.552,27.258c-1.44,2.388-2.493,4.619-3.263,6.588c9.197-8.022,26.51-12.168,28.145-12.546
					c24.17-8.199,39.33-27.488,47.793-42.234c9.217-16.059,12.697-30.302,12.732-30.444l0.232-0.968l0.965-0.245
					c0.403-0.103,9.966-2.518,16.65-2.853c0.35-0.017,0.723-0.026,1.107-0.026c4.35,0,10.135,1.115,13.893,1.959
					C267.683,50.752,259.239,44.945,250.019,44.945z"/>
			</g>
		</g>
		<g>
			<path fill="#603A17" d="M328.446,98.612c0,0,17.152,14.842,14.184,33.313c0,0-0.33-10.225-3.959-12.534
				c0,0,3.959,8.246,0.99,16.162c0,0,1.648-9.235-6.598-15.172c0,0,4.289,7.586-1.648,17.481c0,0,2.639-20.12-12.863-38.92
				c0,0,7.916,1.649,12.533,11.544C331.085,110.486,332.405,105.209,328.446,98.612z"/>
		</g>
		<g>
			<path fill="#603A17" d="M330.096,160.95c5.606,8.246,1.319,33.973,1.319,33.973s0.99-14.513-4.617-26.057
				s-5.277-31.994-5.277-31.994S324.058,152.07,330.096,160.95z"/>
		</g>
		<g>
			<path fill="#603A17" d="M183.189,71.437c0,0-47.493,42.051-32.651,52.936c0,0-1.98-12.863,9.398-23.252
				C171.315,90.73,183.189,71.437,183.189,71.437z"/>
		</g>
		<g>
			<path fill="#603A17" d="M138.794,152.375c0,0-6.268,20.12,1.979,24.738C140.772,177.112,137.474,167.547,138.794,152.375z"/>
		</g>
		<g>
			<path fill="#603A17" d="M142.422,172.165c0,0-3.298-8.246-1.649-17.151C142.422,146.108,141.103,167.877,142.422,172.165z"/>
		</g>
		<g>
			<path fill="#603A17" d="M172.601,227.742c0,0,1.65,2.803,1.072,6.926c-0.576,4.123-4.535,4.7-4.535,4.7
				S173.921,234.091,172.601,227.742z"/>
		</g>
		<g>
			<path fill="#603A17" d="M345.269,140.17c0,0,10.637,23.088-3.297,44.197c0,0,4.617-12.204,3.957-15.832
				c-0.66-3.628-1.979,8.906-4.287,11.544s7.586-17.811-6.927-31.664c0,0,6.927,5.937,8.905,9.565c0,0,3.299-8.576-2.474-15.997
				c0,0,2.968,1.649,3.628,3.133C344.774,145.118,345.765,143.139,345.269,140.17z"/>
		</g>
		<g>
			<path fill="#603A17" d="M184.751,142.26c0,0,0,19.57,3.297,25.067c0,0-4.18-3.759-5.496-16.492
				C181.892,144.459,184.751,142.26,184.751,142.26z"/>
		</g>
		<g>
			<path fill="#603A17" d="M187.829,185.798c0,0,1.759,12.533,4.617,17.371c0,0-4.398-5.057-6.596-12.094
				C185.851,191.075,186.729,187.337,187.829,185.798z"/>
		</g>
		<g>
			<path fill="#603A17" d="M182.771,234.173c0,0,3.959,2.639,1.101,6.817c-2.858,4.178-8.136,11.214-5.718,15.172
				c0,0-5.936-5.717-0.219-12.753S183.212,237.031,182.771,234.173z"/>
		</g>
		<g>
			<path fill="#603A17" d="M180.133,231.754c0,0,1.759,2.858,0.44,4.837c-1.32,1.979-2.42,2.639-2.42,3.518
				c0,0.88-0.879-3.738,0.88-5.717S180.133,232.414,180.133,231.754z"/>
		</g>
		<g>
			<path fill="#603A17" d="M163.202,196.132c0,0,1.615,21.851,8.574,25.507c0,0-7.915-26.606-2.418-35.182
				c0,0-3.958,3.958-3.518,10.334c0,0-1.98-4.178-0.881-8.355S163.202,193.054,163.202,196.132z"/>
		</g>
		<g>
			<path fill="#603A17" d="M142.312,248.246"/>
		</g>
		<g>
			<path fill="#3C2517" d="M227.849,70.356c7.109-13.62,15.082-20.051,25.207-19.039c0,0-16.467-3.994-25.867,9.364
				s-11.808,40.643-25.947,49.915c-13.412,8.795-23.967,14.952-23.967,14.952s12.002-4.424,13.633-3.518
				c1.979,1.1,18.211-10.054,22.428-16.491C217.513,99.162,221.063,83.355,227.849,70.356z"/>
		</g>
		<g>
			<path fill="#3C2517" d="M158.364,143.359c0,0,12.313-7.696,22.428-7.696c0,0-7.916-2.418-12.973-0.22
				C162.761,137.642,158.364,143.359,158.364,143.359z"/>
		</g>
		<g>
			<path fill="#603A17" d="M282.823,41.735c0,0,34.302,10.994,41.777,46.396c0,0-2.088-5.387-3.848-6.926
				c0,0,2.859,4.728,0.77,9.675c0,0-4.508-32.434-42.219-43.538c0,0,3.959-0.77,6.928,0.66c0,0-4.178-3.958-9.125-4.397
				c0,0,4.507-1.319,10.004,1.649C287.11,45.253,286.671,43.604,282.823,41.735z"/>
		</g>
		<g>
			<path fill="#603A17" d="M208.726,77.211c0,0-17.959,11.224-26.041,35.918C182.685,113.129,206.93,96.517,208.726,77.211z"/>
		</g>
		<g>
			<path fill="#603A17" d="M162.868,165.244c0,0,0.99,7.256-6.596,16.162c0,0,14.842-4.618,14.842-25.397L162.868,165.244z"/>
		</g>
		<g>
			<path d="M212.022,270.901l-1.868-7.366c0,0-1.759-3.408-3.408-4.618s1.649-2.309,4.288,1.319s4.617,13.523,11.873,20.779
				L212.022,270.901z"/>
		</g>
		<g>
			<path d="M281.61,276.393c0,0,5.883-11.82,7.422-13.14s2.089-0.77,2.089-0.77s-0.22,0.77-1.43,2.199
				c-1.209,1.429-6.542,9.731-6.321,10.5C283.589,275.953,281.61,276.393,281.61,276.393z"/>
		</g>
	</g>
</g>
<path d="M223.927,550c-31.27-179.465-39.079-250.699-38.371-256.333c0.633-5.058,7.291-18.61,9.803-23.405l5.941-11.34
	l-10.772,6.918c-10.831,6.956-20.731,19.647-23.206,22.946c-28.533,12.058-63.578,34.937-67.869,37.764
	c-42.809,12.648-67.842,27.521-68.891,28.15l-0.846,0.508l-0.44,0.883c-8.595,17.189-15.401,43.899-20.228,79.388
	c-3.577,26.304-4.674,47.919-4.685,48.135l-0.004,0.167c0,14.403,0.174,36.686,0.516,66.22H223.927z M34.89,360.022
	c4.725-2.688,29.039-15.963,66.963-27.117l0.494-0.146l0.43-0.286c0.377-0.252,38.182-25.363,68.018-37.798l0.883-0.368l0.561-0.774
	c0.067-0.093,4.357-5.987,10.322-12.123c-1.816,4.286-3.373,8.586-3.727,11.415c-0.561,4.467,2.285,29.832,7.426,66.197
	c4.861,34.402,14.133,95.305,30.768,190.842H11.648c-0.341-29.431-0.514-51.623-0.515-65.996
	C11.293,480.833,15.759,399.395,34.89,360.022z"/>
<path d="M77.188,482.087c0.847,8.471,8.47,42.062,11.01,51.094c0.589,2.093,1.434,8.269,2.303,16.819h4.329
	c-0.906-13.199-1.073-22.778,0.426-20.208c3.951,6.771,11.01,6.494,9.033,4.517s-14.748-16.251-20.606-51.94
	c-3.105-18.914-21.456-55.32-21.454-53.348c0,0,3.95,17.783,5.363,25.688C69.001,462.608,76.341,473.617,77.188,482.087z"/>
<path fill="#4C4C4C" d="M131.065,369.456C141.374,389.431,181.584,491.754,205.45,550h36.63
	c-15.101-49.424-52.307-151.614-50.89-177.149c1.695-30.492-11.008-80.452-11.008-80.452c4.233-11.014,14.353-25.572,14.353-25.572
	c-10.555,6.597-25.36,27.264-25.36,27.264c-11.855,11.008-38.955,44.041-38.955,44.041c6.775,0.843,22.018,11.851,22.018,11.851
	C121.75,366.915,131.065,369.456,131.065,369.456z"/>
<path d="M364.792,356.761c0,0-13.989,56.735-58.336,193.239h6.433c31.135-90.914,63.101-189.121,57.833-195.779
	c0,0-16.941-10.165-32.178-23.713C338.544,330.508,347.01,348.284,364.792,356.761z"/>
<path fill="#424143" d="M423.175,550c-0.828-26.135,3.646-67.567,3.44-69.038c-0.288-1.977-7.346,12.699-7.346,12.699l0.29-15.238
	c0,0,0.844-15.812-6.779,6.771c-7.623,22.584-22.861,36.417-24.277,49.399c-0.366,3.376-0.332,8.727-0.136,15.407H423.175z"/>
<path d="M145.867,349.712c-17.769,10.409-19.899,15.27-19.491,18.646c0.193,1.594,1.076,2.805,2.145,3.57
	c7.568,15.141,28.649,67.514,49.051,118.195c8.802,21.87,17.152,42.615,24.218,59.876h43.833
	c-3.971-13.062-9.593-30.091-15.529-48.067c-16.276-49.295-36.533-110.644-35.521-128.895c1.587-28.545-8.956-72.779-10.839-80.404
	c4.242-10.379,13.487-23.737,13.584-23.875l-4.578-4.806c-10.439,6.525-24.217,25.262-26.117,27.885
	c-12.002,11.246-37.916,42.797-39.021,44.144l-3.897,4.751l6.098,0.76C133.142,341.908,140.231,346.002,145.867,349.712z
	 M171.479,296.572l0.251-0.232l0.198-0.277c0.062-0.087,2.815-3.912,6.719-8.716c-0.598,1.303-1.146,2.588-1.627,3.836l-0.386,1.006
	l0.265,1.045c0.127,0.494,12.556,49.799,10.908,79.429c-1.084,19.532,18.539,78.962,35.854,131.394
	c5.606,16.982,10.936,33.121,14.836,45.809h-29.442c-7.261-17.704-15.985-39.377-25.2-62.27
	c-20.895-51.911-42.502-105.59-49.779-119.692l-0.461-0.894c1.277-1.711,5.615-5.928,20.268-14.066l4.658-2.587l-4.32-3.12
	c-1.291-0.932-10.652-7.613-18.182-10.82C143.54,327.394,162.314,305.082,171.479,296.572z"/>
<path d="M403.466,529.792c1.498-2.571,1.332,7.008,0.424,20.208h4.331c0.869-8.551,1.715-14.727,2.304-16.819
	c2.539-9.031,10.159-42.623,11.008-51.094c0.844-8.469,8.186-19.478,9.598-27.379c1.41-7.903,5.36-25.688,5.36-25.688
	c0.001-1.973-18.349,34.434-21.45,53.348c-5.867,35.689-18.631,49.963-20.605,51.94
	C392.456,536.286,399.515,536.563,403.466,529.792z"/>
<path d="M313.161,293.667c0.297,2.517-1.543,22.354-7.827,66.688c-4.973,35.084-14.283,96.381-30.442,189.646h218.951
	c0.343-29.555,0.517-51.837,0.517-66.219l-0.004-0.167c-0.011-0.216-1.108-21.832-4.687-48.135
	c-4.826-35.489-11.633-62.199-20.227-79.389l-0.441-0.883l-0.846-0.508c-1.049-0.629-26.082-15.502-68.891-28.15
	c-4.29-2.826-39.332-25.705-67.873-37.764c-2.475-3.3-12.371-15.99-23.196-22.946l-10.771-6.921l5.94,11.342
	C305.874,275.055,312.528,288.604,313.161,293.667z M326.476,293.532l0.561,0.775l0.883,0.368
	c29.832,12.431,67.643,37.546,68.021,37.798l0.43,0.286l0.493,0.146c37.927,11.156,62.243,24.432,66.964,27.117
	c19.123,39.359,23.599,120.812,23.758,123.846c-0.001,14.354-0.174,36.547-0.516,65.996H281.792
	c28.809-166.4,39.037-249.504,38.092-257.039c-0.354-2.828-1.91-7.127-3.725-11.414
	C322.122,287.547,326.409,293.439,326.476,293.532z"/>
</svg>
