<?xml version="1.0" encoding="utf-8"?>
<!-- Generator: Adobe Illustrator 15.1.0, SVG Export Plug-In . SVG Version: 6.00 Build 0)  -->
<!DOCTYPE svg PUBLIC "-//W3C//DTD SVG 1.1//EN" "http://www.w3.org/Graphics/SVG/1.1/DTD/svg11.dtd">
<svg version="1.1" xmlns="http://www.w3.org/2000/svg" xmlns:xlink="http://www.w3.org/1999/xlink" x="0px" y="0px" width="300px"
	 height="300px" viewBox="0 0 300 300" enable-background="new 0 0 300 300" xml:space="preserve">
<g id="Layer_1" display="none">
	<path display="inline" fill="none" stroke="#ED1C24" stroke-width="6.3112" stroke-linecap="round" d="M204.184,195.311
		c0,0,8.73,11.002,10.676-3.233c1.938-14.235,0-20.384,4.851-29.44c4.854-9.058,10.354-26.203-8.085-29.438"/>
	<path display="inline" fill="none" stroke="#ED1C24" stroke-width="6.3112" stroke-linecap="round" d="M88.433,195.311
		c0,0-8.733,11.002-10.675-3.233c-1.943-14.235,0-20.384-4.853-29.44c-4.854-9.058-10.354-26.203,8.087-29.438"/>
	<path display="inline" fill="none" stroke="#ED1C24" stroke-width="9.4669" d="M85.451,139.829l1.452,73.761
		c0,0,26.208,47.557,59.208,47.557c32.995,0,56.772-47.071,56.772-47.071l4.855-73.761c0,0,15.043-38.093,9.705-44.402
		c-1.825-2.16-1.096-15.228-5.58-20.867c-8.614-10.836-32.543-21.722-52.652-19.169c-30.571,3.883-85.896,14.074-77.645,62.116
		C89.817,166.032,85.451,139.829,85.451,139.829z"/>
	<path display="inline" fill="#ED1C24" d="M151.691,35.505c30.959,0,57.896,12.765,72.062,56.037
		c4.077,12.453,1.34,32.432,0.243,45.616c0,0-5.096-1.699-7.523,16.984l-13.102,14.071l2.188-29.843c0,0,13.06-24.989,5.69-48.77
		c-5.337-17.228-37.123-27.418-48.526-9.221c0,0-3.022,1.942-11.029,1.942c-8.009,0-9.954-1.942-9.954-1.942
		c-11.404-18.197-43.186-8.006-48.526,9.221c-7.37,23.781,4.126,42.218,4.126,42.218l-8.977,13.104l-1.697,15.772
		c-2.429-18.685-13.834-26.854-13.834-26.854c-3.882-12.939-0.432-21.921,3.88-34.293C91.396,57.414,113.595,35.505,151.691,35.505z
		"/>
	<path display="inline" fill="#ED1C24" d="M134.461,146.623c0,0,4.856,8.734-3.398,6.307c-8.248-2.426-24.262-4.367-33.483-1.94
		c-9.218,2.428-0.969-5.338,6.31-6.307C111.167,143.71,124.27,142.739,134.461,146.623z"/>
	<path display="inline" fill="#ED1C24" d="M160.971,146.623c0,0-4.855,8.734,3.396,6.307c8.246-2.426,24.263-4.367,33.484-1.94
		c9.217,2.428,0.969-5.338-6.312-6.307C184.266,143.71,171.161,142.739,160.971,146.623z"/>
	<path display="inline" fill="#ED1C24" d="M173.042,191.023c0,0,25.962,3.642,9.782,30.17c0,0,1.297-17.471-4.527-17.471
		c-5.826,0-11.645,7.116-29.766,7.116c-18.114,0-40.765-13.587-40.112,0.647c0,0-12.292-14.885,6.631-20.947
		c14.454-4.634,17.309,8.654,30.898,8.654C159.536,199.193,167.217,190.377,173.042,191.023z"/>
	<path display="inline" fill="none" stroke="#ED1C24" stroke-width="6.3112" d="M176.682,202.104c0,0-11.648,11.971-9.222,23.455"/>
	<path display="inline" fill="none" stroke="#ED1C24" stroke-width="6.3112" d="M112.14,202.914c0,0,12.211,9.059,9.783,20.543"/>
	<path display="inline" fill="none" stroke="#ED1C24" stroke-width="6.3112" stroke-linecap="round" d="M118.608,225.723
		c0,0,9.542-4.531,27.502-4.531c14.717,0,23.777,5.016,23.777,5.016"/>
	<path display="inline" fill="none" stroke="#ED1C24" stroke-width="3.1556" stroke-linecap="round" d="M159.699,180.104
		c0,0,10.43,4.61,5.58,12.133"/>
	<path display="inline" fill="none" stroke="#ED1C24" stroke-width="3.1556" stroke-linecap="round" d="M127.959,192.236
		c-4.85-7.521,5.58-12.133,5.58-12.133l1.167-16.983c0,0,13.587-2.185,2.912-14.557"/>
	<path display="inline" fill="none" stroke="#ED1C24" stroke-width="3.1556" stroke-linecap="round" d="M166.979,161.668
		c0,0,13.826-1.697,21.832-0.486"/>
	<path display="inline" fill="none" stroke="#ED1C24" stroke-width="3.1556" stroke-linecap="round" d="M124.7,161.668
		c0,0-13.832-1.697-21.836-0.486"/>
	<path display="inline" fill="#ED1C24" d="M200.945,194.18c0,0-24.799,54.696-39.064,42.946c-8.252-6.794-1.212-3.58-0.484-4.126
		c0.727-0.546-6.336-5.229-16.982-4.854c-8.557,0.305-17.171,3.397-15.287,4.369c1.88,0.971,8.731,4.791-3.643,1.939
		c-10.262-2.364-24.603-23.346-26.93-39.064c-0.974-6.55-7.767-2.91-9.951-10.677l-1.7,28.875l16.26,22.808
		c0,0,25.477,25.721,40.759,24.75c15.289-0.973,43.436-11.404,60.176-48.528v-20.382L200.945,194.18z"/>
	<path display="inline" fill="#00AEEF" d="M122.539,27.729c-0.378,0.085-0.755,0.171-1.132,0.259
		C66.123,40.899,24.945,90.499,24.945,149.717c0,64.581,48.977,117.725,111.814,124.312c0,0-7.84-1.696-19.219-9.719
		c-11.378-8.021-24.545-26.771-24.545-26.771c-28.722-18.689-47.751-51.075-47.751-87.822c0-26.107,9.605-50.013,25.466-68.37
		l0.054-0.329C78.061,64.449,86.8,51.772,97.272,42.511c7.524-6.655,15.864-11.558,25.158-14.758"/>
	<path display="inline" fill="#00AEEF" d="M193.523,32.607c2.59,1.375,5.097,2.904,7.518,4.587
		c15.348,10.666,26.922,27.663,34.404,50.521c0.229,0.7,0.441,1.413,0.638,2.137l-0.188,0.135
		c11.815,16.952,18.752,37.546,18.752,59.729c0,28.616-11.541,54.591-30.213,73.509l-0.067,0.463
		c0.792,1.494,1.909,2.806,3.481,3.625c4.244,2.215,5.062,5.834,4.412,8.481c-1.123,4.58-5.937,6.144-10.006,6.994
		c-3.43,0.717-7.72,1.127-11.768,1.127l0,0c-4.854,0-8.77-0.524-11.782-1.591l0.012,0.023c-2.278,1.203-4.604,2.326-6.978,3.362
		c0,0-8.021,10.757-17.604,18.601c-9.586,7.842-20.45,10.351-20.45,10.351c67.305-1.978,121.262-57.16,121.262-124.945
		c0-53.16-33.185-98.569-79.969-116.643"/>
	<path display="inline" d="M190.383,52.209c0.018,0.008,0.033,0.017,0.049,0.025"/>
	<path display="inline" fill="#ED1C24" d="M208.118,203.498c0.774-1.418,2.085,0.66,4.405-0.732
		c2.752-1.654,4.098,5.412,3.832,10.525c-0.062,1.122-0.805,14.543,8.646,19.477c9.45,4.933-35.774,9.209-26.426-2.568
		c3.606-4.54,8.842-13.579,9.178-17.708C208.089,208.359,207.245,205.098,208.118,203.498z"/>
	<path display="inline" fill="none" stroke="#ED1C24" stroke-width="3.155" d="M141.873,180.836c0,0,8.079-0.734,11.011,0.732"/>
</g>
<g id="Layer_1_copy" display="none">
	<g display="inline">
		<path fill="none" stroke="#ED1C24" stroke-width="6.3112" stroke-linecap="round" d="M203.434,194.642
			c0,0,8.73,11.002,10.676-3.233c1.938-14.235,0-20.384,4.851-29.44c4.854-9.058,10.354-26.203-8.085-29.438"/>
		<path fill="none" stroke="#ED1C24" stroke-width="6.3112" stroke-linecap="round" d="M87.683,194.642
			c0,0-8.733,11.002-10.675-3.233c-1.943-14.235,0-20.384-4.853-29.44c-4.854-9.058-10.354-26.203,8.087-29.438"/>
		<path fill="none" stroke="#ED1C24" stroke-width="9.4669" d="M84.701,139.16l1.452,73.761c0,0,26.208,47.557,59.208,47.557
			c32.994,0,56.771-47.071,56.771-47.071l4.855-73.761c0,0,15.043-38.093,9.705-44.402c-1.825-2.16-1.096-15.228-5.58-20.867
			c-8.614-10.836-32.543-21.722-52.652-19.169c-30.571,3.883-85.896,14.074-77.645,62.116
			C89.067,165.363,84.701,139.16,84.701,139.16z"/>
		<path fill="#ED1C24" d="M150.941,34.836c30.959,0,57.896,12.765,72.062,56.037c4.077,12.453,1.34,32.432,0.243,45.616
			c0,0-5.096-1.699-7.523,16.984l-13.102,14.071l2.188-29.843c0,0,13.06-24.989,5.69-48.77
			c-5.337-17.228-37.123-27.418-48.526-9.221c0,0-3.022,1.942-11.029,1.942c-8.01,0-9.953-1.942-9.953-1.942
			c-11.404-18.197-43.186-8.006-48.526,9.221c-7.37,23.781,4.126,42.218,4.126,42.218l-8.977,13.104l-1.697,15.772
			c-2.429-18.685-13.834-26.854-13.834-26.854c-3.882-12.939-0.432-21.921,3.88-34.293C90.646,56.745,112.845,34.836,150.941,34.836
			z"/>
		<path fill="#ED1C24" d="M133.711,145.954c0,0,4.856,8.734-3.398,6.307c-8.248-2.426-24.262-4.367-33.483-1.94
			c-9.218,2.428-0.969-5.338,6.31-6.307C110.417,143.041,123.52,142.07,133.711,145.954z"/>
		<path fill="#ED1C24" d="M160.221,145.954c0,0-4.855,8.734,3.396,6.307c8.246-2.426,24.263-4.367,33.484-1.94
			c9.217,2.428,0.969-5.338-6.312-6.307C183.516,143.041,170.411,142.07,160.221,145.954z"/>
		<path fill="#ED1C24" d="M172.292,190.354c0,0,25.962,3.642,9.782,30.17c0,0,1.297-17.471-4.527-17.471
			c-5.826,0-11.645,7.116-29.766,7.116c-18.114,0-40.765-13.587-40.112,0.647c0,0-12.292-14.885,6.631-20.947
			c14.454-4.634,17.309,8.654,30.898,8.654C158.786,198.524,166.467,189.708,172.292,190.354z"/>
		<path fill="none" stroke="#ED1C24" stroke-width="6.3112" d="M175.932,201.435c0,0-11.648,11.971-9.222,23.455"/>
		<path fill="none" stroke="#ED1C24" stroke-width="6.3112" d="M111.39,202.245c0,0,12.211,9.059,9.783,20.543"/>
		<path fill="none" stroke="#ED1C24" stroke-width="6.3112" stroke-linecap="round" d="M117.858,225.054
			c0,0,9.542-4.531,27.501-4.531c14.718,0,23.777,5.016,23.777,5.016"/>
		<path fill="none" stroke="#ED1C24" stroke-width="3.1556" stroke-linecap="round" d="M158.949,179.435c0,0,10.43,4.61,5.58,12.133
			"/>
		<path fill="none" stroke="#ED1C24" stroke-width="3.1556" stroke-linecap="round" d="M127.209,191.567
			c-4.85-7.521,5.58-12.133,5.58-12.133l1.167-16.983c0,0,13.587-2.185,2.912-14.557"/>
		<path fill="none" stroke="#ED1C24" stroke-width="3.1556" stroke-linecap="round" d="M166.229,160.999
			c0,0,13.826-1.697,21.832-0.486"/>
		<path fill="none" stroke="#ED1C24" stroke-width="3.1556" stroke-linecap="round" d="M123.95,160.999
			c0,0-13.832-1.697-21.836-0.486"/>
		<path fill="#ED1C24" d="M200.195,193.511c0,0-24.799,54.696-39.064,42.946c-8.252-6.794-1.212-3.58-0.484-4.126
			c0.727-0.546-6.336-5.229-16.982-4.854c-8.557,0.305-17.171,3.397-15.287,4.369c1.88,0.971,8.731,4.791-3.643,1.939
			c-10.262-2.364-24.603-23.346-26.93-39.064c-0.974-6.55-7.767-2.91-9.951-10.677l-1.7,28.875l16.26,22.808
			c0,0,25.477,25.721,40.759,24.75c15.289-0.973,43.436-11.404,60.176-48.528v-20.382L200.195,193.511z"/>
		<path fill="#00AEEF" d="M121.789,27.06c-0.378,0.085-0.755,0.171-1.132,0.259C65.373,40.23,24.195,89.83,24.195,149.048
			c0,64.581,48.977,117.725,111.814,124.312c0,0-7.84-1.696-19.219-9.719c-11.378-8.021-24.545-26.771-24.545-26.771
			c-28.722-18.689-47.751-51.075-47.751-87.822c0-26.107,9.605-50.013,25.466-68.37l0.054-0.329
			C77.311,63.78,86.05,51.103,96.522,41.842c7.524-6.655,15.864-11.558,25.158-14.758"/>
		<path fill="#00AEEF" d="M192.773,31.938c2.59,1.375,5.097,2.904,7.518,4.587c15.348,10.666,26.922,27.663,34.404,50.521
			c0.229,0.7,0.441,1.413,0.638,2.137l-0.188,0.135c11.815,16.952,18.752,37.546,18.752,59.729
			c0,28.616-11.541,54.591-30.213,73.509l-0.067,0.463c0.792,1.494,1.909,2.806,3.481,3.625c4.244,2.215,5.062,5.834,4.412,8.481
			c-1.123,4.58-5.937,6.144-10.006,6.994c-3.43,0.717-7.72,1.127-11.768,1.127l0,0c-4.854,0-8.77-0.524-11.782-1.591l0.012,0.023
			c-2.278,1.203-4.604,2.326-6.978,3.362c0,0-8.021,10.757-17.604,18.601c-9.586,7.842-20.45,10.351-20.45,10.351
			c67.305-1.978,121.262-57.16,121.262-124.945c0-53.16-33.185-98.569-79.969-116.643"/>
		<path d="M189.633,51.54c0.018,0.008,0.033,0.017,0.049,0.025"/>
		<path fill="#ED1C24" d="M207.368,202.829c0.774-1.418,2.085,0.66,4.405-0.732c2.752-1.654,4.098,5.412,3.832,10.525
			c-0.062,1.122-0.805,14.543,8.646,19.477c9.45,4.933-35.774,9.209-26.426-2.568c3.606-4.54,8.842-13.579,9.178-17.708
			C207.339,207.69,206.495,204.429,207.368,202.829z"/>
		<path fill="none" stroke="#ED1C24" stroke-width="3.155" d="M141.123,180.167c0,0,8.079-0.734,11.011,0.732"/>
	</g>
</g>
<g id="Layer_2">
	<g>
		<path fill="#00ADEE" d="M225.815,78.84c10.685,11.648,18.751,25.736,23.271,41.331l19.774-5.563
			c-1.362-4.717-3.01-9.365-4.94-13.928c-6.28-14.849-15.269-28.183-26.713-39.627c-3.202-3.202-6.553-6.211-10.043-9.024
			L225.815,78.84z M63.346,90.001c18.799-27.15,50.169-44.935,85.693-44.936c19.274,0,37.329,5.238,52.814,14.367l1.36-22.546
			c-1.854-0.893-3.731-1.742-5.635-2.547c-15.387-6.507-31.719-9.807-48.54-9.807c-16.827,0-33.157,3.3-48.543,9.807
			c-14.851,6.282-28.183,15.268-39.628,26.714C50.411,71.509,42.005,83.544,35.841,96.872L63.346,90.001z M79.61,226.862
			c-5.317,1.641-13.594-1.629-9.609-9.807 M100.496,264.103c15.386,6.509,31.716,9.809,48.543,9.809
			c16.821,0,33.153-3.3,48.54-9.809c14.849-6.28,28.182-15.268,39.628-26.711c6.609-6.613,12.4-13.853,17.322-21.65l-33.045,8.31
			c-18.747,18.153-44.292,29.325-72.445,29.325c-9.597,0-18.89-1.297-27.713-3.725c-2.439-0.675-18.305,5.443-20.669,4.603
			L100.496,264.103z M253.11,145.12c0.055,1.36,0.082,2.727,0.082,4.102c0,10.455-1.541,20.55-4.408,30.073l22.655-6.15
			c1.522-7.826,2.289-15.818,2.289-23.923c0-3.228-0.123-6.437-0.364-9.624L253.11,145.12z"/>
		<g>
			<path fill="#00ADEE" d="M24.542,156.258c0.794,14.342,4.017,28.272,9.615,41.506c3.041,7.19,6.718,14.026,11,20.462l0.736,0.511
				c0.312-1.675,0.735-3.459,1.283-5.355c2.048-7.121,5.204-11.998,6.052-13.243c0.834-1.23,1.718-2.509,2.632-3.813l0.007-0.5
				c-7.028-14.021-10.983-29.852-10.983-46.603c0-10.28,1.489-20.211,4.265-29.591l-17.059,4.336l11.037,7.868L24.542,156.258z"/>
		</g>
		<path fill="none" stroke="#EC1C24" stroke-width="0.1476" d="M241.231,106.284c-0.014-0.031-0.026-0.061-0.042-0.092"/>
		<g>
			<g>
				<g>
					<polygon fill="#EC1C24" points="200.899,171.939 205.736,169.4 210.57,171.939 209.646,166.557 213.56,162.744 
						208.153,161.959 205.736,157.06 203.317,161.959 197.913,162.744 201.825,166.557 					"/>
				</g>
				<g>
					<path fill="#EC1C24" d="M235.626,187.783c2.145-2.53,3.724-4.839,4.741-6.928c1.016-2.086,1.572-3.919,1.668-5.493
						c0.084-0.642,0.107-1.222,0.066-1.738c-0.038-0.517-0.116-1.009-0.234-1.473c-0.61-2.385-2.018-4.013-4.219-4.875
						c-2.205-0.863-4.5-0.99-6.888-0.382c-0.405,0.104-0.781,0.215-1.121,0.331c-0.344,0.12-0.68,0.251-1.018,0.399
						c-0.726,0.31-1.448,0.692-2.167,1.158c-0.719,0.461-1.426,1.029-2.122,1.701c-1.684,1.422-3.181,3.275-4.488,5.562
						c-1.307,2.284-2.215,4.981-2.726,8.088c-0.155,1.095-0.27,2.286-0.342,3.572c-0.075,1.294-0.022,2.535,0.159,3.727
						c0.059,0.233,0.101,0.455,0.124,0.666c0.014,0.149,0.041,0.273,0.067,0.4l-7.957,2.03l1.277-21.246l-9.169,2.337l-1.194,20.111
						c0,0.247,0,0.481-0.008,0.698c-0.003,0.147-0.012,0.279-0.02,0.413l-7.912,2.027c-0.231,0.062-0.454,0.104-0.664,0.125
						c-0.213,0.023-0.384,0.02-0.515-0.007l-3.451-4.422l10.342-12.681l-6.932-5.67l-9.473,11.713l1.609-25.841
						c0,0-1.463-0.083-4.029-1.615c-2.566-1.534-4.624-4.927-4.624-4.927l-2.972,48.605l-9.5,2.423
						c0.042-0.319,0.057-0.632,0.042-0.939c-0.02-0.305-0.003-0.618,0.037-0.939c-0.03-0.116-0.033-0.252-0.015-0.415
						c0.023-0.158,0.039-0.336,0.057-0.526c0.011-0.436,0.019-0.886,0.025-1.354c0.005-0.466,0.042-0.926,0.112-1.376
						c0.11-1.269,0.137-2.437,0.082-3.51c-0.057-1.067-0.194-2.041-0.417-2.917c-0.432-1.686-1.213-3.159-2.341-4.423
						c-1.126-1.263-2.608-1.969-4.442-2.12c-0.453-0.069-0.939-0.086-1.457-0.049c-0.517,0.041-1.008,0.117-1.473,0.237
						c-0.35,0.088-0.681,0.189-0.993,0.302c-0.312,0.109-0.628,0.268-0.945,0.473c-0.67,0.295-1.308,0.659-1.909,1.09
						c-0.604,0.433-1.18,0.907-1.73,1.418l0.143-1.987l-9.079,2.312l-1.359,21.287l-7.426,1.876
						c-0.408,0.104-0.702,0.104-0.883-0.007c-0.184-0.106-0.304-0.276-0.362-0.51c-0.031-0.117-0.055-0.267-0.067-0.449
						c-0.017-0.182-0.019-0.365-0.005-0.558l1.11-19.347l-8.992,2.294l-1.103,16.462c0.017,0.059,0.01,0.106-0.01,0.142
						c-0.022,0.039-0.026,0.084-0.009,0.144c-0.07,0.946-0.44,1.925-1.113,2.935c-0.672,1.008-1.473,1.755-2.402,2.238
						c-0.161,0.102-0.324,0.192-0.493,0.265c-0.165,0.076-0.337,0.134-0.511,0.178c-0.411,0.104-0.705,0.104-0.886-0.008
						c-0.184-0.106-0.304-0.278-0.362-0.51c-0.029-0.116-0.054-0.268-0.068-0.451c-0.017-0.179-0.017-0.366-0.003-0.555
						l1.197-19.368l-9.079,2.314l-1.015,16.441c0.015,0.307,0.016,0.614,0.005,0.928c-0.012,0.312,0.016,0.616,0.091,0.908
						c0.016,0.306,0.047,0.606,0.092,0.903c0.042,0.3,0.105,0.594,0.179,0.885c0.447,1.995,1.423,3.699,2.93,5.111
						c1.508,1.413,3.399,2.202,5.671,2.366c0.306-0.016,0.602-0.013,0.885,0.007c0.286,0.021,0.57-0.007,0.864-0.081
						c0.306-0.015,0.593-0.042,0.861-0.081c0.271-0.037,0.551-0.093,0.841-0.167c1.397-0.356,2.72-0.94,3.97-1.756
						c1.248-0.813,2.351-1.776,3.308-2.89c1.139,0.579,2.364,0.946,3.676,1.108c1.312,0.163,2.609,0.078,3.889-0.249
						c0.466-0.119,0.917-0.232,1.352-0.344c0.438-0.112,11.948-3.048,12.354-3.149l0.407-6.43c0-16.199,7.72-15.916,8.142-16.209
						c0.028,0.364,0.047,0.731,0.047,1.102c0.004,0.375-0.019,0.721-0.06,1.04c0.028,0.116,0.046,0.236,0.046,0.36
						c0,0.126-0.014,0.252-0.044,0.383c-0.038,0.816-0.079,1.634-0.119,2.449c-0.04,0.816-0.079,1.632-0.119,2.447
						c-0.028,0.379-0.05,0.773-0.069,1.182c-0.021,0.409-0.038,0.831-0.047,1.267c-0.016,0.438-0.01,0.885,0.016,1.346
						c0.022,0.457,0.086,0.889,0.191,1.297c0.504,1.979,1.604,3.498,3.299,4.551c1.694,1.057,3.62,1.31,5.772,0.762l8.644-2.205l0,0
						l9.08-2.315l0.735-10.974l3.585,4.571c1.2,1.553,2.684,2.509,4.448,2.862c1.765,0.356,3.497,0.35,5.199-0.024
						c0.06-0.015,0.134-0.033,0.221-0.054c0.087-0.022,0.159-0.043,0.217-0.058l15.008-3.826c0.004,0,0.006,0,0.01-0.002l0.14-0.037
						l7.717-1.969l-0.038-0.011l9.836-2.54c0.312-0.053,0.628-0.106,0.942-0.186l39.181-10.064l0.309-0.501
						c1.048-3.164,1.963-6.362,2.75-9.592L235.626,187.783z M225.986,185.175c0.021-0.037,0.024-0.084,0.011-0.144
						c0.296-1.994,1.038-3.952,2.222-5.865c1.187-1.916,2.811-3.197,4.878-3.849c-0.284,1.066-0.978,2.436-2.067,4.107
						c-1.094,1.674-2.778,3.639-5.052,5.892C225.962,185.26,225.965,185.211,225.986,185.175z"/>
				</g>
				<g>
					<path fill="#EC1C24" d="M96.827,237.528c0.548-8.332,1.094-9.711,1.644-18.044c0.546-8.337,1.095-16.682,1.64-25.015
						c0.064-0.473,0.1-0.923,0.119-1.368c0.016-0.46-0.026-0.888-0.132-1.305c-0.026-0.436-0.068-0.88-0.125-1.309
						c-0.07-0.425-0.156-0.847-0.263-1.271c-0.489-1.924-1.383-3.662-2.665-5.204c-1.284-1.543-3.049-2.699-5.294-3.463
						c-1.573-0.577-3.119-0.871-4.64-0.882c-1.52-0.015-3.032,0.175-4.538,0.559c-1.086,0.271-2.173,0.638-3.262,1.089
						c-1.085,0.465-2.164,1.05-3.229,1.767c-2.947,1.734-5.709,3.968-8.307,6.731c-2.594,2.754-6.42,7.026-8.544,9.882
						c-0.914,1.307-1.796,2.584-2.634,3.814c-0.844,1.249-4,6.123-6.05,13.244c-8.598,29.87,13.409,31.101,13.871,31.513
						l12.994-14.065c-0.359-0.354-12.571-1.32-13.446-11.001c-0.227-2.497,0.3-5.645,1.462-8.261
						c1.158-2.608,2.53-5.015,4.114-7.195c0.726-0.987,1.426-1.922,2.092-2.812c0.667-0.875,1.31-1.663,1.935-2.362
						c0.417-0.459,0.88-1.002,1.394-1.629c0.508-0.619,1.042-1.222,1.606-1.812c0.707-0.719,1.44-1.433,2.191-2.157
						c0.749-0.731,1.497-1.365,2.251-1.915c0.669-0.527,1.377-0.974,2.129-1.346c0.752-0.369,1.465-0.638,2.133-0.81
						c0.417-0.109,0.773-0.196,1.067-0.277c0.292-0.07,0.627-0.064,1.002,0.013c0.02,0.09,0.039,0.238,0.052,0.461
						c0.01,0.218-0.003,0.424-0.044,0.611c-0.334,4.628-0.641,9.276-0.924,13.932c-0.28,4.672-0.581,9.354-0.89,14.063
						c-0.315,4.719-0.613,2.437-0.895,7.105c-0.282,4.659-0.588,9.304-0.925,13.935c-1.356,0.971-2.707,2.054-4.053,3.238
						c-1.346,1.189-2.688,2.493-4.021,3.896c-2.164,2.337-4.248,4.828-6.243,7.478c-2,2.651-3.81,5.34-5.43,8.069
						c-0.834,1.287-1.582,2.54-2.242,3.786c-0.667,1.232-1.259,2.405-1.775,3.521c-0.165,0.398-0.366,0.845-0.592,1.354
						c-0.229,0.509-0.459,1.004-0.683,1.515c-0.769,1.888-1.39,3.893-1.874,6.021c-0.48,2.128-0.476,4.157,0.013,6.083
						c0.168,0.661,0.399,1.305,0.685,1.896c0.287,0.599,0.67,1.146,1.157,1.642c1.051,1.334,2.394,2.241,4.033,2.71
						c1.633,0.479,3.497,0.453,5.593-0.08c0.08-0.021,0.167-0.04,0.249-0.062c0.084-0.018,0.165-0.048,0.251-0.07
						c2.677-0.677,5.149-1.383,7.417-2.095c2.271-0.707,4.438-1.733,6.508-3.06c1.064-0.716,2.102-1.535,3.11-2.46
						c1.015-0.931,1.988-2.008,2.926-3.224c3.121-3.826,5.007-7.957,5.658-12.409c0.647-4.444,1.058-8.954,1.223-13.544
						c0.02-0.268,0.039-0.546,0.061-0.812c0.018-0.282,0.04-0.548,0.062-0.817c-0.005-0.715,0.007-1.454,0.034-2.218
						c0.024-0.767,0.092-1.479,0.196-2.123l162.1-41.287l0.079-0.093c2.118-3.827,4.037-7.775,5.758-11.838
						c0.374-0.882,0.734-1.769,1.088-2.654l-0.032,0.068L96.827,237.528z M82.405,263.806c-0.062,0.453-0.113,0.934-0.165,1.439
						c-0.052,0.508-0.095,1.023-0.132,1.571c-0.174,3.168-1.352,5.96-3.543,8.393c-2.188,2.432-4.789,4.03-7.801,4.798
						c1.449-3.403,3.209-6.725,5.275-9.97c2.055-3.229,4.232-6.24,6.526-9.033c-0.037,0.477-0.075,0.94-0.118,1.38
						C82.393,262.889,82.379,263.354,82.405,263.806z"/>
				</g>
			</g>
			<g>
				<g>
					<path fill="#EC1C24" d="M272.847,134.291c-0.594-4.988-1.488-9.918-2.679-14.777l-33.287,9.149
						c-0.398,0.103-0.778,0.173-1.138,0.21c-0.362,0.041-0.657,0.034-0.881-0.013l-5.902-7.562l10.03-12.906
						c-2.318-4.941-5.021-9.666-8.07-14.138l-12.33,15.692l5.178-78.271l-15.531,3.962l-6.717,102.25l-9.701,2.484
						c0.071-0.548,0.094-1.083,0.068-1.605c-0.03-0.523-0.007-1.06,0.064-1.611c-0.048-0.196-0.056-0.433-0.02-0.709
						c0.035-0.271,0.063-0.575,0.09-0.895c0.02-0.749,0.032-1.524,0.043-2.318c0.01-0.798,0.074-1.582,0.194-2.359
						c0.187-2.167,0.236-4.167,0.142-5.997c-0.097-1.83-0.336-3.493-0.715-4.988c-0.737-2.885-2.07-5.408-4.001-7.57
						c-1.927-2.158-4.464-3.366-7.604-3.627c-0.774-0.119-1.603-0.147-2.484-0.082c-0.888,0.067-1.728,0.202-2.521,0.406
						c-0.598,0.151-1.167,0.323-1.698,0.513c-0.535,0.19-1.075,0.46-1.624,0.812c-1.144,0.504-2.233,1.124-3.261,1.864
						c-1.034,0.741-2.018,1.55-2.961,2.425l0.246-3.4l-15.532,3.96l-2.332,36.577l-7.311,1.818
						c-0.698,0.177-1.203,0.176-1.513-0.014c-0.312-0.184-0.521-0.477-0.621-0.873c-0.051-0.199-0.09-0.455-0.116-0.767
						c-0.026-0.309-0.029-0.628-0.004-0.953l1.899-33.089l-15.382,3.922l-1.883,28.157c0.025,0.099,0.019,0.18-0.02,0.243
						c-0.038,0.063-0.042,0.146-0.017,0.243c-0.12,1.623-0.75,3.294-1.902,5.02c-1.151,1.723-2.521,3.002-4.111,3.83
						c-0.274,0.176-0.553,0.328-0.841,0.453c-0.284,0.128-0.579,0.225-0.877,0.304c-0.696,0.175-1.202,0.175-1.514-0.015
						c-0.314-0.184-0.521-0.476-0.621-0.873c-0.05-0.199-0.091-0.455-0.115-0.768c-0.028-0.31-0.028-0.627-0.005-0.953l2.047-33.127
						l-0.297,0.075l0.008-0.146l-34.876,9.043l2.231-27.203l21.07-5.402l1.009-16.001l-74.684,19.073
						c-31.307,8.504-26.226,22.285-25.109,26.663c0.89,3.484,2.678,6.553,5.372,9.206c2.689,2.655,5.522,5.033,8.5,7.139
						c0.8,0.644,1.618,1.255,2.456,1.836c0.836,0.582,1.644,1.148,2.42,1.691l13.306-17.449c-0.401-0.32-1.164-0.814-2.29-1.484
						c-1.123-0.666-2.326-1.419-3.597-2.26c-0.375-0.224-0.734-0.474-1.07-0.764c-0.339-0.283-0.695-0.537-1.068-0.758
						c-1.151-0.768-2.152-1.575-3.003-2.418c-0.851-0.84-1.365-1.612-1.542-2.311c-0.128-0.496,0.011-0.982,0.421-1.458
						c0.408-0.477,1.16-0.854,2.258-1.134l40.02-10.208l-2.155,27.489l-13.134,3.197c-0.227,2.798-0.341,5.627-0.341,8.482
						c0,2.57,0.092,5.12,0.277,7.644l12.228-3.168l-2.091,35.836c7.215-10.103,16.108-13.21,16.108-13.21l1.513-26.588l19.521-5.063
						l-0.725,11.73c0.025,0.525,0.029,1.051,0.006,1.589c-0.022,0.537,0.03,1.056,0.158,1.552c0.026,0.524,0.078,1.042,0.155,1.549
						c0.076,0.514,0.178,1.014,0.308,1.514c0.763,3.412,2.433,6.326,5.013,8.742c2.578,2.42,5.81,3.765,9.7,4.048
						c0.522-0.027,1.027-0.025,1.513,0.009c0.486,0.036,0.976-0.011,1.476-0.139c0.524-0.026,1.015-0.069,1.475-0.137
						c0.462-0.062,0.938-0.159,1.439-0.289c2.389-0.608,4.651-1.607,6.789-3.003c2.135-1.39,4.021-3.038,5.659-4.939
						c1.946,0.989,4.043,1.621,6.288,1.896c2.243,0.275,4.46,0.133,6.651-0.424c0.796-0.205,1.569-0.401,2.317-0.592
						c0.566-0.145,8.785-2.345,12.996-3.466l2.748-0.701l0.697-10.993c0-27.837,13.203-27.223,13.923-27.726
						c0.052,0.623,0.081,1.253,0.082,1.889c0.005,0.635-0.03,1.227-0.102,1.774c0.051,0.2,0.074,0.405,0.076,0.617
						c0,0.215-0.024,0.432-0.069,0.657c-0.069,1.396-0.14,2.791-0.207,4.185c-0.067,1.397-0.138,2.794-0.203,4.189
						c-0.049,0.646-0.087,1.32-0.121,2.017c-0.035,0.7-0.062,1.421-0.084,2.167c-0.023,0.749-0.013,1.514,0.03,2.302
						c0.042,0.783,0.151,1.525,0.327,2.222c0.864,3.384,2.744,5.979,5.643,7.783c2.899,1.806,6.191,2.239,9.877,1.301l23.707-6.265
						l1.256-18.769l6.131,7.821c2.055,2.657,4.594,4.291,7.609,4.897c3.02,0.61,5.984,0.596,8.897-0.042
						c0.1-0.024,0.224-0.058,0.373-0.093c0.149-0.041,0.274-0.071,0.374-0.097l32.229-8.951L272.847,134.291z"/>
				</g>
				<g>
					<path fill="#EC1C24" d="M270.156,119.461c0.004,0.016,0.008,0.034,0.012,0.052l0.001-0.002L270.156,119.461z"/>
				</g>
			</g>
			<path fill="#EC1C24" d="M170.879,89.801l0.3-5.081l-6.942-0.478c-0.022,0.295-0.042,0.59-0.062,0.886
				c-0.021,0.296-0.036,0.615-0.047,0.957c-0.142,1.534-0.492,3-1.053,4.4c-0.562,1.4-1.729,2.325-3.499,2.778
				c-0.317,0.082-0.564,0.06-0.739-0.066c-0.179-0.122-0.289-0.274-0.339-0.457c-0.033-0.137-0.05-0.301-0.05-0.493
				c-0.002-0.192,0.004-0.365,0.015-0.511c0.044-0.204,0.082-0.385,0.116-0.537c0.033-0.156,0.078-0.313,0.133-0.471
				c0.047-0.203,0.095-0.387,0.152-0.547c0.056-0.158,0.095-0.288,0.117-0.393c0.505-1.239,1.187-2.356,2.045-3.349
				c0.859-0.992,1.825-1.844,2.904-2.555c1.188-0.834,2.475-1.524,3.858-2.071c1.384-0.544,2.802-1.006,4.253-1.374l-1.737-6.811
				c-0.181,0.047-0.351,0.09-0.509,0.13c-0.16,0.041-0.308,0.078-0.441,0.112c-3.609,1.021-6.945,2.585-10.007,4.7
				c-3.064,2.116-5.34,4.989-6.832,8.615c-0.482,1.143-0.809,2.329-0.979,3.559c-0.17,1.233-0.102,2.442,0.199,3.623
				c0.024,0.099,0.062,0.195,0.09,0.291l-4.713,1.202c0.011-0.34,0.027-0.697,0.055-1.066c0.023-0.373,0.043-0.73,0.053-1.074
				c0.01-0.341,0.025-0.696,0.053-1.068c0.025-0.372,0.045-0.729,0.055-1.071c0.129-1.003,0.168-1.937,0.119-2.798
				c-0.052-0.862-0.161-1.634-0.338-2.318c-0.336-1.321-0.946-2.479-1.826-3.467c-0.883-0.991-2.039-1.546-3.471-1.667
				c-0.352-0.054-0.73-0.066-1.136-0.035c-0.402,0.031-0.785,0.091-1.148,0.184c-0.181,0.046-0.372,0.107-0.57,0.182
				c-0.2,0.076-0.39,0.135-0.571,0.182c-0.553,0.287-1.103,0.607-1.639,0.96c-0.538,0.356-1.038,0.763-1.503,1.218l1.477-22.93
				L79.79,76.637c-2.829,2.977-5.484,6.124-7.949,9.419l38.769-10.503l-1.653,37.146l7.009-1.773l2.603-37.529l10.646-2.883
				l-2.512,37.733l7.083-1.808l0.317-5.012c0-12.644,6.416-12.66,6.416-12.66s0.059,0,0.059,1.798c0,0.631-0.045,1.294-0.111,1.987
				c-0.009,0.147-0.025,0.321-0.047,0.52c-0.023,0.198-0.055,0.401-0.099,0.607c-0.009,0.533-0.043,1.061-0.104,1.585
				c-0.061,0.522-0.1,1.029-0.121,1.517c0.002,0.194,0,0.376-0.006,0.545c-0.003,0.171-0.013,0.329-0.023,0.477
				c0.047,0.182,0.078,0.355,0.096,0.521c0.017,0.165,0.05,0.338,0.096,0.517c0.384,1.5,1.238,2.672,2.566,3.52
				c1.327,0.844,2.83,1.053,4.51,0.625l14.081-3.083c0.272-0.068,0.543-0.149,0.807-0.241c0.27-0.094,0.53-0.198,0.793-0.313
				c0.748-0.285,1.485-0.667,2.209-1.144c0.726-0.473,1.379-1.002,1.954-1.584c0.591,0.236,1.211,0.392,1.86,0.468
				c0.646,0.077,1.335,0.022,2.062-0.163l6.605-1.686l0.459-7.296L170.879,89.801z"/>
		</g>
	</g>
</g>
</svg>
