<?xml version="1.0" encoding="utf-8"?>
<!-- Generator: Adobe Illustrator 15.1.0, SVG Export Plug-In . SVG Version: 6.00 Build 0)  -->
<!DOCTYPE svg PUBLIC "-//W3C//DTD SVG 1.1//EN" "http://www.w3.org/Graphics/SVG/1.1/DTD/svg11.dtd">
<svg version="1.1" id="Layer_1" xmlns="http://www.w3.org/2000/svg" xmlns:xlink="http://www.w3.org/1999/xlink" x="0px" y="0px"
	 width="1000px" height="180px" viewBox="0 0 1000 180" enable-background="new 0 0 1000 180" xml:space="preserve">
<g>
	<g>
		<path d="M121.46,12.579c-22.831,0-42.546,13.33-51.794,32.63c13.31-5.562,29.12-12.901,46.305-9.068
			c1.786-1.098,2.565-2.416,5.899-1.967c2.836-2.669,5.39-6.407,9.438-7.865c1.131,3.67,1.222,6.729-0.393,9.045
			c4.309,0.766,7.194-0.93,10.618-2.359c-1.222,4.021-4.332,6.156-9.045,6.686c6.666,1.343,9.354,8.721,7.865,16.909
			c-2.191-5.411-2.124-13.081-7.865-14.943c3.712,4.059,5.147,10.457,6.583,17.228c-3.678-1.749-10.208-4.643-17.396-6.85
			c-11.029-3.385-8.11,16.886,2.199,15.396c6.775-0.98,13.71,0.576,17.673,1.759c0.24,0.794,0.495,1.581,0.774,2.354
			c1.443,4.017,2.613,8,4.326,11.404c2.299,4.573,8.391,8.788,7.471,16.123c-0.385,3.074-3.329,4.868-3.146,7.864
			c-1.532,1.888-4.128,3.094-6.292,2.755c-4.448-0.7-6.723-14.478-10.225-11.406c-2.855,2.96,7.438,10.605,6.686,11.014
			c-4.996,2.696-13.289-5.226-11.798-12.191c-4.931-5.374-14.82-8.014-22.809-12.979c-4.093-2.543-5.37-6.622-6.686-12.584
			c-0.163-0.74,0.101-3.498-0.393-2.359c-0.627,1.443,0.341,8.63,1.18,9.832c-8.944,7.76-16.355,16.781-24.138,26.646
			c10.515,13.234,26.748,21.723,44.964,21.723c31.7,0,57.399-25.697,57.399-57.398C178.86,38.277,153.161,12.579,121.46,12.579z
			 M123.34,63.688c-2.069,0-3.746-1.676-3.746-3.745s1.677-3.746,3.746-3.746c2.069,0,3.747,1.677,3.747,3.746
			S125.41,63.688,123.34,63.688z"/>
		<path d="M150.185,98.668c1.132-1.286-0.04-3.612-0.786-4.325c-4.208-0.219-4.65,7.775-1.18,8.65
			c1.527-2.564-1.481-5.005-0.394-7.076C149.959,95.488,149.992,97.157,150.185,98.668z"/>
	</g>
	<g>
		<path fill="#010101" d="M1,153.138h5.508v7.3h6.285v-7.3h5.482v19.12h-5.482v-7.54H6.508v7.54H1V153.138z"/>
		<path fill="#010101" d="M41.079,164.503v-11.365h5.484v11.125c0,2.701,0.667,4.011,2.995,4.011c2.272,0,2.994-1.23,2.994-4.091
			v-11.045h5.535v11.285c0,5.562-3.261,8.155-8.529,8.155C44.156,172.578,41.079,169.851,41.079,164.503z"/>
		<path fill="#010101" d="M80.893,153.138h12.917v4.253h-7.407v4.062h5.91v4.038h-5.91v6.767h-5.51V153.138z"/>
		<path fill="#010101" d="M115.625,153.138h5.509v7.3h6.284v-7.3h5.483v19.12h-5.483v-7.54h-6.284v7.54h-5.509V153.138z"/>
		<path fill="#010101" d="M155.838,153.138h13.21v4.225h-7.755v3.29h6.177v3.905h-6.177v3.474h8.184v4.227h-13.639V153.138z"/>
		<path fill="#010101" d="M191.455,153.138h5.508v14.869h7.221v4.251h-12.729V153.138z"/>
		<path fill="#010101" d="M226.08,153.138h6.953c6.791,0,10.241,3.395,10.241,9.334v0.213c0,5.965-3.53,9.573-10.269,9.573h-6.926
			V153.138z M232.845,168.031c3.261,0,4.706-1.71,4.706-5.266v-0.215c0-3.638-1.445-5.188-4.761-5.188h-1.203v10.669H232.845z"/>
	</g>
</g>
<g>
	<path d="M679.354,94.662c-0.939,1.427-1.498,3.075-1.633,4.748c-0.139,1.676,0.082,3.359,0.516,4.977
		c0.432,1.623,1.07,3.187,1.779,4.713c0.715,1.525,1.527,3.01,2.379,4.473c1.711,2.928,3.59,5.761,5.307,8.763
		c0.217,0.383,0.412,0.747,0.623,1.093c0.209,0.351,0.432,0.693,0.664,1.027c0.461,0.67,0.969,1.303,1.518,1.899
		c0.549,0.599,1.141,1.154,1.766,1.699c0.623,0.551,1.285,1.078,1.955,1.709c0.334,0.317,0.668,0.666,0.975,1.078
		c0.305,0.409,0.574,0.89,0.746,1.408c0.176,0.519,0.256,1.06,0.266,1.572c0.012,0.518-0.041,1.011-0.123,1.482
		c-0.17,0.943-0.451,1.812-0.764,2.65l-0.234,0.607c-0.066,0.177-0.129,0.358-0.189,0.543c-0.117,0.369-0.217,0.739-0.287,1.11
		c-0.303,1.487-0.186,2.985,0.383,4.316c0.562,1.335,1.572,2.489,2.805,3.371s2.686,1.513,4.17,1.828
		c0.75,0.156,1.482,0.234,2.232,0.202c0.15-0.01,0.334-0.021,0.514-0.045c0.178-0.021,0.359-0.054,0.537-0.087
		c0.361-0.071,0.725-0.168,1.086-0.283c1.445-0.474,2.861-1.24,4.201-2.136c0.67-0.449,1.322-0.935,1.955-1.447
		c0.316-0.257,0.627-0.521,0.932-0.788c0.299-0.265,0.615-0.554,0.867-0.808l-0.369,1.272c-0.303-1.415-0.541-2.779-0.766-4.174
		c-0.223-1.389-0.416-2.78-0.582-4.176c-0.33-2.789-0.57-5.595-0.643-8.413c-0.08-2.817-0.027-5.646,0.219-8.475
		c0.25-2.827,0.691-5.658,1.465-8.438c0.096-0.347,0.199-0.693,0.307-1.038l0.156-0.496l0.141-0.473
		c0.184-0.64,0.359-1.284,0.514-1.938c0.311-1.303,0.555-2.628,0.742-3.964c0.375-2.674,0.527-5.392,0.52-8.114
		c-0.01-2.725-0.18-5.455-0.459-8.176c-0.143-1.361-0.316-2.718-0.527-4.07c-0.211-1.346-0.451-2.713-0.742-4.011l-0.314-1.409
		l1.406,0.123c0.15,0.013,0.383,0.019,0.582,0.019c0.209,0,0.42-0.006,0.631-0.018c0.422-0.022,0.846-0.065,1.266-0.126
		c0.844-0.123,1.674-0.326,2.482-0.593c1.615-0.537,3.119-1.39,4.389-2.528c1.271-1.135,2.301-2.55,3.07-4.11
		c0.768-1.563,1.303-3.259,1.648-5.003l0.836,0.685c-1.658,0.588-3.316,1.131-4.988,1.65c-1.67,0.521-3.355,0.996-5.053,1.429
		c-1.695,0.428-3.404,0.826-5.135,1.101c-0.865,0.136-1.736,0.246-2.611,0.299c-0.871,0.047-1.76,0.057-2.613-0.137
		c0.863,0.131,1.736,0.059,2.596-0.05c0.861-0.113,1.713-0.283,2.557-0.479c1.691-0.396,3.361-0.873,5.018-1.402
		c1.654-0.527,3.293-1.105,4.926-1.695c1.631-0.596,3.26-1.219,4.857-1.874l1-0.41l-0.164,1.096
		c-0.273,1.845-0.74,3.688-1.521,5.427c-0.773,1.737-1.859,3.374-3.26,4.723c-1.395,1.354-3.088,2.402-4.906,3.086
		c-0.908,0.346-1.852,0.594-2.807,0.763c-0.479,0.083-0.961,0.146-1.447,0.187c-0.244,0.019-0.488,0.033-0.736,0.041
		c-0.256,0.005-0.479,0.01-0.781-0.007l1.09-1.287c0.355,1.399,0.631,2.759,0.889,4.146c0.254,1.382,0.475,2.771,0.658,4.164
		c0.377,2.786,0.596,5.598,0.652,8.42c0.055,2.822-0.055,5.659-0.402,8.486c-0.174,1.414-0.408,2.823-0.717,4.224
		c-0.156,0.7-0.324,1.398-0.523,2.09l-0.154,0.524l-0.152,0.498c-0.1,0.317-0.191,0.638-0.279,0.959
		c-0.699,2.57-1.105,5.246-1.328,7.942c-0.221,2.7-0.256,5.426-0.164,8.152c0.102,2.726,0.297,5.456,0.609,8.175
		c0.154,1.36,0.334,2.717,0.543,4.069c0.207,1.346,0.443,2.714,0.713,4.013l0.156,0.755l-0.525,0.518
		c-0.354,0.347-0.67,0.63-1.01,0.93c-0.336,0.294-0.678,0.579-1.025,0.858c-0.697,0.557-1.414,1.087-2.164,1.584
		c-1.498,0.988-3.109,1.865-4.922,2.42c-0.914,0.273-1.842,0.462-2.883,0.493c-0.955,0.023-1.93-0.097-2.846-0.307
		c-1.84-0.426-3.57-1.211-5.094-2.337c-1.516-1.123-2.828-2.642-3.564-4.473c-0.369-0.911-0.592-1.886-0.645-2.859
		c-0.059-0.976,0.039-1.944,0.25-2.867c0.105-0.463,0.238-0.914,0.393-1.354c0.078-0.22,0.162-0.438,0.252-0.657l0.24-0.58
		c0.305-0.749,0.568-1.506,0.719-2.238c0.152-0.734,0.178-1.425-0.004-2.005c-0.172-0.583-0.584-1.131-1.145-1.688
		c-0.557-0.556-1.213-1.113-1.85-1.708c-0.643-0.598-1.27-1.237-1.85-1.919s-1.113-1.404-1.592-2.156
		c-0.238-0.376-0.467-0.76-0.68-1.148c-0.219-0.392-0.412-0.787-0.602-1.153c-0.773-1.492-1.615-2.97-2.453-4.455
		c-0.842-1.483-1.67-2.985-2.463-4.508c-1.57-3.045-3.049-6.211-3.754-9.619c-0.342-1.696-0.488-3.458-0.215-5.177
		C677.619,97.651,678.314,96.017,679.354,94.662z"/>
	<path d="M700.895,66.343c-1.592-0.67-3.254-1.205-4.918-1.679c-1.666-0.479-3.35-0.884-5.045-1.221
		c-3.393-0.675-6.82-1.1-10.25-1.244c-3.426-0.163-6.855-0.055-10.242,0.326c-3.387,0.356-6.736,0.986-10.004,1.88
		c-3.271,0.886-6.432,2.127-9.477,3.572c-3.049,1.437-6.037,2.966-9.012,4.571c-2.973,1.607-5.895,3.353-8.793,5.206
		c-2.904,1.847-5.766,3.817-8.742,5.767l-0.357-0.357c1.965-2.991,4.309-5.705,6.877-8.207c2.574-2.496,5.393-4.764,8.418-6.747
		c3.021-1.987,6.285-3.627,9.697-4.86c3.416-1.227,6.922-2.154,10.453-2.881c3.533-0.724,7.117-1.156,10.699-1.298
		c3.586-0.116,7.17,0.058,10.705,0.51c3.533,0.47,7.02,1.204,10.41,2.226c3.389,1.032,6.699,2.29,9.809,3.985L700.895,66.343z"/>
	<path d="M607.711,76.854c-2.994-2.003-6.029-3.947-9.096-5.839c-6.135-3.783-12.398-7.358-18.779-10.718
		c-12.764-6.708-26.008-12.55-39.689-17.204c-13.676-4.639-27.82-8.083-42.248-9.633c-7.208-0.773-14.483-1.064-21.749-0.766
		c-7.264,0.298-14.519,1.189-21.641,2.758c-7.121,1.567-14.105,3.81-20.8,6.742c-6.693,2.931-13.094,6.542-19.083,10.73
		c-2.995,2.09-5.896,4.338-8.675,6.683l-8.292,6.896c-5.537,4.585-11.097,9.142-16.686,13.658
		c-11.188,9.017-22.443,17.954-33.994,26.428c-5.778,4.226-11.628,8.351-17.639,12.113c-3.006,1.875-6.056,3.656-9.164,5.193
		c-1.555,0.767-3.123,1.468-4.714,2.075c-1.594,0.615-3.209,1.113-4.952,1.64l-6.335,1.917l5.922,3.021
		c0.449,0.229,0.846,0.423,1.266,0.627l1.243,0.593c0.827,0.39,1.657,0.768,2.488,1.141c1.663,0.745,3.336,1.462,5.016,2.156
		c3.359,1.388,6.754,2.684,10.176,3.897c6.846,2.431,13.809,4.537,20.878,6.269c7.067,1.729,14.239,3.092,21.491,3.986
		c7.249,0.894,14.581,1.322,21.929,1.15c7.346-0.163,14.708-0.968,21.949-2.501c7.242-1.522,14.345-3.853,21.103-6.976
		c6.761-3.112,13.13-7.096,18.934-11.756c2.9-2.334,5.667-4.829,8.266-7.483c2.598-2.654,5.042-5.451,7.331-8.362
		c2.288-2.91,4.422-5.934,6.407-9.042c1.892-2.985,3.835-5.861,5.933-8.658c2.09-2.79,4.304-5.482,6.65-8.047
		c2.34-2.568,4.811-5.011,7.414-7.294c5.213-4.559,10.959-8.497,17.164-11.54c3.102-1.522,6.307-2.839,9.598-3.915
		c3.287-1.077,6.658-1.917,10.078-2.54c6.84-1.235,13.869-1.549,20.871-1.082c7.008,0.456,13.994,1.673,20.836,3.492
		c6.846,1.808,13.568,4.182,20.1,7.028c3.27,1.413,6.494,2.946,9.656,4.599c3.166,1.645,6.295,3.398,9.291,5.32l0.393-0.535
		C613.67,80.907,610.705,78.861,607.711,76.854z"/>
	<g>
		<path fill="#FFFFFF" d="M400.392,91.235v37.48h-2.691v-17.948h-23.651v17.948h-2.692v-37.48h2.692v17.104h23.651V91.235H400.392z"
			/>
		<path fill="#FFFFFF" d="M438.294,110.08V91.235h2.692v18.847c0,10.029-4.118,18.899-15.627,18.899
			c-11.878,0-15.626-9.397-15.626-18.901V91.235h2.692v18.845c0,8.289,2.903,16.419,12.881,16.419
			C435.496,126.499,438.294,118.159,438.294,110.08z"/>
		<path fill="#FFFFFF" d="M450.276,128.716v-37.48h24.39v2.428h-21.697v14.887h18.424v2.323h-18.424v17.843H450.276z"/>
		<path d="M523.072,91.235v37.481h-2.693v-17.949h-23.65v17.949l-2.691-0.001v-37.48h2.691v17.104h23.65V91.235H523.072z"/>
		<path d="M557.965,126.288v2.429h-24.971V91.235h24.494v2.428h-21.803v14.729h19.059v2.323h-19.059v15.573H557.965z"/>
		<path d="M565.457,128.717V91.235h2.693v35.053h22.383v2.429H565.457z"/>
		<path d="M596.656,128.717V91.235h12.459c11.877,0,17.791,8.341,17.791,18.688c0,11.35-6.916,18.793-17.791,18.793H596.656z
			 M609.115,93.663h-9.768v32.625h9.768c9.871,0,15.098-7.073,15.098-16.364C624.213,100.473,618.775,93.663,609.115,93.663z"/>
	</g>
</g>
<g>
	<g>
		<path d="M897.078,147.874c-0.678,0.377-1.508,0.719-2.496,1.023s-2.125,0.457-3.412,0.457c-0.131,0-0.242-0.016-0.332-0.047
			c-0.09-0.033-0.18-0.07-0.262-0.107c-0.086-0.039-0.18-0.076-0.285-0.107c-0.102-0.033-0.238-0.049-0.408-0.049
			c-0.143,0-0.279,0.02-0.408,0.059c-0.131,0.039-0.326,0.123-0.586,0.252l0.039-0.311c0.805-1.027,1.596-2.129,2.369-3.305
			c0.771-1.178,1.51-2.373,2.213-3.59c0.701-1.215,1.348-2.434,1.939-3.654c0.592-1.223,1.104-2.398,1.541-3.529
			c0.436-1.131,0.773-2.193,1.014-3.188c0.24-0.996,0.361-1.875,0.361-2.643c0-0.846-0.135-1.557-0.4-2.135
			c-0.268-0.578-0.602-1.043-1.004-1.395c-0.404-0.352-0.848-0.605-1.336-0.76c-0.488-0.156-0.951-0.234-1.395-0.234
			c-1.119,0-2.145,0.338-3.08,1.014c-0.938,0.676-1.785,1.596-2.545,2.76c-0.76,1.162-1.447,2.521-2.057,4.074
			c-0.611,1.553-1.154,3.207-1.629,4.963c-0.475,1.754-0.885,3.559-1.229,5.41c-0.344,1.854-0.643,3.66-0.896,5.422
			c-0.254,1.76-0.457,3.43-0.613,5.01c-0.047,0.475-0.09,0.926-0.131,1.367c-0.107,0.07-0.209,0.143-0.318,0.213
			c-0.48,0.305-0.953,0.578-1.414,0.818s-0.896,0.432-1.307,0.576c-0.408,0.143-0.756,0.213-1.043,0.213
			c-0.26,0-0.459-0.061-0.594-0.184c-0.137-0.125-0.236-0.299-0.303-0.527c-0.066-0.227-0.105-0.494-0.117-0.801
			c-0.014-0.305-0.02-0.639-0.02-1.004c0-0.193,0.039-0.541,0.117-1.043c0.078-0.5,0.178-1.082,0.303-1.744
			c0.123-0.662,0.256-1.377,0.398-2.145s0.275-1.512,0.4-2.232c0.123-0.723,0.225-1.385,0.303-1.99
			c0.078-0.604,0.117-1.082,0.117-1.432c0-0.365-0.195-0.664-0.586-0.898c-0.389-0.232-0.916-0.35-1.58-0.35
			c-0.584,0-1.107,0.107-1.568,0.32c-0.463,0.215-0.725,0.479-0.791,0.791l-1.93,9.904c-0.104,0.52-0.26,0.984-0.469,1.395
			c-0.207,0.41-0.445,0.754-0.711,1.033s-0.549,0.494-0.848,0.645c-0.299,0.148-0.592,0.223-0.877,0.223
			c-0.195,0-0.365-0.051-0.508-0.154s-0.26-0.242-0.35-0.41c-0.094-0.17-0.16-0.361-0.207-0.576
			c-0.045-0.213-0.066-0.438-0.066-0.672c0-0.014,0.027-0.215,0.088-0.604c0.057-0.391,0.139-0.904,0.244-1.541
			c0.104-0.637,0.219-1.361,0.35-2.174s0.268-1.648,0.41-2.506c0.143-0.859,0.283-1.709,0.42-2.555
			c0.135-0.846,0.262-1.611,0.379-2.301c0-0.221-0.148-0.406-0.449-0.555c-0.299-0.15-0.793-0.238-1.48-0.264
			c-0.418,0.012-0.789,0.123-1.123,0.33c-0.33,0.209-0.619,0.475-0.867,0.799c-0.246,0.326-0.461,0.691-0.643,1.094
			s-0.334,0.799-0.459,1.189c-0.123,0.391-0.221,0.75-0.291,1.082c-0.072,0.33-0.121,0.594-0.146,0.789
			c-0.35,1.973-0.893,5.238-0.898,5.227c0,0,0.338-0.975,0.299-1.053c-0.885,0.883-2.219,2.15-2.939,2.787
			c-0.723,0.637-1.375,1.158-1.961,1.561c-0.584,0.402-1.104,0.699-1.559,0.887c-0.455,0.189-0.846,0.283-1.17,0.283
			c-0.857,0-1.473-0.25-1.844-0.752c-0.371-0.5-0.555-1.191-0.555-2.076c0-1.014,0.137-2.213,0.41-3.598
			c0.271-1.385,0.635-2.875,1.092-4.475c0.441-0.039,0.887-0.078,1.334-0.117c0.449-0.039,0.908-0.084,1.375-0.137
			c0.404-0.039,0.701-0.064,0.896-0.078c0.195-0.012,0.332-0.021,0.41-0.029c0.078-0.006,0.127-0.012,0.146-0.018
			c0.02-0.008,0.062-0.014,0.127-0.02c0.064-0.008,0.176-0.02,0.332-0.039s0.416-0.049,0.779-0.088
			c0.168-0.014,0.352-0.043,0.545-0.088c0.195-0.045,0.381-0.123,0.557-0.234c0.176-0.109,0.322-0.256,0.439-0.439
			c0.117-0.182,0.174-0.408,0.174-0.682c0-0.248-0.025-0.469-0.078-0.664c-0.051-0.193-0.145-0.363-0.281-0.506
			s-0.326-0.254-0.566-0.332c-0.24-0.076-0.555-0.117-0.945-0.117c-0.104,0-0.219,0.004-0.342,0.01
			c-0.123,0.008-0.256,0.018-0.398,0.031c-0.312,0.025-0.773,0.061-1.385,0.105c-0.611,0.047-1.326,0.094-2.145,0.146
			c0.311-1,0.639-2.008,0.984-3.021c0.344-1.014,0.689-2.006,1.033-2.975s0.686-1.91,1.023-2.826
			c0.338-0.918,0.656-1.777,0.955-2.584c0.17-0.455,0.273-0.881,0.312-1.277s0.059-0.744,0.059-1.043
			c0-0.338-0.055-0.635-0.166-0.887c-0.111-0.254-0.264-0.463-0.457-0.625c-0.195-0.162-0.42-0.283-0.674-0.361
			c-0.254-0.076-0.518-0.117-0.789-0.117c-0.664,0-1.238,0.223-1.727,0.664c-0.486,0.443-0.881,1.033-1.18,1.773
			c-0.896,2.236-1.744,4.516-2.543,6.836c-0.801,2.32-1.531,4.564-2.193,6.736c-1.691,0.092-3.375,0.182-5.051,0.273
			c-1.678,0.09-3.186,0.182-4.525,0.271c0.365-1.182,0.705-2.342,1.025-3.48c0.316-1.137,0.594-2.209,0.828-3.217
			s0.418-1.934,0.557-2.779c0.135-0.844,0.203-1.559,0.203-2.145c0-1.248-0.186-2.307-0.555-3.178
			c-0.371-0.871-0.871-1.58-1.502-2.125c-0.631-0.547-1.361-0.943-2.193-1.189c-0.832-0.248-1.703-0.371-2.613-0.371
			c-0.611,0-1.279,0.078-2.008,0.234s-1.459,0.381-2.193,0.674c-0.734,0.291-1.451,0.648-2.145,1.072
			c-0.697,0.422-1.311,0.891-1.844,1.402c-0.533,0.514-0.959,1.076-1.277,1.688s-0.477,1.254-0.477,1.93
			c0,0.508,0.025,0.934,0.078,1.277c0.051,0.344,0.129,0.518,0.232,0.518c0.209,0,0.439-0.053,0.693-0.156
			c0.254-0.105,0.529-0.279,0.828-0.527c0.857-0.701,1.654-1.289,2.389-1.764s1.414-0.857,2.037-1.15
			c0.625-0.293,1.193-0.504,1.707-0.635c0.514-0.129,0.965-0.195,1.355-0.195c0.48,0,0.883,0.086,1.207,0.254
			c0.326,0.17,0.594,0.404,0.801,0.703c0.209,0.299,0.357,0.662,0.449,1.092c0.09,0.428,0.135,0.896,0.135,1.404
			c0,0.623-0.064,1.279-0.193,1.969c-0.131,0.689-0.307,1.379-0.527,2.066c-0.363,1.08-0.758,2.182-1.18,3.305
			c-0.422,1.125-0.867,2.291-1.336,3.5c0,0-4.303,0.568-5.674,0.078c-0.635-0.227-0.852-1.01-1.15-1.277
			c-0.299-0.266-0.572-0.4-0.818-0.4c-0.404,0-0.605,0.287-0.605,0.859c0,0.182,0.018,0.363,0.049,0.545
			c0.033,0.184,0.074,0.391,0.127,0.625c0.285,0.74,0.646,1.352,1.082,1.832s0.934,0.859,1.492,1.131
			c0.559,0.273,1.166,0.465,1.822,0.576c0.656,0.109,1.344,0.166,2.059,0.166c-0.664,1.754-1.316,3.557-1.961,5.41
			c-0.643,1.852-1.238,3.771-1.783,5.762c-0.053,0.195-0.078,0.396-0.078,0.605c0,0.338,0.068,0.643,0.205,0.916
			c0.135,0.271,0.32,0.506,0.555,0.701s0.502,0.344,0.799,0.449c0.299,0.104,0.605,0.156,0.918,0.156
			c0.48,0,1.023-0.287,1.627-0.859c0.605-0.57,1.225-1.547,1.863-2.924c0.195-0.533,0.432-1.18,0.711-1.939
			c0.279-0.762,0.584-1.6,0.916-2.516s0.676-1.898,1.033-2.945c0.357-1.045,0.719-2.115,1.084-3.207
			c1.584-0.143,3.178-0.293,4.775-0.449c1.6-0.156,3.27-0.324,5.012-0.506c-0.26,0.963-0.498,1.875-0.711,2.738
			c-0.215,0.865-0.396,1.662-0.547,2.389c-0.148,0.729-0.264,1.379-0.34,1.951c-0.078,0.57-0.117,1.047-0.117,1.424
			c0,1.092,0.148,2.062,0.447,2.914s0.705,1.57,1.219,2.154c0.514,0.586,1.121,1.031,1.824,1.336
			c0.701,0.305,1.461,0.459,2.281,0.459c0.715,0,1.498-0.135,2.35-0.4c0.85-0.266,1.74-0.664,2.672-1.189
			c0.928-0.525,1.883-1.18,2.865-1.959c0.463-0.369,0.928-0.768,1.389-1.191c0.039,0.475,0.109,0.898,0.219,1.258
			c0.17,0.555,0.4,0.998,0.693,1.336c0.293,0.34,0.627,0.58,1.004,0.723s0.779,0.215,1.209,0.215c0.52,0,1.057-0.107,1.607-0.322
			c0.555-0.215,1.1-0.51,1.639-0.887c0.541-0.377,1.068-0.822,1.59-1.336c0.52-0.514,1.014-1.076,1.482-1.688
			c0.129,0.6,0.283,1.141,0.457,1.629c0.176,0.486,0.391,0.906,0.645,1.258s0.555,0.623,0.906,0.818s0.773,0.293,1.268,0.293
			s1.025-0.068,1.6-0.205c0.57-0.137,1.148-0.318,1.734-0.545c0.584-0.229,1.166-0.492,1.744-0.791
			c0.213-0.109,0.418-0.225,0.623-0.338c-0.043,0.629-0.076,1.178-0.096,1.625c-0.033,0.729-0.049,1.125-0.049,1.189
			c0,0.793,0.029,1.615,0.088,2.467s0.158,1.688,0.303,2.506c0.143,0.818,0.34,1.596,0.594,2.33s0.568,1.377,0.945,1.93
			c0.379,0.553,0.832,0.991,1.365,1.316c0.533,0.324,1.158,0.487,1.873,0.487s1.355-0.149,1.92-0.448
			c0.564-0.301,1.064-0.692,1.502-1.18c0.434-0.488,0.816-1.047,1.141-1.678s0.602-1.283,0.828-1.959s0.412-1.344,0.557-2.008
			c0.143-0.664,0.252-1.268,0.33-1.814c0.078-0.545,0.133-1.006,0.168-1.383c0.031-0.377,0.047-0.625,0.047-0.742
			c0-1-0.133-1.992-0.398-2.973c-0.268-0.982-0.564-1.869-0.889-2.662c-0.377-0.922-0.799-1.812-1.268-2.672
			c0.91-0.039,1.826-0.129,2.75-0.273c0.793-0.129,1.656-0.324,2.594-0.584c0.936-0.26,1.682-0.479,2.689-1.092
			c1.01-0.613,1.646-1.461,1.764-3.422c0.117-1.959-1.334-1.316-1.334-1.316C898.561,146.944,897.871,147.444,897.078,147.874z
			 M888.303,142.56c0.092-0.838,0.248-1.809,0.469-2.914s0.547-2.369,0.975-3.793c0.428-1.422,1.021-3.07,1.773-4.943
			c0.248-0.637,0.527-1.113,0.84-1.432c0.311-0.318,0.768-0.479,1.365-0.479c0.338,0,0.604,0.16,0.799,0.479
			c0.193,0.318,0.293,0.82,0.293,1.51c0,0.494-0.205,1.217-0.615,2.164c-0.41,0.949-0.938,2.045-1.588,3.287
			c-0.65,1.24-1.379,2.586-2.186,4.035c-0.805,1.449-1.605,2.922-2.398,4.416C888.121,144.175,888.213,143.399,888.303,142.56z
			 M889.092,164.028c-0.045,0.734-0.135,1.41-0.271,2.027s-0.338,1.127-0.604,1.531c-0.268,0.402-0.621,0.604-1.062,0.604
			c-0.145,0-0.283-0.086-0.422-0.262c-0.135-0.176-0.258-0.557-0.371-1.141c-0.109-0.586-0.199-1.443-0.271-2.574
			c-0.07-1.131-0.107-2.652-0.107-4.562c0-0.273,0.012-0.646,0.039-1.121c0.025-0.475,0.059-0.988,0.098-1.541
			s0.086-1.115,0.137-1.688c0.051-0.57,0.105-1.088,0.166-1.549c0.059-0.461,0.121-0.838,0.186-1.131s0.123-0.439,0.174-0.439
			c0.156,0,0.326,0.176,0.51,0.527c0.18,0.35,0.359,0.809,0.535,1.373c0.176,0.566,0.344,1.207,0.508,1.922
			c0.16,0.715,0.305,1.432,0.428,2.154s0.221,1.414,0.291,2.076c0.074,0.662,0.109,1.223,0.109,1.678
			C889.162,162.589,889.139,163.294,889.092,164.028z"/>
		<path d="M996.6,152.476c-0.781,0.662-1.527,1.254-2.242,1.773c-0.312,0.223-0.635,0.439-0.967,0.654
			c-0.33,0.213-0.66,0.406-0.984,0.574c-0.326,0.17-0.633,0.303-0.926,0.4s-0.562,0.146-0.809,0.146
			c-0.26,0-0.479-0.078-0.654-0.234s-0.314-0.367-0.418-0.633c-0.105-0.268-0.18-0.57-0.227-0.908
			c-0.045-0.338-0.066-0.695-0.066-1.072c0-0.299,0.02-0.607,0.059-0.926s0.086-0.631,0.145-0.936s0.121-0.588,0.188-0.85
			c0.064-0.26,0.129-0.48,0.193-0.662c0.676-1.639,1.373-3.217,2.086-4.738c0.715-1.521,1.379-3.055,1.99-4.602
			c0.609-1.547,1.145-3.135,1.598-4.768c0.455-1.631,0.768-3.363,0.938-5.195c0.039-0.48,0.059-0.949,0.059-1.404
			c0-0.74-0.059-1.459-0.176-2.154s-0.309-1.307-0.576-1.832c-0.266-0.527-0.613-0.949-1.043-1.27
			c-0.428-0.318-0.949-0.477-1.561-0.477c-0.832,0-1.637,0.256-2.418,0.77c-0.779,0.514-1.514,1.225-2.203,2.135
			c-0.688,0.91-1.322,1.988-1.9,3.238c-0.578,1.248-1.082,2.605-1.512,4.074c-0.428,1.469-0.773,3.016-1.033,4.641
			s-0.41,3.27-0.449,4.934c-0.988,0.092-1.916,0.318-2.787,0.682s-1.678,0.822-2.418,1.375s-1.404,1.184-1.99,1.891
			c-0.584,0.711-1.082,1.463-1.49,2.262c-0.41,0.801-0.721,1.627-0.936,2.477c-0.195,0.77-0.295,1.531-0.314,2.285
			c-0.021,0.014-0.045,0.031-0.066,0.045c-0.35,0.234-0.715,0.465-1.092,0.691c-0.377,0.229-0.744,0.43-1.102,0.605
			s-0.695,0.316-1.014,0.42s-0.602,0.156-0.85,0.156c-0.104,0-0.213-0.074-0.332-0.225c-0.115-0.15-0.227-0.352-0.33-0.605
			c-0.104-0.252-0.191-0.537-0.264-0.857c-0.07-0.318-0.105-0.646-0.105-0.984v-0.273c0.037-0.26,0.09-0.525,0.154-0.799
			s0.131-0.529,0.195-0.77c0.064-0.242,0.133-0.465,0.205-0.674c0.07-0.207,0.141-0.377,0.203-0.508
			c0.6-1.168,1.238-2.367,1.922-3.596s1.361-2.477,2.037-3.744c0.678-1.268,1.326-2.545,1.951-3.832
			c0.623-1.287,1.172-2.57,1.646-3.85c0.475-1.281,0.852-2.555,1.131-3.822s0.42-2.512,0.42-3.734c0-0.545-0.043-1.082-0.127-1.609
			c-0.084-0.525-0.23-0.996-0.438-1.412c-0.209-0.416-0.496-0.752-0.859-1.006c-0.363-0.252-0.824-0.379-1.385-0.379
			c-0.818,0-1.625,0.246-2.416,0.74c-0.793,0.494-1.555,1.174-2.283,2.039c-0.729,0.863-1.424,1.877-2.086,3.041
			c-0.662,1.162-1.277,2.414-1.842,3.754c-0.566,1.338-1.074,2.736-1.521,4.191s-0.834,2.904-1.16,4.348s-0.572,2.844-0.74,4.203
			c-0.17,1.357-0.254,2.615-0.254,3.773c0,1.193,0.082,2.344,0.242,3.453c-0.236,0.193-0.482,0.391-0.75,0.592
			c-0.727,0.553-1.5,1.062-2.32,1.531c-0.818,0.467-1.66,0.857-2.523,1.17c-0.865,0.311-1.688,0.467-2.467,0.467
			c-0.248,0-0.479-0.025-0.693-0.078c-0.215-0.051-0.418-0.143-0.613-0.271c-0.195-0.131-0.387-0.312-0.576-0.547
			c-0.188-0.234-0.379-0.527-0.576-0.877c1.133-0.312,2.182-0.748,3.15-1.307s1.805-1.195,2.506-1.91
			c0.703-0.717,1.25-1.477,1.648-2.283c0.395-0.805,0.594-1.611,0.594-2.416c0-0.742-0.129-1.41-0.391-2.01
			c-0.26-0.598-0.621-1.107-1.082-1.529c-0.461-0.424-1.004-0.752-1.627-0.986c-0.625-0.232-1.301-0.35-2.029-0.35
			c-0.895,0-1.711,0.158-2.445,0.477c-0.736,0.318-1.398,0.748-1.988,1.287c-0.594,0.539-1.109,1.164-1.551,1.873
			c-0.443,0.707-0.811,1.451-1.102,2.232c-0.293,0.779-0.512,1.576-0.654,2.389c-0.111,0.633-0.166,1.234-0.191,1.816
			c-0.838,0.836-1.605,1.561-2.295,2.17c-0.721,0.637-1.375,1.158-1.959,1.561c-0.586,0.402-1.105,0.699-1.561,0.887
			c-0.455,0.189-0.846,0.283-1.17,0.283c-0.367,0-0.682-0.057-0.959-0.148c-0.371-0.121-0.672-0.316-0.883-0.604v0.002
			c0-0.002,0-0.002,0-0.002c-0.371-0.5-0.557-1.191-0.557-2.076c0-1.014,0.137-2.213,0.41-3.598
			c0.271-1.385,0.635-2.875,1.092-4.475c0.441-0.039,0.887-0.078,1.336-0.117c0.447-0.039,0.906-0.084,1.375-0.137
			c0.402-0.039,0.699-0.064,0.895-0.078c0.195-0.012,0.332-0.021,0.41-0.029c0.078-0.006,0.127-0.012,0.146-0.018
			c0.02-0.008,0.061-0.014,0.127-0.02c0.064-0.008,0.176-0.02,0.332-0.039s0.416-0.049,0.779-0.088
			c0.17-0.014,0.352-0.043,0.545-0.088c0.195-0.045,0.383-0.123,0.557-0.234c0.176-0.109,0.322-0.256,0.439-0.439
			c0.117-0.182,0.176-0.408,0.176-0.682c0-0.248-0.027-0.469-0.078-0.664c-0.053-0.193-0.146-0.363-0.283-0.506
			s-0.326-0.254-0.564-0.332c-0.242-0.076-0.557-0.117-0.947-0.117c-0.104,0-0.217,0.004-0.342,0.01
			c-0.123,0.008-0.256,0.018-0.398,0.031c-0.312,0.025-0.773,0.061-1.385,0.105c-0.611,0.047-1.326,0.094-2.145,0.146
			c0.311-1,0.641-2.008,0.984-3.021s0.689-2.006,1.033-2.975s0.686-1.91,1.023-2.826c0.338-0.918,0.656-1.777,0.957-2.584
			c0.168-0.455,0.271-0.881,0.311-1.277s0.059-0.744,0.059-1.043c0-0.338-0.055-0.635-0.166-0.887
			c-0.109-0.254-0.262-0.463-0.457-0.625s-0.42-0.283-0.674-0.361c-0.252-0.076-0.518-0.117-0.789-0.117
			c-0.662,0-1.238,0.223-1.727,0.664c-0.486,0.443-0.881,1.033-1.178,1.773c-0.898,2.236-1.746,4.516-2.545,6.836
			c-0.801,2.32-1.531,4.564-2.193,6.736c-1.691,0.092-3.375,0.182-5.051,0.273c-1.678,0.09-3.186,0.182-4.523,0.271
			c0.363-1.182,0.703-2.342,1.023-3.48c0.316-1.137,0.594-2.209,0.828-3.217s0.418-1.934,0.557-2.779
			c0.135-0.844,0.205-1.559,0.205-2.145c0-1.248-0.188-2.307-0.557-3.178c-0.371-0.871-0.871-1.58-1.502-2.125
			c-0.629-0.547-1.361-0.943-2.193-1.189c-0.832-0.248-1.703-0.371-2.613-0.371c-0.611,0-1.279,0.078-2.008,0.234
			s-1.459,0.381-2.193,0.674c-0.734,0.291-1.449,0.648-2.145,1.072c-0.695,0.422-1.311,0.891-1.844,1.402
			c-0.531,0.514-0.957,1.076-1.277,1.688c-0.318,0.611-0.477,1.254-0.477,1.93c0,0.508,0.025,0.934,0.078,1.277
			c0.051,0.344,0.129,0.518,0.234,0.518c0.207,0,0.438-0.053,0.691-0.156c0.254-0.105,0.529-0.279,0.828-0.527
			c0.859-0.701,1.654-1.289,2.389-1.764s1.414-0.857,2.037-1.15c0.625-0.293,1.193-0.504,1.707-0.635
			c0.514-0.129,0.965-0.195,1.355-0.195c0.48,0,0.883,0.086,1.207,0.254c0.326,0.17,0.594,0.404,0.801,0.703
			c0.209,0.299,0.357,0.662,0.449,1.092c0.09,0.428,0.137,0.896,0.137,1.404c0,0.623-0.066,1.279-0.195,1.969
			s-0.307,1.379-0.527,2.066c-0.363,1.08-0.758,2.182-1.18,3.305c-0.422,1.125-0.867,2.291-1.336,3.5c0,0-4.303,0.568-5.674,0.078
			c-0.635-0.227-0.85-1.01-1.15-1.277c-0.297-0.266-0.572-0.4-0.818-0.4c-0.404,0-0.604,0.287-0.604,0.859
			c0,0.182,0.016,0.363,0.047,0.545c0.033,0.184,0.074,0.391,0.129,0.625c0.285,0.74,0.645,1.352,1.082,1.832
			c0.434,0.48,0.932,0.859,1.49,1.131c0.559,0.273,1.166,0.465,1.822,0.576c0.656,0.109,1.344,0.166,2.059,0.166
			c-0.664,1.754-1.316,3.557-1.961,5.41c-0.643,1.852-1.238,3.771-1.783,5.762c-0.053,0.195-0.078,0.396-0.078,0.605
			c0,0.338,0.068,0.643,0.205,0.916c0.137,0.271,0.32,0.506,0.555,0.701s0.5,0.344,0.801,0.449c0.297,0.104,0.604,0.156,0.916,0.156
			c0.48,0,1.023-0.287,1.627-0.859c0.605-0.57,1.227-1.547,1.863-2.924c0.195-0.533,0.432-1.18,0.711-1.939
			c0.279-0.762,0.586-1.6,0.918-2.516c0.33-0.916,0.676-1.898,1.033-2.945c0.357-1.045,0.717-2.115,1.082-3.207
			c1.584-0.143,3.178-0.293,4.775-0.449c1.6-0.156,3.27-0.324,5.012-0.506c-0.26,0.963-0.496,1.875-0.711,2.738
			c-0.215,0.865-0.396,1.662-0.547,2.389c-0.148,0.729-0.262,1.379-0.34,1.951c-0.078,0.57-0.117,1.047-0.117,1.424
			c0,1.092,0.148,2.062,0.447,2.914s0.705,1.57,1.221,2.154h-0.002c0.115,0.131,0.236,0.25,0.359,0.367
			c0.432,0.406,0.92,0.73,1.465,0.969c0.701,0.305,1.463,0.459,2.281,0.459l0,0l0,0c0.715,0,1.498-0.135,2.35-0.4
			s1.742-0.664,2.672-1.189s1.883-1.18,2.867-1.959c0.707-0.562,1.412-1.193,2.117-1.883c0.277,0.635,0.625,1.215,1.051,1.736
			c0.609,0.746,1.375,1.342,2.291,1.783c0.916,0.443,1.984,0.664,3.207,0.664c0.779,0,1.551-0.088,2.311-0.264
			s1.494-0.41,2.203-0.701c0.707-0.293,1.385-0.629,2.027-1.006c0.645-0.377,1.246-0.76,1.805-1.15
			c0.348-0.246,0.691-0.504,1.029-0.771c0.062,0.16,0.123,0.326,0.189,0.48c0.447,1.039,0.973,1.867,1.578,2.486
			c0.605,0.617,1.258,0.926,1.961,0.926c0.441,0,0.916-0.062,1.422-0.186c0.508-0.123,1.027-0.289,1.561-0.498
			c0.533-0.207,1.062-0.445,1.59-0.711c0.525-0.266,1.037-0.537,1.529-0.811c0.102-0.057,0.201-0.119,0.301-0.178
			c0.076,0.131,0.152,0.26,0.236,0.383c0.41,0.605,0.924,1.09,1.541,1.453s1.348,0.547,2.193,0.547c0.598,0,1.193-0.094,1.783-0.283
			c0.592-0.188,1.176-0.439,1.756-0.75c0.578-0.312,1.137-0.68,1.678-1.102c0.539-0.424,1.049-0.869,1.529-1.336
			c0.312,0.754,0.68,1.357,1.102,1.812s0.846,0.803,1.268,1.043s0.812,0.4,1.17,0.479s0.627,0.117,0.809,0.117
			c0.326,0,0.68-0.057,1.064-0.166c0.383-0.111,0.775-0.254,1.18-0.43c0.402-0.176,0.811-0.377,1.227-0.604
			c0.418-0.229,0.812-0.459,1.191-0.693c0.896-0.559,1.957-1.119,2.729-1.91c0.316-0.324,0.828-1.336,0.934-3.461
			C998.225,151.394,996.6,152.476,996.6,152.476z M952.668,150.603c0.025-0.402,0.08-0.818,0.166-1.248
			c0.084-0.428,0.207-0.854,0.371-1.275c0.162-0.422,0.375-0.801,0.643-1.133c0.268-0.33,0.598-0.6,0.994-0.809
			c0.396-0.207,0.875-0.311,1.434-0.311c0.312,0,0.574,0.188,0.789,0.564s0.322,0.857,0.322,1.443c0,0.416-0.162,0.844-0.486,1.287
			c-0.326,0.441-0.727,0.852-1.199,1.227c-0.475,0.379-0.988,0.688-1.541,0.928s-1.062,0.361-1.531,0.361
			C952.629,151.351,952.643,151.007,952.668,150.603z M968.617,141.351c0.182-1.318,0.43-2.602,0.74-3.85
			c0.312-1.248,0.668-2.424,1.064-3.529s0.811-2.074,1.248-2.906c0.434-0.832,0.871-1.49,1.305-1.979
			c0.438-0.488,0.842-0.73,1.219-0.73c0.105,0,0.168,0.133,0.188,0.398c0.018,0.268,0.027,0.588,0.027,0.965
			c-0.117,1.184-0.389,2.461-0.818,3.832c-0.428,1.371-0.936,2.746-1.521,4.125c-0.584,1.377-1.205,2.717-1.861,4.016
			c-0.656,1.301-1.277,2.471-1.861,3.51C968.346,143.954,968.436,142.671,968.617,141.351z M983.066,154.659
			c-0.154,0.26-0.328,0.51-0.516,0.75c-0.189,0.24-0.389,0.455-0.596,0.645c-0.207,0.188-0.426,0.34-0.652,0.457
			c-0.229,0.117-0.459,0.176-0.691,0.176c-0.457,0-0.828-0.064-1.113-0.195c-0.285-0.129-0.508-0.299-0.664-0.506
			c-0.154-0.209-0.262-0.441-0.32-0.703c-0.059-0.26-0.088-0.52-0.088-0.779c0-0.65,0.117-1.377,0.35-2.184
			c0.234-0.807,0.576-1.605,1.025-2.398c0.447-0.793,1.006-1.531,1.678-2.213c0.668-0.682,1.434-1.232,2.289-1.648
			c0.014-0.012,0.027,0.117,0.039,0.391c0.014,0.273,0.023,0.623,0.031,1.053c0.004,0.43,0.016,0.904,0.027,1.424
			c0.014,0.52,0.027,1.023,0.039,1.512c0.014,0.486,0.033,0.928,0.059,1.324c0.027,0.398,0.059,0.688,0.098,0.869
			C983.764,153.386,983.432,154.062,983.066,154.659z M988.447,146.118v-0.195c0-0.193,0-0.473,0-0.838
			c0-0.363,0.008-0.789,0.02-1.277c0.014-0.486,0.037-1.025,0.07-1.617c0.031-0.592,0.074-1.205,0.125-1.844
			c0.027-0.312,0.078-0.838,0.156-1.578c0.078-0.742,0.182-1.574,0.312-2.496c0.129-0.924,0.293-1.879,0.488-2.867
			s0.422-1.891,0.682-2.711c0.26-0.818,0.559-1.49,0.896-2.018c0.338-0.525,0.715-0.789,1.131-0.789c0.234,0,0.412,0.137,0.537,0.41
			c0.123,0.271,0.184,0.76,0.184,1.461c0,0.533-0.037,1.256-0.117,2.166c-0.064,0.688-0.178,1.416-0.34,2.184
			c-0.162,0.766-0.355,1.547-0.574,2.338c-0.223,0.795-0.465,1.584-0.732,2.371c-0.266,0.785-0.529,1.537-0.789,2.252
			C989.871,142.745,989.189,144.429,988.447,146.118z"/>
	</g>
	<path d="M955.471,33.925c-5.834-9.499-11.521-10.715-14.824-10.358c-1.23-3.809-3.793-9.82-7.928-10.908
		c-0.664-0.175-1.373-0.061-1.947,0.313c-0.578,0.375-0.969,0.975-1.082,1.653c-0.471,2.894-1.305,9.134-0.473,13.037
		c-0.254,0.213-0.535,0.461-0.832,0.739l-4.02,0.65c-1.445,0.234-2.469,1.613-2.275,3.064l0.117,0.879
		c0.193,1.451-0.756,3.089-2.113,3.641l-2.389,0.971c-1.357,0.552-1.676,1.902-0.711,3.003l0.771,0.879
		c0.965,1.1,0.67,2.507-0.656,3.127l-1.818,0.85c-1.326,0.621-2.047,2.268-1.598,3.662l1.504,4.69
		c-2.65-0.728-7.359-1.668-15.092-2.198c-7.902-0.543-13.615,1.12-17.527,5.088c-1.074,1.088-1.965,2.312-2.705,3.645
		c-1.383-0.82-3.457-1.769-5.66-1.769c-2.129,0-5.93,0.919-7.469,7.078c-0.873,3.49-1.326,7.467-1.766,11.312
		c-0.525,4.615-1.406,12.339-3.232,12.894c-1.02,0.311-1.719,1.248-1.729,2.312c-0.01,1.066,0.674,2.016,1.688,2.344
		c0.234,0.076,1.486,0.453,3.223,0.453l0,0c2.252,0,5.492-0.637,8.141-3.666c1.59-1.818,2.73-4.27,3.418-7.322
		c0.188,6.363,0.875,10.592,4.578,13.256l-2.201,14.611c-0.158,1.295,0.762,2.473,2.055,2.631c1.295,0.16,2.471-0.762,2.631-2.055
		l1.27-13.367c2.418,0.777,5.539,1.277,9.695,1.732l-1.047,11.928c-0.066,1.301,0.934,2.412,2.234,2.48
		c1.303,0.066,2.412-0.934,2.48-2.232l0.203-11.789c1.875,0.174,3.922,0.352,6.166,0.547c2.283,0.197,4.381,0.326,6.346,0.389
		l-0.377,10.74c0,1.303,1.057,2.359,2.361,2.359c1.301,0,2.359-1.057,2.359-2.359l-0.377-10.707c3.607-0.062,6.68-0.408,9.285-1.012
		l0.203,11.836c0.068,1.301,1.18,2.301,2.48,2.232c1.303-0.068,2.301-1.178,2.232-2.48l-1.016-12.82
		c7.32-3.033,9.701-8.932,10.469-16.555c0.836-8.293-1.293-17.39-1.76-19.247c0.068-6.331,1.93-10.595,3.408-12.996
		c3.799,4.668,11.459,11.147,17.141,11.147c1.621,0,3.057-0.524,4.152-1.516C967.725,55.073,963.156,46.443,955.471,33.925z
		 M872.389,76.079c0,5.623-1.035,9.779-2.994,12.02c-0.506,0.578-1.076,1.031-1.709,1.359c1.137-3.131,1.621-7.361,2.141-11.933
		c0.422-3.688,0.855-7.502,1.652-10.682c0.844-3.381,2.219-3.381,2.734-3.381c0.578,0,1.211,0.17,1.811,0.411
		C874.055,66.354,872.389,70.193,872.389,76.079z M958.186,57.124c-0.078,0.069-0.281,0.255-0.879,0.255
		c-4.428,0-13.438-8.244-14.754-11.369c-0.309-0.735-0.957-1.272-1.736-1.439c-0.779-0.167-1.592,0.057-2.176,0.602
		c-0.275,0.256-6.742,6.434-6.764,19.231c0,0.213,0.027,0.426,0.082,0.633c0.025,0.095,2.531,9.637,1.703,17.827
		c-0.963,9.565-4.32,14.423-19.992,14.423c0,0-0.002,0-0.004,0c-2.566,0-5.492-0.141-8.729-0.422
		c-11.654-1.01-18.072-1.566-20.908-3.492c-2.203-1.496-2.609-4.383-2.721-12.294c-0.109-7.868,0.369-16.509,4.742-20.945
		c2.479-2.511,6.168-3.733,11.279-3.733c0.777,0,1.6,0.03,2.441,0.088c12.027,0.824,16.086,2.68,16.098,2.684
		c0.674,0.338,1.469,0.346,2.148,0.021c0.68-0.326,1.172-0.948,1.332-1.686c4.494-20.808,13.914-26.812,13.992-26.86
		c0.576-0.341,0.99-0.897,1.141-1.551c0.148-0.653,0.025-1.332-0.346-1.889c-0.443-0.775-0.498-3.629-0.217-7.015
		c1.064,1.938,2.078,4.574,2.691,6.963c0.195,0.771,0.695,1.436,1.441,1.717c0.732,0.278,1.496,0.222,2.148-0.209
		c0.129-0.059,0.639-0.27,1.441-0.27c1.758,0,5.35,1.051,9.668,8.084C958.496,48.18,961.357,54.254,958.186,57.124z"/>
	<path d="M909.451,54.154c-3.139-6.904-11.859-16.123-55.449,9.744c-10.365,6.15-18.705-1.588-18.705-1.588
		c-1.387-1.287-1.119-2.996,0.592-3.798c0,0,22.322-10.456-3.113-11.952c-25.436-1.497-10.084-20.353-10.084-20.353
		c1.195-1.467,3.582-2.032,5.307-1.255c0,0,25.229,11.362,36.197,1.021c33.562-31.645,51.408,22.849,51.408,22.849
		c0.588,1.797,1.303,4.371,1.586,5.719s-0.947,1.947-2.736,1.333L909.451,54.154z"/>
	<path d="M950.453,32.145c0,0-9.182,0.877-13.674,0.222c-5.385-0.785,5.18,17.276,19.504,8.352"/>
	<circle fill="#FFFFFF" cx="945.37" cy="37.498" r="2.825"/>
</g>
</svg>
