<?xml version="1.0" encoding="utf-8"?>
<!-- Generator: Adobe Illustrator 15.1.0, SVG Export Plug-In . SVG Version: 6.00 Build 0)  -->
<!DOCTYPE svg PUBLIC "-//W3C//DTD SVG 1.1//EN" "http://www.w3.org/Graphics/SVG/1.1/DTD/svg11.dtd">
<svg version="1.1" id="Layer_1" xmlns="http://www.w3.org/2000/svg" xmlns:xlink="http://www.w3.org/1999/xlink" x="0px" y="0px"
	 width="300px" height="300px" viewBox="0 0 300 300" enable-background="new 0 0 300 300" xml:space="preserve">
<g>
	<g>
		<path d="M88.497,129.028c-2.938-2.699-4.232-12.359,0-14.57C80.453,114.615,82.806,130.401,88.497,129.028z"/>
		<path d="M97.105,119.093c0-0.882,0-1.766,0-2.649c-1.153-0.049-2.06,0.149-2.649,0.663
			C94.257,118.852,95.374,119.281,97.105,119.093z"/>
		<path d="M258.024,162.597c-1.308-21.058-6.569-37.878-17.06-54.539c-0.685-1.087-1.475-2.172-2.31-3.32
			c-2.389-3.281-5.094-6.999-5.128-10.84c-0.018-2.004,1.053-5.813,2.092-9.498c1.12-3.981,2.278-8.098,2.534-11.409
			c1.142-14.817,1.159-39.884-11.545-41.294c-0.296-0.034-0.598-0.051-0.903-0.051c-6.957,0-15.1,8.51-22.844,17.225
			c-0.597,0.671-1.129,1.27-1.583,1.768c-1.626,1.786-3.215,3.851-4.896,6.036c-4.27,5.546-9.107,11.832-14.441,12.804
			c-1.392,0.253-2.715,0.377-4.046,0.377c-4.232,0-7.755-1.265-11.834-2.728c-4.753-1.706-10.142-3.64-17.396-3.64
			c-1.846,0-3.704,0.121-5.629,0.368c-1.662-2.559-3.495-5.917-5.415-9.433C130.572,41.52,121.8,25.46,109.405,25.46
			c-1.021,0-2.052,0.113-3.07,0.332l-1.027,0.224l-0.71,0.775c-6.547,7.141-5.856,19.212-5.188,30.887
			c0.357,6.247,0.727,12.692-0.068,17.953c-5.105,4.227-10.855,6.9-16.427,9.492c-7.767,3.612-15.104,7.025-20.275,14.143
			c-1.731,2.382-3.115,5.648-4.58,9.105c-0.935,2.204-1.9,4.484-2.968,6.552c-7.425,14.376-15.005,32.173-14.938,55.172
			c0.109,37.915,21.024,63.413,33.481,75.239c11.854,11.25,37.363,30.125,75.036,30.125c1.387,0,2.779-0.026,4.189-0.079
			c30.628-1.147,59.428-14.216,79.018-35.857C250.539,218.904,259.825,191.585,258.024,162.597z M88.497,111.809
			c15.403-3.588,10.311,19.914,1.325,20.53C78.381,133.123,78.333,114.177,88.497,111.809z M67.981,156.295
			c0,0,4.667-6.93,15.333-5.598c10.666,1.333,18.932,8.267,19.599,9.336c0.667,1.062-5.466,20.396-21.865,21.195
			C64.648,182.03,65.715,160.561,67.981,156.295z M83.447,206.561c-16.132-7.6-12.399-15.466-12.399-15.466v-0.532
			c0.799-0.533,6.267-7.334,38.531,9.063c0,0,18.799-5.197,25.333-2.266C134.913,197.359,115.837,221.817,83.447,206.561z
			 M136.178,140.286c1.812-19.798,27.118-23.281,33.774-5.96C165.648,147.88,146.102,150.747,136.178,140.286z"/>
	</g>
	<path d="M146.773,127.041c-3.591,2.59-5.249,7.114-4.636,13.907c2.101,1.21,3.154,3.469,5.96,3.973
		c-1.187-5.292-0.975-13.37,1.986-16.555c2.123,0.307,2.335,2.521,4.636,2.648C157.013,126.255,151.137,126.997,146.773,127.041z"/>
</g>
</svg>
