<?xml version="1.0" encoding="utf-8"?>
<!-- Generator: Adobe Illustrator 15.1.0, SVG Export Plug-In . SVG Version: 6.00 Build 0)  -->
<!DOCTYPE svg PUBLIC "-//W3C//DTD SVG 1.1//EN" "http://www.w3.org/Graphics/SVG/1.1/DTD/svg11.dtd">
<svg version="1.1" id="Layer_1" xmlns="http://www.w3.org/2000/svg" xmlns:xlink="http://www.w3.org/1999/xlink" x="0px" y="0px"
	 width="300px" height="300px" viewBox="0 0 300 300" enable-background="new 0 0 300 300" xml:space="preserve">
<path d="M275.008,74.629H106.132v12.603c-1.514-0.34-3.376-0.51-5.631-0.51c-11.387,0-64.884,43.983-75.493,52.801l3.146,3.785
	c24.034-19.975,64.928-51.664,72.347-51.664c3.384,0,4.948,0.428,5.631,0.721v66.368l-15.616,7.208l2.062,4.469l79.021-36.471
	c0.923-0.35,11.271-3.973,16.809,6.25c5.412,9.995-4.81,17.473-6.112,18.372l-42.15,20.267l-0.308,0.319
	c-6.517,6.772-25.115,25.067-32.826,28.358c-22.209,9.482-62.919,5.643-63.329,5.603l-0.479,4.897
	c0.76,0.074,9.104,0.864,20.202,0.864c14.04,0,32.485-1.265,45.539-6.836c2.788-1.19,6.549-3.857,10.562-7.119
	c3.765,4.675,9.498,7.486,15.587,7.486c2.041,0,4.023-0.324,5.933-0.919c2.464,8.249,10.113,14.283,19.153,14.283
	c7.972,0,15.061-4.708,18.239-11.785c2.888,1.622,6.211,2.557,9.753,2.557c11.026,0,19.995-8.97,19.995-19.995v-2.905h66.842V74.629
	z M135.093,207.479c-4.628,0-8.979-2.158-11.817-5.731c3.052-2.642,6.121-5.463,8.911-8.111h7.996v12.134
	c0,0.271,0.031,0.535,0.041,0.805C138.587,207.169,136.869,207.479,135.093,207.479z M160.179,220.843
	c-8.311,0-15.074-6.761-15.074-15.073v-12.134h23.072v2.905c0,5.656,2.372,10.761,6.159,14.4
	C172.189,216.837,166.563,220.843,160.179,220.843z M203.244,196.541c0,8.312-6.76,15.073-15.073,15.073
	c-8.31,0-15.072-6.761-15.072-15.073v-2.905h30.146V196.541z M270.086,188.714H137.275c2.872-2.828,5.003-5.013,5.799-5.834
	l41.515-19.961l0.28-0.159c5.455-3.566,14.122-13.361,7.866-24.914c-6.23-11.504-17.779-10.561-23.017-8.457l-58.665,27.074v-35.595
	h159.032V188.714z M270.086,99.335H111.054V79.551h159.032V99.335z"/>
</svg>
