<?xml version="1.0" encoding="utf-8"?>
<!-- Generator: Adobe Illustrator 15.1.0, SVG Export Plug-In . SVG Version: 6.00 Build 0)  -->
<!DOCTYPE svg PUBLIC "-//W3C//DTD SVG 1.1//EN" "http://www.w3.org/Graphics/SVG/1.1/DTD/svg11.dtd">
<svg version="1.1" xmlns="http://www.w3.org/2000/svg" xmlns:xlink="http://www.w3.org/1999/xlink" x="0px" y="0px" width="300px"
	 height="300px" viewBox="0 0 300 300" enable-background="new 0 0 300 300" xml:space="preserve">
<g id="Layer_1" display="none">
	<g display="inline">
		<path d="M42.759,173.174h214.499c4.959,0-10.701-15.398-10.701-15.398h-3.729v1.521c0,4.879-3.975,8.854-8.891,8.854h-8.971
			c-4.916,0-8.891-3.975-8.891-8.854v-1.521h-5.021v1.521c0,4.879-4.014,8.854-8.893,8.854h-9.008c-4.877,0-8.852-3.975-8.852-8.854
			v-1.521h-5.061v1.521c0,4.879-3.975,8.854-8.852,8.854h-9.01c-4.877,0-8.852-3.975-8.852-8.854v-1.521h-5.061v1.521
			c0,4.879-3.975,8.854-8.853,8.854h-9.009c-4.896,0-8.871-3.975-8.871-8.854v-1.521h-5.041v1.521c0,4.879-3.975,8.854-8.871,8.854
			h-8.989c-4.897,0-8.872-3.975-8.872-8.854v-1.521h-5.061v1.521c0,4.879-3.975,8.854-8.852,8.854h-9.009
			c-4.877,0-8.872-3.975-8.872-8.854v-1.521h-3.729C53.441,157.775,37.763,173.174,42.759,173.174z"/>
		<path d="M161.381,165.455h9.01c3.418,0,6.195-2.738,6.195-6.158v-9.007c0-3.438-2.777-6.197-6.195-6.197h-9.01
			c-3.416,0-6.195,2.76-6.195,6.197v9.007C155.186,162.717,157.965,165.455,161.381,165.455z"/>
		<path d="M129.607,165.455h9.009c3.419,0,6.177-2.738,6.177-6.158v-9.007c0-3.438-2.758-6.197-6.177-6.197h-9.009
			c-3.416,0-6.196,2.76-6.196,6.197v9.007C123.411,162.717,126.191,165.455,129.607,165.455z"/>
		<path d="M97.835,165.455h8.989c3.418,0,6.196-2.738,6.196-6.158v-9.007c0-3.438-2.778-6.197-6.196-6.197h-8.989
			c-3.436,0-6.197,2.76-6.197,6.197v9.007C91.638,162.717,94.399,165.455,97.835,165.455z"/>
		<path d="M66.042,165.455h9.009c3.418,0,6.177-2.738,6.177-6.158v-9.007c0-3.438-2.758-6.197-6.177-6.197h-9.009
			c-3.417,0-6.197,2.76-6.197,6.197v9.007C59.845,162.717,62.625,165.455,66.042,165.455z"/>
		<path d="M193.154,165.455h9.008c3.42,0,6.197-2.738,6.197-6.158v-9.007c0-3.438-2.777-6.197-6.197-6.197h-9.008
			c-3.418,0-6.158,2.76-6.158,6.197v9.007C186.996,162.717,189.736,165.455,193.154,165.455z"/>
		<path d="M224.967,165.455h8.971c3.457,0,6.195-2.738,6.195-6.158v-9.007c0-3.438-2.738-6.197-6.195-6.197h-8.971
			c-3.418,0-6.195,2.76-6.195,6.197v9.007C218.771,162.717,221.549,165.455,224.967,165.455z"/>
		<path d="M277.641,24.823H22.379C12.792,24.823,5,32.615,5,42.183v178.411c0,9.586,7.792,17.359,17.379,17.359h110.169
			c-1.052,21.998-30.839,31.9-31.142,31.984c-1.255,0.428-2.023,1.666-1.821,2.982c0.196,1.275,1.316,2.258,2.646,2.258h95.556
			c1.291,0,2.414-0.982,2.629-2.26c0.215-1.316-0.57-2.555-1.805-2.98c-0.34-0.084-30.131-9.944-31.181-31.984h110.21
			c9.547,0,17.359-7.773,17.359-17.359V42.183C295,32.615,287.188,24.823,277.641,24.823z M22.379,30.154h255.262
			c6.615,0,12.008,5.394,12.008,12.029v152.122H10.35V42.183C10.35,35.547,15.744,30.154,22.379,30.154z M185.373,269.826h-70.748
			c9.929-5.556,22.689-15.816,23.294-31.873H162.1C162.703,254.01,175.446,264.271,185.373,269.826z M277.641,232.643H22.379
			c-6.635,0-12.029-5.395-12.029-12.049V197h279.298v23.594C289.648,227.248,284.256,232.643,277.641,232.643z"/>
		<path d="M36.96,179.461h226.079c6.955,0,12.6-5.656,12.6-12.627V57.182c0-6.95-5.645-12.606-12.6-12.606H36.96
			c-6.935,0-12.58,5.657-12.58,12.606v109.652C24.38,173.805,30.025,179.461,36.96,179.461z M27.056,57.182
			c0-5.484,4.435-9.931,9.904-9.931h226.079c5.449,0,9.904,4.447,9.904,9.931v109.652c0,5.504-4.455,9.932-9.904,9.932H36.96
			c-5.469,0-9.904-4.428-9.904-9.932V57.182z"/>
		<path d="M150,203.658c-5.713,0-10.355,4.662-10.355,10.375c0,5.711,4.643,10.334,10.355,10.334
			c5.711,0,10.373-4.623,10.373-10.334C160.373,208.32,155.711,203.658,150,203.658z M150,221.711c-4.238,0-7.68-3.439-7.68-7.678
			c0-4.24,3.441-7.68,7.68-7.68s7.678,3.439,7.678,7.68C157.678,218.271,154.238,221.711,150,221.711z"/>
		<path d="M150.17,41.3c1.844,0,3.33-1.506,3.33-3.349c0-1.842-1.486-3.329-3.33-3.329s-3.33,1.487-3.33,3.329
			C146.84,39.794,148.326,41.3,150.17,41.3z"/>
	</g>
</g>
<g id="ipad" display="none">
	<g display="inline">
		<g>
			<path d="M258.139,253.508H41.881c-9.586,0-17.379-7.812-17.379-17.359V63.873c0-9.586,7.793-17.379,17.379-17.379h216.257
				c9.586,0,17.359,7.793,17.359,17.379v172.275C275.498,245.695,267.725,253.508,258.139,253.508z M41.881,51.844
				c-6.635,0-12.029,5.393-12.029,12.029v172.275c0,6.615,5.394,12.008,12.029,12.008h216.257c6.615,0,12.008-5.393,12.008-12.008
				V63.873c0-6.636-5.393-12.029-12.008-12.029H41.881z"/>
		</g>
		<g>
			<g>
				<path d="M240.119,240.15H54.53V61.198h185.589V240.15z M57.206,237.455h180.257V63.873H57.206V237.455z"/>
			</g>
		</g>
	</g>
	<g display="inline">
		<path d="M43.593,146.651c1.842,0,3.329,1.507,3.329,3.35c0,1.845-1.487,3.33-3.329,3.33s-3.349-1.484-3.349-3.33
			C40.244,148.158,41.75,146.651,43.593,146.651z"/>
	</g>
	<g display="inline">
		<path d="M255.713,142.321c4.238,0,7.719,3.441,7.719,7.68c0,4.22-3.48,7.699-7.719,7.699c-4.199,0-7.678-3.479-7.678-7.699
			C248.035,145.762,251.514,142.321,255.713,142.321 M255.713,139.646c-5.713,0-10.334,4.624-10.334,10.354
			c0,5.734,4.621,10.355,10.334,10.355c5.752,0,10.375-4.621,10.375-10.355C266.088,144.27,261.465,139.646,255.713,139.646
			L255.713,139.646z"/>
	</g>
</g>
<g id="Layer_3">
	<g id="phone">
		<path d="M205.371,24.502H94.588c-9.567,0-17.359,7.793-17.359,17.359v216.277c0,9.586,7.792,17.359,17.359,17.359h110.783
			c9.586,0,17.4-7.773,17.4-17.359V41.862C222.771,32.295,214.957,24.502,205.371,24.502z M94.588,29.853h110.783
			c6.656,0,12.049,5.393,12.049,12.009v12.669H82.58V41.862C82.58,35.246,87.973,29.853,94.588,29.853z M217.42,57.206v180.257
			H82.58V57.206H217.42z M205.371,270.146H94.588c-6.616,0-12.009-5.393-12.009-12.008v-18.02h134.84v18.02
			C217.42,264.754,212.027,270.146,205.371,270.146z"/>
		<path d="M150,245.379c-5.731,0-10.354,4.621-10.354,10.336c0,5.75,4.623,10.373,10.354,10.373c5.713,0,10.334-4.623,10.334-10.373
			C160.334,250,155.713,245.379,150,245.379z M150,263.432c-4.239,0-7.699-3.479-7.699-7.717c0-4.24,3.46-7.68,7.699-7.68
			c4.238,0,7.68,3.439,7.68,7.68C157.68,259.953,154.238,263.432,150,263.432z"/>
		<g>
			<path d="M174.629,46.25H145.95c-1.468,0-2.675-1.188-2.675-2.656c0-1.487,1.207-2.675,2.675-2.675h28.679
				c1.467,0,2.654,1.188,2.654,2.675C177.283,45.062,176.096,46.25,174.629,46.25z"/>
		</g>
		<g>
			<path d="M132.049,43.594c0,1.843-1.504,3.33-3.348,3.33s-3.33-1.487-3.33-3.33c0-1.842,1.486-3.349,3.33-3.349
				S132.049,41.752,132.049,43.594z"/>
		</g>
	</g>
</g>
<g id="Layer_5" display="none">
	<g display="inline">
		<g display="none">
			<g display="inline">
				<g>
					<path d="M260.926,213.818c-1.469,0-2.656-1.188-2.656-2.693V76.827c0-6.615-5.393-12.029-12.049-12.029H53.779
						c-6.616,0-12.029,5.414-12.029,12.029v134.298c0,1.506-1.188,2.693-2.656,2.693c-1.487,0-2.675-1.188-2.675-2.693V76.827
						c0-9.567,7.792-17.359,17.36-17.359h192.442c9.586,0,17.398,7.792,17.398,17.359v134.298
						C263.619,212.631,262.393,213.818,260.926,213.818z"/>
				</g>
				<g>
					<path d="M234.314,202.055H65.685c-6.935,0-12.56-5.656-12.56-12.586V91.827c0-6.949,5.625-12.606,12.56-12.606h168.63
						c6.955,0,12.6,5.657,12.6,12.606v97.642C246.914,196.398,241.27,202.055,234.314,202.055z M65.685,81.895
						c-5.45,0-9.885,4.467-9.885,9.932v97.642c0,5.463,4.436,9.932,9.885,9.932h168.63c5.449,0,9.904-4.469,9.904-9.932V91.827
						c0-5.465-4.455-9.932-9.904-9.932H65.685z"/>
				</g>
				<g>
					<path d="M153.34,71.674c0,1.845-1.483,3.349-3.33,3.349c-1.846,0-3.35-1.504-3.35-3.349c0-1.846,1.504-3.349,3.35-3.349
						C151.856,68.325,153.34,69.828,153.34,71.674z"/>
				</g>
				<g>
					<path d="M265.361,240.533H34.657c-11.193,0-20.294-9.102-20.294-20.275v-8.768c0-1.506,1.188-2.695,2.675-2.695h92.812
						c1.136,0,2.159,0.736,2.526,1.818c1.688,4.822,6.244,8.047,11.343,8.047h52.562c5.098,0,9.652-3.225,11.342-8.047
						c0.4-1.082,1.389-1.818,2.525-1.818h92.832c1.469,0,2.656,1.189,2.656,2.695v8.768
						C285.637,231.432,276.535,240.533,265.361,240.533z M19.713,214.146v6.111c0,8.242,6.702,14.924,14.944,14.924h230.704
						c8.242,0,14.965-6.682,14.965-14.924v-6.111h-88.369c-2.896,5.963-8.947,9.863-15.676,9.863H123.72
						c-6.709,0-12.78-3.9-15.64-9.863H19.713z"/>
				</g>
			</g>
			<path display="inline" d="M210.48,181.756h-1.424v1.482c0,4.877-3.975,8.852-8.854,8.852h-9.008
				c-4.877,0-8.852-3.975-8.852-8.852v-1.482h-3.273v1.482c0,4.877-3.975,8.852-8.852,8.852h-9.01c-4.896,0-8.871-3.975-8.871-8.852
				v-1.482h-3.253v1.482c0,4.877-3.976,8.852-8.853,8.852h-9.008c-4.878,0-8.854-3.975-8.854-8.852v-1.482h-4.676v1.482
				c0,4.877-3.975,8.852-8.873,8.852h-9.008c-4.877,0-8.853-3.975-8.853-8.852v-1.482h-1.424c0,0-15.678,15.357-10.701,15.357
				h142.345C226.141,197.113,210.48,181.756,210.48,181.756z"/>
			<g display="inline">
				<g>
					<path d="M140.232,168.033c3.419,0,6.197,2.777,6.197,6.195v9.01c0,3.418-2.778,6.195-6.197,6.195h-9.008
						c-3.417,0-6.178-2.777-6.178-6.195v-9.01c0-3.418,2.761-6.195,6.178-6.195H140.232"/>
				</g>
				<g>
					<path d="M108.822,168.033c3.42,0,6.197,2.777,6.197,6.195v9.01c0,3.418-2.777,6.195-6.197,6.195h-9.008
						c-3.417,0-6.177-2.777-6.177-6.195v-9.01c0-3.418,2.761-6.195,6.177-6.195H108.822"/>
				</g>
				<g>
					<path d="M170.219,168.033c3.418,0,6.195,2.777,6.195,6.195v9.01c0,3.418-2.777,6.195-6.195,6.195h-9.01
						c-3.418,0-6.195-2.777-6.195-6.195v-9.01c0-3.418,2.777-6.195,6.195-6.195H170.219"/>
				</g>
				<g>
					<path d="M200.203,168.033c3.42,0,6.158,2.777,6.158,6.195v9.01c0,3.418-2.738,6.195-6.158,6.195h-9.008
						c-3.418,0-6.197-2.777-6.197-6.195v-9.01c0-3.418,2.779-6.195,6.197-6.195H200.203"/>
				</g>
			</g>
		</g>
	</g>
</g>
</svg>
