<?xml version="1.0" encoding="utf-8"?>
<!-- Generator: Adobe Illustrator 15.1.0, SVG Export Plug-In . SVG Version: 6.00 Build 0)  -->
<!DOCTYPE svg PUBLIC "-//W3C//DTD SVG 1.1//EN" "http://www.w3.org/Graphics/SVG/1.1/DTD/svg11.dtd">
<svg version="1.1" id="Layer_1" xmlns="http://www.w3.org/2000/svg" xmlns:xlink="http://www.w3.org/1999/xlink" x="0px" y="0px"
	 width="300px" height="300px" viewBox="0 0 300 300" enable-background="new 0 0 300 300" xml:space="preserve">
<g>
	<circle cx="129.968" cy="174.914" r="5.123"/>
	<circle cx="94.279" cy="274.51" r="2.986"/>
	<circle cx="140.31" cy="77.737" r="2.337"/>
	<path d="M160.152,75.399c1.292,0,2.336,1.046,2.336,2.336c0,1.291-1.044,2.338-2.336,2.338c-1.293,0-2.341-1.048-2.341-2.338
		C157.812,76.446,158.859,75.399,160.152,75.399z"/>
	<path d="M150.228,69.555c1.296,0,2.34-1.046,2.34-2.336c0-1.291-1.048-2.338-2.34-2.338c-1.289,0-2.338,1.048-2.338,2.338
		C147.891,68.509,148.939,69.555,150.228,69.555z"/>
	<circle cx="152.001" cy="174.914" r="5.123"/>
	<path d="M206.254,185.313l-0.142,0.021V151.81h-11.859L206.65,12.745c0.269-4.106-2.839-7.655-6.945-7.93
		c-4.106-0.271-7.661,2.835-7.93,6.942l-3.845,43.19h-75.396l-3.847-43.19c-0.272-4.106-3.823-7.213-7.93-6.942
		c-4.106,0.272-7.216,3.823-6.943,7.93l12.392,139.065H94.346v33.525l-0.134-0.021l-14.32,100.506l63.027,8.98l7.309-51.327
		l7.315,51.327l63.026-8.98L206.254,185.313z M160.152,70.727c1.632,0,2.991,1.193,3.246,2.758c0.063-0.003,0.123-0.009,0.19-0.009
		c1.82,0,3.293,1.476,3.293,3.297c0,1.124-0.56,2.119-1.424,2.713c0.078,0.276,0.121,0.561,0.121,0.86
		c0,1.823-1.477,3.299-3.3,3.299c-0.778,0-1.501-0.272-2.061-0.726c-0.566,0.453-1.281,0.726-2.063,0.726
		c-1.823,0-3.3-1.476-3.3-3.299c0-0.271,0.039-0.533,0.104-0.786c-0.928-0.584-1.544-1.613-1.544-2.788
		c0-1.821,1.473-3.297,3.3-3.297c0.063,0,0.123,0.005,0.184,0.009C157.16,71.92,158.513,70.727,160.152,70.727z M146.795,62.957
		c0.06,0,0.119,0.005,0.182,0.01c0.26-1.564,1.614-2.759,3.25-2.759c1.637,0,2.996,1.195,3.251,2.759
		c0.064-0.005,0.128-0.01,0.188-0.01c1.822,0,3.295,1.478,3.295,3.297c0,1.125-0.562,2.119-1.423,2.713
		c0.078,0.274,0.12,0.564,0.12,0.862c0,1.821-1.479,3.299-3.301,3.299c-0.778,0-1.496-0.274-2.062-0.727
		c-0.564,0.453-1.28,0.727-2.062,0.727c-1.818,0-3.296-1.478-3.296-3.299c0-0.271,0.039-0.533,0.101-0.786
		c-0.929-0.584-1.545-1.614-1.545-2.79C143.494,64.434,144.972,62.957,146.795,62.957z M136.873,73.476
		c0.062,0,0.124,0.005,0.186,0.009c0.258-1.564,1.614-2.758,3.251-2.758c1.632,0,2.991,1.193,3.246,2.758
		c0.062-0.003,0.124-0.009,0.186-0.009c1.825,0,3.299,1.476,3.299,3.297c0,1.124-0.563,2.119-1.423,2.713
		c0.078,0.276,0.119,0.561,0.119,0.86c0,1.823-1.478,3.299-3.299,3.299c-0.779,0-1.499-0.272-2.059-0.726
		c-0.566,0.453-1.283,0.726-2.067,0.726c-1.819,0-3.297-1.476-3.297-3.299c0-0.271,0.041-0.533,0.099-0.786
		c-0.926-0.584-1.54-1.613-1.54-2.788C133.573,74.952,135.048,73.476,136.873,73.476z M184.936,88.475l-5.639,63.335h-58.131
		l-5.646-63.335H184.936L184.936,88.475z M101.065,276.746c0.095,0.354,0.152,0.722,0.152,1.101c0,2.326-1.889,4.217-4.22,4.217
		c-0.997,0-1.908-0.354-2.63-0.928c-0.722,0.577-1.641,0.928-2.638,0.928c-2.326,0-4.214-1.891-4.214-4.217
		c0-0.347,0.048-0.683,0.126-1.002c-1.183-0.75-1.968-2.063-1.968-3.564c0-2.326,1.888-4.216,4.212-4.216
		c0.08,0,0.159,0.014,0.239,0.014c0.327-1.996,2.062-3.525,4.154-3.525c2.09,0,3.823,1.529,4.153,3.525
		c0.078-0.004,0.157-0.014,0.237-0.014c2.328,0,4.214,1.89,4.214,4.216C102.883,274.718,102.163,275.984,101.065,276.746z
		 M172.751,220.271c-0.156,1.707-1.667,2.971-3.377,2.814c-1.714-0.152-2.967-1.664-2.818-3.373l2.804-31.241
		c-5.692,0.658-11.898,1.02-18.401,1.02c-6.501,0-12.71-0.361-18.405-1.02l2.806,31.241c0.154,1.709-1.104,3.221-2.818,3.373
		c-1.707,0.156-3.216-1.107-3.372-2.814l-2.935-32.685c-14.996-2.485-25.106-7.165-25.106-12.532c0-7.972,22.31-14.436,49.83-14.436
		s49.83,6.464,49.83,14.436c0,5.367-10.11,10.047-25.106,12.532L172.751,220.271z M213.323,277.847c0,2.326-1.887,4.217-4.216,4.217
		c-0.995,0-1.912-0.351-2.634-0.928c-0.723,0.577-1.636,0.928-2.634,0.928c-2.326,0-4.213-1.891-4.213-4.217
		c0-0.347,0.046-0.683,0.12-1.002c-1.175-0.747-1.961-2.06-1.961-3.561c0-2.33,1.883-4.22,4.209-4.22
		c0.081,0,0.159,0.014,0.237,0.014c0.333-1.996,2.061-3.522,4.156-3.522c2.092,0,3.823,1.526,4.155,3.522
		c0.074,0,0.156-0.014,0.233-0.014c2.33,0,4.217,1.89,4.217,4.22c0,1.434-0.726,2.7-1.816,3.462
		C213.27,277.1,213.323,277.468,213.323,277.847z"/>
	<path d="M206.385,271.524c1.653,0,2.987,1.335,2.987,2.984s-1.334,2.987-2.987,2.987c-1.646,0-2.984-1.338-2.984-2.987
		S204.738,271.524,206.385,271.524z"/>
	<path d="M174.032,169.791c2.829,0,5.122,2.294,5.122,5.122c0,2.829-2.293,5.123-5.122,5.123c-2.825,0-5.119-2.294-5.119-5.123
		C168.913,172.085,171.207,169.791,174.032,169.791z"/>
</g>
</svg>
