<?xml version="1.0" encoding="utf-8"?>
<!-- Generator: Adobe Illustrator 15.1.0, SVG Export Plug-In . SVG Version: 6.00 Build 0)  -->
<!DOCTYPE svg PUBLIC "-//W3C//DTD SVG 1.1//EN" "http://www.w3.org/Graphics/SVG/1.1/DTD/svg11.dtd">
<svg version="1.1" id="Layer_1" xmlns="http://www.w3.org/2000/svg" xmlns:xlink="http://www.w3.org/1999/xlink" x="0px" y="0px"
	 width="300px" height="300px" viewBox="0 0 300 300" enable-background="new 0 0 300 300" xml:space="preserve">
<g>
	<path d="M237.022,149.542c-13.342,0-24.157,10.816-24.157,24.158c0,13.343,10.815,24.158,24.157,24.158
		c13.343,0,24.157-10.816,24.157-24.158S250.364,149.542,237.022,149.542z M237.022,184.045c-5.705,0-10.345-4.64-10.345-10.345
		c0-5.704,4.64-10.345,10.345-10.345c5.704,0,10.345,4.641,10.345,10.345C247.367,179.405,242.727,184.045,237.022,184.045z"/>
	<path d="M110.985,149.542c-13.342,0-24.157,10.816-24.157,24.158c0,13.343,10.815,24.158,24.157,24.158
		c13.342,0,24.158-10.816,24.158-24.158S124.327,149.542,110.985,149.542z M110.985,184.045c-5.705,0-10.345-4.64-10.345-10.345
		c0-5.704,4.64-10.345,10.345-10.345c5.704,0,10.346,4.641,10.346,10.345C121.331,179.405,116.689,184.045,110.985,184.045z"/>
	<path d="M275.581,166.779c0-28.2-30.501-29.351-30.501-29.351s-20.144,0-25.899,0c-5.755,0-33.955-28.2-60.428-28.2
		c-26.475,0-61.581,21.294-61.581,21.294c-6.043-2.014-4.892-8.057-4.892-8.057s4.892-0.576,8.058-0.576
		c3.166,0,4.028-4.028,4.028-4.028s0,0,0-7.77c0-7.769-7.194-7.194-7.194-7.194s-30.502,13.813-32.229,15.54
		c-1.726,1.727,0,6.331,0,6.331l12.086,1.727l3.741,7.194c0,0-16.69,9.208-16.69,21.869c0,16.102,12.996,22.274,18.808,24.238
		c-0.427-1.967-0.664-4.003-0.664-6.095c0-15.859,12.901-28.762,28.761-28.762c15.859,0,28.762,12.903,28.762,28.762
		c0,1.518-0.132,3.002-0.369,4.452l69.223-0.163c-0.22-1.398-0.342-2.829-0.341-4.289c0-15.859,12.902-28.762,28.762-28.762
		s28.762,12.903,28.762,28.762c0,2.38-0.322,4.68-0.87,6.892h15.271V166.78L275.581,166.779L275.581,166.779z M140.543,140.882
		c-4.5,0-7.401,0-7.401,0s-17.414,1.468-2.046-13.9c3.173-3.172,7.398-4.748,11.844-5.528L140.543,140.882z M191.557,140.882
		c-5.949,0-29.926,0-45.251,0l2.475-20.056c3.547-0.185,7.01-0.086,9.973-0.086c11.736,0,25.745,7.608,35.791,14.912
		C195.01,135.99,200.477,140.882,191.557,140.882z"/>
	<path d="M140.955,181.744c-0.756,2.816-1.896,5.471-3.368,7.912h72.833c-1.471-2.442-2.609-5.097-3.367-7.912H140.955z"/>
	<path d="M52.826,139.535H33.583c-1.043,0-1.889,0.938-1.889,2.093v0.418c0,1.155,0.846,2.092,1.889,2.092h19.244
		c1.043,0,1.889-0.938,1.889-2.092v-0.418C54.715,140.473,53.869,139.535,52.826,139.535z"/>
	<path d="M52.826,171H33.583c-1.043,0-1.889,0.935-1.889,2.09v0.419c0,1.155,0.846,2.095,1.889,2.095h19.244
		c1.043,0,1.889-0.94,1.889-2.095v-0.419C54.715,171.935,53.869,171,52.826,171z"/>
	<path d="M51.882,155.268H23.017c-1.564,0-2.832,0.935-2.832,2.093v0.416c0,1.158,1.268,2.095,2.832,2.095h28.866
		c1.565,0,2.833-0.938,2.833-2.095v-0.416C54.715,156.202,53.447,155.268,51.882,155.268z"/>
</g>
</svg>
