<?xml version="1.0" encoding="utf-8"?>
<!-- Generator: Adobe Illustrator 15.1.0, SVG Export Plug-In . SVG Version: 6.00 Build 0)  -->
<!DOCTYPE svg PUBLIC "-//W3C//DTD SVG 1.1//EN" "http://www.w3.org/Graphics/SVG/1.1/DTD/svg11.dtd">
<svg version="1.1" id="Layer_1" xmlns="http://www.w3.org/2000/svg" xmlns:xlink="http://www.w3.org/1999/xlink" x="0px" y="0px"
	 width="300px" height="300px" viewBox="0 0 300 300" enable-background="new 0 0 300 300" xml:space="preserve">
<g>
	<path d="M267.322,114.377l5.896-41.146c2.37-0.021,4.461-1.722,4.887-4.139c0.481-2.727-1.339-5.326-4.067-5.808
		c-2.727-0.48-5.326,1.341-5.808,4.067c-0.425,2.417,0.959,4.731,3.178,5.561l-8.327,39.712c-2.467-0.767-5.092-1.182-7.812-1.182
		c-0.415,0-0.828,0.012-1.239,0.032l-4.241-40.189c2.292-0.601,3.903-2.762,3.726-5.21c-0.203-2.762-2.604-4.836-5.365-4.635
		c-2.762,0.203-4.836,2.605-4.635,5.366c0.179,2.448,2.087,4.352,4.441,4.614l1.655,40.561
		c-17.568,2.54-25.333,22.611-29.836,40.656l-14.795-67.271l-47.907,56.455l37.362,27.4l-0.688,1.07l-41.346-22.932l-17.579,20.708
		l-24.642-11.421l-27.912,38.163l-1.071-0.686l22.375-40.536l-67.109-31.068l18.93,86.074l-15.154,0.462
		c-9.358,0-17.956,6.07-17.956,9.611c-2.528,5.562,1.265,11.633,11.633,11.633c0,0,63.727,8.347,95.085,8.347
		c107.372,0,125.157-13.071,132.826-46.121c0.779-2.383,1.205-4.817,1.205-7.24c0-7.287,0.433-15.092,0.886-22.797
		c10.251-3.574,17.608-13.32,17.608-24.79C281.523,127.546,275.757,118.746,267.322,114.377z"/>
	<polygon points="200.003,80.113 38.62,115.604 132.88,159.247 	"/>
</g>
</svg>
