<?xml version="1.0" encoding="utf-8"?>
<!-- Generator: Adobe Illustrator 15.1.0, SVG Export Plug-In . SVG Version: 6.00 Build 0)  -->
<!DOCTYPE svg PUBLIC "-//W3C//DTD SVG 1.1//EN" "http://www.w3.org/Graphics/SVG/1.1/DTD/svg11.dtd">
<svg version="1.1" id="Layer_1" xmlns="http://www.w3.org/2000/svg" xmlns:xlink="http://www.w3.org/1999/xlink" x="0px" y="0px"
	 width="300px" height="300px" viewBox="0 0 300 300" enable-background="new 0 0 300 300" xml:space="preserve">
<path d="M150.191,78.137c-67.167-20.462-125,5.837-125,56.938c0,81.851,65.792,128.114,125,128.114
	c59.208,0,125.001-60.499,125.001-128.114C275.192,83.975,210.246,53.225,150.191,78.137z M230.043,97.266
	c2.333,0,4.226,1.889,4.226,4.225c0,2.336-1.893,4.228-4.226,4.228c-2.335,0-4.228-1.891-4.228-4.228
	C225.815,99.154,227.708,97.266,230.043,97.266z M196.457,75.024c3.684,0,6.673,2.985,6.673,6.67c0,3.683-2.989,6.673-6.673,6.673
	c-3.686,0-6.673-2.99-6.673-6.673C189.784,78.01,192.771,75.024,196.457,75.024z M163.314,175.556c1.843,0,3.337,1.495,3.337,3.337
	c0,1.841-1.494,3.336-3.337,3.336c-1.842,0-3.336-1.495-3.336-3.336C159.979,177.051,161.473,175.556,163.314,175.556z
	 M154.42,117.282c2.091,0,3.78,1.692,3.78,3.781c0,2.088-1.69,3.781-3.78,3.781s-3.78-1.694-3.78-3.781
	C150.638,118.974,152.33,117.282,154.42,117.282z M143.076,146.197c3.194,0,5.784,2.587,5.784,5.783c0,3.191-2.589,5.78-5.784,5.78
	s-5.784-2.589-5.784-5.78C137.292,148.785,139.881,146.197,143.076,146.197z M124.838,88.812c3.192,0,5.782,2.589,5.782,5.784
	c0,3.194-2.59,5.783-5.782,5.783c-3.194,0-5.784-2.589-5.784-5.783C119.055,91.402,121.644,88.812,124.838,88.812z M70.568,86.59
	c2.946,0,5.338,2.392,5.338,5.338c0,2.948-2.392,5.339-5.338,5.339c-2.946,0-5.337-2.391-5.337-5.339
	C65.23,88.981,67.622,86.59,70.568,86.59z M39.651,112.833c-1.843,0-3.338-1.494-3.338-3.336c0-1.842,1.495-3.335,3.338-3.335
	c1.841,0,3.336,1.495,3.336,3.335C42.987,111.341,41.493,112.833,39.651,112.833z M43.877,134.186c0-2.209,1.795-4.002,4.004-4.002
	c2.209,0,4.005,1.793,4.005,4.002c0,2.211-1.795,4.006-4.005,4.006C45.672,138.192,43.877,136.397,43.877,134.186z M50.105,200.915
	c-2.457,0-4.448-1.995-4.448-4.449c0-2.459,1.991-4.449,4.448-4.449c2.457,0,4.45,1.99,4.45,4.449
	C54.555,198.919,52.562,200.915,50.105,200.915z M69.901,207.141c-2.089,0-3.78-1.689-3.78-3.782c0-2.088,1.69-3.778,3.78-3.778
	c2.087,0,3.78,1.69,3.78,3.778C73.681,205.451,71.988,207.141,69.901,207.141z M66.112,181.656
	c-8.257-11.95-10.654-28.401-10.654-46.58c0-24.831,27.052-33.641,50.213-33.641c7.933,0,16.178,0.924,24.616,2.751
	c0,0,3.893,49.572-4.56,55.798C117.275,166.215,76.782,197.097,66.112,181.656z M123.06,189.347c0,3.683-2.99,6.672-6.673,6.672
	c-3.685,0-6.672-2.989-6.672-6.672c0-3.685,2.987-6.672,6.672-6.672C120.069,182.675,123.06,185.662,123.06,189.347z
	 M123.775,243.83c-0.873,0.691-1.96,1.122-3.163,1.122c-2.824,0-5.115-2.291-5.115-5.118c0-2.82,2.292-5.114,5.115-5.114
	c2.412,0,4.421,1.675,4.962,3.924c0.343,0.55,0.598,1.163,0.598,1.856C126.173,242.053,125.165,243.344,123.775,243.83z
	 M168.43,257.849c-2.702,0-4.891-2.187-4.891-4.894c0-2.703,2.188-4.889,4.891-4.889c2.703,0,4.894,2.186,4.894,4.889
	C173.323,255.662,171.133,257.849,168.43,257.849z M150.191,232.927c-18.149,0-66.725-18.67-56.493-20.007
	c10.231-1.33,43.593-19.124,51.603-31.579c2.222-2.227,3.111-4.302,6.225-0.894c7.269,14.234,38.851,29.065,50.137,32.887
	C205.088,223.083,166.926,232.927,150.191,232.927z M203.13,193.795c0-2.946,2.39-5.337,5.335-5.337c2.946,0,5.34,2.391,5.34,5.337
	c0,2.945-2.393,5.337-5.34,5.337C205.52,199.132,203.13,196.74,203.13,193.795z M212.692,229.382c-1.599,0-2.89-1.296-2.89-2.891
	c0-1.6,1.291-2.893,2.89-2.893s2.894,1.293,2.894,2.893C215.586,228.086,214.291,229.382,212.692,229.382z M230.842,181.656
	c-10.671,15.441-51.162-15.441-59.617-21.67c-8.451-6.227-4.56-55.798-4.56-55.798c8.441-1.827,16.682-2.752,24.615-2.752
	c23.161,0,50.213,8.81,50.213,33.641C241.497,153.254,239.099,169.706,230.842,181.656z M244.943,191.124
	c-2.948,0-5.338-2.39-5.338-5.336c0-2.945,2.39-5.341,5.338-5.341c2.946,0,5.34,2.394,5.34,5.341
	C250.283,188.734,247.891,191.124,244.943,191.124z M257.175,128.848c-3.071,0-5.56-2.488-5.56-5.561c0-3.071,2.488-5.56,5.56-5.56
	c3.074,0,5.562,2.488,5.562,5.56C262.737,126.36,260.249,128.848,257.175,128.848z"/>
</svg>
