<?xml version="1.0" encoding="utf-8"?>
<!-- Generator: Adobe Illustrator 15.1.0, SVG Export Plug-In . SVG Version: 6.00 Build 0)  -->
<!DOCTYPE svg PUBLIC "-//W3C//DTD SVG 1.1//EN" "http://www.w3.org/Graphics/SVG/1.1/DTD/svg11.dtd">
<svg version="1.1" xmlns="http://www.w3.org/2000/svg" xmlns:xlink="http://www.w3.org/1999/xlink" x="0px" y="0px" width="300px"
	 height="300px" viewBox="0 0 300 300" enable-background="new 0 0 300 300" xml:space="preserve">
<g id="Layer_1" display="none">
	<path display="inline" d="M204.944,82.344v-1.496c0-12.888-24.375-23.333-54.444-23.333S96.056,67.96,96.056,80.848
		c0,0,0,0.547,0,1.499L20.5,111.213v81.493l130,49.67l130-49.67v-81.493L204.944,82.344z M150.5,69.367
		c25.613,0,40.13,7.853,42.431,11.481C190.63,84.477,176.113,92.33,150.5,92.33s-40.13-7.853-42.431-11.481
		C110.37,77.22,124.887,69.367,150.5,69.367z M107.907,95.356c9.974,5.37,25.33,8.825,42.593,8.825s32.619-3.455,42.593-8.825
		v19.646c-1.676,3.481-16.279,11.771-42.593,11.771s-40.917-8.29-42.593-11.771V95.356z M144.204,227.286l-111.852-42.74v-60.787
		l111.852,40.735V227.286z M43.379,115.159l52.677-20.127c0,9.387,0,20.012,0,20.26c0,12.885,24.375,23.333,54.444,23.333
		s54.444-10.449,54.444-23.333v-20.26l52.677,20.127L150.5,154.17L43.379,115.159z M268.648,184.546l-112.593,43.021v-62.804
		l112.593-41.004V184.546z"/>
</g>
<g id="Layer_2">
	<g>
		<path d="M108.069,81.107c2.3,3.628,16.817,11.481,42.431,11.481s40.13-7.853,42.431-11.481
			c-2.301-3.628-16.817-11.481-42.431-11.481S110.37,77.479,108.069,81.107z"/>
		<path d="M257.621,115.419l-52.677-20.127v20.26c0,12.885-24.375,23.333-54.444,23.333s-54.444-10.449-54.444-23.333
			c0-0.249,0-10.874,0-20.26l-52.677,20.127l107.121,39.01L257.621,115.419z"/>
		<polygon points="32.352,184.806 144.204,227.545 144.204,164.753 32.352,124.018 		"/>
		<polygon points="156.056,227.826 268.648,184.806 268.648,124.018 156.056,165.022 		"/>
		<path d="M150.5,127.033c26.313,0,40.917-8.29,42.593-11.771V95.615c-9.974,5.371-25.33,8.825-42.593,8.825
			s-32.619-3.455-42.593-8.825v19.647C109.583,118.743,124.187,127.033,150.5,127.033z"/>
	</g>
</g>
</svg>
