<?xml version="1.0" encoding="utf-8"?>
<!-- Generator: Adobe Illustrator 15.1.0, SVG Export Plug-In . SVG Version: 6.00 Build 0)  -->
<!DOCTYPE svg PUBLIC "-//W3C//DTD SVG 1.1//EN" "http://www.w3.org/Graphics/SVG/1.1/DTD/svg11.dtd">
<svg version="1.1" id="Layer_1" xmlns="http://www.w3.org/2000/svg" xmlns:xlink="http://www.w3.org/1999/xlink" x="0px" y="0px"
	 width="300px" height="300px" viewBox="0 0 300 300" enable-background="new 0 0 300 300" xml:space="preserve">
<g>
	<polygon points="97.709,141.19 115.049,141.19 115.049,71.867 132.361,71.867 132.361,106.519 149.701,106.519 149.701,71.867 
		132.38,71.867 132.38,37.196 115.049,37.196 115.049,19.855 97.69,19.855 97.69,37.196 80.378,37.196 80.378,71.867 97.69,71.867 	
		"/>
	<polygon points="149.701,141.19 167.032,141.19 167.032,106.519 149.701,106.519 	"/>
	<polygon points="184.382,141.19 167.032,141.19 167.032,175.853 149.701,175.853 149.701,193.202 167.032,193.202 167.032,175.871 
		184.382,175.871 	"/>
	<polygon points="132.361,227.863 97.728,227.863 80.378,227.863 80.378,193.202 63.057,193.202 63.057,175.853 45.726,175.853 
		45.726,175.871 45.726,193.202 63.038,193.202 63.038,227.863 45.726,227.863 45.726,245.194 63.038,245.194 63.038,279.855 
		80.378,279.855 80.378,245.194 97.709,245.194 97.709,279.855 149.701,279.855 149.701,245.194 167.032,245.194 167.032,227.863 
		149.701,227.863 149.701,193.202 132.361,193.202 	"/>
	<rect x="184.363" y="262.525" width="17.349" height="17.33"/>
	<polygon points="219.044,227.863 219.044,210.514 201.713,210.514 201.713,193.202 184.363,193.202 184.363,210.533 
		201.713,210.533 201.713,227.863 219.024,227.863 219.024,245.175 201.713,245.175 201.713,262.525 219.044,262.525 
		219.044,245.194 236.355,245.194 236.355,262.525 253.686,262.525 253.686,279.855 271.036,279.855 271.036,262.525 
		253.705,262.525 253.705,245.175 236.355,245.175 236.355,227.863 	"/>
	<polygon points="253.705,210.533 271.036,210.533 271.036,193.202 253.686,193.202 253.686,210.514 236.355,210.514 
		236.355,227.863 253.705,227.863 	"/>
	<polygon points="63.057,106.519 80.378,106.519 80.378,71.867 63.038,71.867 63.038,106.519 45.707,106.519 45.707,141.19 
		63.057,141.19 	"/>
	<polygon points="45.707,141.19 28.367,141.19 28.367,175.871 45.726,175.871 	"/>
</g>
</svg>
