<?xml version="1.0" encoding="utf-8"?>
<!-- Generator: Adobe Illustrator 15.1.0, SVG Export Plug-In . SVG Version: 6.00 Build 0)  -->
<!DOCTYPE svg PUBLIC "-//W3C//DTD SVG 1.1//EN" "http://www.w3.org/Graphics/SVG/1.1/DTD/svg11.dtd">
<svg version="1.1" id="Layer_1" xmlns="http://www.w3.org/2000/svg" xmlns:xlink="http://www.w3.org/1999/xlink" x="0px" y="0px"
	 width="300px" height="300px" viewBox="0 0 300 300" enable-background="new 0 0 300 300" xml:space="preserve">
<g>
	<path d="M91.438,147.466c-12.903,0-23.364,10.46-23.364,23.364c0,12.905,10.46,23.363,23.364,23.363
		c12.904,0,23.365-10.458,23.365-23.363C114.803,157.926,104.342,147.466,91.438,147.466z M91.438,180.834
		c-5.517,0-10.004-4.487-10.004-10.004s4.488-10.006,10.004-10.006s10.006,4.489,10.006,10.006
		C101.444,176.347,96.955,180.834,91.438,180.834z"/>
	<path d="M216.489,147.466c-12.904,0-23.362,10.46-23.362,23.364c0,12.905,10.458,23.363,23.362,23.363s23.365-10.458,23.365-23.363
		C239.854,157.926,229.394,147.466,216.489,147.466z M216.489,180.834c-5.516,0-10.004-4.487-10.004-10.004
		s4.488-10.006,10.004-10.006c5.517,0,10.006,4.489,10.006,10.006S222.005,180.834,216.489,180.834z"/>
	<path d="M182.147,178.995h-56.219c-4.772,0-8.809,3.018-10.393,7.236h77.004C190.957,182.013,186.917,178.995,182.147,178.995z"/>
	<path d="M51.683,131.859H33.071c-1.009,0-1.827,0.906-1.827,2.024v0.405c0,1.117,0.818,2.024,1.827,2.024h18.612
		c1.009,0,1.826-0.907,1.826-2.024v-0.405C53.509,132.766,52.691,131.859,51.683,131.859z"/>
	<path d="M51.683,162.29H33.071c-1.009,0-1.827,0.904-1.827,2.021v0.405c0,1.117,0.818,2.026,1.827,2.026h18.612
		c1.009,0,1.826-0.909,1.826-2.026v-0.405C53.509,163.194,52.691,162.29,51.683,162.29z"/>
	<path d="M50.77,147.074H22.851c-1.513,0-2.74,0.905-2.74,2.025v0.402c0,1.12,1.227,2.026,2.74,2.026H50.77
		c1.513,0,2.739-0.907,2.739-2.026v-0.402C53.509,147.979,52.283,147.074,50.77,147.074z"/>
</g>
<path d="M261.187,164.523l4.452-12.803c-17.812-26.161-72.916-15.585-72.916-15.585c-3.896-11.132-28.388-9.462-28.388-9.462
	v-21.247c0,0-2.783,0.096-18.925,0.096s-37.293,28.388-37.293,28.388l-11.967-0.278c0-8.07,9.184-9.185,9.184-9.185v-15.028H80.286
	c-15.912,15.912-17.099,37.232-14.274,50.178c4.328-9.753,14.087-16.583,25.426-16.583c15.338,0,27.818,12.479,27.818,27.817
	c0,1.067-0.074,2.118-0.192,3.155h69.802c-0.117-1.037-0.19-2.088-0.19-3.155c0-15.339,12.476-27.817,27.815-27.817
	s27.817,12.479,27.817,27.817c0,2.701-0.406,5.304-1.126,7.773c1.271,0.941,2.45,2.005,3.512,3.174h33.418
	C280.111,169.532,261.187,164.523,261.187,164.523z M187.991,138.544h-23.935v-7.406c1.718-0.25,3.54-0.387,5.428-0.387
	c9.314,0,17.024,3.266,18.507,7.549V138.544L187.991,138.544z"/>
</svg>
