<?xml version="1.0" encoding="utf-8"?>
<!-- Generator: Adobe Illustrator 15.1.0, SVG Export Plug-In . SVG Version: 6.00 Build 0)  -->
<!DOCTYPE svg PUBLIC "-//W3C//DTD SVG 1.1//EN" "http://www.w3.org/Graphics/SVG/1.1/DTD/svg11.dtd">
<svg version="1.1" id="Layer_1" xmlns="http://www.w3.org/2000/svg" xmlns:xlink="http://www.w3.org/1999/xlink" x="0px" y="0px"
	 width="300px" height="300px" viewBox="0 0 300 300" enable-background="new 0 0 300 300" xml:space="preserve">
<g>
	<path fill-rule="evenodd" clip-rule="evenodd" d="M106.9,38.996c1.209,11.087,11.781,6.801,20.807,4.635
		c53.82-12.909,96.651,16.391,113.289,50.879c3.447,7.131,7.256,29.208,13.874,30.618c7.695,1.649,12.569-4.235,13.293-8.677
		c0.827-5.04-2.859-15.042-5.203-21.383c-15.969-43.228-57.45-77.777-116.753-73.408C134.245,22.551,105.253,23.959,106.9,38.996z
		 M75.103,85.243c-15.22,13.93-27.862,34.444-33.525,56.067c-14.261,54.6,16.23,104.047,68.792,104.047
		c32.989,0,56.882-18.037,71.094-37.569c16.053-22.068,24.704-57.078,11.559-84.387c-7.994-16.63-24.846-28.382-43.927-30.073
		c-23.939-2.08-40.103,7.333-50.87,16.764c-13.095,11.499-23.113,31.739-24.272,47.981c-1.585,22.175,7.187,38.891,20.812,46.241
		c29.785,16.059,65.847-10.175,68.779-40.455c1.791-18.497-6.729-33.648-22.542-34.69c-13.812-0.894-23.209,6.79-28.322,17.349
		c-3.282,6.748-6.601,23.171,2.307,25.431c6.998,1.778,12.733-3.326,13.877-8.671c1.5-7.004-1.871-14.251,7.514-14.445
		c10.292-0.221,9.587,15.083,5.202,24.266c-3.625,7.577-12.27,14.743-19.648,16.188c-27.589,5.389-33.984-26.205-25.433-46.812
		c8.994-21.714,36.569-37.535,60.111-27.161c8.638,3.799,15.893,11.657,19.652,20.215c9.21,21.024,0.737,46.239-8.674,60.118
		c-10.524,15.51-26.026,27.97-47.398,30.052c-25.331,2.476-44.105-8.423-54.333-25.435C49.143,172.442,59.074,132.462,78,108.954
		c14.352-17.855,36.59-32.956,65.893-32.956c64.326,0,87.904,70.79,58.955,126.582c-16.764,32.319-51.053,62.213-98.265,59.539
		c-10.586-0.609-28.895-5.812-26.583,9.819c1.057,7.181,12.705,8.758,26.01,9.256c37.356,1.391,61.217-12.942,79.766-27.746
		c26.564-21.205,54.101-60.292,50.284-112.706c-3.586-49.269-40.442-87.811-95.95-83.25C114.471,59.456,90.133,71.482,75.103,85.243
		z"/>
	<path fill-rule="evenodd" clip-rule="evenodd" d="M146.206,21.661c59.303-4.369,100.784,30.181,116.753,73.408
		c2.344,6.341,6.03,16.343,5.203,21.383c-0.724,4.441-5.598,10.326-13.293,8.677c-6.618-1.411-10.427-23.487-13.874-30.618
		c-16.638-34.489-59.469-63.789-113.289-50.879c-9.026,2.166-19.598,6.452-20.807-4.635
		C105.253,23.959,134.245,22.551,146.206,21.661z"/>
	<path fill-rule="evenodd" clip-rule="evenodd" d="M138.11,57.492c55.508-4.561,92.364,33.981,95.95,83.25
		c3.816,52.414-23.72,91.501-50.284,112.706c-18.549,14.804-42.41,29.137-79.766,27.746c-13.306-0.498-24.953-2.075-26.01-9.256
		c-2.312-15.632,15.997-10.429,26.583-9.819c47.212,2.674,81.501-27.22,98.265-59.539c28.949-55.792,5.371-126.582-58.955-126.582
		c-29.303,0-51.541,15.101-65.893,32.956c-18.926,23.508-28.857,63.488-12.143,91.311c10.228,17.012,29.001,27.91,54.333,25.435
		c21.372-2.082,36.874-14.542,47.398-30.052c9.411-13.879,17.884-39.094,8.674-60.118c-3.76-8.558-11.015-16.416-19.652-20.215
		c-23.542-10.375-51.117,5.446-60.111,27.161c-8.552,20.607-2.157,52.201,25.433,46.812c7.379-1.444,16.024-8.61,19.648-16.188
		c4.386-9.184,5.09-24.487-5.202-24.266c-9.385,0.193-6.014,7.441-7.514,14.445c-1.145,5.345-6.879,10.449-13.877,8.671
		c-8.908-2.26-5.589-18.684-2.307-25.431c5.113-10.559,14.51-18.243,28.322-17.349c15.813,1.042,24.333,16.194,22.542,34.69
		c-2.933,30.28-38.994,56.514-68.779,40.455c-13.625-7.351-22.397-24.066-20.812-46.241c1.16-16.243,11.178-36.483,24.272-47.981
		c10.767-9.431,26.931-18.844,50.87-16.764c19.082,1.69,35.933,13.442,43.927,30.073c13.146,27.31,4.494,62.319-11.559,84.387
		c-14.212,19.532-38.105,37.569-71.094,37.569c-52.561,0-83.053-49.447-68.792-104.047c5.664-21.623,18.306-42.137,33.525-56.067
		C90.133,71.482,114.471,59.456,138.11,57.492z"/>
</g>
</svg>
