<?xml version="1.0" encoding="utf-8"?>
<!-- Generator: Adobe Illustrator 15.1.0, SVG Export Plug-In . SVG Version: 6.00 Build 0)  -->
<!DOCTYPE svg PUBLIC "-//W3C//DTD SVG 1.1//EN" "http://www.w3.org/Graphics/SVG/1.1/DTD/svg11.dtd">
<svg version="1.1" id="Layer_1" xmlns="http://www.w3.org/2000/svg" xmlns:xlink="http://www.w3.org/1999/xlink" x="0px" y="0px"
	 width="300px" height="300px" viewBox="0 0 300 300" enable-background="new 0 0 300 300" xml:space="preserve">
<g>
	<path d="M84.842,224.686l-0.476-0.278c-1.315-0.754-2.936-0.412-3.618,0.776l-12.635,21.885c-0.687,1.188-0.178,2.764,1.139,3.521
		l0.475,0.277c1.315,0.755,2.935,0.411,3.62-0.776l12.637-21.885C86.668,227.016,86.157,225.443,84.842,224.686z"/>
	<path d="M120.625,245.345l-0.475-0.277c-1.315-0.76-2.932-0.411-3.618,0.776l-12.635,21.885c-0.684,1.188-0.177,2.763,1.138,3.521
		l0.477,0.271c1.315,0.758,2.938,0.416,3.623-0.77l12.633-21.887C122.453,247.679,121.938,246.104,120.625,245.345z"/>
	<path d="M102.733,235.014l-0.476-0.271c-1.315-0.765-3.213,0.065-4.238,1.844l-18.952,32.832c-1.029,1.779-0.797,3.835,0.518,4.594
		l0.474,0.271c1.318,0.76,3.214-0.064,4.243-1.844l18.954-32.829C104.284,237.83,104.049,235.775,102.733,235.014z"/>
	<path d="M200.92,190.364c9.234-8.752,17.412-18.915,24.095-30.49c25.029-43.356,23.288-94.821-0.098-135.248l-0.103-0.06
		c-46.707-0.041-92.15,24.183-117.176,67.538c-6.452,11.17-11.079,22.887-14.062,34.81c-8.551,2.194-20.576,6.733-21.272,9.346
		l-17.997,67.163c-1.009,3.76,1.226,7.627,4.985,8.637c0,0,11.895-4.276,23.896-4.937c3.011-0.163,6.006-0.031,8.802,0.255
		l-4.118,7.136c-0.836,1.445-0.338,3.293,1.107,4.128l35.78,20.66c1.447,0.834,3.294,0.342,4.129-1.106l3.73-6.463
		c1.276,1.873,2.5,3.878,3.569,5.996c5.432,10.721,7.676,23.154,7.676,23.154c2.752,2.755,7.22,2.755,9.972,0.007l49.17-49.166
		C204.79,209.933,203.091,198.763,200.92,190.364z M169.831,123.111c-12.407-7.162-16.679-23.087-9.511-35.495
		c7.162-12.407,23.086-16.675,35.495-9.51s16.673,23.084,9.512,35.497C198.159,126.01,182.239,130.278,169.831,123.111z
		 M148.752,216.231c-0.967,0.549-2.106,0.505-3.001-0.01c-0.456-0.267-0.84-0.647-1.12-1.135c-0.82-1.45-0.305-3.294,1.147-4.117
		c41.45-23.444,66.064-74.349,66.309-74.864c0.721-1.504,2.522-2.145,4.031-1.426c1.523,0.746,2.142,2.52,1.433,4.032
		C216.519,140.87,191.844,191.859,148.752,216.231z"/>
	<path d="M192.793,83.341c-9.538-5.506-21.731-2.236-27.238,7.298c-5.506,9.538-2.236,21.733,7.299,27.238
		c9.539,5.508,21.729,2.238,27.236-7.3C205.598,101.042,202.332,88.849,192.793,83.341z"/>
</g>
</svg>
