<?xml version="1.0" encoding="utf-8"?>
<!-- Generator: Adobe Illustrator 15.1.0, SVG Export Plug-In . SVG Version: 6.00 Build 0)  -->
<!DOCTYPE svg PUBLIC "-//W3C//DTD SVG 1.1//EN" "http://www.w3.org/Graphics/SVG/1.1/DTD/svg11.dtd">
<svg version="1.1" id="Layer_2" xmlns="http://www.w3.org/2000/svg" xmlns:xlink="http://www.w3.org/1999/xlink" x="0px" y="0px"
	 width="300px" height="180px" viewBox="0 0 300 180" enable-background="new 0 0 300 180" xml:space="preserve">
<circle fill="#FFFFFF" cx="125.571" cy="47.731" r="4.153"/>
<circle fill="#FFFFFF" cx="141.217" cy="47.731" r="4.153"/>
<circle fill="#FFFFFF" cx="158.023" cy="47.731" r="4.152"/>
<circle fill="#FFFFFF" cx="173.812" cy="48.105" r="4.153"/>
<path fill="#FFFFFF" d="M113.848,84.693c0,0,5.908-28.77,11.723-27.384c5.816,1.384,8.062,15.687,8.062,15.687
	s2.74-15.95,7.583-15.027c4.844,0.924,5.097,5.801,5.097,5.801l3.601,9.717c0,0,2.793-15.519,6.904-16.227
	c6.125-1.055,8.107,13.714,8.107,13.714v2.021l3.152-8.072c0,0,2.495-8.385,5.733-7.667c5.098,1.129,6.729,13.745,6.729,13.745
	l4.693,14.809c0,0,0.157,3.34-3.154,4.125c-3.313,0.784-4.847-4.125-4.847-4.125l-2.54-8.381l-1.27-2.155l-2.958,8.497
	c0,0-0.156,6.175-5.387,6.087c-5.229-0.087-7.326-15.832-7.326-15.832l-2.672,7.283c0,0-1.873,8.638-5.166,8.55
	c-6.144-0.166-8.486-16.247-8.486-16.247s-1.361,16.334-7.778,16.247c-6.417-0.088-7.973-16.247-7.973-16.247
	s-2.919,18.68-8.598,16.247c-3.591-1.539-3.23-3.397-3.23-3.397V84.693z"/>
<g>
	<g>
		<g>
			<g>
				<g>
					<path fill="#ED1C24" d="M125.676,42.962c-2.818,0-5.11,2.291-5.11,5.109s2.292,5.11,5.11,5.11c2.818,0,5.112-2.292,5.112-5.11
						S128.495,42.962,125.676,42.962z M125.676,51.44c-1.853,0-3.346-1.517-3.346-3.369c0-1.853,1.493-3.346,3.346-3.346
						c1.854,0,3.375,1.493,3.375,3.346C129.051,49.923,127.53,51.44,125.676,51.44z"/>
				</g>
				<g>
					<path fill="#ED1C24" d="M141.202,42.962c-2.817,0-5.082,2.291-5.082,5.109s2.265,5.11,5.082,5.11
						c2.824,0,5.111-2.292,5.111-5.11S144.025,42.962,141.202,42.962z M141.202,51.44c-1.823,0-3.345-1.517-3.345-3.369
						c0-1.853,1.522-3.346,3.345-3.346c1.854,0,3.375,1.493,3.375,3.346C144.577,49.923,143.055,51.44,141.202,51.44z"/>
				</g>
				<g>
					<path fill="#ED1C24" d="M157.832,42.962c-2.818,0-5.083,2.291-5.083,5.109s2.265,5.11,5.083,5.11
						c2.816,0,5.111-2.292,5.111-5.11S160.648,42.962,157.832,42.962z M157.832,51.44c-1.825,0-3.347-1.517-3.347-3.369
						c0-1.853,1.521-3.346,3.347-3.346c1.853,0,3.375,1.493,3.375,3.346C161.207,49.923,159.685,51.44,157.832,51.44z"/>
				</g>
				<g>
					<path fill="#ED1C24" d="M173.825,42.962c-2.817,0-5.11,2.291-5.11,5.109s2.293,5.11,5.11,5.11c2.819,0,5.084-2.292,5.084-5.11
						S176.645,42.962,173.825,42.962z M173.825,51.44c-1.853,0-3.374-1.517-3.374-3.369c0-1.853,1.521-3.346,3.374-3.346
						c1.826,0,3.348,1.493,3.348,3.346C177.173,49.923,175.651,51.44,173.825,51.44z"/>
				</g>
			</g>
			<g>
				<path fill="#ED1C24" d="M186.071,84.189l-7.698-23.672c-0.258-1.845-1.543-3.45-3.426-4.069
					c-0.521-0.179-1.053-0.246-1.572-0.241c-0.551-0.005-1.078,0.062-1.602,0.241c-1.882,0.619-3.17,2.224-3.428,4.069l-2.906,9.005
					l-2.937-9.005c-0.257-1.845-1.516-3.45-3.398-4.069c-0.55-0.179-1.08-0.246-1.601-0.241c-0.521-0.005-1.078,0.062-1.602,0.241
					c-1.883,0.619-3.141,2.224-3.398,4.069l-2.964,9.092l-2.963-9.092c-0.258-1.845-1.516-3.45-3.399-4.069
					c-0.522-0.179-1.08-0.246-1.601-0.241c-0.522-0.005-1.05,0.062-1.601,0.241c-1.882,0.619-3.142,2.224-3.398,4.069l-2.937,9.005
					l-2.906-9.005c-0.258-1.845-1.546-3.45-3.428-4.069c-0.523-0.179-1.051-0.246-1.601-0.241c-0.521-0.005-1.05,0.062-1.572,0.241
					c-1.882,0.619-3.17,2.224-3.427,4.069l-7.698,23.672c-0.842,2.632,0.605,5.491,3.231,6.328c2.627,0.867,5.462-0.575,6.328-3.225
					l3.138-9.691l3.167,9.691c0.284,0.897,0.803,1.675,1.473,2.239c0.011,0.008,0.021,0.018,0.03,0.025
					c0.121,0.091,0.215,0.182,0.341,0.252c0.027,0.021,0.055,0.047,0.083,0.087c0.085,0.059,0.2,0.113,0.289,0.165
					c0.069,0.026,0.11,0.067,0.151,0.1c0.083,0.047,0.198,0.088,0.284,0.128c0.047,0.022,0.123,0.071,0.17,0.09
					c0.087,0.039,0.207,0.074,0.296,0.105c0.031,0.01,0.061,0.023,0.122,0.034c0.018,0.006,0.036,0.01,0.054,0.016
					c0.089,0.028,0.208,0.077,0.3,0.101c0.053,0.014,0.135,0.027,0.188,0.04c0.083,0.017,0.196,0.028,0.281,0.04
					c0.067,0.009,0.151,0.019,0.212,0.025c0.076,0.007,0.181,0.01,0.258,0.013c0.098,0.004,0.167,0.009,0.236,0.009
					c0.098,0,0.167-0.005,0.236-0.009c0.105-0.003,0.182-0.006,0.257-0.013c0.09-0.007,0.151-0.017,0.213-0.025
					c0.114-0.012,0.197-0.023,0.28-0.04c0.083-0.013,0.136-0.026,0.191-0.04c0.119-0.023,0.208-0.072,0.326-0.101
					c0.019-0.006,0.037-0.01,0.055-0.016c0.032-0.011,0.062-0.024,0.092-0.034c0.12-0.031,0.209-0.066,0.327-0.105
					c0.047-0.019,0.094-0.068,0.141-0.09c0.116-0.04,0.2-0.081,0.283-0.128c0.07-0.032,0.111-0.073,0.152-0.1
					c0.117-0.052,0.204-0.106,0.29-0.165c0.027-0.04,0.085-0.066,0.112-0.087c0.097-0.07,0.219-0.161,0.312-0.252
					c0.009-0.007,0.02-0.017,0.03-0.025c0.671-0.564,1.189-1.341,1.503-2.239l3.138-9.691l3.148,9.691
					c0.672,2.103,2.628,3.436,4.719,3.465c0.032,0.001,0.064,0.003,0.095,0.003s0.064-0.002,0.096-0.003
					c2.092-0.029,4.048-1.362,4.71-3.465l3.158-9.691l3.137,9.691c0.313,0.897,0.832,1.675,1.504,2.239
					c0.008,0.008,0.02,0.018,0.029,0.025c0.092,0.091,0.213,0.182,0.312,0.252c0.027,0.021,0.083,0.047,0.111,0.087
					c0.086,0.059,0.172,0.113,0.289,0.165c0.039,0.026,0.082,0.067,0.151,0.1c0.084,0.047,0.168,0.088,0.283,0.128
					c0.046,0.022,0.093,0.071,0.141,0.09c0.117,0.039,0.208,0.074,0.326,0.105c0.03,0.01,0.06,0.023,0.093,0.034
					c0.017,0.006,0.035,0.01,0.055,0.016c0.115,0.028,0.207,0.077,0.326,0.101c0.055,0.014,0.106,0.027,0.188,0.04
					c0.087,0.017,0.169,0.028,0.281,0.04c0.063,0.009,0.124,0.019,0.215,0.025c0.075,0.007,0.151,0.01,0.255,0.013
					c0.07,0.004,0.145,0.009,0.238,0.009c0.069,0,0.137-0.005,0.235-0.009c0.076-0.003,0.181-0.006,0.259-0.013
					c0.061-0.007,0.129-0.017,0.213-0.025c0.083-0.012,0.197-0.023,0.279-0.04c0.055-0.013,0.135-0.026,0.189-0.04
					c0.091-0.023,0.211-0.072,0.301-0.101c0.017-0.006,0.035-0.01,0.053-0.016c0.059-0.011,0.091-0.024,0.122-0.034
					c0.089-0.031,0.207-0.066,0.296-0.105c0.048-0.019,0.122-0.068,0.169-0.09c0.087-0.04,0.199-0.081,0.285-0.128
					c0.04-0.032,0.082-0.073,0.149-0.1c0.09-0.052,0.205-0.106,0.29-0.165c0.028-0.04,0.056-0.066,0.083-0.087
					c0.127-0.07,0.221-0.161,0.34-0.252c0.011-0.007,0.021-0.017,0.031-0.025c0.67-0.564,1.188-1.341,1.475-2.239l3.166-9.691
					l3.139,9.691c0.865,2.65,3.701,4.092,6.327,3.225C185.468,89.68,186.914,86.821,186.071,84.189z M149.54,75.268l3.591-11.078
					l1.072-3.257l0.234-0.722c0.447-1.373,1.698-2.25,3.066-2.269c1.367,0.019,2.617,0.896,3.064,2.269l4.871,14.972l4.869-14.972
					c0.419-1.373,1.698-2.25,3.066-2.269c1.339,0.019,2.617,0.896,3.063,2.269l7.973,24.539c0.546,1.709-0.395,3.558-2.104,4.105
					c-1.736,0.577-3.56-0.362-4.132-2.101l-4.815-14.766l-4.691,14.287c-0.183,1.076-0.88,2.016-1.927,2.476
					c0,0-0.002,0.001-0.003,0.001c-0.088,0.037-0.175,0.071-0.296,0.101c-0.004,0.001-0.006,0.003-0.01,0.004
					c-0.087,0.028-0.201,0.053-0.286,0.098c-0.012,0.003-0.022,0.007-0.035,0.009c-0.101,0.015-0.176,0.026-0.249,0.035
					c-0.053,0.005-0.078,0.008-0.102,0.01c-0.059,0.007-0.117,0.008-0.202,0.011c-0.039,0.001-0.08,0.003-0.12,0.003
					c-0.041,0-0.11-0.002-0.15-0.003c-0.057-0.003-0.116-0.004-0.201-0.011c-0.024-0.002-0.048-0.005-0.071-0.01
					c-0.075-0.008-0.177-0.02-0.253-0.035c-0.012-0.001-0.021-0.006-0.033-0.009c-0.115-0.045-0.199-0.07-0.285-0.098
					c-0.003-0.001-0.009-0.003-0.035-0.004c-0.096-0.029-0.186-0.063-0.3-0.101c-0.001,0-0.003,0-0.003-0.001
					c-0.869-0.392-1.476-1.107-1.756-1.962l-4.848-14.847l-0.923,2.83l-2.669,8.249l-1.172,3.272
					c-0.203,1.16-1.035,2.192-2.231,2.563c-0.307,0.12-0.647,0.165-0.956,0.17c-0.004-0.002-0.009,0-0.014,0
					c-0.004,0-0.008-0.002-0.014,0c-0.308-0.005-0.647-0.05-0.956-0.17c-1.193-0.371-2.027-1.402-2.23-2.561l-4.777-14.306
					l-4.69,14.287c-0.183,1.076-0.879,2.016-1.898,2.476c-0.002,0-0.003,0.001-0.005,0.001c-0.114,0.037-0.203,0.071-0.294,0.101
					c-0.012,0.001-0.034,0.003-0.04,0.004c-0.085,0.028-0.17,0.053-0.284,0.098c-0.011,0.003-0.022,0.007-0.035,0.009
					c-0.074,0.015-0.176,0.026-0.25,0.035c-0.024,0.005-0.047,0.008-0.071,0.01c-0.087,0.007-0.145,0.008-0.204,0.011
					c-0.04,0.001-0.108,0.003-0.149,0.003c-0.04,0-0.08-0.002-0.12-0.003c-0.087-0.003-0.146-0.004-0.202-0.011
					c-0.025-0.002-0.05-0.005-0.102-0.01c-0.074-0.008-0.148-0.02-0.25-0.035c-0.012-0.001-0.022-0.006-0.035-0.009
					c-0.085-0.045-0.199-0.07-0.285-0.098c-0.004-0.001-0.007-0.003-0.012-0.004c-0.12-0.029-0.208-0.063-0.293-0.101
					c-0.001,0-0.004,0-0.005-0.001c-0.868-0.392-1.503-1.107-1.784-1.962l-4.848-14.847l-0.922,2.83l-3.877,11.983
					c-0.576,1.739-2.396,2.678-4.134,2.101c-1.708-0.547-2.648-2.396-2.102-4.105l6.692-20.56l1.042-3.257l0.235-0.722
					c0.448-1.373,1.727-2.25,3.065-2.269c1.368,0.019,2.646,0.896,3.066,2.269l4.87,14.972l4.87-14.972
					c0.448-1.373,1.698-2.25,3.066-2.269c1.368,0.019,2.618,0.896,3.064,2.269L149.54,75.268z"/>
				<g>
					<g>
						<path fill="#ED1C24" d="M124.884,70.768l-4.803,15.496c-0.264,0.844-0.83,1.245-1.727,1.245
							c-0.26-0.046-0.402-0.153-0.402-0.355c0-0.189,0.143-0.27,0.402-0.27c0.528,0,0.871-0.23,0.968-0.689l4.95-15.497
							c0.091-0.316,0.209-0.445,0.411-0.445C124.814,70.254,124.884,70.412,124.884,70.768z"/>
					</g>
					<g>
						<path fill="#ED1C24" d="M126.906,60.18c0.197,0,0.343,0.135,0.406,0.446l4.95,15.494c0.127,0.461,0.44,0.69,0.97,0.69
							c0.287,0,0.402,0.081,0.402,0.27c0,0.201-0.115,0.308-0.402,0.349c-0.869,0-1.463-0.395-1.729-1.24l-4.774-15.495
							C126.729,60.361,126.786,60.18,126.906,60.18z"/>
					</g>
					<g>
						<path fill="#ED1C24" d="M142.676,60.18c0.201,0,0.319,0.135,0.382,0.446l4.978,15.494c0.099,0.461,0.412,0.69,0.969,0.69
							c0.258,0,0.373,0.081,0.373,0.27c0,0.201-0.115,0.308-0.373,0.349c-0.896,0-1.491-0.395-1.757-1.24l-4.773-15.495
							C142.475,60.361,142.532,60.18,142.676,60.18z"/>
					</g>
					<g>
						<path fill="#ED1C24" d="M159.148,60.18c0.201,0,0.318,0.135,0.411,0.446l4.948,15.494c0.1,0.461,0.441,0.69,0.969,0.69
							c0.259,0,0.402,0.081,0.402,0.27c0,0.201-0.144,0.308-0.402,0.349c-0.895,0-1.462-0.395-1.729-1.24l-4.801-15.495
							C158.947,60.361,159.005,60.18,159.148,60.18z"/>
					</g>
					<g>
						<path fill="#ED1C24" d="M174.896,60.18c0.199,0,0.346,0.135,0.409,0.446l7.834,24.641c0.126,0.461-0.495,0.914-0.761,0.069
							l-7.687-24.642C174.692,60.361,174.779,60.18,174.896,60.18z"/>
					</g>
					<g>
						<path fill="#ED1C24" d="M140.583,70.768l-4.802,15.496c-0.266,0.844-0.832,1.245-1.728,1.245
							c-0.258-0.046-0.402-0.153-0.402-0.355c0-0.189,0.144-0.27,0.402-0.27c0.529,0,0.871-0.23,0.968-0.689l4.95-15.497
							c0.091-0.316,0.211-0.445,0.411-0.445C140.509,70.254,140.583,70.412,140.583,70.768z"/>
					</g>
					<g>
						<path fill="#ED1C24" d="M156.818,70.768l-4.773,15.496c-0.266,0.844-0.861,1.245-1.756,1.245
							c-0.26-0.046-0.375-0.153-0.375-0.355c0-0.189,0.115-0.27,0.375-0.27c0.557,0,0.87-0.23,0.967-0.689l4.95-15.497
							c0.092-0.316,0.21-0.445,0.411-0.445C156.76,70.254,156.818,70.412,156.818,70.768z"/>
					</g>
					<g>
						<path fill="#ED1C24" d="M172.688,70.768l-4.802,15.496c-0.265,0.844-0.83,1.245-1.729,1.245
							c-0.259-0.046-0.401-0.153-0.401-0.355c0-0.189,0.143-0.27,0.401-0.27c0.529,0,0.87-0.23,0.969-0.689l4.95-15.497
							c0.062-0.316,0.21-0.445,0.41-0.445C172.603,70.254,172.688,70.412,172.688,70.768z"/>
					</g>
				</g>
			</g>
		</g>
		<g>
			<g>
				<path fill="#ED1C24" d="M71.618,104.146c0-1.264,0.439-2.248,1.304-2.955c0.88-0.71,1.917-1.076,3.118-1.076
					c1.173,0,2.189,0.373,3.047,1.091c0.856,0.72,1.292,1.728,1.292,3.053v17.823c0,1.001,0.219,1.801,0.656,2.359
					c0.437,0.551,0.969,0.844,1.574,0.844c0.52,0,0.975-0.215,1.367-0.67c0.39-0.453,0.584-1.096,0.584-1.898v-18.169
					c0-1.38,0.431-2.446,1.314-3.254c0.868-0.778,1.895-1.181,3.067-1.181c1.201,0,2.255,0.432,3.168,1.287
					c0.91,0.832,1.362,2.014,1.362,3.549v19.305c0,1.662-0.508,3.269-1.497,4.818c-1.006,1.52-2.341,2.754-4.026,3.703
					c-1.685,0.95-3.475,1.444-5.39,1.476c-2.063,0-3.936-0.497-5.608-1.522c-1.682-0.994-2.988-2.319-3.928-3.916
					c-0.937-1.625-1.406-3.297-1.406-5.041V104.146z"/>
				<path fill="#ED1C24" d="M99.507,115.303c-1.228-2.002-1.854-3.524-1.854-5.353c0-1.685,0.541-3.382,1.607-5.114
					c0.915-1.479,2.242-2.611,4.001-3.367c1.742-0.758,3.551-1.148,5.409-1.148c0.767,0,1.548,0.07,2.371,0.236
					c2.057,0.494,3.58,1.236,4.568,2.251c1.021,0.989,1.517,2.028,1.517,3.153c0,1.11-0.437,2.059-1.315,2.841
					c-0.874,0.814-1.945,1.191-3.272,1.191c-1.167,0-2.335-0.313-3.507-0.97c-0.335-0.202-0.732-0.289-1.167-0.289
					c-0.794,0.04-1.206,0.387-1.206,0.97c0,0.489,0.269,0.905,0.834,1.218c0.572,0.406,1.297,0.769,2.173,1.091
					c0.876,0.315,1.8,0.678,2.772,1.028c0.973,0.381,1.791,0.783,2.482,1.184c1.641,0.986,2.845,2.197,3.629,3.654
					c0.761,1.451,1.156,3.037,1.156,4.725c0,1.543-0.302,3.006-0.861,4.412c-0.554,1.406-1.344,2.593-2.316,3.562
					c-1.212,1.234-2.643,2.172-4.294,2.812c-1.649,0.637-3.375,0.942-5.129,0.942c-2.534,0-4.843-0.567-6.932-1.734
					c-2.096-1.164-3.917-3.587-4.17-4.64c-1.594-6.615,5.228-9.46,8.719-4.477c0.352,0.504,1.637,2.145,3.021,2.342
					c0.779,0.109,1.477-0.211,2.039-0.625c0.59-0.415,0.871-1.006,0.871-1.828c-0.036-0.852-0.471-1.52-1.28-1.977
					c-0.837-0.459-0.889-0.469-3.384-1.133C103.516,119.6,100.748,117.291,99.507,115.303z"/>
				<path fill="#ED1C24" d="M122.674,105.035c0-1.496,0.475-2.673,1.443-3.54c0.95-0.857,2.027-1.269,3.301-1.269
					c1.206,0,2.232,0.391,3.114,1.227c0.878,0.812,1.292,1.976,1.292,3.496v24.226c0,1.11-0.187,2.057-0.612,2.838
					c-0.427,0.81-0.969,1.386-1.662,1.79c-0.69,0.385-1.416,0.572-2.203,0.572c-1.245,0-2.346-0.465-3.275-1.394
					c-0.932-0.925-1.398-2.192-1.398-3.807V105.035z"/>
				<path fill="#ED1C24" d="M160.975,131.754c-2.795,1.85-5.817,2.773-9.066,2.773c-2.185,0-4.303-0.433-6.357-1.297
					c-2.057-0.836-3.893-2.02-5.479-3.561c-1.616-1.504-2.903-3.244-3.833-5.182c-0.933-1.931-1.417-3.965-1.459-6.079
					c0-3.239,0.769-6.25,2.335-9.041c1.567-2.801,3.688-5.039,6.363-6.688c2.704-1.646,5.616-2.454,8.791-2.454
					c2.429,0,4.918,0.529,7.416,1.59c1.208,0.537,2.117,1.229,2.727,2.079c0.582,0.874,0.902,1.789,0.902,2.746
					c0,1.124-0.381,2.087-1.112,2.894c-0.733,0.833-1.679,1.252-2.838,1.252c-0.827,0-1.642-0.213-2.494-0.641
					c-1.632-0.766-3.13-1.164-4.517-1.164c-1.612,0-3.054,0.432-4.354,1.26c-1.275,0.859-2.269,1.954-2.985,3.264
					c-0.715,1.336-1.087,2.674-1.087,3.986c0,1.396,0.381,2.727,1.113,3.963c0.734,1.266,1.732,2.264,3.026,3.021
					c1.266,0.758,2.667,1.149,4.204,1.149c1.566,0,3.122-0.414,4.601-1.212c0.733-0.431,1.5-0.643,2.248-0.643
					c1.131,0,2.062,0.436,2.796,1.303c0.73,0.84,1.082,1.855,1.082,2.967C162.994,129.611,162.34,130.839,160.975,131.754z"/>
				<path fill="#ED1C24" d="M246.048,104.639c0-2.4,1.454-3.598,4.365-3.598h8.371c1.348,0,2.54,0.366,3.573,1.072
					c1.064,0.705,1.862,1.645,2.448,2.82c0.56,1.178,0.836,2.42,0.836,3.758c0,1.438-0.311,2.793-0.967,4.034
					c3.242,2.478,4.865,5.588,4.865,9.356c0,1.922-0.461,3.771-1.382,5.516c-0.918,1.775-2.154,3.188-3.725,4.266
					c-1.545,1.055-3.237,1.587-5.009,1.587h-9.79c-0.928,0-1.729-0.325-2.433-0.989c-0.705-0.668-1.074-1.6-1.074-2.801
					L246.048,104.639z"/>
				<path fill="#ED1C24" d="M70.672,128.008l-7.622-23.452c-0.257-1.829-1.518-3.421-3.385-4.036
					c-0.518-0.179-1.057-0.244-1.574-0.24c-0.532-0.004-1.059,0.062-1.588,0.24c-1.868,0.615-3.124,2.207-3.385,4.036l-2.889,8.903
					l-2.894-8.903c-0.255-1.829-1.518-3.421-3.384-4.036c-0.524-0.179-1.06-0.244-1.578-0.24c-0.529-0.004-1.059,0.062-1.585,0.24
					c-1.868,0.615-3.128,2.207-3.386,4.036l-7.621,23.452c-0.845,2.605,0.586,5.419,3.197,6.277c2.613,0.854,5.424-0.6,6.271-3.203
					l3.123-9.608l3.114,9.608c0.294,0.893,0.811,1.636,1.477,2.223c0.01,0.012,0.02,0.019,0.029,0.027
					c0.105,0.076,0.212,0.179,0.322,0.248c0.029,0.018,0.058,0.039,0.096,0.059c0.09,0.061,0.188,0.142,0.291,0.191
					c0.043,0.025,0.095,0.047,0.136,0.072c0.095,0.074,0.195,0.116,0.295,0.152c0.047,0.021,0.106,0.045,0.154,0.064
					c0.102,0.036,0.205,0.1,0.308,0.132c0.032,0.01,0.061,0.024,0.099,0.034c0.025,0.004,0.042,0.011,0.059,0.014
					c0.103,0.029,0.208,0.049,0.311,0.07c0.057,0.019,0.121,0.057,0.176,0.069c0.098,0.015,0.196,0.026,0.291,0.038
					c0.063,0.012,0.138,0.021,0.202,0.024c0.085,0.008,0.178,0.015,0.267,0.017c0.071,0.002,0.151,0.006,0.23,0.006
					c0.072,0,0.154-0.004,0.234-0.006c0.081-0.002,0.169-0.009,0.259-0.017c0.064-0.004,0.137-0.013,0.207-0.024
					c0.093-0.012,0.187-0.023,0.284-0.038c0.061-0.013,0.121-0.051,0.185-0.069c0.096-0.021,0.197-0.041,0.299-0.07
					c0.018-0.003,0.041-0.01,0.067-0.014c0.032-0.01,0.062-0.024,0.103-0.034c0.099-0.032,0.196-0.096,0.299-0.132
					c0.06-0.02,0.106-0.043,0.16-0.064c0.095-0.036,0.19-0.078,0.288-0.152c0.044-0.025,0.096-0.047,0.138-0.072
					c0.102-0.05,0.202-0.131,0.298-0.191c0.031-0.02,0.057-0.041,0.091-0.059c0.106-0.069,0.212-0.172,0.315-0.248
					c0.013-0.009,0.024-0.016,0.037-0.027c0.659-0.587,1.183-1.33,1.468-2.223l3.129-9.608l3.112,9.608
					c0.853,2.604,3.668,4.057,6.276,3.203C70.086,133.427,71.514,130.613,70.672,128.008z"/>
				<path fill="#ED1C24" d="M207.676,128.008l-7.609-23.452c-0.284-1.83-1.529-3.421-3.398-4.036
					c-0.519-0.179-1.047-0.244-1.588-0.24c-0.517-0.004-1.041,0.062-1.559,0.24c-1.869,0.615-3.146,2.206-3.402,4.036l-2.882,8.903
					l-2.914-8.903c-0.255-1.83-1.503-3.421-3.369-4.036c-0.52-0.179-1.047-0.244-1.589-0.24c-0.516-0.004-1.042,0.062-1.574,0.24
					c-1.855,0.615-3.128,2.206-3.385,4.036l-7.607,23.452c-0.857,2.605,0.572,5.419,3.178,6.277c2.605,0.854,5.417-0.6,6.277-3.203
					l3.111-9.608l3.141,9.608c0.283,0.893,0.798,1.636,1.462,2.223c0.01,0.012,0.018,0.019,0.029,0.027
					c0.092,0.076,0.215,0.179,0.31,0.248c0.027,0.018,0.085,0.039,0.11,0.059c0.084,0.061,0.201,0.142,0.289,0.191
					c0.039,0.025,0.08,0.047,0.15,0.072c0.082,0.071,0.166,0.115,0.281,0.152c0.046,0.021,0.09,0.044,0.158,0.064
					c0.096,0.036,0.185,0.1,0.304,0.132c0.03,0.01,0.059,0.024,0.09,0.034c0.017,0.004,0.037,0.01,0.061,0.014
					c0.11,0.029,0.202,0.049,0.32,0.07c0.053,0.015,0.104,0.057,0.188,0.069c0.082,0.015,0.168,0.026,0.279,0.038
					c0.06,0.012,0.123,0.021,0.21,0.024c0.077,0.008,0.151,0.015,0.257,0.017c0.067,0.002,0.135,0.006,0.233,0.006
					c0.068,0,0.14-0.004,0.234-0.006c0.075-0.002,0.173-0.009,0.257-0.017c0.059-0.004,0.137-0.013,0.21-0.024
					c0.083-0.012,0.194-0.023,0.278-0.038c0.053-0.013,0.135-0.055,0.186-0.069c0.092-0.021,0.208-0.041,0.3-0.07
					c0.016-0.004,0.034-0.01,0.05-0.014c0.043-0.01,0.092-0.024,0.121-0.034c0.089-0.032,0.208-0.096,0.298-0.132
					c0.046-0.021,0.119-0.043,0.167-0.064c0.085-0.037,0.197-0.081,0.281-0.152c0.043-0.025,0.081-0.047,0.15-0.072
					c0.085-0.05,0.173-0.131,0.284-0.191c0.03-0.02,0.056-0.041,0.082-0.059c0.128-0.069,0.221-0.172,0.34-0.248
					c0.01-0.009,0.021-0.016,0.03-0.027c0.664-0.587,1.177-1.33,1.459-2.223l3.115-9.608l3.141,9.608
					c0.831,2.604,3.643,4.057,6.248,3.203C207.1,133.427,208.531,130.613,207.676,128.008z"/>
			</g>
			<path fill="#ED1C24" d="M225.874,101.215c-9.425,0-17.04,7.464-17.04,16.654c0,9.195,7.615,16.659,17.04,16.659
				c9.401,0,17.01-7.464,17.01-16.659C242.884,108.679,235.275,101.215,225.874,101.215z"/>
		</g>
	</g>
</g>
</svg>
