<?xml version="1.0" encoding="utf-8"?>
<!-- Generator: Adobe Illustrator 15.1.0, SVG Export Plug-In . SVG Version: 6.00 Build 0)  -->
<!DOCTYPE svg PUBLIC "-//W3C//DTD SVG 1.1//EN" "http://www.w3.org/Graphics/SVG/1.1/DTD/svg11.dtd">
<svg version="1.1" id="Layer_1" xmlns="http://www.w3.org/2000/svg" xmlns:xlink="http://www.w3.org/1999/xlink" x="0px" y="0px"
	 width="500px" height="300px" viewBox="0 0 500 300" enable-background="new 0 0 500 300" xml:space="preserve">
<g>
	<path fill="#0B7C99" d="M452.799,147.358h-19.033v1.435c-0.197-0.046-0.384-0.069-0.654-0.069c-1.278,0-7.313,4.96-8.502,5.986
		l0.346,0.428c2.716-2.286,7.322-5.831,8.156-5.831c0.385,0,0.564,0.052,0.654,0.067v7.446l-1.779,0.82l0.238,0.506l8.913-4.107
		c0.107-0.047,1.276-0.455,1.884,0.74c0.627,1.126-0.53,1.972-0.685,2.035l-4.751,2.305l-0.032,0.043
		c-0.739,0.752-2.833,2.813-3.701,3.177c-2.502,1.082-7.084,0.679-7.13,0.674l-0.064,0.499c0.098,0.011,1.025,0.116,2.278,0.116
		c1.585,0,3.663-0.17,5.13-0.76c0.306-0.16,0.73-0.438,1.182-0.799c0.427,0.521,1.084,0.849,1.777,0.849
		c0.215,0,0.458-0.045,0.649-0.125c0.291,0.951,1.151,1.603,2.167,1.603c0.912,0,1.706-0.525,2.055-1.338
		c0.319,0.211,0.701,0.335,1.104,0.335c1.242,0,2.259-1.046,2.259-2.289v-0.312h7.54V147.358z M437.025,162.336
		c-0.542,0-1.025-0.211-1.35-0.611c0.343-0.331,0.7-0.656,1.021-0.933h0.895v1.394c0,0.028,0.003,0.031,0.004,0.044
		C437.415,162.293,437.216,162.336,437.025,162.336z M439.842,163.869c-0.942,0-1.708-0.804-1.708-1.684v-1.394h2.624v0.312
		c0,0.658,0.244,1.208,0.67,1.618C441.213,163.414,440.554,163.869,439.842,163.869z M444.691,161.104
		c0,0.958-0.764,1.707-1.691,1.707s-1.697-0.749-1.697-1.707v-0.312h3.389V161.104z M452.232,160.211h-14.98
		c0.334-0.302,0.58-0.517,0.676-0.628l4.668-2.284l0.023-0.02c0.639-0.401,1.604-1.48,0.885-2.795
		c-0.681-1.307-1.994-1.182-2.583-0.971l-6.613,3.076v-3.99l17.925-0.001V160.211z M452.232,150.179h-17.925v-2.26h17.925V150.179z"
		/>
	<g>
		<path fill="none" stroke="#0B7C99" stroke-width="4" stroke-miterlimit="10" d="M400.686,214.438v-2.978
			c0-4.408-3.573-7.98-7.981-7.98l0,0c-4.407,0-7.98,3.572-7.98,7.98v40.062"/>
		<path fill="none" stroke="#0B7C99" stroke-width="4" stroke-miterlimit="10" d="M400.686,214.438L400.686,214.438
			c0,4.407,3.573,7.98,7.98,7.98h8.447"/>
		<path fill="none" stroke="#0B7C99" stroke-width="4" stroke-miterlimit="10" d="M336.838,238.752L336.838,238.752
			c0-4.406-3.573-7.98-7.98-7.98h-6.607"/>
		<path fill="none" stroke="#0B7C99" stroke-width="4" stroke-miterlimit="10" d="M368.762,229.721v26.945
			c0,4.406,3.574,7.98,7.98,7.98l0,0c4.408,0,7.981-3.574,7.981-7.98v-32.082"/>
		<path fill="none" stroke="#0B7C99" stroke-width="4" stroke-miterlimit="10" d="M368.762,251.522v-34.919
			c0-4.408-3.572-7.98-7.98-7.98l0,0c-4.408,0-7.981,3.572-7.981,7.98v26.938"/>
		<path fill="none" stroke="#0B7C99" stroke-width="4" stroke-miterlimit="10" d="M336.838,238.752v5.144
			c0,4.407,3.574,7.981,7.981,7.981l0,0c4.408,0,7.98-3.574,7.98-7.981v-5.144"/>
	</g>
	<g>
		<polygon fill="#F4F0EF" points="336.752,263.957 336.752,258.521 331.996,258.521 331.996,254.445 187.973,254.445 
			187.973,258.521 183.218,258.521 183.218,263.957 176.764,263.957 176.764,270.75 343.205,270.75 343.205,263.957 		"/>
		<path fill="#F4F0EF" d="M259.984,148.297l-72.011,31.25v11.549h144.023v-11.549L259.984,148.297z M259.984,159.676
			c5.732,0,10.375,4.645,10.375,10.375s-4.643,10.375-10.375,10.375c-5.73,0-10.375-4.645-10.375-10.375
			S254.254,159.676,259.984,159.676z"/>
		<rect x="196.946" y="191.096" fill="#F4F0EF" width="14.012" height="60.633"/>
		<g>
			<rect x="199.593" y="195.172" fill="#E2DEDD" width="2.49" height="53.841"/>
			<rect x="205.82" y="195.172" fill="#E2DEDD" width="2.491" height="53.841"/>
		</g>
		<rect x="226.008" y="191.096" fill="#F4F0EF" width="14.01" height="60.633"/>
		<g>
			<rect x="228.654" y="195.172" fill="#E2DEDD" width="2.491" height="53.841"/>
			<rect x="234.882" y="195.172" fill="#E2DEDD" width="2.49" height="53.841"/>
		</g>
		<rect x="308.889" y="191.096" fill="#F4F0EF" width="14.012" height="60.633"/>
		<g>
			<rect x="311.535" y="195.172" fill="#E2DEDD" width="2.49" height="53.841"/>
			<rect x="317.763" y="195.172" fill="#E2DEDD" width="2.491" height="53.841"/>
		</g>
		<rect x="279.95" y="191.096" fill="#F4F0EF" width="14.011" height="60.633"/>
		<g>
			<rect x="282.597" y="195.172" fill="#E2DEDD" width="2.49" height="53.841"/>
			<rect x="288.824" y="195.172" fill="#E2DEDD" width="2.49" height="53.841"/>
		</g>
		<path fill="#F4F0EF" d="M326.68,257.842c0,0.752-0.608,1.359-1.359,1.359h-18.852c-0.751,0-1.358-0.607-1.358-1.359v-7.473
			c0-0.75,0.607-1.358,1.358-1.358h18.852c0.751,0,1.359,0.608,1.359,1.358V257.842z"/>
		<path fill="#F4F0EF" d="M297.74,257.842c0,0.752-0.607,1.359-1.358,1.359H277.53c-0.751,0-1.359-0.607-1.359-1.359v-7.473
			c0-0.75,0.608-1.358,1.359-1.358h18.852c0.751,0,1.358,0.608,1.358,1.358V257.842z"/>
		<path fill="#F4F0EF" d="M243.799,257.842c0,0.752-0.609,1.359-1.359,1.359h-18.852c-0.75,0-1.359-0.607-1.359-1.359v-7.473
			c0-0.75,0.609-1.358,1.359-1.358h18.852c0.75,0,1.359,0.608,1.359,1.358V257.842z"/>
		<path fill="#F4F0EF" d="M326.68,193.813c0,0.751-0.608,1.358-1.359,1.358h-18.852c-0.751,0-1.358-0.607-1.358-1.358v-7.474
			c0-0.751,0.607-1.358,1.358-1.358h18.852c0.751,0,1.359,0.607,1.359,1.358V193.813z"/>
		<path fill="#F4F0EF" d="M297.74,193.813c0,0.751-0.607,1.358-1.358,1.358H277.53c-0.751,0-1.359-0.607-1.359-1.358v-7.474
			c0-0.751,0.608-1.358,1.359-1.358h18.852c0.751,0,1.358,0.607,1.358,1.358V193.813z"/>
		<path fill="#F4F0EF" d="M243.799,193.813c0,0.751-0.609,1.358-1.359,1.358h-18.852c-0.75,0-1.359-0.607-1.359-1.358v-7.474
			c0-0.751,0.609-1.358,1.359-1.358h18.852c0.75,0,1.359,0.607,1.359,1.358V193.813z"/>
		<g>
			<path fill="#F4F0EF" d="M214.737,257.842c0,0.752-0.608,1.359-1.358,1.359h-18.853c-0.751,0-1.358-0.607-1.358-1.359v-7.473
				c0-0.75,0.607-1.358,1.358-1.358h18.853c0.75,0,1.358,0.608,1.358,1.358V257.842z"/>
			<path fill="#F4F0EF" d="M214.737,193.813c0,0.751-0.608,1.358-1.358,1.358h-18.853c-0.751,0-1.358-0.607-1.358-1.358v-7.474
				c0-0.751,0.607-1.358,1.358-1.358h18.853c0.75,0,1.358,0.607,1.358,1.358V193.813z"/>
		</g>
	</g>
	<path fill="none" stroke="#0B7C99" stroke-width="4" stroke-miterlimit="10" d="M180.265,218.341v-15.188
		c0-4.407-3.574-7.98-7.981-7.98l0,0c-4.408,0-7.98,3.573-7.98,7.98v40.062"/>
	<path fill="none" stroke="#0B7C99" stroke-width="4" stroke-miterlimit="10" d="M180.265,218.102L180.265,218.102
		c0,4.407,3.573,7.98,7.98,7.98h8.447"/>
	<path fill="none" stroke="#0B7C99" stroke-width="4" stroke-miterlimit="10" d="M132.379,222.463L132.379,222.463
		c0,4.407-3.573,7.981-7.981,7.981h-6.608"/>
	<path fill="none" stroke="#0B7C99" stroke-width="4" stroke-miterlimit="10" d="M148.341,221.412v34.926
		c0,4.408,3.572,7.98,7.981,7.98l0,0c4.408,0,7.981-3.572,7.981-7.98v-40.062"/>
	<path fill="none" stroke="#0B7C99" stroke-width="4" stroke-miterlimit="10" d="M148.341,243.214v-26.938
		c0-4.407-3.573-7.981-7.98-7.981l0,0c-4.408,0-7.981,3.574-7.981,7.981v6.187"/>
	<g>
		<g>
			<path fill="#F4F0EF" d="M117.854,258.499c0.676,0,1.225-0.548,1.225-1.225v-61.562c0-4.39-3.572-7.963-7.963-7.963H22.908
				c-4.392,0-7.964,3.573-7.964,7.963v61.562c0,0.677,0.549,1.225,1.226,1.225l32.864,4.978l47.779,0.842L117.854,258.499z"/>
		</g>
		<g>
			<path fill="#FFFFFF" d="M105.658,253.117H28.366c-3.178,0-5.764-2.594-5.764-5.779v-44.752c0-3.186,2.586-5.777,5.764-5.777
				h77.292c3.179,0,5.765,2.592,5.765,5.777v44.752C111.423,250.523,108.837,253.117,105.658,253.117z"/>
		</g>
		<g>
			<circle fill="#E2DEDD" cx="67.012" cy="193.347" r="1.532"/>
		</g>
		<g>
			<path fill="#D9D6D5" d="M119.882,270.75H14.143c-5.131,0-9.306-4.174-9.306-9.306v-4.017c0-0.678,0.548-1.225,1.226-1.225h42.547
				c0.521,0,0.984,0.329,1.156,0.82c0.773,2.211,2.862,3.696,5.2,3.696H79.06c2.337,0,4.426-1.485,5.199-3.696
				c0.172-0.491,0.636-0.82,1.156-0.82h42.547c0.677,0,1.225,0.547,1.225,1.225v4.017
				C129.187,266.576,125.013,270.75,119.882,270.75z"/>
		</g>
	</g>
	<g>
		<path fill="#FDD00F" d="M87.492,209.512h-0.004v17.698H69.789c0,9.777,7.925,17.705,17.703,17.705
			c9.777,0,17.702-7.928,17.702-17.705C105.194,217.436,97.27,209.512,87.492,209.512z"/>
		<g>
			<path fill="#FBAA1C" d="M65.29,224.381c0-10.699,8.672-19.369,19.37-19.37v0.001v19.375L65.29,224.381z"/>
		</g>
	</g>
	<rect x="26.613" y="214.698" fill="#676868" width="30.793" height="3.403"/>
	<rect x="26.613" y="219.778" fill="#676868" width="30.793" height="3.403"/>
	<rect x="26.613" y="224.857" fill="#676868" width="21.492" height="3.403"/>
	<rect x="424.35" y="279.722" fill="#676868" width="54.675" height="20.276"/>
	<path fill="#F9BB88" d="M432.174,280.02c-5.213-2.316-3.913-9.025-3.913-9.025l33.749-64.84c0,0,10.139,20.743,13.034,28.91
		l0.289,44.955H432.174z"/>
	<path fill="#F4F0EF" d="M464.563,264.919c0,2.967-2.402,5.372-5.369,5.372l-37.104-0.002c-2.963,0-5.367-2.403-5.367-5.37v-71.608
		c0-2.963,2.404-5.371,5.367-5.371h37.104c2.967,0,5.369,2.408,5.369,5.371V264.919z"/>
	<path fill="#D9D6D5" d="M459.642,187.297h-37.103c-3.207,0-5.816,2.613-5.816,5.815v72.423c0,3.211,2.609,5.818,5.816,5.818h37.103
		c3.208,0,5.816-2.606,5.816-5.818v-72.423C465.458,189.91,462.85,187.297,459.642,187.297z M422.539,189.091h37.103
		c2.22,0,4.027,1.804,4.027,4.021v4.245h-45.157v-4.245C418.512,190.895,420.32,189.091,422.539,189.091z M463.669,198.246v60.366
		h-45.157v-60.366H463.669z M459.642,269.566h-37.103c-2.219,0-4.027-1.81-4.027-4.031v-6.027h45.157v6.027
		C463.669,267.757,461.861,269.566,459.642,269.566z"/>
	<path fill="#D9D6D5" d="M441.09,261.264c-1.916,0-3.469,1.55-3.469,3.468c0,1.917,1.553,3.47,3.469,3.47s3.468-1.553,3.468-3.47
		C444.558,262.813,443.006,261.264,441.09,261.264z M441.09,267.306c-1.418,0-2.573-1.155-2.573-2.574s1.155-2.573,2.573-2.573
		c1.419,0,2.573,1.154,2.573,2.573S442.509,267.306,441.09,267.306z"/>
	<g>
		<g>
			<path fill="#D9D6D5" d="M449.338,194.584h-9.6c-0.497,0-0.896-0.407-0.896-0.892c0-0.498,0.399-0.897,0.896-0.897h9.6
				c0.492,0,0.894,0.399,0.894,0.897C450.231,194.177,449.83,194.584,449.338,194.584z"/>
		</g>
		<g>
			<path fill="#D9D6D5" d="M435.08,193.692c0,0.618-0.5,1.112-1.119,1.112c-0.617,0-1.119-0.494-1.119-1.112
				s0.502-1.125,1.119-1.125C434.58,192.567,435.08,193.074,435.08,193.692z"/>
		</g>
	</g>
	<rect x="418.512" y="198.246" fill="#FFFFFF" width="45.157" height="60.368"/>
	<rect x="418.512" y="198.246" fill="#55C9EF" width="45.157" height="7.183"/>
	<path fill="#55C9EF" d="M439.041,223.678c0,0.77-0.624,1.393-1.394,1.393h-13.663c-0.768,0-1.393-0.623-1.393-1.393v-13.662
		c0-0.77,0.625-1.393,1.393-1.393h13.663c0.77,0,1.394,0.623,1.394,1.393V223.678z"/>
	<path fill="#55C9EF" d="M459.912,223.678c0,0.77-0.623,1.393-1.393,1.393h-13.663c-0.769,0-1.394-0.623-1.394-1.393v-13.662
		c0-0.77,0.625-1.393,1.394-1.393h13.663c0.77,0,1.393,0.623,1.393,1.393V223.678z"/>
	<path fill="#55C9EF" d="M439.041,243.485c0,0.769-0.624,1.393-1.394,1.393h-13.663c-0.768,0-1.393-0.624-1.393-1.393v-13.663
		c0-0.77,0.625-1.393,1.393-1.393h13.663c0.77,0,1.394,0.623,1.394,1.393V243.485z"/>
	<path fill="#55C9EF" d="M459.912,243.485c0,0.769-0.623,1.393-1.393,1.393h-13.663c-0.769,0-1.394-0.624-1.394-1.393v-13.663
		c0-0.77,0.625-1.393,1.394-1.393h13.663c0.77,0,1.393,0.623,1.393,1.393V243.485z"/>
	<path fill="#55C9EF" d="M439.041,258.614v-8.142c0-0.77-0.624-1.393-1.394-1.393h-13.663c-0.768,0-1.393,0.623-1.393,1.393v8.142
		H439.041z"/>
	<path fill="#55C9EF" d="M459.912,258.614v-8.142c0-0.77-0.623-1.393-1.393-1.393h-13.663c-0.769,0-1.394,0.623-1.394,1.393v8.142
		H459.912z"/>
	<g>
		<polygon fill="#FFFFFF" points="430.92,252.787 431.35,252.561 431.78,252.787 431.699,252.308 432.046,251.969 431.565,251.898 
			431.35,251.464 431.135,251.898 430.654,251.969 431.003,252.308 		"/>
		<polygon fill="#FFFFFF" points="428.171,252.499 428.723,252.209 429.274,252.499 429.168,251.885 429.615,251.449 
			428.999,251.359 428.723,250.801 428.447,251.359 427.83,251.449 428.276,251.885 		"/>
		<polygon fill="#FFFFFF" points="429.329,253.807 429.111,253.365 428.894,253.807 428.406,253.878 428.759,254.223 
			428.675,254.708 429.111,254.478 429.548,254.708 429.464,254.223 429.817,253.878 		"/>
		<polygon fill="#FFFFFF" points="436.658,257.163 436.151,257.09 435.924,256.63 435.697,257.09 435.19,257.163 435.557,257.521 
			435.47,258.026 435.924,257.787 436.378,258.026 436.291,257.521 		"/>
		<polygon fill="#FFFFFF" points="435.642,255.548 436.183,255.832 436.079,255.23 436.517,254.803 435.912,254.716 
			435.642,254.168 435.371,254.716 434.766,254.803 435.203,255.23 435.101,255.832 		"/>
		<path fill="#FFFFFF" d="M433.246,253.113l-1.611,1.611c-0.124,0.22-0.085,0.51,0.1,0.695c0.186,0.186,0.479,0.225,0.697,0.1
			l1.609-1.611c0.22-0.219,0.22-0.575,0-0.795C433.821,252.895,433.466,252.895,433.246,253.113z"/>
		<polygon fill="#FFFFFF" points="433.313,257.618 433.104,257.19 432.893,257.618 432.421,257.686 432.762,258.019 
			432.682,258.488 433.104,258.266 433.524,258.488 433.444,258.019 433.785,257.686 		"/>
	</g>
	<path fill="#FFFFFF" d="M447.069,258.614v-5.797l3.51,2.671l-2.077,2.358l0.061,0.061l2.407-2.122l1.467,1.116l1.467-1.116
		l2.406,2.122l0.061-0.061l-2.076-2.36l3.509-2.669v5.797h0.488v-6.593h-11.71v6.593H447.069z M457.4,252.51l-4.964,3.778
		l-4.966-3.778H457.4z"/>
	<g>
		<g>
			<path fill="#FFFFFF" d="M450.4,241.947v-1.781h-4.521v-2.633h4.521v-1.781l3.607,3.098L450.4,241.947z M446.152,239.893h4.521
				v1.459l2.915-2.502l-2.915-2.503v1.46h-4.521V239.893z"/>
		</g>
		<g>
			<path fill="#FFFFFF" d="M453.936,237.559l-3.609-3.099l3.609-3.098v1.781h4.521v2.632h-4.521V237.559z M450.746,234.46
				l2.916,2.504v-1.461h4.521v-2.085h-4.521v-1.461L450.746,234.46z"/>
		</g>
	</g>
	<g>
		<polygon fill="#FFFFFF" points="446.327,220.401 446.327,212.167 445.53,212.167 445.53,221.198 445.638,221.198 446.327,221.198 
			458.3,221.198 458.3,220.4 		"/>
		<polygon fill="#FFFFFF" points="448.99,216.077 447.131,217.27 447.131,219.6 448.99,219.6 		"/>
		<polygon fill="#FFFFFF" points="449.965,215.451 449.965,219.6 451.824,219.6 451.824,215.746 450.829,214.897 		"/>
		<polygon fill="#FFFFFF" points="452.797,216.576 452.797,219.6 454.656,219.6 454.656,216.681 453.666,217.318 		"/>
		<polygon fill="#FFFFFF" points="457.49,219.6 457.49,214.854 455.631,216.052 455.631,219.6 		"/>
		<polygon fill="#FFFFFF" points="453.732,216.328 457.49,213.905 457.49,212.934 453.735,215.353 450.896,212.935 447.131,215.351 
			447.131,216.322 450.896,213.906 		"/>
	</g>
	<g>
		<path fill="#FFFFFF" d="M425.638,243.073h4.184v-12.675h-4.184V243.073z M425.908,230.669h3.644v12.136h-3.644V230.669z"/>
		<path fill="#FFFFFF" d="M430.969,233.098v9.976h4.185v-9.976H430.969z M434.883,242.805h-3.644v-9.437h3.644V242.805z"/>
		<path fill="#FFFFFF" d="M427.729,239.84c-0.483,0-0.876,0.393-0.876,0.877s0.393,0.877,0.876,0.877
			c0.485,0,0.878-0.393,0.878-0.877S428.214,239.84,427.729,239.84z M427.729,241.459c-0.408,0-0.741-0.334-0.741-0.742
			c0-0.409,0.333-0.743,0.741-0.743c0.41,0,0.742,0.334,0.742,0.743C428.471,241.125,428.139,241.459,427.729,241.459z"/>
		<path fill="#FFFFFF" d="M433.061,241.594c0.484,0,0.877-0.393,0.877-0.877s-0.393-0.877-0.877-0.877
			c-0.485,0-0.877,0.393-0.877,0.877S432.575,241.594,433.061,241.594z M433.061,239.974c0.409,0,0.742,0.334,0.742,0.743
			c0,0.408-0.333,0.742-0.742,0.742s-0.742-0.334-0.742-0.742C432.318,240.308,432.651,239.974,433.061,239.974z"/>
	</g>
	<path fill="#FFFFFF" d="M427.746,258.614h1.591l2.87-2.87c-0.204,0.109-0.448,0.023-0.635-0.162
		c-0.185-0.185-0.271-0.429-0.162-0.632L427.746,258.614z"/>
	<path fill="#FFFFFF" d="M437.328,212.469h-9.97v0.743c-0.09-0.021-0.2-0.03-0.333-0.03c-0.672,0-3.83,2.598-4.457,3.118
		l0.186,0.224c1.419-1.18,3.834-3.05,4.271-3.05c0.2,0,0.293,0.024,0.333,0.042v3.919l-0.922,0.425l0.121,0.264l4.666-2.152
		c0.054-0.021,0.665-0.234,0.992,0.368c0.319,0.591-0.284,1.033-0.361,1.086l-2.488,1.196l-0.019,0.02
		c-0.385,0.398-1.482,1.479-1.938,1.674c-1.312,0.559-3.715,0.333-3.739,0.33l-0.028,0.289c0.045,0.004,0.537,0.051,1.192,0.051
		c0.83,0,1.918-0.074,2.689-0.402c0.164-0.071,0.387-0.229,0.623-0.421c0.223,0.275,0.561,0.442,0.921,0.442
		c0.119,0,0.237-0.021,0.35-0.055c0.146,0.486,0.598,0.843,1.131,0.843c0.471,0,0.89-0.276,1.077-0.695
		c0.17,0.096,0.366,0.151,0.575,0.151c0.651,0,1.181-0.53,1.181-1.181v-0.173h3.946V212.469z M429.068,220.312
		c-0.273,0-0.531-0.127-0.697-0.339c0.18-0.154,0.36-0.32,0.525-0.479h0.472v0.717c0,0.017,0.002,0.032,0.003,0.048
		C429.274,220.294,429.172,220.312,429.068,220.312z M430.549,221.102c-0.49,0-0.891-0.399-0.891-0.891v-0.717h1.363v0.173
		c0,0.333,0.139,0.635,0.363,0.85C431.259,220.865,430.926,221.102,430.549,221.102z M433.092,219.667
		c0,0.491-0.399,0.889-0.891,0.889c-0.49,0.001-0.89-0.397-0.89-0.889v-0.173h1.78V219.667z M437.038,219.204h-7.842
		c0.17-0.167,0.296-0.295,0.343-0.345l2.452-1.178l0.016-0.01c0.322-0.211,0.833-0.788,0.464-1.471
		c-0.367-0.679-1.05-0.625-1.358-0.5l-3.464,1.599v-2.101h9.39V219.204z M437.038,213.927h-9.39v-1.168l9.39,0.001V213.927z"/>
	<path fill="#F9BB88" stroke="#E1AB7C" stroke-miterlimit="10" d="M469.83,239.754c0,0-6.083-15.207-10.719-18.036
		c-4.634-2.817-5.502-9.193-10.717-4.126c-5.215,5.07,0.291,12.051,2.029,13.629c1.736,1.586,4.923,2.993,4.923,2.993
		s2.317,5.19,4.056,8.26c0,0-10.429,20.456,7.241,37.546"/>
	<path fill="#F9BB88" d="M428.637,242.879c-1.385,2.615-4.623,3.604-7.234,2.22l-8.968-4.757c-2.61-1.39-3.606-4.628-2.216-7.24l0,0
		c1.387-2.611,4.624-3.602,7.235-2.221l8.968,4.762C429.031,237.031,430.023,240.272,428.637,242.879L428.637,242.879z"/>
	<path fill="#F9BB88" d="M427.728,255.5c-1.187,2.248-3.968,3.096-6.212,1.896l-7.703-4.116c-2.24-1.2-3.099-3.993-1.914-6.239l0,0
		c1.189-2.249,3.969-3.096,6.214-1.896l7.701,4.116C428.058,250.461,428.914,253.254,427.728,255.5L427.728,255.5z"/>
	<path fill="#FCE4C3" d="M420.392,240.205c0-1.854,1.5-3.355,3.351-3.355c1.85,0,3.352,1.502,3.352,3.355
		c0,1.847-1.502,3.346-3.352,3.346C421.892,243.549,420.392,242.052,420.392,240.205z"/>
	<path fill="#FCE4C3" d="M421.365,253.406c0-1.308,1.057-2.36,2.361-2.36s2.362,1.053,2.362,2.36c0,1.307-1.058,2.361-2.362,2.361
		S421.365,254.713,421.365,253.406z"/>
	<circle fill="#FFFFFF" cx="469.861" cy="290.078" r="3.99"/>
	<g>
		<g>
			<path fill="#169DD9" d="M479.948,182.497c-0.362,0-0.484,0.078-0.524,0.125c-0.078,0.087-0.066,0.28-0.052,0.387
				c0.008,0.048,0.146,0.359,1.858,0.437c0.14,0.006,0.279,0.008,0.417,0.008c2.749,0,4.569-1.096,6.127-2.281
				c1.357-1.096,4.495-4.209,4.136-9.293c-0.294-4.235-3.492-7.096-7.749-6.754c-1.81,0.178-3.832,1.059-5.146,2.245
				c-1.297,1.195-2.297,2.886-2.739,4.636c-0.612,2.333-0.244,4.602,1.012,6.229c1.053,1.365,2.638,2.117,4.462,2.117
				c3.104,0,4.937-1.894,5.753-3.023c1.228-1.669,2.044-4.518,0.943-6.834c-0.657-1.3-1.998-2.198-3.413-2.282
				c-0.227-0.022-0.429-0.033-0.623-0.033c-1.273,0-2.4,0.436-3.445,1.33c-0.99,0.911-1.826,2.558-1.936,3.82
				c-0.107,1.649,0.475,2.97,1.6,3.612c0.431,0.224,0.91,0.341,1.408,0.341c1.866,0,3.668-1.643,3.856-3.516
				c0.072-0.806-0.11-1.535-0.503-1.999c-0.273-0.323-0.633-0.505-1.067-0.54c-0.04-0.002-0.086-0.003-0.131-0.003
				c-1.046,0-1.607,0.711-1.895,1.307c-0.181,0.369-0.333,1.141-0.175,1.46c0.033,0.069,0.067,0.08,0.104,0.088
				c0.092,0.025,0.142,0.033,0.189,0.033c0.264,0,0.484-0.237,0.536-0.457c0.021-0.103,0.022-0.233,0.022-0.373
				c0.001-0.371,0.004-1.144,0.975-1.167c0,0,0.001,0,0.002,0c0.399,0,0.706,0.166,0.896,0.468c0.357,0.57,0.229,1.527-0.086,2.178
				c-0.325,0.754-1.148,1.444-1.949,1.625c-1.082,0.223-1.9-0.119-2.429-0.915c-0.622-0.938-0.699-2.443-0.186-3.663
				c0.688-1.64,2.441-2.83,4.167-2.83c0.521,0,1.023,0.106,1.492,0.317c0.768,0.323,1.511,1.088,1.885,1.944
				c0.832,1.943,0.11,4.187-0.761,5.518c-0.815,1.155-2.225,2.553-4.363,2.709c-0.231,0.027-0.474,0.041-0.708,0.041
				c-1.821,0-3.385-0.87-4.291-2.387c-1.557-2.572-0.623-6.175,1.046-8.258c0.894-1.109,2.854-2.97,5.953-2.97
				c2.325,0,4.239,1.049,5.394,2.952c1.436,2.371,1.431,5.688-0.014,8.452c-1.389,2.67-4.43,5.544-8.749,5.32
				c-0.164-0.011-0.339-0.032-0.52-0.054C480.472,182.532,480.198,182.497,479.948,182.497z M485.392,162.9
				c4.067,0,6.78,2.576,7.868,4.784c0.111,0.234,0.207,0.555,0.317,0.926c0.135,0.452,0.415,1.393,0.626,1.507
				c0.042,0.01,0.089,0.016,0.133,0.016c0.289,0,0.465-0.282,0.494-0.435c0.057-0.303-0.244-1.126-0.405-1.567l-0.028-0.078
				c-1.078-2.908-3.927-6.02-8.688-6.02c-0.289,0-0.583,0.012-0.883,0.035c-0.658,0.037-2.383,0.135-2.876,0.708
				c-0.09,0.104-0.123,0.211-0.11,0.349c0.029,0.255,0.094,0.255,0.236,0.255l0,0c0.181,0,0.431-0.062,0.671-0.122
				c0.136-0.035,0.272-0.068,0.404-0.094C483.894,162.989,484.651,162.9,485.392,162.9z"/>
		</g>
		<g>
			<path fill="#0B7C99" d="M485.392,162.9c4.067,0,6.78,2.576,7.868,4.784c0.111,0.234,0.206,0.555,0.317,0.926
				c0.135,0.452,0.415,1.393,0.626,1.507c0.042,0.01,0.089,0.016,0.133,0.016c0.289,0,0.465-0.282,0.494-0.435
				c0.057-0.303-0.244-1.126-0.405-1.567l-0.028-0.078c-1.143-3.085-4.321-6.391-9.57-5.984c-0.658,0.037-2.383,0.135-2.876,0.708
				c-0.09,0.104-0.123,0.211-0.11,0.349c0.029,0.255,0.094,0.255,0.236,0.255c0.181,0,0.431-0.062,0.671-0.122
				c0.137-0.035,0.272-0.068,0.404-0.094C483.894,162.989,484.651,162.9,485.392,162.9z"/>
		</g>
		<g>
			<path fill="#0B7C99" d="M479.948,182.497c-0.362,0-0.484,0.079-0.524,0.125c-0.078,0.087-0.066,0.28-0.052,0.387
				c0.008,0.048,0.146,0.359,1.858,0.437c0.141,0.006,0.279,0.008,0.417,0.008c2.749,0,4.569-1.096,6.127-2.281
				c1.357-1.096,4.495-4.209,4.136-9.293c-0.293-4.235-3.491-7.1-7.749-6.754c-1.81,0.178-3.832,1.059-5.146,2.245
				c-1.297,1.195-2.297,2.886-2.739,4.636c-0.612,2.333-0.244,4.602,1.012,6.229c1.053,1.365,2.638,2.117,4.462,2.117
				c3.104,0,4.937-1.894,5.753-3.023c1.228-1.669,2.044-4.518,0.943-6.834c-0.657-1.3-1.998-2.198-3.413-2.282
				c-0.227-0.022-0.429-0.033-0.623-0.033c-1.273,0-2.4,0.436-3.445,1.33c-0.99,0.911-1.826,2.558-1.936,3.82
				c-0.107,1.649,0.475,2.97,1.6,3.612c0.432,0.224,0.91,0.341,1.408,0.341c1.865,0,3.668-1.643,3.856-3.516
				c0.072-0.806-0.11-1.535-0.503-1.999c-0.273-0.323-0.633-0.505-1.067-0.54c-0.04-0.002-0.086-0.003-0.131-0.003
				c-1.046,0-1.607,0.711-1.895,1.307c-0.181,0.369-0.333,1.141-0.175,1.46c0.033,0.069,0.067,0.08,0.104,0.088
				c0.092,0.025,0.142,0.033,0.189,0.033c0.264,0,0.484-0.237,0.536-0.457c0.021-0.103,0.022-0.233,0.022-0.373
				c0.001-0.371,0.004-1.144,0.975-1.167c0,0,0.001,0,0.002,0c0.399,0,0.706,0.166,0.896,0.468c0.357,0.571,0.229,1.527-0.086,2.178
				c-0.325,0.754-1.148,1.444-1.949,1.625c-1.082,0.22-1.9-0.119-2.428-0.915c-0.623-0.938-0.7-2.443-0.187-3.663
				c0.688-1.64,2.441-2.83,4.167-2.83c0.521,0,1.023,0.106,1.492,0.317c0.768,0.323,1.511,1.088,1.885,1.944
				c0.832,1.943,0.11,4.187-0.761,5.518c-0.815,1.155-2.225,2.553-4.363,2.709c-0.231,0.027-0.474,0.041-0.708,0.041
				c-1.821,0-3.385-0.87-4.291-2.387c-1.557-2.572-0.623-6.175,1.046-8.258c0.894-1.109,2.854-2.97,5.953-2.97
				c2.325,0,4.239,1.049,5.394,2.952c1.436,2.371,1.431,5.688-0.014,8.452c-1.389,2.669-4.437,5.545-8.749,5.32
				c-0.164-0.011-0.339-0.032-0.52-0.054C480.472,182.532,480.198,182.497,479.948,182.497z"/>
		</g>
	</g>
	<g>
		<g>
			<path fill="#0B7C99" d="M391.342,182.376v-3.598h-9.167v-5.337h9.167v-3.598l7.336,6.248L391.342,182.376z M382.716,178.206
				h9.169v2.968l5.942-5.082l-5.942-5.045v2.977h-9.169V178.206z"/>
		</g>
		<g>
			<path fill="#0B7C99" d="M398.508,173.503l-7.304-6.307l7.304-6.305v3.636h9.191v5.377h-9.191V173.503z M392.058,167.196
				l5.903,5.104v-2.979h9.163v-4.25h-9.163v-2.979L392.058,167.196z"/>
		</g>
	</g>
	<path fill="#5CC1A2" d="M51.886,243.02c0,0.881-0.715,1.596-1.596,1.596H28.208c-0.881,0-1.596-0.715-1.596-1.596v-4.573
		c0-0.882,0.714-1.597,1.596-1.597H50.29c0.881,0,1.596,0.715,1.596,1.597V243.02z"/>
	<path fill="#FFFFFF" d="M461.135,201.885c0,0.881-0.715,1.596-1.597,1.596h-36.576c-0.882,0-1.597-0.715-1.597-1.596v-0.582
		c0-0.881,0.715-1.596,1.597-1.596h36.576c0.882,0,1.597,0.715,1.597,1.596V201.885z"/>
	<g>
		<path fill="#F4F0EF" d="M263.665,174.159c-0.878,1.053-2.003,1.614-3.267,1.614c-2.229,0-4.021-1.299-4.584-3.862h-1.105v-1.37
			l0.912-0.07c0-0.123,0-0.264,0-0.387c0-0.14,0-0.281,0.019-0.421h-0.931v-1.37l1.105-0.088c0.598-2.563,2.406-3.986,4.76-3.986
			c1.053,0,2.143,0.457,2.95,1.37l-1.651,1.615c-0.421-0.386-0.843-0.667-1.404-0.667c-0.808,0-1.369,0.579-1.633,1.65h3.459v1.476
			h-3.652c0,0.104,0,0.211,0,0.316c0,0.157,0,0.315,0.018,0.456h2.933v1.476h-2.722c0.315,1.018,0.895,1.544,1.703,1.544
			c0.596,0,1.053-0.314,1.439-0.842L263.665,174.159z"/>
	</g>
	<g>
		<g>
			<path fill="#0B7C99" d="M4.837,182.376h8.59v-26.062h-8.59V182.376z M5.403,156.896h7.482v24.9H5.403V156.896z"/>
			<path fill="#0B7C99" d="M15.797,161.896v20.479h8.611v-20.479H15.797z M23.843,181.797h-7.501v-19.396h7.501V181.797z"/>
			<path fill="#0B7C99" d="M9.142,175.72c-1,0-1.804,0.804-1.804,1.833c0,0.95,0.804,1.758,1.804,1.758
				c0.981,0,1.791-0.808,1.791-1.758C10.933,176.523,10.123,175.72,9.142,175.72z M9.142,179.054c-0.836,0-1.533-0.657-1.533-1.501
				s0.697-1.559,1.533-1.559c0.84,0,1.53,0.715,1.53,1.559S9.982,179.054,9.142,179.054z"/>
			<path fill="#0B7C99" d="M20.093,179.311c1.011,0,1.821-0.808,1.821-1.758c0-1.029-0.81-1.833-1.821-1.833
				c-0.992,0-1.799,0.804-1.799,1.833C18.293,178.503,19.101,179.311,20.093,179.311z M20.093,175.994
				c0.844,0,1.529,0.715,1.529,1.559s-0.685,1.501-1.529,1.501c-0.845,0-1.505-0.657-1.505-1.501S19.248,175.994,20.093,175.994z"/>
		</g>
		<g>
			<g>
				<path fill="#0B7C99" d="M125.941,180.12h-4.45v-16.352h4.45V180.12z M122.037,179.568h3.323v-15.218h-3.323V179.568z"/>
			</g>
			<g>
				<path fill="#0B7C99" d="M120.189,180.12h-4.456v-10.736h4.456V180.12z M116.273,179.568h3.334v-9.633h-3.334V179.568z"/>
			</g>
			<g>
				<path fill="#0B7C99" d="M114.431,180.12h-4.455v-13.701h4.455V180.12z M110.521,179.568h3.334v-12.645h-3.334V179.568z"/>
			</g>
			<g>
				<path fill="#0B7C99" d="M108.665,180.12h-4.447v-6.498h4.447V180.12z M104.77,179.568h3.333v-5.363h-3.333V179.568z"/>
			</g>
			<path fill="#0B7C99" d="M123.698,158.618c-0.588,0-1.091,0.434-1.091,1.085c0,0.161,0.064,0.382,0.141,0.576l-4.201,4.093
				c-0.2-0.121-0.377-0.194-0.606-0.194c-0.266,0-0.538,0.134-0.735,0.271l-3.901-2.501l0,0c0-0.62-0.492-1.133-1.116-1.133
				c-0.604,0-1.085,0.513-1.085,1.133c0,0.083,0.017,0.209,0.038,0.327l-4.158,4.23c-0.185-0.053-0.352-0.078-0.547-0.078
				c-0.608,0-1.09,0.477-1.09,1.086c0,0.594,0.482,1.084,1.09,1.084c0.618,0,1.109-0.49,1.109-1.084c0-0.232-0.06-0.431-0.156-0.609
				l4.045-4.137c0.198,0.157,0.48,0.297,0.754,0.297c0.404,0,0.757-0.259,0.976-0.567l3.75,2.427
				c-0.035,0.133-0.059,0.271-0.059,0.345c0,0.645,0.49,1.159,1.085,1.159c0.634,0,1.124-0.515,1.124-1.159
				c0-0.163-0.053-0.387-0.134-0.501l4.207-4.104c0.152,0.054,0.378,0.126,0.562,0.126c0.643,0,1.122-0.49,1.122-1.086
				C124.82,159.052,124.341,158.618,123.698,158.618z"/>
		</g>
	</g>
	<g>
		<path fill="#0B7C99" d="M65.522,153.872c-1.058,0-1.913,0.854-1.913,1.913c0,0.891,0.61,1.638,1.435,1.854v2.45
			c0,0.265,0.215,0.479,0.479,0.479c0.263,0,0.479-0.215,0.479-0.479v-2.45c0.825-0.216,1.435-0.963,1.435-1.854
			C67.436,154.727,66.581,153.872,65.522,153.872z M65.522,156.742c-0.526,0-0.956-0.432-0.956-0.957
			c0-0.526,0.43-0.957,0.956-0.957s0.957,0.431,0.957,0.957C66.479,156.311,66.049,156.742,65.522,156.742z"/>
		<path fill="#0B7C99" d="M71.826,149.503v-3.796c0-3.549-2.888-6.438-6.437-6.438c-3.55,0-6.438,2.889-6.438,6.438v3.796h-3.055
			v14.893h18.986v-14.893H71.826z M59.456,145.707c0-3.271,2.661-5.932,5.933-5.932c3.271,0,5.933,2.661,5.933,5.932v3.796H59.456
			V145.707z M74.318,163.817H56.441v-13.81h17.877V163.817z"/>
	</g>
</g>
<g>
	<path fill="#FFFFFF" d="M330.378,19.529c-0.126,0.001-0.251,0.004-0.377,0.009c-0.848,0.035-1.698,0.214-2.484,0.544
		c-0.736,0.284-1.417,0.698-2.018,1.208c-0.604,0.497-1.128,1.09-1.548,1.751c-0.436,0.664-0.763,1.401-0.954,2.168
		c-0.086,0.316-0.146,0.636-0.188,0.957c-0.044,0.329-0.064,0.663-0.064,0.996c-0.006,0.974,0.174,1.959,0.554,2.861
		c0.285,0.735,0.699,1.416,1.209,2.017c0.496,0.604,1.086,1.13,1.749,1.549c0.665,0.435,1.403,0.762,2.17,0.954
		c0.313,0.085,0.634,0.146,0.956,0.188c0.329,0.043,0.662,0.064,0.996,0.064c0.974,0.005,1.959-0.175,2.86-0.555
		c0.735-0.285,1.416-0.698,2.017-1.207c0.604-0.499,1.13-1.089,1.549-1.752c0.436-0.664,0.762-1.401,0.955-2.169
		c0.085-0.313,0.146-0.634,0.188-0.956c0.044-0.329,0.063-0.662,0.063-0.994c0.006-0.976-0.174-1.961-0.554-2.862
		c-0.285-0.735-0.699-1.416-1.208-2.017c-0.498-0.604-1.089-1.129-1.75-1.549c-0.665-0.435-1.402-0.762-2.17-0.954
		c-0.315-0.084-0.634-0.146-0.956-0.188c-0.205-0.026-0.411-0.046-0.618-0.054C330.63,19.533,330.503,19.53,330.378,19.529"/>
	<path fill="#FFFFFF" d="M337.272,51.801V40.32c-0.081,0-0.163,0-0.245,0.001c-0.551,0.002-1.1,0.013-1.649,0.041
		c-0.487,0.021-0.974,0.053-1.461,0.099c-0.452,0.042-0.904,0.094-1.354,0.159c-0.421,0.062-0.839,0.135-1.252,0.224
		c-0.16,0.034-0.317,0.07-0.475,0.108c-0.153,0.036-0.306,0.077-0.458,0.118c-1.048,0.285-2.087,0.678-2.991,1.288
		c-0.624,0.391-1.188,0.882-1.662,1.45c-0.49,0.57-0.886,1.221-1.189,1.908c-0.391,0.859-0.639,1.778-0.791,2.707
		c-0.093,0.532-0.154,1.065-0.195,1.601c-0.031,0.408-0.052,0.816-0.06,1.225c-0.005,0.186-0.005,0.368-0.007,0.552l-0.001,0.048
		c0,0.383,0.001,0.767,0.001,1.149c0.004,2.675,0.001,5.353,0,8.027c-0.001,2.548,0,5.095,0,7.644v7.645v7.643v3.057v1.913v1.146
		c0.287-0.001,0.575-0.002,0.863-0.006c0.544-0.011,1.091-0.03,1.635-0.063c1.196-0.071,2.392-0.201,3.564-0.463
		c1.042-0.215,2.066-0.532,3.011-1.021c0.731-0.364,1.414-0.83,1.996-1.404c0.58-0.554,1.061-1.213,1.43-1.926
		c0.42-0.785,0.703-1.637,0.891-2.502c0.129-0.564,0.217-1.135,0.279-1.709c0.062-0.552,0.098-1.109,0.11-1.668
		c0.008-0.255,0.01-0.512,0.012-0.766V51.849L337.272,51.801z"/>
	<path fill="#FFFFFF" d="M289.65,36.199c-0.445,0.007-0.888,0.015-1.332,0.032c-2.99,0.124-5.99,0.76-8.766,1.925
		c-2.596,1.006-5,2.463-7.117,4.261c-2.135,1.751-3.986,3.842-5.466,6.179c-1.536,2.346-2.692,4.945-3.369,7.653
		c-0.297,1.109-0.515,2.238-0.661,3.375c-0.097,0.725-0.164,1.451-0.195,2.181c-0.02,0.444-0.025,0.889-0.031,1.332v26.936
		c0.287-0.002,0.575-0.003,0.863-0.007c1.744-0.025,3.496-0.133,5.201-0.525c1.041-0.213,2.065-0.533,3.01-1.022
		c0.73-0.364,1.415-0.829,1.996-1.402c0.579-0.555,1.061-1.215,1.429-1.928c0.42-0.784,0.702-1.635,0.892-2.502
		c0.128-0.563,0.217-1.135,0.279-1.708c0.061-0.554,0.098-1.111,0.11-1.667c0.007-0.256,0.009-0.512,0.011-0.767V63.137
		c0.004-0.216,0.006-0.434,0.016-0.648c0.061-1.461,0.371-2.924,0.939-4.277c0.49-1.268,1.202-2.441,2.078-3.475
		c0.856-1.042,1.877-1.945,3.016-2.666c1.146-0.752,2.413-1.313,3.736-1.646c0.541-0.146,1.09-0.252,1.646-0.323
		c0.566-0.075,1.139-0.111,1.714-0.109c1.679-0.01,3.376,0.301,4.927,0.954c1.267,0.489,2.438,1.201,3.473,2.079
		c1.043,0.856,1.95,1.875,2.668,3.016c0.594,0.913,1.063,1.903,1.406,2.941c0.387,1.13,0.621,2.316,0.654,3.506
		c0.01,0.215,0.013,0.433,0.017,0.648v15.407c0.002,0.255,0.004,0.51,0.011,0.766c0.031,1.399,0.168,2.812,0.592,4.151
		c0.232,0.823,0.572,1.617,1.042,2.334c0.427,0.673,0.965,1.276,1.588,1.772c0.647,0.53,1.388,0.942,2.162,1.261
		c1.169,0.495,2.416,0.78,3.671,0.951c0.654,0.096,1.309,0.159,1.966,0.205c0.632,0.045,1.264,0.07,1.896,0.081
		c0.289,0.005,0.577,0.005,0.864,0.006V63.137c-0.007-0.443-0.013-0.888-0.032-1.331c-0.123-2.992-0.758-5.99-1.923-8.766
		c-1.006-2.596-2.464-5.001-4.262-7.118c-1.753-2.135-3.842-3.984-6.179-5.465c-2.346-1.537-4.944-2.692-7.654-3.369
		c-1.108-0.298-2.236-0.515-3.375-0.663c-0.723-0.095-1.451-0.163-2.181-0.194C290.537,36.212,290.093,36.205,289.65,36.199"/>
	<path fill="#FFFFFF" d="M242.025,40.32v38.223c0.002,0.256,0.004,0.511,0.01,0.766c0.033,1.398,0.169,2.813,0.592,4.152
		c0.232,0.821,0.573,1.617,1.043,2.334c0.426,0.672,0.965,1.276,1.587,1.771c0.647,0.531,1.387,0.943,2.161,1.26
		c1.169,0.496,2.417,0.782,3.671,0.952c0.653,0.096,1.31,0.16,1.968,0.206c0.631,0.045,1.262,0.07,1.896,0.081
		c0.288,0.004,0.575,0.005,0.862,0.006v-1.146v-2.295v-5.732c0-2.549,0.002-5.096,0-7.645c0-2.55,0-5.098,0-7.645
		c0.002-2.548,0.006-5.096,0-7.645c-0.001-1.021-0.004-2.041,0-3.058c0.004-1.019,0.015-2.034,0-3.059
		c-0.021-1.657-0.105-3.336-0.603-4.918c-0.231-0.82-0.573-1.616-1.042-2.332c-0.427-0.674-0.965-1.278-1.588-1.773
		c-0.646-0.53-1.387-0.942-2.163-1.261c-1.167-0.497-2.415-0.78-3.669-0.951c-0.654-0.096-1.309-0.16-1.967-0.206
		c-0.63-0.044-1.264-0.07-1.896-0.079C242.602,40.323,242.312,40.321,242.025,40.32"/>
	<path fill="#FFFFFF" d="M248.878,19.217c-0.304,0.007-0.608,0.014-0.912,0.031c-2.051,0.115-4.075,0.696-5.978,1.508
		c-2.26,0.915-4.352,2.149-6.318,3.559c-2.076,1.455-4.015,3.102-5.815,4.894c-1.745,1.707-3.361,3.546-4.776,5.531
		c-0.528,0.727-1.028,1.472-1.499,2.235c-0.385,0.623-0.751,1.26-1.078,1.914c-0.134,0.265-0.261,0.533-0.389,0.801
		c-0.122-0.074-0.243-0.146-0.366-0.218c-0.246-0.144-0.493-0.282-0.742-0.417c-0.628-0.338-1.268-0.653-1.92-0.939
		c-0.874-0.391-1.772-0.73-2.686-1.016c-0.921-0.296-1.861-0.539-2.813-0.728c-0.965-0.199-1.941-0.34-2.923-0.423
		c-0.398-0.036-0.797-0.061-1.197-0.079c-0.251-0.011-0.503-0.019-0.754-0.022c-0.152-0.004-0.303-0.004-0.455-0.005
		c-0.443,0.007-0.886,0.014-1.328,0.033c-0.871,0.037-1.74,0.123-2.604,0.253c-2.101,0.303-4.17,0.854-6.138,1.665
		c-2.579,1.011-4.987,2.457-7.1,4.249c-2.135,1.744-3.978,3.832-5.45,6.164c-1.533,2.339-2.685,4.933-3.361,7.634
		c-0.298,1.106-0.515,2.23-0.659,3.366c-0.155,1.16-0.231,2.332-0.227,3.503c-0.003,0.708,0.025,1.415,0.083,2.121
		c0.045,0.581,0.109,1.157,0.193,1.732c0.082,0.57,0.183,1.136,0.303,1.698c0.116,0.559,0.251,1.111,0.405,1.66
		c0.062,0.219,0.124,0.436,0.191,0.651c0.066,0.216,0.136,0.432,0.207,0.646c0.25,0.763,0.514,1.523,0.821,2.264
		c0.251,0.617,0.531,1.218,0.833,1.812c0.299,0.588,0.617,1.168,0.959,1.734c0.338,0.565,0.699,1.117,1.081,1.654
		c0.151,0.215,0.307,0.428,0.464,0.637c0.099,0.133,0.199,0.264,0.3,0.393c0.061,0.078,0.122,0.155,0.182,0.231
		c-0.109,0.096-0.219,0.191-0.328,0.288c-0.216,0.195-0.426,0.396-0.632,0.601c-0.516,0.513-1,1.06-1.447,1.635
		c-0.602,0.764-1.135,1.585-1.591,2.445c-0.469,0.866-0.857,1.773-1.163,2.71c-0.32,0.95-0.552,1.932-0.687,2.925
		c-0.061,0.405-0.104,0.813-0.131,1.221c-0.031,0.413-0.045,0.829-0.044,1.243c-0.001,0.416,0.014,0.83,0.046,1.244
		c0.022,0.34,0.058,0.681,0.103,1.02c0.044,0.334,0.099,0.667,0.163,0.998c0.063,0.328,0.135,0.654,0.219,0.978
		c0.033,0.129,0.067,0.258,0.102,0.386c0.035,0.127,0.073,0.255,0.111,0.382c0.418,1.392,0.929,2.771,1.652,4.033
		c0.568,1.052,1.281,2.024,2.083,2.916c0.792,0.896,1.671,1.71,2.631,2.419c0.958,0.727,1.997,1.344,3.091,1.837
		c0.441,0.204,0.891,0.388,1.347,0.552c0.286,0.104,0.575,0.201,0.869,0.287c0.176,0.054,0.353,0.102,0.53,0.15l0.067,0.02
		l0.188,0.048l0.08,0.021l0.068,0.015l0.066,0.018l0.202,0.046l0.067,0.014l0.066,0.016l0.069,0.015l0.137,0.028l0.067,0.014
		l0.067,0.014l0.068,0.014l0.07,0.013l0.068,0.013l0.067,0.012l0.069,0.013l0.068,0.011l0.224,0.035l0.053,0.009l0.068,0.012
		l0.208,0.028l0.069,0.01l0.142,0.018l0.069,0.008l0.209,0.025l0.07,0.006l0.07,0.008l0.353,0.031l0.029,0.003l0.042,0.002
		l0.354,0.022l0.044,0.002l0.027,0.004c0.032,0.001,0.064,0.003,0.095,0.004c0.027,0.001,0.054,0.001,0.08,0.002
		c0.027,0.002,0.053,0.002,0.08,0.004c0.026,0.001,0.053,0.002,0.08,0.002c0.021,0.001,0.043,0.001,0.064,0.002l0.032,0.002
		c0.036,0,0.073,0,0.11,0.001c0.028,0.001,0.056,0.001,0.084,0.002c0.027,0,0.057,0,0.085,0.001h0.084h0.066h23.375
		c0.179,0.002,0.357,0.004,0.536,0.007c1.116,0.027,2.238,0.151,3.314,0.467c0.784,0.208,1.545,0.515,2.235,0.942
		c0.561,0.337,1.075,0.75,1.51,1.236c0.433,0.47,0.788,1.008,1.056,1.585c0.292,0.604,0.489,1.253,0.598,1.913
		c0.031,0.175,0.056,0.349,0.077,0.525c0.016,0.135,0.03,0.271,0.039,0.408c0.009,0.139,0.016,0.277,0.023,0.416
		c0.321-0.24,0.645-0.481,0.957-0.734c0.587-0.475,1.141-0.988,1.656-1.543c0.852-0.901,1.598-1.908,2.173-3.013
		c0.669-1.229,1.119-2.586,1.283-3.979c0.181-1.284,0.115-2.599-0.19-3.857c-0.273-1.222-0.771-2.39-1.464-3.431
		c-0.67-1.045-1.533-1.964-2.539-2.695c-1.019-0.771-2.188-1.346-3.416-1.661c-0.365-0.102-0.734-0.178-1.108-0.238
		c-0.287-0.048-0.575-0.084-0.865-0.105c-0.296-0.021-0.593-0.028-0.891-0.034h-28.36c-0.056,0-0.113-0.002-0.169-0.005
		c-0.383-0.015-0.768-0.098-1.122-0.247c-0.332-0.127-0.64-0.315-0.911-0.543c-0.273-0.227-0.511-0.493-0.7-0.793
		c-0.196-0.301-0.345-0.632-0.431-0.98c-0.038-0.141-0.066-0.284-0.084-0.431c-0.013-0.093-0.021-0.186-0.025-0.278
		c-0.002-0.059-0.003-0.115-0.004-0.171c0-0.057,0.001-0.112,0.004-0.168c0.005-0.109,0.016-0.22,0.032-0.329
		c0.037-0.265,0.105-0.525,0.208-0.774c0.125-0.327,0.306-0.632,0.528-0.902c0.217-0.272,0.476-0.506,0.768-0.697
		c0.292-0.199,0.615-0.35,0.954-0.443c0.137-0.04,0.279-0.07,0.42-0.093c0.089-0.014,0.181-0.025,0.272-0.033
		c0.054-0.003,0.111-0.004,0.167-0.006l0.094-0.003h9.532c0.014,0,0.027,0,0.039,0c0.011,0,0.022,0,0.034,0h0.033
		c0.02,0.003,0.039,0.003,0.06,0.003c0.443-0.008,0.888-0.014,1.331-0.033c0.874-0.037,1.744-0.125,2.609-0.254
		c2.108-0.303,4.181-0.857,6.157-1.67c2.583-1.014,4.998-2.463,7.117-4.262c2.14-1.748,3.987-3.841,5.465-6.179
		c1.536-2.347,2.692-4.946,3.37-7.654c0.298-1.108,0.515-2.236,0.661-3.374c0.155-1.163,0.234-2.338,0.226-3.511
		c0.002-0.803-0.038-1.606-0.119-2.404c-0.064-0.662-0.156-1.321-0.274-1.974c-0.117-0.654-0.259-1.3-0.426-1.941
		c-0.163-0.641-0.352-1.271-0.564-1.898c-0.083-0.249-0.17-0.498-0.262-0.745c-0.091-0.246-0.187-0.491-0.284-0.737
		c-0.35-0.891-0.708-1.781-1.132-2.642c-0.343-0.716-0.73-1.409-1.146-2.085c-0.412-0.675-0.852-1.333-1.321-1.966
		c-0.467-0.637-0.963-1.252-1.486-1.841c-0.207-0.236-0.421-0.469-0.637-0.697c-0.135-0.143-0.272-0.285-0.41-0.424
		c-0.083-0.085-0.167-0.168-0.251-0.25c0.124-0.146,0.248-0.295,0.375-0.44c0.26-0.302,0.526-0.599,0.798-0.891
		c0.717-0.778,1.464-1.529,2.24-2.248c1.077-1.011,2.209-1.966,3.399-2.842c1.165-0.874,2.386-1.671,3.674-2.358
		c1.188-0.647,2.433-1.2,3.736-1.548c0.48-0.135,0.971-0.242,1.465-0.317c0.297-0.045,0.596-0.079,0.896-0.095
		c0.177-0.01,0.353-0.015,0.529-0.018c0.009,0.008,0.019,0.014,0.028,0.021c0.017,0.015,0.036,0.028,0.054,0.041
		c0.045,0.035,0.09,0.067,0.137,0.101c0.06,0.043,0.121,0.087,0.184,0.128c0.062,0.042,0.126,0.083,0.189,0.123
		c0.063,0.041,0.128,0.079,0.192,0.119c0.026,0.016,0.052,0.03,0.077,0.046c0.027,0.015,0.054,0.03,0.079,0.045
		c0.016,0.011,0.033,0.018,0.048,0.026c0.015,0.008,0.028,0.015,0.042,0.022c0.014,0.009,0.027,0.016,0.042,0.023
		c0.024,0.013,0.049,0.025,0.075,0.04c0.068,0.035,0.137,0.07,0.206,0.105c0.058,0.028,0.116,0.056,0.173,0.084
		c0.059,0.027,0.117,0.055,0.177,0.079c0.058,0.027,0.119,0.052,0.179,0.077c0.025,0.008,0.048,0.019,0.073,0.028
		c0.023,0.009,0.049,0.019,0.074,0.026c0.042,0.018,0.085,0.032,0.13,0.046c0.036,0.014,0.072,0.023,0.11,0.036
		c0.036,0.011,0.073,0.021,0.109,0.031c0.036,0.012,0.074,0.021,0.111,0.031c0.016,0.005,0.03,0.009,0.044,0.014
		c0.015,0.004,0.03,0.009,0.045,0.013c0.055,0.017,0.11,0.032,0.165,0.049c0.045,0.015,0.09,0.027,0.137,0.04
		c0.045,0.013,0.089,0.025,0.135,0.037c0.048,0.013,0.094,0.024,0.14,0.036c0.019,0.003,0.038,0.009,0.056,0.012
		c0.02,0.004,0.039,0.007,0.056,0.012c0.11,0.021,0.218,0.04,0.329,0.056c0.091,0.015,0.184,0.025,0.277,0.038
		c0.093,0.011,0.186,0.02,0.278,0.026c0.095,0.007,0.189,0.014,0.282,0.017c0.038,0,0.076,0.001,0.113,0.003
		c0.024,0,0.048,0,0.071,0h0.044c0.125,0,0.25,0,0.376-0.006c0.246-0.008,0.492-0.029,0.737-0.064
		c0.595-0.081,1.183-0.235,1.739-0.464c0.731-0.284,1.413-0.695,2.012-1.203c0.605-0.497,1.128-1.092,1.545-1.755
		c0.434-0.666,0.761-1.402,0.953-2.171c0.083-0.315,0.146-0.635,0.187-0.956c0.042-0.329,0.064-0.661,0.063-0.993
		c0.006-0.972-0.175-1.956-0.554-2.854c-0.282-0.734-0.695-1.412-1.204-2.012c-0.496-0.603-1.085-1.126-1.746-1.544
		c-0.663-0.435-1.396-0.762-2.163-0.95c-0.313-0.086-0.632-0.146-0.955-0.188c-0.203-0.027-0.408-0.047-0.614-0.056
		C249.128,19.221,249.003,19.218,248.878,19.217 M195.336,63.172c0.004-0.219,0.008-0.435,0.015-0.65
		c0.061-1.461,0.373-2.924,0.939-4.278c0.491-1.266,1.203-2.438,2.08-3.473c0.855-1.043,1.875-1.946,3.016-2.667
		c1.145-0.75,2.412-1.314,3.734-1.645c0.542-0.146,1.093-0.253,1.646-0.322c0.569-0.075,1.142-0.112,1.715-0.112
		c1.345-0.006,2.701,0.192,3.981,0.616c1.041,0.317,2.033,0.782,2.95,1.363c0.912,0.563,1.753,1.244,2.499,2.02
		c0.755,0.768,1.417,1.631,1.938,2.566c0.217,0.376,0.411,0.762,0.596,1.155c0.187,0.394,0.365,0.796,0.479,1.218
		c0.081,0.277,0.133,0.563,0.182,0.849c0.042,0.244,0.083,0.487,0.116,0.731c0.036,0.251,0.062,0.502,0.083,0.754
		c0.022,0.259,0.04,0.517,0.048,0.775c0.004,0.106,0.007,0.211,0.008,0.317c0.003,0.066,0.003,0.133,0.003,0.199v0.121
		c-0.003,0.216-0.006,0.432-0.016,0.648c-0.018,0.425-0.06,0.848-0.124,1.269c-0.147,1.027-0.417,2.036-0.812,2.996
		c-0.494,1.259-1.199,2.434-2.074,3.463c-0.851,1.044-1.87,1.941-3.008,2.66c-1.142,0.75-2.406,1.311-3.725,1.641
		c-0.54,0.146-1.088,0.25-1.642,0.322c-0.352,0.046-0.707,0.079-1.062,0.095c-0.214,0.009-0.431,0.011-0.647,0.016
		c-0.16-0.003-0.321-0.005-0.481-0.01c-0.315-0.009-0.632-0.032-0.947-0.067c-0.769-0.082-1.533-0.23-2.276-0.454
		c-0.97-0.277-1.905-0.676-2.776-1.183c-0.868-0.488-1.675-1.082-2.404-1.762c-0.737-0.672-1.395-1.428-1.945-2.254
		c-0.225-0.329-0.433-0.67-0.628-1.02c-0.198-0.348-0.384-0.706-0.537-1.076c-0.152-0.357-0.271-0.726-0.38-1.099
		c-0.092-0.313-0.173-0.628-0.245-0.946c-0.07-0.321-0.128-0.645-0.174-0.971c-0.047-0.331-0.081-0.663-0.102-0.995
		c-0.008-0.135-0.014-0.27-0.019-0.404c-0.002-0.085-0.005-0.17-0.006-0.255C195.337,63.273,195.336,63.222,195.336,63.172"/>
</g>
</svg>
