<?xml version="1.0" encoding="utf-8"?>
<!-- Generator: Adobe Illustrator 15.1.0, SVG Export Plug-In . SVG Version: 6.00 Build 0)  -->
<!DOCTYPE svg PUBLIC "-//W3C//DTD SVG 1.1//EN" "http://www.w3.org/Graphics/SVG/1.1/DTD/svg11.dtd">
<svg version="1.1" id="Layer_1" xmlns="http://www.w3.org/2000/svg" xmlns:xlink="http://www.w3.org/1999/xlink" x="0px" y="0px"
	 width="300px" height="300px" viewBox="0 0 300 300" enable-background="new 0 0 300 300" xml:space="preserve">
<g>
	<g>
		<g>
			<rect x="46.376" y="228.445" fill="#FFFFFF" width="218.06" height="1.104"/>
		</g>
		<g>
			<rect x="46.376" y="106.504" fill="#FFFFFF" width="218.06" height="1.104"/>
		</g>
	</g>
	<g>
		
			<rect x="24.578" y="80.979" transform="matrix(0.7071 0.7071 -0.7071 0.7071 75.0944 -18.8285)" fill="#FFFFFF" width="71.395" height="0.512"/>
	</g>
	<g>
		
			<rect x="99.248" y="33.651" transform="matrix(0.9319 0.3628 -0.3628 0.9319 32.6641 -31.2402)" fill="#FFFFFF" width="0.511" height="75.382"/>
	</g>
</g>
<g>
	<g>
		<path fill="#FFFFFF" d="M58.207,141.94c-6.286,0-10.927-4.952-10.927-11.242c0-6.222,4.607-11.306,11.023-11.306
			c3.949,0,6.316,1.404,8.498,3.461l-1.68,1.807c-1.84-1.747-3.891-2.993-6.851-2.993c-4.826,0-8.442,3.895-8.442,8.965
			c0,5.075,3.649,9.032,8.442,9.032c2.985,0,4.951-1.156,7.035-3.146l1.622,1.591C64.653,140.417,62.16,141.94,58.207,141.94z"/>
	</g>
	<g>
		<path fill="#FFFFFF" d="M73.683,131.753v9.804h-2.46v-21.787h2.46v9.675h12.578v-9.675h2.462v21.787h-2.462v-9.804H73.683z"/>
	</g>
	<g>
		<path fill="#FFFFFF" d="M115.184,141.557h-2.649l-2.55-5.756H98.121l-2.583,5.756h-2.526l9.937-21.947h2.299L115.184,141.557z
			 M104.069,122.472l-4.984,11.12h9.936L104.069,122.472z"/>
	</g>
	<g>
		<path fill="#FFFFFF" d="M135.517,119.771h2.393v21.787h-1.959l-14.077-17.867v17.867h-2.395v-21.787h2.304l13.734,17.469V119.771z
			"/>
	</g>
	<g>
		<path fill="#FFFFFF" d="M160.107,119.771h2.398v21.787h-1.955l-14.08-17.867v17.867h-2.4v-21.787h2.306l13.731,17.469V119.771z"/>
	</g>
	<g>
		<path fill="#FFFFFF" d="M184.425,122.015h-13.299v7.431h11.896v2.242h-11.896v7.627h13.451v2.242h-15.909v-21.787h15.757V122.015z
			"/>
	</g>
	<g>
		<path fill="#FFFFFF" d="M189.528,119.771h2.459v19.526h12.271v2.261h-14.729V119.771z"/>
	</g>
	<g>
		<path fill="#FFFFFF" d="M58.363,179.296c-6.634,0-11.083-5.206-11.083-11.244c0-6.039,4.515-11.294,11.149-11.294
			c6.626,0,11.083,5.202,11.083,11.24S64.995,179.296,58.363,179.296z M58.363,159.033c-4.982,0-8.534,3.981-8.534,8.965
			c0,4.973,3.616,9.021,8.6,9.021c4.977,0,8.53-3.981,8.53-8.968C66.959,163.081,63.346,159.033,58.363,159.033z"/>
	</g>
	<g>
		<path fill="#FFFFFF" d="M90.369,159.406H77.17v7.776h11.796v2.242H77.17v9.5h-2.467v-21.796h15.666V159.406z"/>
	</g>
	<g>
		<path fill="#FFFFFF" d="M112.725,178.925h-2.494v-19.519h-7.318v-2.277h17.125v2.277h-7.313V178.925z"/>
	</g>
	<g>
		<path fill="#FFFFFF" d="M127.108,169.12v9.805h-2.466v-21.796h2.466v9.683h12.573v-9.683h2.464v21.796h-2.464v-9.805H127.108z"/>
	</g>
	<g>
		<path fill="#FFFFFF" d="M164.062,159.368h-13.293v7.443h11.894v2.243h-11.894v7.627h13.45v2.243H148.31v-21.796h15.752V159.368z"
			/>
	</g>
	<g>
		<path fill="#FFFFFF" d="M187.813,178.925h-2.483v-8.632l-9.068-13.164h2.996l7.344,10.897l7.409-10.897h2.865l-9.062,13.143
			V178.925z"/>
	</g>
	<g>
		<path fill="#FFFFFF" d="M216.551,159.368H203.26v7.443h11.892v2.243H203.26v7.627h13.45v2.243H200.8v-21.796h15.751V159.368z"/>
	</g>
	<g>
		<path fill="#FFFFFF" d="M241.959,178.925h-2.646l-2.559-5.76h-11.862l-2.58,5.76h-2.521l9.93-21.949h2.302L241.959,178.925z
			 M230.841,159.837l-4.979,11.107h9.932L230.841,159.837z"/>
	</g>
	<g>
		<path fill="#FFFFFF" d="M261.262,178.925l-6.322-8.467h-6.226v8.467h-2.46v-21.796h9.369c4.799,0,7.882,2.591,7.882,6.506
			c0,3.647-2.494,5.756-5.917,6.39l6.694,8.9H261.262z M255.438,159.406h-6.725v8.841h6.694c3.27,0,5.603-1.684,5.603-4.515
			C261.011,161.024,258.958,159.406,255.438,159.406z"/>
	</g>
	<g>
		<path fill="#FFFFFF" d="M68.542,216.28h-2.644l-2.552-5.76H51.479l-2.583,5.76h-2.52l9.93-21.951h2.309L68.542,216.28z
			 M57.426,197.203l-4.977,11.109h9.93L57.426,197.203z"/>
	</g>
	<g>
		<path fill="#FFFFFF" d="M83.233,194.428h2.023l5.981,18.217l6.23-18.149h2.585l-7.788,21.948h-2.083l-5.979-17.683l-6.015,17.683
			h-2.05l-7.788-21.948h2.678l6.23,18.149L83.233,194.428z"/>
	</g>
	<g>
		<path fill="#FFFFFF" d="M121.996,216.28h-2.643l-2.558-5.76h-11.863l-2.584,5.76h-2.519l9.93-21.951h2.309L121.996,216.28z
			 M110.88,197.203l-4.983,11.109h9.935L110.88,197.203z"/>
	</g>
	<g>
		<path fill="#FFFFFF" d="M141.298,216.28l-6.323-8.468h-6.224v8.468h-2.459v-21.785h9.368c4.801,0,7.88,2.575,7.88,6.507
			c0,3.636-2.493,5.756-5.915,6.373l6.691,8.905H141.298z M135.477,196.754h-6.726v8.85h6.692c3.271,0,5.604-1.675,5.604-4.516
			C141.047,198.378,138.998,196.754,135.477,196.754z"/>
	</g>
	<g>
		<path fill="#FFFFFF" d="M156.37,216.28h-7.573v-21.785h7.573c6.847,0,11.583,4.7,11.583,10.857
			C167.953,211.524,163.217,216.28,156.37,216.28z M156.37,196.754h-5.112v17.261h5.112c5.508,0,9.027-3.745,9.027-8.595
			C165.397,200.564,161.878,196.754,156.37,196.754z"/>
	</g>
	<g>
		<path fill="#FFFFFF" d="M180.647,204.198c4.86,1.068,7.102,2.841,7.102,6.208c0,3.76-3.109,6.188-7.444,6.188
			c-3.452,0-6.288-1.157-8.899-3.481l1.524-1.806c2.274,2.055,4.45,3.078,7.475,3.078c2.92,0,4.855-1.523,4.855-3.731
			c0-2.059-1.088-3.213-5.666-4.182c-5.015-1.087-7.317-2.708-7.317-6.323c0-3.481,3.019-5.972,7.158-5.972
			c3.177,0,5.454,0.901,7.661,2.677l-1.429,1.906c-2.026-1.655-4.047-2.373-6.291-2.373c-2.834,0-4.64,1.552-4.64,3.542
			C174.736,202.024,175.856,203.175,180.647,204.198z"/>
	</g>
	<g>
		<g>
			<path fill="#D2232A" d="M197.909,212.531l7.069-5.792c2.634-2.177,3.663-3.333,3.663-5.09c0-1.783-1.184-2.764-2.852-2.764
				c-1.635,0-2.757,0.915-4.332,2.848l-3.276-2.634c2.093-2.847,4.121-4.392,7.917-4.392c4.39,0,7.301,2.57,7.301,6.538v0.065
				c0,3.546-1.813,5.314-5.575,8.226l-3.458,2.663h9.252v4.033h-15.709V212.531z"/>
		</g>
		<g>
			<path fill="#D2232A" d="M215.948,205.683v-0.063c0-6.162,3.825-10.975,9.463-10.975c5.611,0,9.401,4.764,9.401,10.907v0.067
				c0,6.161-3.79,10.976-9.466,10.976C219.677,216.595,215.948,211.832,215.948,205.683z M230.015,205.683v-0.063
				c0-3.853-1.88-6.764-4.668-6.764c-2.786,0-4.607,2.829-4.607,6.696v0.067c0,3.883,1.852,6.764,4.672,6.764
				C228.224,212.383,230.015,209.537,230.015,205.683z"/>
		</g>
		<g>
			<path fill="#D2232A" d="M240.692,199.585l-3.7,0.914l-0.967-3.823l6.096-1.821h3.181v21.379h-4.609V199.585z"/>
		</g>
		<g>
			<path fill="#D2232A" d="M248.574,212.531l7.068-5.792c2.638-2.177,3.664-3.333,3.664-5.09c0-1.783-1.181-2.764-2.846-2.764
				c-1.643,0-2.765,0.915-4.34,2.848l-3.27-2.634c2.089-2.847,4.122-4.392,7.911-4.392c4.396,0,7.308,2.57,7.308,6.538v0.065
				c0,3.546-1.82,5.314-5.576,8.226l-3.458,2.663h9.246v4.033h-15.708V212.531z"/>
		</g>
	</g>
</g>
<g>
	<g>
		<path fill="#FFFFFF" d="M46.376,240.337h17.897v0.733H47.182v11.64h15.517v0.735H47.182v11.782h17.279v0.735H46.376V240.337z"/>
	</g>
	<g>
		<path fill="#FFFFFF" d="M70.571,240.337h8.24c8.053,0,13.62,5.567,13.62,12.773v0.079c0,7.212-5.567,12.773-13.62,12.773h-8.24
			V240.337z M78.849,265.228c7.537,0,12.776-5.304,12.776-11.999v-0.078c0-6.733-5.271-12.08-12.853-12.08h-7.395v24.157H78.849z"/>
	</g>
	<g>
		<path fill="#FFFFFF" d="M99.164,240.337h0.803v25.626h-0.803V240.337z"/>
	</g>
	<g>
		<path fill="#FFFFFF" d="M107.838,240.337h0.696l19.474,24.312v-24.312h0.774v25.626h-0.698l-19.479-24.312v24.312h-0.768V240.337z
			"/>
	</g>
	<g>
		<path fill="#FFFFFF" d="M136.396,240.337h10.504c2.967,0,5.311,0.776,6.735,2.204c1.065,1.06,1.646,2.479,1.646,4.245v0.067
			c0,3.148-2.014,5.381-4.943,6.036c3.516,0.52,6.298,2.929,6.298,6.378v0.077c0,4.207-3.368,6.618-9.15,6.618h-11.09V240.337z
			 M147.486,252.638c3.808,0,6.995-1.824,6.995-5.744v-0.078c0-3.472-2.818-5.745-7.62-5.745h-9.659v11.567H147.486z
			 M147.486,265.228c5.273,0,8.349-2.153,8.349-5.856v-0.067c0-3.884-3.518-5.937-7.729-5.937h-10.904v11.86H147.486z"/>
	</g>
	<g>
		<path fill="#FFFFFF" d="M162.533,254.62v-14.283h0.807v14.283c0,7.356,3.913,11.02,9.587,11.02c5.749,0,9.515-3.663,9.515-10.98
			v-14.322h0.808v14.283c0,7.834-4.171,11.747-10.356,11.747C166.775,266.367,162.533,262.493,162.533,254.62z"/>
	</g>
	<g>
		<path fill="#FFFFFF" d="M190.462,240.337h10.474c3.329,0,5.779,0.852,7.354,2.424c1.172,1.162,1.833,2.774,1.833,4.748v0.077
			c0,4.325-3.448,6.88-8.388,7.177l8.528,11.2h-0.988l-8.489-11.163h-0.112h-9.403v11.163h-0.809V240.337z M200.528,254.065
			c5.926,0,8.787-2.812,8.787-6.438v-0.077c0-4.063-3.148-6.48-8.459-6.48h-9.586v12.995H200.528z"/>
	</g>
	<g>
		<path fill="#FFFFFF" d="M215.287,253.229v-0.078c0-6.84,4.863-13.253,12.666-13.253c3.915,0,6.329,1.173,8.896,3.304l-0.514,0.62
			c-2.381-1.951-4.758-3.188-8.423-3.188c-7.213,0-11.822,6.152-11.822,12.477v0.079c0,6.657,4.393,12.479,11.863,12.479
			c3.806,0,6.956-1.677,9.116-3.512v-8.233h-9.444v-0.812h10.243v9.344c-2.411,2.195-5.816,3.949-9.956,3.949
			C219.899,266.403,215.287,260.364,215.287,253.229z"/>
	</g>
	<g>
		<path fill="#FFFFFF" d="M244.937,240.337h0.806v12.338h18.304v-12.338h0.807v25.626h-0.807v-12.554h-18.304v12.554h-0.806V240.337
			z"/>
	</g>
</g>
</svg>
