<?xml version="1.0" encoding="utf-8"?>
<!-- Generator: Adobe Illustrator 15.1.0, SVG Export Plug-In . SVG Version: 6.00 Build 0)  -->
<!DOCTYPE svg PUBLIC "-//W3C//DTD SVG 1.1//EN" "http://www.w3.org/Graphics/SVG/1.1/DTD/svg11.dtd">
<svg version="1.1" id="Layer_1" xmlns="http://www.w3.org/2000/svg" xmlns:xlink="http://www.w3.org/1999/xlink" x="0px" y="0px"
	 width="300px" height="300px" viewBox="0 0 300 300" enable-background="new 0 0 300 300" xml:space="preserve">
<path fill="none" stroke="#ED1C24" stroke-width="6.3112" stroke-linecap="round" d="M204.183,195.311
	c0,0,8.731,11.002,10.676-3.234c1.938-14.235,0-20.383,4.851-29.44c4.854-9.058,10.354-26.203-8.085-29.439"/>
<path fill="none" stroke="#ED1C24" stroke-width="6.3112" stroke-linecap="round" d="M88.433,195.311c0,0-8.733,11.002-10.675-3.234
	c-1.943-14.235,0-20.383-4.853-29.44c-4.854-9.058-10.354-26.203,8.087-29.439"/>
<path fill="none" stroke="#ED1C24" stroke-width="9.4669" d="M85.451,139.829l1.452,73.761c0,0,26.208,47.557,59.208,47.557
	c32.995,0,56.772-47.072,56.772-47.072l4.856-73.761c0,0,15.042-38.093,9.704-44.402c-1.825-2.16-1.096-15.228-5.58-20.867
	c-8.614-10.836-32.543-21.722-52.652-19.169c-30.571,3.883-85.896,14.074-77.645,62.116
	C89.817,166.032,85.451,139.829,85.451,139.829z"/>
<path fill="#ED1C24" d="M151.692,35.505c30.958,0,57.896,12.765,72.061,56.037c4.077,12.453,1.34,32.432,0.243,45.616
	c0,0-5.096-1.699-7.523,16.984l-13.102,14.072l2.187-29.843c0,0,13.06-24.989,5.691-48.77c-5.337-17.228-37.123-27.418-48.527-9.221
	c0,0-3.022,1.942-11.029,1.942c-8.009,0-9.953-1.942-9.953-1.942c-11.404-18.197-43.186-8.006-48.526,9.221
	c-7.37,23.781,4.126,42.218,4.126,42.218l-8.977,13.104l-1.697,15.772c-2.429-18.684-13.834-26.853-13.834-26.853
	c-3.882-12.939-0.432-21.921,3.88-34.293C91.396,57.414,113.595,35.505,151.692,35.505z"/>
<path fill="#ED1C24" d="M134.461,146.623c0,0,4.856,8.735-3.398,6.307c-8.248-2.426-24.262-4.367-33.483-1.941
	c-9.218,2.428-0.969-5.338,6.31-6.307C111.167,143.71,124.27,142.739,134.461,146.623z"/>
<path fill="#ED1C24" d="M160.97,146.623c0,0-4.855,8.735,3.397,6.307c8.247-2.426,24.263-4.367,33.484-1.941
	c9.217,2.428,0.97-5.338-6.311-6.307C184.265,143.71,171.161,142.739,160.97,146.623z"/>
<path fill="#ED1C24" d="M173.042,191.024c0,0,25.962,3.641,9.782,30.169c0,0,1.297-17.471-4.527-17.471
	c-5.826,0-11.645,7.117-29.766,7.117c-18.114,0-40.765-13.587-40.112,0.648c0,0-12.292-14.885,6.631-20.948
	c14.454-4.634,17.309,8.654,30.898,8.654C159.536,199.194,167.217,190.377,173.042,191.024z"/>
<path fill="none" stroke="#ED1C24" stroke-width="6.3112" d="M176.682,202.104c0,0-11.649,11.97-9.222,23.455"/>
<path fill="none" stroke="#ED1C24" stroke-width="6.3112" d="M112.14,202.914c0,0,12.211,9.059,9.783,20.543"/>
<path fill="none" stroke="#ED1C24" stroke-width="6.3112" stroke-linecap="round" d="M118.608,225.722c0,0,9.542-4.53,27.502-4.53
	c14.717,0,23.776,5.015,23.776,5.015"/>
<path fill="none" stroke="#ED1C24" stroke-width="3.1556" stroke-linecap="round" d="M159.699,180.104c0,0,10.43,4.61,5.58,12.133"
	/>
<path fill="none" stroke="#ED1C24" stroke-width="3.1556" stroke-linecap="round" d="M127.959,192.237
	c-4.85-7.522,5.58-12.133,5.58-12.133l1.167-16.984c0,0,13.587-2.184,2.912-14.557"/>
<path fill="none" stroke="#ED1C24" stroke-width="3.1556" stroke-linecap="round" d="M166.978,161.668
	c0,0,13.827-1.698,21.833-0.487"/>
<path fill="none" stroke="#ED1C24" stroke-width="3.1556" stroke-linecap="round" d="M124.7,161.668c0,0-13.832-1.698-21.836-0.487"
	/>
<path fill="#ED1C24" d="M200.946,194.179c0,0-24.799,54.697-39.065,42.947c-8.252-6.794-1.212-3.58-0.484-4.126
	c0.726-0.546-6.336-5.229-16.983-4.854c-8.557,0.305-17.171,3.398-15.287,4.369c1.88,0.971,8.731,4.792-3.643,1.94
	c-10.262-2.364-24.603-23.345-26.93-39.065c-0.974-6.549-7.767-2.909-9.951-10.676l-1.7,28.875l16.26,22.808
	c0,0,25.477,25.72,40.759,24.749c15.289-0.972,43.436-11.404,60.176-48.528v-20.381L200.946,194.179z"/>
<path fill="#00AEEF" d="M122.539,27.729c-0.378,0.085-0.755,0.171-1.132,0.259C66.123,40.899,24.945,90.499,24.945,149.717
	c0,64.581,48.977,117.725,111.814,124.312c0,0-7.84-1.696-19.219-9.718c-11.378-8.022-24.545-26.772-24.545-26.772
	c-28.722-18.689-47.751-51.075-47.751-87.822c0-26.107,9.605-50.013,25.466-68.37l0.054-0.329
	C78.061,64.449,86.8,51.772,97.272,42.511c7.524-6.655,15.864-11.558,25.158-14.758"/>
<path fill="#00AEEF" d="M193.523,32.607c2.591,1.375,5.097,2.904,7.518,4.587c15.348,10.666,26.922,27.663,34.404,50.521
	c0.229,0.7,0.441,1.413,0.638,2.137l-0.188,0.135c11.815,16.952,18.751,37.546,18.751,59.729c0,28.616-11.54,54.59-30.213,73.508
	l-0.067,0.464c0.792,1.494,1.91,2.805,3.482,3.625c4.244,2.215,5.062,5.834,4.412,8.481c-1.123,4.58-5.937,6.144-10.006,6.994
	c-3.43,0.717-7.72,1.127-11.768,1.127l0,0c-4.854,0-8.769-0.525-11.782-1.591l0.012,0.024c-2.278,1.203-4.604,2.326-6.977,3.362
	c0,0-8.021,10.757-17.605,18.6c-9.586,7.843-20.451,10.351-20.451,10.351c67.306-1.978,121.262-57.16,121.262-124.945
	c0-53.16-33.184-98.569-79.968-116.643"/>
<path d="M190.383,52.209c0.017,0.008,0.033,0.017,0.049,0.025"/>
<path fill="#ED1C24" d="M208.118,203.498c0.774-1.418,2.085,0.66,4.406-0.733c2.752-1.653,4.097,5.413,3.831,10.526
	c-0.062,1.122-0.804,14.543,8.646,19.476s-35.774,9.21-26.426-2.568c3.606-4.54,8.842-13.579,9.178-17.708
	C208.089,208.36,207.245,205.098,208.118,203.498z"/>
<path fill="none" stroke="#ED1C24" stroke-width="3.155" d="M141.873,180.836c0,0,8.079-0.735,11.011,0.733"/>
</svg>
