<?xml version="1.0" encoding="utf-8"?>
<!-- Generator: Adobe Illustrator 15.1.0, SVG Export Plug-In . SVG Version: 6.00 Build 0)  -->
<!DOCTYPE svg PUBLIC "-//W3C//DTD SVG 1.1//EN" "http://www.w3.org/Graphics/SVG/1.1/DTD/svg11.dtd">
<svg version="1.1" id="iphone" xmlns="http://www.w3.org/2000/svg" xmlns:xlink="http://www.w3.org/1999/xlink" x="0px" y="0px"
	 width="500px" height="300px" viewBox="0 0 500 300" enable-background="new 0 0 500 300" xml:space="preserve">
<g>
	<circle fill="#ED1C24" cx="-150.53" cy="-16.893" r="1.116"/>
	<circle fill="#ED1C24" cx="-136.434" cy="-16.893" r="1.116"/>
	<circle fill="#ED1C24" cx="-129.808" cy="-52.454" r="0.863"/>
	<circle fill="#ED1C24" cx="-130.248" cy="-50.02" r="0.863"/>
	<circle fill="#ED1C24" cx="-130.856" cy="-47.823" r="0.863"/>
	<circle fill="#ED1C24" cx="-131.803" cy="-45.625" r="0.862"/>
	<circle fill="#ED1C24" cx="-133.29" cy="-43.834" r="0.862"/>
	<path fill="#ED1C24" d="M-134.118-42.515c0,0.476-0.386,0.862-0.862,0.862s-0.863-0.387-0.863-0.862
		c0-0.477,0.388-0.863,0.863-0.863S-134.118-42.992-134.118-42.515z"/>
	<circle fill="#ED1C24" cx="-137.313" cy="-41.975" r="0.863"/>
	<circle fill="#ED1C24" cx="-139.848" cy="-42.346" r="0.863"/>
	<circle fill="#ED1C24" cx="-142.079" cy="-43.022" r="0.863"/>
	<circle fill="#ED1C24" cx="-144.885" cy="-43.022" r="0.863"/>
	<circle fill="#ED1C24" cx="-146.946" cy="-42.143" r="0.863"/>
	<circle fill="#ED1C24" cx="-149.279" cy="-41.738" r="0.863"/>
	<circle fill="#ED1C24" cx="-151.442" cy="-42.448" r="0.862"/>
	<circle fill="#ED1C24" cx="-153.37" cy="-43.733" r="0.863"/>
	<circle fill="#ED1C24" cx="-154.958" cy="-45.422" r="0.862"/>
	<circle fill="#ED1C24" cx="-156.007" cy="-47.518" r="0.863"/>
	<circle fill="#ED1C24" cx="-156.851" cy="-49.682" r="0.863"/>
	<circle fill="#ED1C24" cx="-157.392" cy="-52.048" r="0.863"/>
	<circle fill="#ED1C24" cx="-143.634" cy="-14.458" r="1.116"/>
	<path fill="#ED1C24" d="M-131.363-6.447c0,0.617-0.5,1.116-1.116,1.116c-0.616,0-1.116-0.499-1.116-1.116
		c0-0.616,0.5-1.116,1.116-1.116C-131.863-7.563-131.363-7.063-131.363-6.447z"/>
	<circle fill="#ED1C24" cx="-153.472" cy="-7.765" r="1.116"/>
	<circle fill="#ED1C24" cx="-144.546" cy="-5.23" r="1.116"/>
	<circle fill="#ED1C24" cx="-138.057" cy="-6.954" r="1.116"/>
	<path fill="#ED1C24" d="M-150.733,0.753c0,0.616-0.499,1.116-1.115,1.116c-0.616,0-1.116-0.5-1.116-1.116
		c0-0.616,0.5-1.115,1.116-1.115C-151.232-0.362-150.733,0.138-150.733,0.753z"/>
	<path fill="#ED1C24" d="M-151.595,7.142c0,0.616-0.5,1.116-1.116,1.116c-0.617,0-1.116-0.5-1.116-1.116
		c0-0.616,0.499-1.115,1.116-1.115C-152.095,6.027-151.595,6.526-151.595,7.142z"/>
	<path fill="#ED1C24" d="M-142.823,4.708c0,0.616-0.5,1.116-1.116,1.116c-0.616,0-1.116-0.5-1.116-1.116
		c0-0.616,0.5-1.116,1.116-1.116C-143.322,3.593-142.823,4.093-142.823,4.708z"/>
	<circle fill="#ED1C24" cx="-136.129" cy="3.086" r="1.115"/>
	<path fill="#ED1C24" d="M-124.163,3.593c0,0.616-0.5,1.116-1.116,1.116s-1.116-0.5-1.116-1.116c0-0.616,0.5-1.116,1.116-1.116
		S-124.163,2.977-124.163,3.593z"/>
	<circle fill="#ED1C24" cx="-124.163" cy="14.14" r="1.116"/>
	<path fill="#ED1C24" d="M-131.667,12.922c0,0.617-0.499,1.117-1.116,1.117c-0.616,0-1.116-0.5-1.116-1.117
		c0-0.615,0.5-1.115,1.116-1.115C-132.167,11.808-131.667,12.308-131.667,12.922z"/>
	<path fill="#ED1C24" d="M-141.911,11.503c0,0.616-0.499,1.116-1.115,1.116c-0.616,0-1.116-0.5-1.116-1.116
		c0-0.616,0.5-1.116,1.116-1.116C-142.41,10.387-141.911,10.887-141.911,11.503z"/>
	<path fill="#ED1C24" d="M-139.881,18.399c0,0.617-0.5,1.116-1.116,1.116c-0.617,0-1.116-0.499-1.116-1.116
		c0-0.615,0.499-1.115,1.116-1.115C-140.381,17.284-139.881,17.784-139.881,18.399z"/>
	<circle fill="#ED1C24" cx="-152.863" cy="15.155" r="1.115"/>
	<path fill="#ED1C24" d="M-160.165,13.227c0,0.617-0.499,1.116-1.116,1.116c-0.615,0-1.115-0.499-1.115-1.116
		c0-0.616,0.5-1.116,1.115-1.116C-160.664,12.111-160.165,12.611-160.165,13.227z"/>
	<path fill="#ED1C24" d="M-159.86,2.782c0,0.616-0.5,1.116-1.116,1.116c-0.616,0-1.115-0.5-1.115-1.116s0.499-1.116,1.115-1.116
		C-160.36,1.666-159.86,2.166-159.86,2.782z"/>
	<g>
		<polygon fill="#ED1C24" points="-146.353,-31.542 -143.432,-30.086 -140.51,-31.542 -143.432,-33 		"/>
		<path fill="#ED1C24" d="M-116.351,7.078c-3.579-8.392-14.438-30.63-18.224-32.658c0,0-2.231-7.944,4.564-16.665
			c0,0,3.651,7.809,7.403,7.302c0,0-0.914,1.927-0.406,2.129c0,0,4.766-1.216,7.606-5.273c0,0-1.217-0.102-1.826,0.203
			c0,0,2.637-3.65-3.245-10.04c-5.882-6.389-6.288-6.491-8.52-6.187c0,0-0.013,0.245-0.059,0.66
			c0.569,0.086,1.006,0.573,1.006,1.166c0,0.653-0.53,1.183-1.184,1.183c-0.065,0-0.129-0.009-0.191-0.02
			c-0.01,0.045-0.02,0.091-0.03,0.137c0.498,0.141,0.864,0.592,0.864,1.134c0,0.654-0.53,1.184-1.184,1.184
			c-0.058,0-0.113-0.01-0.169-0.018c0.399,0.191,0.676,0.594,0.676,1.065c0,0.653-0.529,1.183-1.183,1.183
			c-0.166,0-0.324-0.035-0.466-0.096c-0.014,0.027-0.025,0.054-0.039,0.081c0.398,0.191,0.673,0.593,0.673,1.063
			c0,0.654-0.529,1.184-1.183,1.184c-0.27,0-0.514-0.094-0.713-0.246c-0.008,0.012-0.017,0.023-0.026,0.034
			c0.225,0.216,0.367,0.517,0.367,0.854c0,0.653-0.529,1.183-1.183,1.183c-0.349,0-0.658-0.152-0.874-0.391
			c-0.011,0.008-0.023,0.016-0.035,0.024c0.164,0.203,0.267,0.458,0.267,0.739c0,0.653-0.531,1.183-1.184,1.183
			c-0.579,0-1.059-0.416-1.161-0.965c-0.059,0.015-0.119,0.029-0.179,0.042c0.012,0.07,0.022,0.141,0.022,0.214
			c0,0.653-0.53,1.183-1.184,1.183c-0.653,0-1.183-0.53-1.183-1.183c0-0.031,0.007-0.061,0.009-0.091
			c-0.083-0.009-0.167-0.018-0.251-0.029c-0.128,0.514-0.59,0.897-1.144,0.897c-0.653,0-1.184-0.53-1.184-1.183
			c0-0.098,0.015-0.19,0.038-0.28c-0.013-0.005-0.025-0.009-0.039-0.013c-0.159,0.464-0.595,0.801-1.114,0.801
			c-0.654,0-1.183-0.53-1.183-1.184c0-0.208,0.058-0.399,0.152-0.57c-0.066-0.021-0.138-0.039-0.221-0.039
			c-0.068,0-0.131,0.011-0.189,0.027c0.076,0.156,0.122,0.329,0.122,0.514c0,0.653-0.53,1.183-1.183,1.183
			c-0.422,0-0.789-0.222-0.999-0.554c0.009,0.06,0.019,0.12,0.019,0.182c0,0.654-0.529,1.184-1.183,1.184
			c-0.584,0-1.067-0.425-1.164-0.981c-0.017,0.002-0.035,0.005-0.052,0.008c0.02,0.085,0.032,0.173,0.032,0.263
			c0,0.654-0.53,1.184-1.184,1.184c-0.653,0-1.183-0.529-1.183-1.184c0-0.096,0.015-0.189,0.037-0.279
			c-0.028-0.004-0.057-0.008-0.085-0.013c-0.139,0.499-0.591,0.867-1.135,0.867c-0.653,0-1.183-0.53-1.183-1.184
			c0-0.188,0.048-0.362,0.126-0.521c-0.044-0.026-0.086-0.055-0.13-0.083c-0.217,0.263-0.541,0.434-0.909,0.434
			c-0.653,0-1.183-0.529-1.183-1.184c0-0.324,0.13-0.617,0.342-0.831c-0.01-0.011-0.019-0.022-0.028-0.034
			c-0.194,0.139-0.43,0.223-0.686,0.223c-0.654,0-1.184-0.53-1.184-1.183c0-0.438,0.241-0.816,0.595-1.021
			c-0.009-0.019-0.019-0.038-0.028-0.055c-0.143,0.061-0.299,0.095-0.465,0.095c-0.653,0-1.183-0.53-1.183-1.184
			c0-0.496,0.306-0.919,0.74-1.095c-0.009-0.025-0.018-0.051-0.026-0.076c-0.109,0.033-0.223,0.056-0.342,0.056
			c-0.654,0-1.184-0.529-1.184-1.183c0-0.557,0.386-1.021,0.904-1.146c-0.005-0.021-0.01-0.043-0.014-0.064
			c-0.081,0.017-0.163,0.026-0.248,0.026c-0.653,0-1.183-0.529-1.183-1.183c0-0.603,0.453-1.095,1.037-1.168
			c-0.07-0.58-0.09-0.928-0.09-0.928c-2.231-0.304-2.637-0.202-8.518,6.187c-5.882,6.388-3.246,10.04-3.246,10.04
			c-0.608-0.305-1.826-0.203-1.826-0.203c2.84,4.056,7.606,5.273,7.606,5.273c0.507-0.202-0.406-2.129-0.406-2.129
			c3.752,0.506,7.403-7.302,7.403-7.302c4.214,5.409,4.955,10.517,4.911,13.617l-2.191-1.912c-0.371-0.284-0.902-0.213-1.186,0.159
			l-1.028,1.345c-0.284,0.372-0.212,0.902,0.159,1.187l3.105,2.066l-4.141-0.27c-0.449,0-0.811,0.363-0.811,0.811v1.623
			c0,0.448,0.362,0.812,0.811,0.812l2.466-0.161c-4.794,6.563-12.785,23.077-15.757,30.046c-1.148,2.694-1.788,5.316-1.788,7.637
			c0,6.951,14.185,10.992,28.902,11.083c14.719-0.091,28.903-4.133,28.903-11.083C-114.562,12.395-115.203,9.772-116.351,7.078z
			 M-149.11-35.856v-1.217h11.358v1.217h-0.012l0.012,0.022l-4.317,2.155l4.076,2.034l-4.243,2.155l3.099,1.544l-0.5,0.99
			l-7.574,0.025v-0.034l-0.016,0.008l-0.5-0.99l3.099-1.544l-4.243-2.155l4.077-2.034l-4.316-2.155l0.011-0.022H-149.11z
			 M-143.668,23.294c-15.771-0.101-25.453-4.513-25.453-7.634c0-1.791,0.523-3.962,1.513-6.284c1.655-3.883,3.844-11.146,7.41-17.92
			c5.934-11.271,9.168-16.205,9.378-16.361c1.195,0,5.971,2.299,7.662,2.299c1.689,0,6.643-2.298,6.643-2.298
			c1.559,1.15,6.383,8.319,10.053,16.272c2.958,6.408,4.739,13.325,6.736,18.008c0.99,2.321,1.513,4.494,1.513,6.284
			C-118.215,18.782-127.897,23.194-143.668,23.294z"/>
		<polygon fill="#ED1C24" points="-140.432,-35.856 -146.43,-35.856 -143.432,-34.36 		"/>
		<polygon fill="#ED1C24" points="-144.88,-28.148 -141.983,-28.148 -143.432,-28.883 		"/>
	</g>
</g>
<g>
	<circle fill="#ED1C24" cx="-75.359" cy="-7.273" r="1.413"/>
	<circle fill="#ED1C24" cx="-85.204" cy="20.202" r="0.824"/>
	<circle fill="#ED1C24" cx="-72.506" cy="-34.081" r="0.645"/>
	<circle fill="#ED1C24" cx="-67.032" cy="-34.081" r="0.645"/>
	<path fill="#ED1C24" d="M-69.77-36.338c0.357,0,0.646-0.289,0.646-0.645s-0.289-0.645-0.646-0.645
		c-0.355,0-0.645,0.289-0.645,0.645C-70.415-36.626-70.125-36.338-69.77-36.338z"/>
	<circle fill="#ED1C24" cx="-69.281" cy="-7.273" r="1.413"/>
	<path fill="#ED1C24" d="M-54.315-4.404l-0.039,0.005v-9.248h-3.271l3.419-38.363c0.075-1.133-0.782-2.112-1.916-2.188
		c-1.133-0.075-2.112,0.782-2.188,1.915l-1.061,11.915h-20.798l-1.061-11.915c-0.075-1.133-1.055-1.99-2.188-1.915
		c-1.133,0.075-1.991,1.055-1.916,2.188l3.418,38.363h-3.272v9.248l-0.037-0.005l-3.95,27.726l17.387,2.477l2.016-14.159
		l2.018,14.159l17.387-2.477L-54.315-4.404z M-67.032-36.015c0.451,0,0.825,0.329,0.896,0.761c0.017-0.001,0.034-0.002,0.052-0.002
		c0.502,0,0.909,0.407,0.909,0.91c0,0.31-0.155,0.584-0.393,0.749c0.022,0.076,0.033,0.155,0.033,0.237
		c0,0.503-0.407,0.91-0.91,0.91c-0.215,0-0.413-0.075-0.568-0.2c-0.156,0.125-0.354,0.2-0.569,0.2c-0.502,0-0.91-0.407-0.91-0.91
		c0-0.075,0.011-0.147,0.028-0.217c-0.255-0.161-0.426-0.445-0.426-0.769c0-0.502,0.407-0.91,0.91-0.91
		c0.018,0,0.035,0.001,0.052,0.002C-67.858-35.686-67.484-36.015-67.032-36.015z M-70.717-38.158c0.017,0,0.033,0.001,0.05,0.003
		c0.072-0.432,0.445-0.761,0.896-0.761c0.452,0,0.827,0.33,0.897,0.761c0.017-0.001,0.035-0.003,0.052-0.003
		c0.503,0,0.909,0.408,0.909,0.91c0,0.311-0.155,0.584-0.392,0.749c0.021,0.076,0.033,0.156,0.033,0.238
		c0,0.502-0.408,0.91-0.911,0.91c-0.215,0-0.413-0.076-0.569-0.201c-0.156,0.125-0.353,0.201-0.569,0.201
		c-0.501,0-0.909-0.408-0.909-0.91c0-0.075,0.011-0.147,0.028-0.217c-0.256-0.161-0.426-0.445-0.426-0.77
		C-71.627-37.75-71.22-38.158-70.717-38.158z M-73.454-35.256c0.017,0,0.034,0.001,0.051,0.002c0.071-0.432,0.445-0.761,0.897-0.761
		c0.45,0,0.825,0.329,0.896,0.761c0.017-0.001,0.034-0.002,0.051-0.002c0.503,0,0.91,0.407,0.91,0.91
		c0,0.31-0.155,0.584-0.393,0.749c0.021,0.076,0.033,0.155,0.033,0.237c0,0.503-0.408,0.91-0.91,0.91
		c-0.215,0-0.414-0.075-0.568-0.2c-0.156,0.125-0.354,0.2-0.57,0.2c-0.502,0-0.91-0.407-0.91-0.91c0-0.075,0.011-0.147,0.027-0.217
		c-0.255-0.161-0.425-0.445-0.425-0.769C-74.364-34.849-73.958-35.256-73.454-35.256z M-60.195-31.119l-1.556,17.472h-16.036
		l-1.558-17.472H-60.195L-60.195-31.119z M-83.332,20.819c0.026,0.097,0.042,0.198,0.042,0.303c0,0.642-0.521,1.163-1.164,1.163
		c-0.275,0-0.526-0.097-0.726-0.256c-0.199,0.16-0.453,0.256-0.728,0.256c-0.642,0-1.163-0.521-1.163-1.163
		c0-0.096,0.013-0.188,0.035-0.276c-0.326-0.207-0.543-0.569-0.543-0.983c0-0.642,0.521-1.163,1.162-1.163
		c0.022,0,0.044,0.003,0.066,0.004c0.09-0.551,0.569-0.973,1.146-0.973c0.577,0,1.055,0.421,1.146,0.973
		c0.021-0.001,0.043-0.004,0.065-0.004c0.642,0,1.163,0.521,1.163,1.163C-82.831,20.259-83.029,20.608-83.332,20.819z
		 M-63.557,5.239c-0.043,0.471-0.459,0.819-0.931,0.776c-0.473-0.042-0.819-0.459-0.777-0.931l0.773-8.618
		c-1.57,0.181-3.283,0.282-5.077,0.282c-1.793,0-3.506-0.101-5.077-0.282l0.774,8.618c0.042,0.472-0.305,0.889-0.777,0.931
		c-0.471,0.042-0.887-0.306-0.93-0.776l-0.81-9.017c-4.137-0.686-6.926-1.977-6.926-3.457c0-2.199,6.154-3.982,13.746-3.982
		c7.591,0,13.746,1.783,13.746,3.982c0,1.48-2.79,2.771-6.926,3.457L-63.557,5.239z M-52.364,21.122
		c0,0.642-0.521,1.163-1.163,1.163c-0.275,0-0.528-0.096-0.727-0.256c-0.199,0.16-0.452,0.256-0.728,0.256
		c-0.641,0-1.162-0.521-1.162-1.163c0-0.096,0.013-0.188,0.034-0.276c-0.325-0.206-0.542-0.569-0.542-0.983
		c0-0.642,0.52-1.163,1.162-1.163c0.022,0,0.044,0.003,0.065,0.004c0.091-0.551,0.569-0.972,1.146-0.972
		c0.578,0,1.055,0.421,1.146,0.972c0.021-0.001,0.043-0.004,0.064-0.004c0.643,0,1.164,0.521,1.164,1.163
		c0,0.396-0.2,0.746-0.501,0.956C-52.379,20.916-52.364,21.017-52.364,21.122z"/>
	<circle fill="#ED1C24" cx="-54.278" cy="20.202" r="0.824"/>
	<circle fill="#ED1C24" cx="-63.203" cy="-7.273" r="1.413"/>
</g>
<circle fill="#FFFFFF" cx="351.789" cy="118.595" r="2.823"/>
<g>
	<path fill="#FFFFFF" d="M311.887,190.171c0,4.395-3.555,7.951-7.95,7.951h-11.556c-4.391,0-7.95-3.557-7.95-7.951v-11.556
		c0-4.393,3.56-7.949,7.95-7.949h11.556c4.396,0,7.95,3.557,7.95,7.949V190.171z"/>
</g>
<path fill="#FFFFFF" d="M402.886,211.6h-1.806v1.263c0,4.128-3.36,7.488-7.491,7.488h-7.604c-4.13,0-7.49-3.36-7.49-7.488V211.6
	h-2.748v1.263c0,4.128-3.359,7.488-7.489,7.488h-7.604c-4.13,0-7.491-3.36-7.491-7.488V211.6h-2.747v1.263
	c0,4.128-3.359,7.488-7.49,7.488h-7.604c-4.13,0-7.489-3.36-7.489-7.488V211.6h-27.14c0,0-13.241,12.985-9.033,12.985H411.92
	C416.13,224.585,402.886,211.6,402.886,211.6z"/>
<path fill="#FFFFFF" d="M423.031,124.976H282.393c0.424,0.717,0.789,1.471,1.091,2.258h139.548c4.612,0,8.368,3.766,8.368,8.395
	v82.498c0,4.629-3.756,8.394-8.368,8.394H280.547c-4.613,0-8.367-3.765-8.367-8.394v-55.62c-0.736,0.135-1.49,0.212-2.259,0.235
	v55.385c0,5.871,4.767,10.651,10.626,10.651h142.484c5.858,0,10.626-4.78,10.626-10.651v-82.498
	C433.657,129.756,428.89,124.976,423.031,124.976z"/>
<path fill="#FFFFFF" d="M464.146,234.468h-16.373v-111.51c0-8.097-6.589-14.682-14.682-14.682H270.484
	c-6.199,0-11.502,3.87-13.65,9.315h5.035c1.797-2.876,4.982-4.798,8.615-4.798l162.607,0c5.604,0,10.164,4.558,10.164,10.164v111.51
	h-57.543c-0.958,0-1.813,0.604-2.132,1.512c-1.425,4.076-5.275,6.815-9.582,6.815h-44.418c-4.31,0-8.159-2.739-9.584-6.815
	c-0.318-0.907-1.174-1.512-2.134-1.512h-57.541v-71.706h-4.518v71.706h-16.372c-1.249,0-2.259,1.01-2.259,2.258v7.404
	c0,9.459,7.695,17.155,17.154,17.155H449.25c9.459,0,17.156-7.696,17.156-17.155v-7.404
	C466.406,235.478,465.393,234.468,464.146,234.468z M461.887,244.13c0,6.969-5.668,12.638-12.637,12.638H254.328
	c-6.969,0-12.637-5.67-12.637-12.638v-5.146h74.666c2.421,5.04,7.548,8.328,13.224,8.328h44.418c5.673,0,10.801-3.288,13.222-8.328
	h74.666V244.13z"/>
<g>
	<path fill="#FFFFFF" d="M108.147,235.823c3.579,0,6.493,2.914,6.493,6.493c0,3.577-2.914,6.493-6.493,6.493
		c-3.581,0-6.494-2.916-6.494-6.493C101.654,238.737,104.566,235.823,108.147,235.823 M108.147,233.563
		c-4.833,0-8.752,3.918-8.752,8.753c0,4.83,3.919,8.751,8.752,8.751c4.834,0,8.75-3.921,8.75-8.751
		C116.898,237.481,112.982,233.563,108.147,233.563L108.147,233.563z"/>
</g>
<g>
	<path fill="#FFFFFF" d="M128.956,65.32h-24.224c-1.247,0-2.258-1.012-2.258-2.258c0-1.248,1.012-2.259,2.258-2.259h24.224
		c1.247,0,2.258,1.012,2.258,2.259C131.214,64.308,130.203,65.32,128.956,65.32z"/>
</g>
<path fill="#FFFFFF" d="M92.984,63.062c0,1.556-1.264,2.823-2.824,2.823c-1.556,0-2.823-1.267-2.823-2.823
	c0-1.558,1.267-2.823,2.823-2.823C91.72,60.239,92.984,61.504,92.984,63.062z"/>
<path fill="#FFFFFF" d="M126.214,189.225c0,5.78-4.681,10.463-10.463,10.463h-15.209c-5.78,0-10.462-4.683-10.462-10.463v-15.209
	c0-5.783,4.682-10.462,10.462-10.462h15.209c5.782,0,10.463,4.679,10.463,10.462V189.225z"/>
<path fill="#FFFFFF" d="M169.634,89.742V61.613c0-8.095-6.585-14.68-14.68-14.68H61.34c-8.096,0-14.681,6.584-14.681,14.68v182.733
	c0,8.096,6.585,14.68,14.681,14.68h93.614c8.095,0,14.68-6.584,14.68-14.68v-73.299h-4.517v55.831H51.177V74.565l113.94,0v15.176
	H169.634z M165.117,229.137v15.209c0,5.604-4.559,10.163-10.163,10.163H61.34c-5.604,0-10.164-4.559-10.164-10.163v-15.209H165.117z
	 M51.177,72.308V61.613c0-5.604,4.559-10.163,10.164-10.163h93.614c5.604,0,10.163,4.558,10.163,10.163v10.695H51.177z"/>
<g>
	<g>
		<path fill="#FFFFFF" d="M189.312,154.537c0-8.261,6.72-14.981,14.979-14.981h7.605v-24.386c0-11.533-9.375-20.909-20.908-20.909
			h-30.454c-11.534,0-20.909,9.375-20.909,20.909v30.453c0,11.535,9.375,20.907,20.909,20.907h28.777V154.537z"/>
	</g>
	<path fill="#FFFFFF" d="M219.5,144.073c5.782,0,10.462,4.679,10.462,10.464v15.209c0,5.781-4.68,10.463-10.462,10.463h-15.209
		c-5.781,0-10.462-4.682-10.462-10.463v-15.209c0-5.785,4.681-10.464,10.462-10.464H219.5 M219.5,144.073
		c5.782,0,10.462,4.679,10.462,10.464v15.209c0,5.781-4.68,10.463-10.462,10.463h-15.209c-5.781,0-10.462-4.682-10.462-10.463
		v-15.209c0-5.785,4.681-10.464,10.462-10.464H219.5"/>
</g>
<g>
	<path fill="#FFFFFF" d="M245.771,38.997l4.369,8.851l9.768,1.42l-7.069,6.888l1.667,9.729l-8.734-4.596l-8.737,4.596l1.669-9.729
		l-7.066-6.888l9.767-1.42L245.771,38.997"/>
	<g>
		<path fill="#FFFFFF" d="M239.138,69.883l-8.101,4.26l1.546-9.021l0.771-4.495c-0.85-0.15-1.721-0.242-2.614-0.242h-21.878
			c-8.298,0-15.032,6.735-15.032,15.047v14.475c11.752,1.313,21.108,10.669,22.42,22.422h14.49c8.299,0,15.032-6.734,15.032-15.032
			V75.432c0-2.886-0.826-5.573-2.233-7.862L239.138,69.883z"/>
	</g>
</g>
<polygon fill="#FFFFFF" points="228.249,121.19 230.873,126.506 236.74,127.36 232.495,131.497 233.497,137.344 228.249,134.583 
	223,137.344 224.001,131.497 219.756,127.36 225.624,126.506 "/>
<g>
	<path fill="#FFFFFF" d="M342.925,200.025c2.892,0,5.231,2.34,5.231,5.23v7.606c0,2.891-2.34,5.231-5.231,5.231h-7.604
		c-2.89,0-5.23-2.341-5.23-5.231v-7.606c0-2.891,2.341-5.23,5.23-5.23H342.925"/>
</g>
<path fill="#FFFFFF" d="M368.258,200.025c2.891,0,5.23,2.34,5.23,5.23v7.606c0,2.891-2.34,5.231-5.23,5.231h-7.604
	c-2.892,0-5.232-2.341-5.232-5.231v-7.606c0-2.891,2.341-5.23,5.232-5.23H368.258"/>
<path fill="#FFFFFF" d="M393.589,200.025c2.893,0,5.232,2.34,5.232,5.23v7.606c0,2.891-2.34,5.231-5.232,5.231h-7.604
	c-2.891,0-5.232-2.341-5.232-5.231v-7.606c0-2.891,2.342-5.23,5.232-5.23H393.589"/>
<path fill="#FFFFFF" d="M269.504,122.108c5.783,0,10.463,4.683,10.463,10.463v15.211c0,5.781-4.68,10.462-10.463,10.462h-15.209
	c-5.782,0-10.463-4.681-10.463-10.462v-15.211c0-5.78,4.681-10.463,10.463-10.463H269.504"/>
</svg>
