<?xml version="1.0" encoding="utf-8"?>
<!-- Generator: Adobe Illustrator 15.1.0, SVG Export Plug-In . SVG Version: 6.00 Build 0)  -->
<!DOCTYPE svg PUBLIC "-//W3C//DTD SVG 1.1//EN" "http://www.w3.org/Graphics/SVG/1.1/DTD/svg11.dtd">
<svg version="1.1" id="Layer_1" xmlns="http://www.w3.org/2000/svg" xmlns:xlink="http://www.w3.org/1999/xlink" x="0px" y="0px"
	 width="300px" height="180px" viewBox="0 0 300 180" enable-background="new 0 0 300 180" xml:space="preserve">
<g>
	<g>
		<path fill="#010101" d="M50.014,135.479h4.548v6.027h5.188v-6.027h4.525v15.783H59.75v-6.226h-5.188v6.226h-4.548V135.479z"/>
		<path fill="#010101" d="M83.1,144.861v-9.383h4.526v9.184c0,2.23,0.551,3.312,2.473,3.312c1.876,0,2.472-1.016,2.472-3.377v-9.118
			h4.57v9.316c0,4.592-2.694,6.732-7.042,6.732C85.639,151.527,83.1,149.275,83.1,144.861z"/>
		<path fill="#010101" d="M115.966,135.479h10.662v3.511h-6.114v3.355h4.879v3.334h-4.879v5.583h-4.547V135.479z"/>
		<path fill="#010101" d="M144.638,135.479h4.547v6.027h5.188v-6.027h4.526v15.783h-4.526v-6.226h-5.188v6.226h-4.547V135.479z"/>
		<path fill="#010101" d="M177.835,135.479h10.905v3.488h-6.402v2.715h5.099v3.225h-5.099v2.868h6.754v3.487h-11.257V135.479z"/>
		<path fill="#010101" d="M207.234,135.479h4.549v12.274h5.961v3.509h-10.51V135.479z"/>
		<path fill="#010101" d="M235.818,135.479h5.739c5.607,0,8.456,2.804,8.456,7.705v0.177c0,4.923-2.916,7.901-8.478,7.901h-5.718
			V135.479z M241.403,147.774c2.693,0,3.887-1.413,3.887-4.349v-0.176c0-3.002-1.193-4.283-3.931-4.283h-0.994v8.808H241.403z"/>
	</g>
	<path d="M188.011,44.487c-4.8-7.815-9.479-8.817-12.197-8.523c-1.014-3.135-3.122-8.081-6.524-8.977
		c-0.547-0.144-1.13-0.051-1.604,0.256c-0.476,0.309-0.798,0.804-0.889,1.362c-0.388,2.381-1.074,7.515-0.391,10.729
		c-0.209,0.176-0.439,0.38-0.685,0.607l-3.307,0.535c-1.19,0.192-2.031,1.328-1.873,2.522l0.098,0.725
		c0.159,1.193-0.625,2.542-1.74,2.996l-1.967,0.799c-1.116,0.453-1.379,1.566-0.584,2.471l0.635,0.722
		c0.793,0.906,0.551,2.064-0.54,2.576l-1.497,0.699c-0.228,0.107-0.427,0.257-0.607,0.427c-3.518-8.87-17.702-38.851-41.44-16.467
		c-9.026,8.509-29.788-0.841-29.788-0.841c-1.419-0.639-3.384-0.173-4.367,1.033c0,0-12.633,15.517,8.298,16.749
		c20.931,1.23,2.562,9.836,2.562,9.836c-1.41,0.661-1.628,2.068-0.488,3.124c0,0,6.863,6.368,15.392,1.31
		c33.045-19.609,41.734-14.718,44.918-9.385c-1.895-0.277-4.199-0.531-6.978-0.721c-6.503-0.447-11.204,0.921-14.424,4.186
		c-0.882,0.896-1.616,1.903-2.226,3c-1.138-0.674-2.844-1.457-4.658-1.457c-1.751,0-4.879,0.758-6.146,5.824
		c-0.718,2.874-1.092,6.146-1.452,9.31c-0.434,3.799-1.158,10.155-2.661,10.611c-0.839,0.257-1.415,1.027-1.422,1.903
		c-0.007,0.879,0.554,1.658,1.388,1.928c0.192,0.063,1.223,0.373,2.651,0.373c1.854,0,4.52-0.522,6.699-3.014
		c1.309-1.498,2.248-3.517,2.814-6.029c0.153,5.237,0.719,8.717,3.768,10.91l-1.812,12.025c-0.131,1.062,0.627,2.034,1.69,2.164
		c1.064,0.131,2.034-0.627,2.166-1.691l1.046-11c1.988,0.64,4.557,1.052,7.978,1.426l-0.861,9.815
		c-0.055,1.071,0.767,1.984,1.838,2.042c1.071,0.055,1.984-0.769,2.04-1.838l0.167-9.702c1.544,0.143,3.227,0.289,5.074,0.451
		c1.879,0.161,3.604,0.268,5.223,0.319l-0.311,8.839c0,1.072,0.869,1.942,1.941,1.942c1.073,0,1.943-0.87,1.943-1.942l-0.311-8.812
		c2.969-0.052,5.497-0.336,7.642-0.834l0.166,9.742c0.058,1.071,0.972,1.893,2.043,1.835c1.07-0.055,1.893-0.97,1.837-2.039
		l-0.837-10.552c6.022-2.495,7.982-7.35,8.616-13.621c0.688-6.828-1.065-14.313-1.449-15.84c0.057-5.21,1.588-8.72,2.806-10.693
		c3.127,3.839,9.429,9.172,14.105,9.172c1.334,0,2.515-0.433,3.416-1.248C198.096,61.891,194.336,54.79,188.011,44.487z
		 M119.642,79.177c0,4.628-0.853,8.049-2.465,9.892c-0.416,0.476-0.885,0.85-1.405,1.12c0.935-2.576,1.332-6.057,1.761-9.819
		c0.347-3.036,0.704-6.175,1.359-8.792c0.694-2.782,1.825-2.782,2.25-2.782c0.478,0,0.996,0.14,1.49,0.339
		C121.013,71.175,119.642,74.334,119.642,79.177z M190.246,63.579c-0.063,0.056-0.231,0.208-0.723,0.208
		c-3.645,0-11.059-6.784-12.141-9.354c-0.256-0.605-0.789-1.048-1.431-1.184c-0.641-0.14-1.311,0.045-1.791,0.495
		c-0.226,0.21-5.548,5.295-5.564,15.824c-0.002,0.177,0.021,0.352,0.067,0.521c0.021,0.08,2.081,7.932,1.401,14.671
		c-0.793,7.871-3.556,11.869-16.452,11.869c0,0-0.002,0-0.004,0c-2.111,0-4.519-0.115-7.184-0.347
		c-9.588-0.831-14.871-1.289-17.206-2.874c-1.811-1.232-2.146-3.606-2.239-10.117c-0.088-6.476,0.304-13.588,3.904-17.238
		c2.039-2.065,5.075-3.07,9.281-3.07c0.641,0,1.317,0.023,2.009,0.071c9.898,0.679,13.238,2.205,13.249,2.209
		c0.554,0.279,1.207,0.285,1.767,0.017c0.56-0.27,0.966-0.78,1.096-1.386c3.698-17.125,11.452-22.067,11.515-22.104
		c0.474-0.282,0.816-0.74,0.938-1.277c0.124-0.537,0.022-1.098-0.283-1.555c-0.364-0.637-0.41-2.985-0.177-5.773
		c0.875,1.594,1.708,3.765,2.212,5.731c0.164,0.633,0.575,1.181,1.188,1.412c0.602,0.229,1.231,0.182,1.767-0.172
		c0.106-0.049,0.526-0.222,1.188-0.222c1.091,0,3.044,0.497,5.468,3.232c-2.463,0.178-6.899,0.414-9.471,0.038
		c-4.24-0.618,3.534,12.941,14.533,7.692C191.125,57.756,192.435,61.601,190.246,63.579z M182.024,47.43
		c0,1.283-1.041,2.324-2.325,2.324c-1.283,0-2.326-1.042-2.326-2.324c0-1.286,1.043-2.327,2.326-2.327
		C180.983,45.103,182.024,46.144,182.024,47.43z"/>
</g>
</svg>
