<?xml version="1.0" encoding="utf-8"?>
<!-- Generator: Adobe Illustrator 15.1.0, SVG Export Plug-In . SVG Version: 6.00 Build 0)  -->
<!DOCTYPE svg PUBLIC "-//W3C//DTD SVG 1.1//EN" "http://www.w3.org/Graphics/SVG/1.1/DTD/svg11.dtd">
<svg version="1.1" id="Layer_1" xmlns="http://www.w3.org/2000/svg" xmlns:xlink="http://www.w3.org/1999/xlink" x="0px" y="0px"
	 width="300px" height="300px" viewBox="0 0 300 300" enable-background="new 0 0 300 300" xml:space="preserve">
<path d="M206.829,108.053c0-30.66-24.491-55.705-54.938-56.603l0.044-0.047l-1.719,0.021c-0.005,0-0.011,0-0.018,0
	c-0.152,0-0.304,0.002-0.457,0.005l-0.681,0.009l-0.005,0.005c-14.81,0.293-28.689,6.245-39.124,16.795
	C99.38,78.905,93.569,93.045,93.569,108.053c0,30.646,24.471,55.683,54.898,56.601l-0.049,0.052l1.805-0.022
	c0.149,0,0.297-0.002,0.445-0.005l0.687-0.009l0.006-0.006c14.809-0.298,28.686-6.253,39.116-16.805
	C201.022,137.191,206.829,123.054,206.829,108.053z M95.667,108.053c0-28.92,22.894-52.864,51.508-54.445
	c-0.01,0.012-0.021,0.027-0.031,0.039c-0.145,0.178-0.295,0.366-0.45,0.561c-0.035,0.044-0.069,0.087-0.104,0.133
	c-0.164,0.208-0.333,0.427-0.506,0.654c-0.036,0.047-0.072,0.096-0.108,0.144c-0.17,0.225-0.343,0.457-0.521,0.699
	c-0.015,0.021-0.03,0.041-0.045,0.062c-0.186,0.254-0.375,0.521-0.567,0.793c-0.042,0.061-0.085,0.122-0.127,0.183
	c-0.191,0.275-0.385,0.558-0.581,0.85c-0.031,0.045-0.061,0.092-0.092,0.139c-0.181,0.272-0.364,0.552-0.547,0.839
	c-0.034,0.052-0.067,0.104-0.101,0.157c-0.198,0.312-0.396,0.634-0.595,0.962c-0.043,0.071-0.086,0.143-0.129,0.215
	c-0.205,0.34-0.408,0.687-0.611,1.043c-0.009,0.017-0.018,0.034-0.027,0.05c-0.196,0.345-0.39,0.698-0.583,1.058
	c-0.04,0.075-0.08,0.149-0.121,0.224c-0.194,0.367-0.387,0.741-0.578,1.122c-0.035,0.071-0.07,0.144-0.105,0.215
	c-0.181,0.367-0.359,0.738-0.534,1.116c-0.019,0.042-0.039,0.082-0.058,0.124c-0.184,0.402-0.363,0.813-0.54,1.228
	c-0.038,0.09-0.076,0.179-0.113,0.27c-0.175,0.418-0.346,0.841-0.51,1.272c-0.021,0.055-0.041,0.111-0.062,0.166
	c-0.152,0.402-0.299,0.81-0.44,1.222c-0.027,0.079-0.055,0.156-0.082,0.235c-0.149,0.441-0.292,0.889-0.427,1.341
	c-0.029,0.095-0.056,0.19-0.084,0.286c-0.137,0.469-0.27,0.943-0.392,1.424c-1.519,6.002-1.525,11.921-0.021,17.594
	c1.825,6.877,5.892,13.43,12.087,19.477c0.394,0.384,0.777,0.769,1.149,1.152c0.126,0.131,0.245,0.261,0.369,0.392
	c0.241,0.253,0.484,0.507,0.716,0.76c0.143,0.155,0.275,0.31,0.414,0.465c0.204,0.228,0.41,0.456,0.607,0.684
	c0.143,0.165,0.276,0.33,0.414,0.494c0.184,0.218,0.369,0.436,0.546,0.653c0.138,0.169,0.268,0.339,0.4,0.509
	c0.168,0.211,0.338,0.423,0.499,0.635c0.132,0.173,0.256,0.345,0.384,0.519c0.152,0.207,0.309,0.415,0.456,0.622
	c0.125,0.175,0.242,0.35,0.363,0.524c0.141,0.204,0.284,0.408,0.419,0.612c0.118,0.177,0.229,0.354,0.343,0.531
	c0.129,0.2,0.26,0.401,0.384,0.602c0.109,0.177,0.213,0.354,0.318,0.531c0.119,0.199,0.239,0.398,0.354,0.597
	c0.102,0.178,0.197,0.355,0.295,0.532c0.109,0.197,0.219,0.395,0.323,0.591c0.094,0.177,0.182,0.354,0.271,0.531
	c0.1,0.196,0.199,0.392,0.294,0.586c0.087,0.177,0.167,0.354,0.249,0.53c0.091,0.194,0.182,0.388,0.267,0.582
	c0.078,0.176,0.15,0.351,0.225,0.526c0.082,0.193,0.165,0.387,0.242,0.581c0.069,0.174,0.136,0.349,0.202,0.523
	c0.073,0.191,0.146,0.383,0.215,0.574c0.062,0.175,0.122,0.348,0.182,0.522c0.064,0.19,0.13,0.381,0.19,0.571
	c0.055,0.173,0.106,0.345,0.159,0.517c0.057,0.189,0.113,0.379,0.167,0.568c0.048,0.172,0.093,0.342,0.138,0.513
	c0.05,0.188,0.099,0.376,0.145,0.563c0.041,0.17,0.079,0.34,0.118,0.51c0.042,0.187,0.083,0.373,0.121,0.559
	c0.035,0.169,0.067,0.337,0.099,0.506c0.035,0.185,0.069,0.37,0.101,0.555c0.027,0.167,0.054,0.334,0.079,0.5
	c0.027,0.185,0.055,0.369,0.079,0.551c0.022,0.166,0.042,0.332,0.062,0.496c0.021,0.183,0.041,0.364,0.059,0.544
	c0.017,0.165,0.03,0.329,0.044,0.492c0.015,0.18,0.028,0.361,0.039,0.541c0.011,0.162,0.02,0.323,0.027,0.484
	c0.009,0.18,0.016,0.359,0.021,0.538c0.004,0.16,0.008,0.319,0.01,0.478c0.003,0.178,0.004,0.355,0.003,0.533
	c0,0.158-0.002,0.316-0.005,0.473c-0.003,0.176-0.008,0.352-0.015,0.526c-0.006,0.157-0.012,0.312-0.02,0.467
	c-0.009,0.174-0.02,0.348-0.031,0.522c-0.011,0.154-0.021,0.307-0.034,0.459c-0.014,0.172-0.03,0.345-0.048,0.518
	c-0.015,0.151-0.029,0.301-0.047,0.451c-0.02,0.172-0.04,0.343-0.062,0.513c-0.02,0.148-0.039,0.296-0.06,0.444
	c-0.025,0.17-0.051,0.339-0.078,0.508c-0.023,0.146-0.046,0.292-0.072,0.437c-0.028,0.167-0.06,0.335-0.092,0.502
	c-0.026,0.142-0.054,0.286-0.082,0.427c-0.034,0.167-0.069,0.333-0.106,0.498c-0.03,0.14-0.061,0.281-0.093,0.42
	c-0.038,0.165-0.078,0.328-0.118,0.492c-0.034,0.137-0.067,0.274-0.103,0.41c-0.043,0.164-0.087,0.327-0.132,0.489
	c-0.037,0.133-0.073,0.267-0.11,0.398c-0.047,0.163-0.096,0.324-0.145,0.484c-0.039,0.13-0.077,0.26-0.118,0.389
	c-0.05,0.161-0.104,0.319-0.155,0.479c-0.042,0.126-0.083,0.253-0.125,0.379c-0.055,0.159-0.111,0.315-0.167,0.473
	c-0.044,0.123-0.086,0.246-0.131,0.369c-0.059,0.158-0.118,0.314-0.178,0.471c-0.046,0.118-0.09,0.236-0.136,0.353
	c-0.062,0.158-0.126,0.312-0.188,0.468c-0.047,0.114-0.093,0.229-0.14,0.341c-0.065,0.156-0.132,0.309-0.198,0.462
	c-0.048,0.11-0.095,0.221-0.143,0.33c-0.069,0.155-0.14,0.307-0.209,0.46c-0.048,0.104-0.096,0.21-0.144,0.313
	c-0.073,0.155-0.147,0.308-0.221,0.462c-0.048,0.098-0.095,0.197-0.143,0.294c-0.077,0.157-0.156,0.312-0.234,0.468
	c-0.046,0.09-0.091,0.181-0.137,0.27c-0.083,0.161-0.167,0.319-0.251,0.478c-0.043,0.08-0.085,0.162-0.128,0.242
	c-0.093,0.172-0.187,0.341-0.28,0.51c-0.035,0.062-0.069,0.127-0.104,0.189c-0.11,0.196-0.221,0.388-0.331,0.579
	c-0.021,0.033-0.039,0.068-0.06,0.102c-0.262,0.449-0.527,0.886-0.793,1.308c-0.016,0.026-0.033,0.053-0.05,0.078
	c-0.115,0.183-0.23,0.363-0.346,0.541c-0.038,0.059-0.076,0.114-0.114,0.173c-0.093,0.143-0.187,0.285-0.28,0.424
	c-0.048,0.072-0.095,0.141-0.143,0.211c-0.084,0.122-0.167,0.245-0.249,0.365c-0.053,0.075-0.105,0.148-0.157,0.224
	c-0.078,0.11-0.155,0.222-0.232,0.33c-0.055,0.076-0.108,0.15-0.163,0.226c-0.074,0.103-0.147,0.206-0.221,0.306
	c-0.056,0.076-0.111,0.15-0.167,0.226c-0.07,0.095-0.141,0.19-0.211,0.283c-0.057,0.075-0.113,0.148-0.17,0.224
	c-0.066,0.087-0.134,0.175-0.199,0.261c-0.058,0.074-0.114,0.146-0.172,0.22c-0.063,0.081-0.127,0.163-0.189,0.242
	c-0.056,0.071-0.111,0.14-0.167,0.209c-0.062,0.077-0.123,0.154-0.184,0.229c-0.055,0.068-0.109,0.134-0.163,0.2
	c-0.059,0.071-0.117,0.144-0.176,0.213c-0.054,0.064-0.105,0.127-0.159,0.19c-0.056,0.066-0.111,0.133-0.166,0.197
	c-0.053,0.062-0.104,0.122-0.155,0.182c-0.052,0.061-0.104,0.121-0.154,0.18c-0.052,0.061-0.102,0.118-0.152,0.176
	c-0.048,0.054-0.096,0.108-0.142,0.161c-0.05,0.057-0.099,0.111-0.147,0.165c-0.043,0.049-0.087,0.098-0.129,0.145
	c-0.049,0.054-0.095,0.104-0.142,0.156c-0.039,0.043-0.079,0.086-0.116,0.127c-0.047,0.051-0.091,0.1-0.135,0.146
	c-0.022,0.024-0.044,0.048-0.066,0.071c-0.081,0.001-0.163,0.002-0.245,0.002C120.13,162.586,95.667,138.122,95.667,108.053z
	 M153.326,162.492c0.016-0.019,0.033-0.04,0.049-0.059c0.153-0.182,0.312-0.372,0.477-0.572c0.011-0.014,0.021-0.025,0.032-0.039
	c0.168-0.206,0.343-0.425,0.521-0.65c0.037-0.047,0.074-0.094,0.111-0.142c0.18-0.229,0.362-0.465,0.549-0.712
	c0.022-0.029,0.045-0.061,0.067-0.09c0.173-0.229,0.349-0.468,0.526-0.712c0.036-0.049,0.071-0.097,0.106-0.146
	c0.19-0.264,0.383-0.536,0.577-0.816c0.04-0.058,0.08-0.117,0.121-0.176c0.191-0.278,0.384-0.563,0.577-0.857
	c0.012-0.019,0.023-0.035,0.035-0.053c0.2-0.305,0.4-0.619,0.601-0.939c0.044-0.07,0.088-0.141,0.131-0.211
	c0.199-0.321,0.397-0.648,0.596-0.984c0.028-0.049,0.057-0.099,0.085-0.147c0.181-0.311,0.36-0.628,0.54-0.951
	c0.035-0.063,0.07-0.125,0.105-0.189c0.191-0.351,0.382-0.709,0.569-1.074c0.04-0.079,0.081-0.158,0.121-0.237
	c0.187-0.368,0.372-0.742,0.553-1.124c0.006-0.013,0.013-0.025,0.019-0.039c0.184-0.388,0.362-0.786,0.538-1.188
	c0.038-0.087,0.076-0.175,0.114-0.263c0.171-0.399,0.338-0.804,0.5-1.215c0.025-0.064,0.049-0.13,0.074-0.196
	c0.147-0.379,0.289-0.764,0.427-1.153c0.025-0.073,0.052-0.145,0.077-0.218c0.147-0.424,0.287-0.854,0.421-1.29
	c0.029-0.095,0.058-0.19,0.086-0.285c0.135-0.451,0.266-0.905,0.385-1.367c0.658-2.545,1.028-5.081,1.108-7.596
	c0.104-3.232-0.27-6.428-1.12-9.559c-1.831-6.736-5.893-13.209-12.073-19.241c-0.395-0.386-0.778-0.771-1.151-1.156
	c-0.127-0.131-0.247-0.263-0.371-0.395c-0.241-0.253-0.484-0.507-0.715-0.761c-0.144-0.158-0.28-0.316-0.42-0.474
	c-0.203-0.228-0.408-0.454-0.604-0.681c-0.144-0.168-0.28-0.335-0.419-0.503c-0.182-0.217-0.367-0.435-0.542-0.651
	c-0.14-0.173-0.271-0.346-0.407-0.519c-0.166-0.211-0.334-0.422-0.494-0.633c-0.134-0.177-0.26-0.354-0.391-0.532
	c-0.151-0.206-0.305-0.412-0.45-0.619c-0.128-0.18-0.249-0.36-0.372-0.541c-0.138-0.202-0.279-0.405-0.413-0.607
	c-0.12-0.183-0.233-0.364-0.35-0.546c-0.127-0.2-0.256-0.399-0.378-0.598c-0.111-0.183-0.217-0.365-0.325-0.547
	c-0.117-0.199-0.236-0.397-0.348-0.595c-0.104-0.183-0.202-0.366-0.301-0.549c-0.107-0.196-0.216-0.393-0.317-0.588
	c-0.096-0.184-0.187-0.367-0.279-0.551c-0.097-0.194-0.195-0.388-0.288-0.582c-0.089-0.185-0.171-0.369-0.256-0.553
	c-0.088-0.192-0.176-0.384-0.26-0.576c-0.081-0.185-0.156-0.368-0.233-0.553c-0.079-0.19-0.159-0.38-0.234-0.57
	c-0.072-0.185-0.141-0.368-0.209-0.552c-0.071-0.189-0.142-0.378-0.208-0.567c-0.065-0.183-0.126-0.366-0.187-0.549
	c-0.063-0.188-0.126-0.375-0.185-0.563c-0.058-0.182-0.111-0.365-0.165-0.547c-0.055-0.186-0.11-0.372-0.161-0.557
	c-0.05-0.183-0.097-0.365-0.144-0.546c-0.047-0.184-0.094-0.368-0.138-0.551c-0.043-0.182-0.084-0.364-0.124-0.545
	c-0.04-0.182-0.08-0.363-0.116-0.545c-0.037-0.181-0.07-0.361-0.104-0.542c-0.033-0.181-0.065-0.361-0.095-0.542
	c-0.03-0.179-0.057-0.358-0.083-0.537c-0.026-0.179-0.053-0.358-0.076-0.537s-0.044-0.357-0.064-0.535
	c-0.02-0.177-0.039-0.354-0.055-0.53c-0.017-0.178-0.032-0.354-0.046-0.531c-0.014-0.175-0.026-0.351-0.037-0.525
	c-0.011-0.176-0.02-0.352-0.028-0.527c-0.008-0.173-0.014-0.347-0.019-0.519c-0.005-0.174-0.009-0.348-0.011-0.522
	c-0.002-0.171-0.003-0.343-0.002-0.514c0-0.173,0.002-0.346,0.005-0.518c0.003-0.169,0.008-0.339,0.015-0.507
	c0.006-0.172,0.013-0.343,0.021-0.513c0.009-0.168,0.019-0.334,0.03-0.5c0.011-0.171,0.023-0.341,0.037-0.51
	c0.014-0.165,0.028-0.329,0.044-0.493c0.016-0.169,0.033-0.337,0.052-0.504c0.018-0.164,0.038-0.326,0.059-0.488
	c0.021-0.166,0.042-0.332,0.065-0.497c0.023-0.161,0.048-0.321,0.073-0.481c0.025-0.164,0.051-0.328,0.079-0.492
	c0.027-0.159,0.056-0.316,0.085-0.474c0.03-0.162,0.06-0.324,0.092-0.485c0.031-0.156,0.063-0.311,0.097-0.466
	c0.034-0.161,0.068-0.321,0.104-0.48c0.035-0.154,0.071-0.306,0.108-0.458c0.038-0.158,0.076-0.316,0.115-0.473
	c0.038-0.151,0.079-0.301,0.119-0.452c0.042-0.155,0.083-0.311,0.126-0.465c0.041-0.148,0.084-0.295,0.128-0.443
	c0.044-0.154,0.089-0.308,0.136-0.461c0.044-0.145,0.091-0.288,0.136-0.432c0.049-0.152,0.096-0.304,0.146-0.455
	c0.047-0.143,0.097-0.283,0.145-0.425c0.051-0.148,0.102-0.297,0.154-0.445c0.05-0.14,0.102-0.279,0.153-0.418
	c0.054-0.146,0.107-0.292,0.162-0.437c0.053-0.137,0.106-0.272,0.16-0.408c0.057-0.144,0.113-0.288,0.17-0.431
	c0.054-0.133,0.11-0.265,0.166-0.397c0.059-0.141,0.117-0.282,0.177-0.422c0.056-0.13,0.113-0.258,0.17-0.387
	c0.062-0.139,0.122-0.279,0.185-0.417c0.057-0.125,0.115-0.249,0.172-0.374c0.064-0.137,0.127-0.275,0.191-0.411
	c0.06-0.124,0.119-0.245,0.179-0.367c0.065-0.133,0.129-0.267,0.195-0.398c0.059-0.118,0.119-0.234,0.179-0.352
	c0.067-0.133,0.134-0.265,0.202-0.396c0.058-0.111,0.116-0.219,0.174-0.329c0.071-0.132,0.141-0.267,0.212-0.396
	c0.057-0.105,0.114-0.207,0.17-0.31c0.074-0.133,0.147-0.268,0.221-0.399c0.021-0.037,0.041-0.071,0.062-0.107
	c0.193-0.34,0.388-0.673,0.582-0.998c0.047-0.08,0.095-0.16,0.142-0.239c0.074-0.123,0.148-0.24,0.223-0.361
	c0.058-0.095,0.116-0.191,0.175-0.284c0.07-0.112,0.14-0.22,0.21-0.33c0.062-0.098,0.125-0.198,0.188-0.294
	c0.068-0.107,0.137-0.209,0.206-0.314c0.063-0.096,0.125-0.192,0.188-0.286c0.068-0.103,0.136-0.201,0.204-0.302
	c0.063-0.093,0.126-0.187,0.188-0.279c0.065-0.095,0.13-0.187,0.194-0.28c0.064-0.092,0.128-0.185,0.191-0.275
	c0.065-0.092,0.129-0.182,0.194-0.272c0.062-0.086,0.124-0.174,0.186-0.259c0.064-0.088,0.127-0.174,0.19-0.26
	c0.061-0.083,0.122-0.167,0.182-0.248c0.063-0.084,0.124-0.166,0.186-0.248c0.059-0.079,0.118-0.158,0.177-0.235
	c0.06-0.078,0.118-0.154,0.177-0.23c0.06-0.078,0.119-0.155,0.178-0.23c0.056-0.072,0.111-0.142,0.166-0.212
	c0.058-0.074,0.117-0.148,0.173-0.22c0.056-0.07,0.11-0.138,0.165-0.205c0.054-0.068,0.108-0.136,0.162-0.201
	c0.054-0.066,0.106-0.13,0.159-0.193c0.052-0.063,0.104-0.127,0.155-0.188c0.05-0.06,0.1-0.118,0.148-0.177
	c0.049-0.059,0.1-0.119,0.148-0.177c0.047-0.055,0.093-0.108,0.139-0.162c0.047-0.056,0.095-0.112,0.141-0.165
	c0.043-0.051,0.086-0.099,0.128-0.147c0.044-0.051,0.089-0.103,0.132-0.151c0.041-0.045,0.079-0.089,0.118-0.133
	c0.026-0.03,0.052-0.059,0.078-0.088c0.066,0,0.132-0.001,0.198-0.001c30.069,0,54.533,24.464,54.533,54.533
	C204.732,136.931,181.888,160.857,153.326,162.492z"/>
<g>
	<path fill="#010101" d="M30.199,248.594l29.269-42.46H32.46v-1.885h30.274v0.503l-29.144,42.459h28.767v1.947H30.199V248.594z"/>
	<path fill="#010101" d="M74.104,204.249h25.5v1.885h-23.24v18.905h18.906v1.947H76.365v20.225h24.371v1.947H74.104V204.249z"/>
	<path fill="#010101" d="M112.795,204.249h3.204l27.196,41.895v-41.895h2.198v44.909h-2.764l-27.636-42.585v42.585h-2.198V204.249z"
		/>
	<path fill="#010101" d="M160.343,204.249h11.307c8.793,0,15.011,3.329,15.011,12.248v0.252c0,9.044-6.093,12.624-14.886,12.624
		h-9.233v19.785h-2.198V204.249z M171.838,227.489c7.788,0,12.562-3.078,12.562-10.74v-0.252c0-7.788-5.15-10.363-12.688-10.363
		h-9.171v21.355H171.838z"/>
	<path fill="#010101" d="M211.282,204.249h3.016l16.707,44.909h-2.261l-5.339-14.32h-21.293l-5.275,14.32h-2.136L211.282,204.249z
		 M202.804,232.953h19.91l-9.986-26.882L202.804,232.953z"/>
	<path fill="#010101" d="M253.178,228.934l-15.702-24.685h2.575l14.32,22.737l13.505-22.737h2.323l-14.76,24.685v20.225h-2.262
		V228.934z"/>
</g>
</svg>
