<?xml version="1.0" encoding="utf-8"?>
<!-- Generator: Adobe Illustrator 15.1.0, SVG Export Plug-In . SVG Version: 6.00 Build 0)  -->
<!DOCTYPE svg PUBLIC "-//W3C//DTD SVG 1.1//EN" "http://www.w3.org/Graphics/SVG/1.1/DTD/svg11.dtd">
<svg version="1.1" id="Layer_1" xmlns="http://www.w3.org/2000/svg" xmlns:xlink="http://www.w3.org/1999/xlink" x="0px" y="0px"
	 width="400px" height="520px" viewBox="0 0 400 520" enable-background="new 0 0 400 520" xml:space="preserve">
<path d="M291.835,191.949c0-49.613-39.63-90.138-88.896-91.592l0.07-0.077l-2.781,0.033c-0.009,0-0.018,0-0.028,0
	c-0.247,0-0.492,0.004-0.739,0.009l-1.102,0.014l-0.009,0.008c-23.965,0.475-46.423,10.105-63.309,27.177
	c-17.075,17.264-26.478,40.146-26.478,64.429c0,49.591,39.597,90.104,88.834,91.589l-0.08,0.084l2.921-0.037
	c0.242,0,0.481-0.002,0.721-0.008l1.11-0.014l0.011-0.01c23.962-0.482,46.417-10.118,63.296-27.193
	C282.439,239.1,291.835,216.225,291.835,191.949z M111.957,191.949c0-46.797,37.046-85.542,83.348-88.101
	c-0.017,0.021-0.034,0.044-0.051,0.063c-0.234,0.288-0.478,0.592-0.728,0.907c-0.057,0.072-0.112,0.141-0.169,0.215
	c-0.266,0.337-0.539,0.69-0.819,1.059c-0.058,0.076-0.117,0.155-0.176,0.232c-0.276,0.364-0.555,0.74-0.842,1.131
	c-0.024,0.035-0.049,0.066-0.074,0.101c-0.3,0.412-0.607,0.843-0.918,1.284c-0.068,0.098-0.137,0.197-0.207,0.296
	c-0.31,0.445-0.623,0.902-0.939,1.375c-0.05,0.073-0.099,0.149-0.149,0.225c-0.293,0.441-0.588,0.893-0.885,1.357
	c-0.055,0.085-0.109,0.169-0.164,0.254c-0.321,0.506-0.642,1.026-0.963,1.558c-0.07,0.116-0.14,0.23-0.21,0.348
	c-0.331,0.551-0.66,1.112-0.989,1.688c-0.015,0.027-0.03,0.054-0.044,0.081c-0.316,0.558-0.63,1.13-0.943,1.711
	c-0.064,0.121-0.129,0.241-0.195,0.362c-0.314,0.594-0.626,1.199-0.934,1.816c-0.057,0.114-0.114,0.232-0.171,0.348
	c-0.292,0.593-0.581,1.194-0.864,1.806c-0.031,0.068-0.062,0.133-0.094,0.2c-0.298,0.651-0.587,1.316-0.874,1.987
	c-0.061,0.146-0.122,0.29-0.183,0.437c-0.283,0.676-0.56,1.361-0.826,2.058c-0.035,0.089-0.066,0.179-0.099,0.268
	c-0.247,0.65-0.484,1.31-0.713,1.978c-0.044,0.127-0.089,0.253-0.132,0.38c-0.241,0.713-0.471,1.438-0.691,2.17
	c-0.046,0.153-0.091,0.309-0.135,0.463c-0.222,0.759-0.437,1.525-0.635,2.304c-2.458,9.712-2.468,19.29-0.034,28.469
	c2.953,11.127,9.534,21.731,19.56,31.516c0.638,0.622,1.257,1.244,1.859,1.864c0.205,0.212,0.396,0.423,0.595,0.634
	c0.391,0.409,0.785,0.82,1.159,1.229c0.23,0.251,0.446,0.502,0.671,0.753c0.329,0.369,0.663,0.738,0.981,1.106
	c0.231,0.267,0.448,0.533,0.671,0.8c0.297,0.352,0.598,0.705,0.883,1.056c0.224,0.274,0.434,0.548,0.648,0.823
	c0.271,0.342,0.546,0.685,0.808,1.027c0.213,0.28,0.414,0.559,0.621,0.839c0.246,0.335,0.499,0.67,0.738,1.006
	c0.201,0.283,0.392,0.566,0.587,0.848c0.228,0.331,0.46,0.661,0.679,0.991c0.19,0.287,0.369,0.572,0.555,0.859
	c0.208,0.324,0.419,0.649,0.62,0.974c0.178,0.286,0.345,0.573,0.516,0.859c0.193,0.323,0.388,0.645,0.571,0.966
	c0.165,0.288,0.319,0.574,0.478,0.861c0.178,0.319,0.354,0.638,0.523,0.956c0.152,0.287,0.294,0.574,0.438,0.86
	c0.162,0.316,0.323,0.633,0.476,0.948c0.141,0.287,0.271,0.572,0.404,0.858c0.146,0.314,0.294,0.628,0.431,0.942
	c0.126,0.284,0.243,0.568,0.364,0.851c0.133,0.312,0.267,0.626,0.392,0.939c0.111,0.282,0.22,0.564,0.327,0.847
	c0.118,0.31,0.236,0.62,0.347,0.929c0.102,0.283,0.197,0.563,0.295,0.846c0.104,0.308,0.21,0.616,0.308,0.923
	c0.089,0.28,0.172,0.558,0.258,0.836c0.092,0.307,0.184,0.614,0.271,0.92c0.077,0.278,0.149,0.554,0.222,0.83
	c0.082,0.304,0.16,0.608,0.234,0.912c0.066,0.275,0.129,0.55,0.191,0.825c0.067,0.302,0.135,0.604,0.196,0.904
	c0.057,0.273,0.109,0.546,0.159,0.819c0.058,0.299,0.112,0.599,0.163,0.897c0.044,0.271,0.087,0.541,0.127,0.809
	c0.045,0.299,0.09,0.597,0.129,0.892c0.037,0.269,0.068,0.537,0.1,0.803c0.033,0.296,0.066,0.589,0.095,0.881
	c0.026,0.266,0.049,0.532,0.071,0.796c0.023,0.291,0.046,0.583,0.063,0.875c0.017,0.261,0.031,0.523,0.044,0.783
	c0.014,0.291,0.025,0.581,0.034,0.87c0.007,0.258,0.014,0.516,0.017,0.773c0.005,0.289,0.006,0.575,0.005,0.862
	c0,0.255-0.004,0.511-0.008,0.766c-0.006,0.284-0.014,0.568-0.024,0.851c-0.01,0.253-0.02,0.504-0.031,0.756
	c-0.015,0.281-0.031,0.563-0.051,0.844c-0.018,0.249-0.034,0.496-0.056,0.744c-0.022,0.279-0.049,0.559-0.077,0.837
	c-0.023,0.245-0.048,0.488-0.076,0.73c-0.031,0.278-0.064,0.555-0.102,0.829c-0.031,0.241-0.062,0.48-0.096,0.718
	c-0.041,0.276-0.082,0.549-0.126,0.822c-0.038,0.236-0.075,0.471-0.117,0.707c-0.046,0.271-0.096,0.542-0.148,0.812
	c-0.042,0.229-0.087,0.462-0.133,0.69c-0.056,0.271-0.112,0.539-0.172,0.806c-0.049,0.227-0.099,0.454-0.15,0.68
	c-0.062,0.266-0.126,0.53-0.191,0.795c-0.056,0.222-0.109,0.444-0.166,0.663c-0.069,0.265-0.141,0.528-0.213,0.791
	c-0.061,0.216-0.118,0.432-0.179,0.645c-0.076,0.264-0.155,0.524-0.234,0.784c-0.062,0.21-0.124,0.421-0.191,0.629
	c-0.08,0.26-0.167,0.517-0.251,0.775c-0.067,0.205-0.134,0.41-0.202,0.613c-0.089,0.257-0.181,0.51-0.27,0.764
	c-0.071,0.199-0.14,0.398-0.212,0.597c-0.095,0.255-0.191,0.509-0.288,0.763c-0.074,0.19-0.146,0.382-0.22,0.571
	c-0.101,0.256-0.203,0.506-0.305,0.757c-0.076,0.184-0.149,0.37-0.226,0.552c-0.106,0.252-0.215,0.499-0.321,0.748
	c-0.077,0.178-0.153,0.357-0.231,0.534c-0.111,0.25-0.226,0.497-0.338,0.745c-0.077,0.169-0.154,0.34-0.232,0.507
	c-0.118,0.251-0.237,0.499-0.357,0.748c-0.076,0.157-0.152,0.319-0.229,0.476c-0.125,0.254-0.253,0.505-0.38,0.757
	c-0.074,0.145-0.146,0.292-0.221,0.436c-0.135,0.262-0.271,0.518-0.406,0.772c-0.07,0.13-0.137,0.263-0.207,0.392
	c-0.15,0.279-0.302,0.553-0.453,0.826c-0.058,0.101-0.113,0.205-0.17,0.306c-0.179,0.318-0.357,0.628-0.536,0.938
	c-0.032,0.054-0.062,0.11-0.096,0.164c-0.423,0.727-0.854,1.434-1.283,2.116c-0.024,0.043-0.054,0.085-0.081,0.126
	c-0.186,0.296-0.372,0.589-0.559,0.876c-0.062,0.096-0.124,0.185-0.186,0.279c-0.149,0.231-0.301,0.462-0.453,0.687
	c-0.078,0.117-0.152,0.228-0.23,0.342c-0.137,0.197-0.271,0.396-0.403,0.59c-0.085,0.122-0.171,0.24-0.255,0.362
	c-0.126,0.178-0.251,0.359-0.376,0.534c-0.088,0.123-0.175,0.243-0.263,0.365c-0.121,0.166-0.239,0.333-0.357,0.494
	c-0.091,0.124-0.181,0.243-0.271,0.365c-0.113,0.153-0.228,0.308-0.341,0.458c-0.092,0.122-0.184,0.24-0.276,0.362
	c-0.106,0.141-0.216,0.283-0.321,0.422c-0.094,0.12-0.186,0.237-0.279,0.355c-0.103,0.131-0.205,0.264-0.306,0.392
	c-0.09,0.115-0.181,0.226-0.27,0.339c-0.101,0.125-0.2,0.25-0.298,0.369c-0.089,0.11-0.177,0.217-0.264,0.323
	c-0.095,0.116-0.189,0.233-0.285,0.346c-0.087,0.104-0.17,0.205-0.258,0.308c-0.089,0.107-0.18,0.216-0.268,0.319
	c-0.086,0.102-0.168,0.197-0.252,0.295c-0.084,0.097-0.168,0.195-0.249,0.29c-0.084,0.098-0.165,0.19-0.247,0.284
	c-0.077,0.087-0.155,0.176-0.229,0.262c-0.081,0.091-0.159,0.18-0.239,0.267c-0.07,0.079-0.141,0.157-0.208,0.233
	c-0.079,0.087-0.154,0.169-0.229,0.253c-0.064,0.069-0.128,0.14-0.188,0.205c-0.076,0.083-0.147,0.161-0.219,0.237
	c-0.035,0.04-0.071,0.078-0.107,0.115c-0.131,0.002-0.264,0.004-0.396,0.004C151.542,280.193,111.957,240.606,111.957,191.949z
	 M205.26,280.041c0.024-0.029,0.054-0.064,0.078-0.095c0.249-0.294,0.504-0.603,0.771-0.926c0.019-0.022,0.034-0.042,0.053-0.063
	c0.272-0.333,0.555-0.688,0.843-1.053c0.061-0.076,0.119-0.152,0.18-0.229c0.291-0.37,0.587-0.753,0.889-1.152
	c0.036-0.048,0.072-0.098,0.109-0.145c0.278-0.372,0.563-0.758,0.852-1.153c0.058-0.078,0.114-0.156,0.172-0.236
	c0.308-0.427,0.619-0.867,0.934-1.321c0.065-0.093,0.13-0.19,0.196-0.284c0.31-0.45,0.621-0.911,0.934-1.388
	c0.019-0.03,0.038-0.058,0.057-0.085c0.325-0.493,0.648-1.003,0.973-1.521c0.071-0.113,0.142-0.228,0.212-0.342
	c0.322-0.52,0.643-1.049,0.963-1.592c0.047-0.08,0.093-0.16,0.139-0.239c0.292-0.502,0.582-1.016,0.874-1.539
	c0.057-0.103,0.113-0.202,0.17-0.307c0.31-0.567,0.617-1.147,0.921-1.738c0.065-0.128,0.132-0.257,0.196-0.384
	c0.302-0.596,0.602-1.201,0.895-1.819c0.009-0.02,0.02-0.041,0.03-0.063c0.297-0.627,0.586-1.271,0.87-1.921
	c0.062-0.141,0.123-0.283,0.186-0.424c0.275-0.646,0.547-1.301,0.809-1.966c0.041-0.104,0.078-0.211,0.12-0.317
	c0.238-0.614,0.468-1.236,0.69-1.866c0.041-0.118,0.084-0.235,0.125-0.353c0.239-0.686,0.465-1.383,0.681-2.086
	c0.048-0.153,0.094-0.308,0.14-0.461c0.218-0.729,0.43-1.465,0.623-2.211c1.064-4.118,1.663-8.222,1.793-12.292
	c0.169-5.229-0.436-10.402-1.812-15.467c-2.963-10.901-9.535-21.375-19.536-31.135c-0.64-0.625-1.26-1.247-1.862-1.871
	c-0.207-0.212-0.399-0.426-0.601-0.638c-0.39-0.41-0.783-0.821-1.157-1.231c-0.233-0.256-0.453-0.511-0.679-0.767
	c-0.328-0.368-0.661-0.734-0.977-1.102c-0.233-0.271-0.453-0.543-0.679-0.813c-0.295-0.352-0.593-0.703-0.877-1.054
	c-0.226-0.281-0.438-0.559-0.658-0.84c-0.268-0.341-0.542-0.684-0.8-1.024c-0.216-0.287-0.421-0.574-0.632-0.861
	c-0.244-0.333-0.494-0.667-0.729-1.001c-0.207-0.292-0.402-0.583-0.601-0.875c-0.224-0.327-0.452-0.654-0.668-0.982
	c-0.194-0.295-0.378-0.589-0.566-0.884c-0.205-0.323-0.415-0.646-0.611-0.967c-0.18-0.296-0.351-0.592-0.526-0.886
	c-0.189-0.321-0.382-0.643-0.562-0.962c-0.168-0.296-0.326-0.593-0.488-0.889c-0.173-0.317-0.349-0.635-0.513-0.952
	c-0.156-0.297-0.302-0.594-0.452-0.891c-0.157-0.313-0.314-0.628-0.465-0.942c-0.144-0.298-0.277-0.597-0.414-0.895
	c-0.142-0.31-0.285-0.622-0.42-0.933c-0.131-0.298-0.253-0.595-0.377-0.894c-0.127-0.307-0.257-0.615-0.378-0.922
	c-0.117-0.298-0.228-0.595-0.339-0.893c-0.114-0.306-0.229-0.612-0.337-0.917c-0.105-0.296-0.204-0.592-0.302-0.888
	c-0.102-0.304-0.205-0.608-0.299-0.912c-0.093-0.294-0.179-0.591-0.267-0.885c-0.089-0.3-0.178-0.601-0.261-0.901
	c-0.081-0.296-0.157-0.59-0.232-0.885c-0.077-0.297-0.152-0.595-0.224-0.892c-0.069-0.294-0.136-0.589-0.2-0.883
	s-0.129-0.587-0.187-0.882c-0.059-0.293-0.114-0.584-0.167-0.877c-0.054-0.292-0.106-0.584-0.154-0.876
	c-0.048-0.29-0.092-0.579-0.134-0.869c-0.043-0.29-0.085-0.579-0.123-0.868c-0.037-0.289-0.071-0.578-0.104-0.865
	c-0.031-0.287-0.063-0.574-0.089-0.858c-0.027-0.287-0.052-0.573-0.075-0.859c-0.022-0.284-0.042-0.567-0.06-0.85
	c-0.017-0.285-0.032-0.57-0.044-0.854c-0.013-0.281-0.023-0.561-0.031-0.84c-0.009-0.282-0.015-0.563-0.018-0.845
	c-0.003-0.277-0.005-0.555-0.003-0.832c0.001-0.28,0.004-0.559,0.009-0.838c0.006-0.274,0.014-0.548,0.023-0.821
	c0.01-0.278,0.021-0.555,0.035-0.83c0.015-0.272,0.03-0.542,0.049-0.81c0.018-0.276,0.037-0.552,0.06-0.825
	c0.022-0.267,0.046-0.533,0.072-0.797c0.026-0.273,0.054-0.545,0.084-0.816c0.029-0.265,0.062-0.527,0.095-0.79
	c0.034-0.269,0.069-0.536,0.106-0.803c0.038-0.261,0.078-0.52,0.118-0.779c0.042-0.265,0.082-0.531,0.127-0.795
	c0.043-0.257,0.09-0.512,0.137-0.767c0.049-0.262,0.097-0.524,0.148-0.785c0.05-0.252,0.104-0.503,0.157-0.754
	c0.055-0.26,0.11-0.52,0.167-0.777c0.057-0.249,0.116-0.495,0.175-0.741c0.062-0.255,0.122-0.511,0.187-0.766
	c0.062-0.245,0.127-0.488,0.192-0.731c0.067-0.251,0.133-0.503,0.204-0.752c0.066-0.24,0.137-0.478,0.207-0.716
	c0.072-0.249,0.145-0.499,0.22-0.746c0.072-0.234,0.147-0.466,0.221-0.698c0.079-0.246,0.156-0.492,0.237-0.735
	c0.076-0.231,0.157-0.458,0.235-0.688c0.082-0.241,0.165-0.481,0.249-0.721c0.082-0.227,0.166-0.451,0.249-0.676
	c0.087-0.235,0.173-0.472,0.262-0.706c0.085-0.222,0.172-0.44,0.258-0.66c0.092-0.233,0.183-0.466,0.276-0.697
	c0.087-0.216,0.178-0.428,0.268-0.643c0.095-0.229,0.19-0.457,0.287-0.684c0.09-0.21,0.183-0.417,0.275-0.626
	c0.1-0.224,0.198-0.451,0.299-0.674c0.091-0.203,0.186-0.403,0.279-0.604c0.104-0.222,0.206-0.446,0.31-0.665
	c0.096-0.2,0.193-0.396,0.289-0.593c0.105-0.215,0.209-0.433,0.315-0.645c0.096-0.191,0.192-0.379,0.29-0.57
	c0.108-0.215,0.218-0.429,0.328-0.641c0.093-0.179,0.188-0.354,0.282-0.532c0.115-0.214,0.228-0.432,0.343-0.642
	c0.092-0.17,0.184-0.334,0.276-0.501c0.119-0.216,0.238-0.433,0.357-0.646c0.034-0.059,0.066-0.115,0.1-0.174
	c0.312-0.55,0.627-1.089,0.941-1.614c0.077-0.129,0.153-0.259,0.23-0.387c0.121-0.198,0.24-0.388,0.36-0.583
	c0.094-0.153,0.188-0.309,0.283-0.46c0.114-0.181,0.227-0.356,0.34-0.534c0.101-0.159,0.202-0.321,0.303-0.477
	c0.111-0.173,0.222-0.339,0.333-0.508c0.102-0.155,0.203-0.312,0.304-0.463c0.109-0.166,0.219-0.325,0.329-0.488
	c0.103-0.15,0.204-0.302,0.306-0.452c0.105-0.153,0.209-0.302,0.314-0.452c0.104-0.148,0.207-0.299,0.31-0.445
	c0.106-0.15,0.209-0.294,0.314-0.44c0.1-0.14,0.201-0.282,0.3-0.419c0.104-0.144,0.206-0.282,0.308-0.421
	c0.098-0.135,0.197-0.27,0.294-0.401c0.102-0.137,0.201-0.268,0.301-0.402c0.096-0.127,0.191-0.255,0.287-0.38
	c0.096-0.126,0.191-0.249,0.286-0.372c0.097-0.125,0.192-0.251,0.288-0.373c0.09-0.117,0.179-0.23,0.268-0.342
	c0.094-0.121,0.189-0.241,0.281-0.356c0.09-0.113,0.178-0.223,0.266-0.331c0.088-0.11,0.175-0.22,0.262-0.326
	c0.086-0.107,0.171-0.21,0.257-0.312c0.083-0.103,0.168-0.205,0.25-0.305c0.081-0.097,0.161-0.191,0.24-0.287
	s0.162-0.192,0.239-0.286c0.076-0.089,0.15-0.176,0.226-0.262c0.076-0.09,0.154-0.181,0.228-0.267
	c0.07-0.083,0.139-0.16,0.207-0.238c0.071-0.083,0.145-0.166,0.213-0.245c0.065-0.074,0.127-0.145,0.191-0.215
	c0.042-0.048,0.084-0.096,0.126-0.143c0.106-0.001,0.214-0.003,0.321-0.003c48.657,0,88.243,39.586,88.243,88.243
	C288.442,238.679,251.476,277.396,205.26,280.041z"/>
<g>
	<path fill="#010101" d="M6.021,419.367l47.362-68.707H9.68v-3.05h48.988v0.813l-47.16,68.706h46.55v3.15H6.021V419.367z"/>
	<path fill="#010101" d="M77.065,347.61h41.264v3.05H80.723v30.591h30.593v3.152H80.723v32.727h39.436v3.15H77.065V347.61z"/>
	<path fill="#010101" d="M139.674,347.61h5.184l44.008,67.792V347.61h3.557v72.67h-4.472l-44.72-68.909v68.909h-3.557V347.61z"/>
	<path fill="#010101" d="M216.613,347.61h18.296c14.229,0,24.29,5.387,24.29,19.819v0.407c0,14.634-9.859,20.428-24.088,20.428
		H220.17v32.016h-3.557V347.61z M235.214,385.217c12.603,0,20.327-4.981,20.327-17.38v-0.407c0-12.603-8.335-16.77-20.53-16.77
		H220.17v34.557H235.214z"/>
	<path fill="#010101" d="M299.041,347.61h4.88l27.035,72.67h-3.658l-8.64-23.173h-34.456l-8.535,23.173h-3.457L299.041,347.61z
		 M285.322,394.059h32.218l-16.16-43.499L285.322,394.059z"/>
	<path fill="#010101" d="M366.834,387.554l-25.408-39.943h4.167l23.174,36.793l21.853-36.793h3.759l-23.884,39.943v32.727h-3.66
		V387.554z"/>
</g>
</svg>
