<?xml version="1.0" encoding="utf-8"?>
<!-- Generator: Adobe Illustrator 15.1.0, SVG Export Plug-In . SVG Version: 6.00 Build 0)  -->
<!DOCTYPE svg PUBLIC "-//W3C//DTD SVG 1.1//EN" "http://www.w3.org/Graphics/SVG/1.1/DTD/svg11.dtd">
<svg version="1.1" id="Layer_1" xmlns="http://www.w3.org/2000/svg" xmlns:xlink="http://www.w3.org/1999/xlink" x="0px" y="0px"
	 width="60px" height="60px" viewBox="0 0 60 60" enable-background="new 0 0 60 60" xml:space="preserve">
<path fill="#2AACE3" d="M43.03,21.221c-0.984,0.436-2.039,0.73-3.15,0.867c1.133-0.68,2.006-1.755,2.414-3.036
	c-1.059,0.629-2.232,1.086-3.483,1.331c-1.003-1.07-2.431-1.738-4.005-1.738c-3.03,0-5.483,2.458-5.483,5.488
	c0,0.431,0.046,0.851,0.142,1.253c-4.56-0.227-8.603-2.413-11.306-5.738c-0.47,0.81-0.742,1.755-0.742,2.759
	c0,1.902,0.969,3.585,2.441,4.571c-0.9-0.023-1.75-0.272-2.487-0.686c0,0.022,0,0.045,0,0.068c0,2.662,1.892,4.876,4.401,5.38
	c-0.458,0.125-0.945,0.193-1.443,0.193c-0.352,0-0.698-0.035-1.032-0.103c0.698,2.181,2.725,3.767,5.127,3.812
	c-1.875,1.472-4.241,2.351-6.814,2.351c-0.442,0-0.877-0.029-1.308-0.078c2.424,1.573,5.307,2.48,8.399,2.48
	c10.093,0,15.611-8.367,15.611-15.622c0-0.238-0.007-0.476-0.017-0.708C41.364,23.288,42.294,22.319,43.03,21.221z"/>
<g>
	<path fill="#2AACE3" d="M29.666,2.006c15.171,0,27.513,12.342,27.513,27.513S44.837,57.032,29.666,57.032
		c-15.17,0-27.513-12.343-27.513-27.513S14.496,2.006,29.666,2.006 M29.666,0.519c-16.016,0-29,12.983-29,29
		c0,16.015,12.984,29,29,29c16.016,0,29-12.985,29-29C58.666,13.502,45.682,0.519,29.666,0.519L29.666,0.519z"/>
</g>
</svg>
