<?xml version="1.0" encoding="utf-8"?>
<!-- Generator: Adobe Illustrator 15.1.0, SVG Export Plug-In . SVG Version: 6.00 Build 0)  -->
<!DOCTYPE svg PUBLIC "-//W3C//DTD SVG 1.1//EN" "http://www.w3.org/Graphics/SVG/1.1/DTD/svg11.dtd">
<svg version="1.1" id="Layer_3" xmlns="http://www.w3.org/2000/svg" xmlns:xlink="http://www.w3.org/1999/xlink" x="0px" y="0px"
	 width="60px" height="60px" viewBox="0 0 60 60" enable-background="new 0 0 60 60" xml:space="preserve">
<g>
	<g>
		<polygon points="43.031,38.43 43.031,21.571 33.906,28.517 38.645,33.904 38.506,34.045 33.014,29.2 29.666,31.748 26.318,29.2 
			20.826,34.045 20.687,33.904 25.419,28.517 16.302,21.585 16.302,38.43 		"/>
		<polygon points="42.453,20.611 16.858,20.611 29.666,30.348 		"/>
	</g>
	<g>
		<path d="M29.666,2.006c15.172,0,27.514,12.343,27.514,27.514c0,15.169-12.342,27.513-27.514,27.513
			c-15.169,0-27.512-12.344-27.512-27.513C2.153,14.35,14.496,2.006,29.666,2.006 M29.666,0.52c-16.015,0-29,12.982-29,29
			c0,16.015,12.984,29,29,29c16.016,0,29-12.984,29-29C58.666,13.502,45.682,0.52,29.666,0.52L29.666,0.52z"/>
	</g>
</g>
</svg>
