<?xml version="1.0" encoding="utf-8"?>
<!-- Generator: Adobe Illustrator 15.1.0, SVG Export Plug-In . SVG Version: 6.00 Build 0)  -->
<!DOCTYPE svg PUBLIC "-//W3C//DTD SVG 1.1//EN" "http://www.w3.org/Graphics/SVG/1.1/DTD/svg11.dtd">
<svg version="1.1" id="Layer_2" xmlns="http://www.w3.org/2000/svg" xmlns:xlink="http://www.w3.org/1999/xlink" x="0px" y="0px"
	 width="60px" height="60px" viewBox="0 0 60 60" enable-background="new 0 0 60 60" xml:space="preserve">
<g>
	<g>
		<polygon points="36.419,15.305 26.597,32.59 32.926,43.734 39.537,43.734 33.208,32.59 43.03,15.305 		"/>
		<polygon points="23.763,20.5 17.53,20.5 21.214,27.017 16.303,35.139 22.535,35.139 27.446,27.017 		"/>
	</g>
	<g>
		<path d="M29.666,2.006c15.171,0,27.514,12.343,27.514,27.514c0,15.17-12.343,27.513-27.514,27.513
			c-15.17,0-27.513-12.343-27.513-27.513S14.496,2.006,29.666,2.006 M29.666,0.52c-16.016,0-29,12.982-29,29
			c0,16.015,12.984,29,29,29s29-12.985,29-29C58.666,13.502,45.682,0.52,29.666,0.52L29.666,0.52z"/>
	</g>
</g>
</svg>
