<?xml version="1.0" encoding="utf-8"?>
<!-- Generator: Adobe Illustrator 15.1.0, SVG Export Plug-In . SVG Version: 6.00 Build 0)  -->
<!DOCTYPE svg PUBLIC "-//W3C//DTD SVG 1.1//EN" "http://www.w3.org/Graphics/SVG/1.1/DTD/svg11.dtd">
<svg version="1.1" id="Layer_1" xmlns="http://www.w3.org/2000/svg" xmlns:xlink="http://www.w3.org/1999/xlink" x="0px" y="0px"
	 width="80px" height="80px" viewBox="0 0 80 80" enable-background="new 0 0 80 80" xml:space="preserve">
<path fill="#676767" d="M58.139,28.859c-1.325,0.586-2.742,0.982-4.236,1.166c1.523-0.915,2.697-2.361,3.246-4.083
	c-1.425,0.845-3.002,1.461-4.685,1.79c-1.349-1.439-3.269-2.338-5.386-2.338c-4.075,0-7.374,3.306-7.374,7.38
	c0,0.58,0.062,1.144,0.191,1.685c-6.133-0.305-11.57-3.245-15.205-7.717c-0.632,1.089-0.998,2.361-0.998,3.71
	c0,2.559,1.303,4.822,3.283,6.147c-1.211-0.031-2.354-0.366-3.345-0.922c0,0.03,0,0.061,0,0.091c0,3.58,2.545,6.558,5.919,7.236
	c-0.617,0.168-1.271,0.26-1.941,0.26c-0.473,0-0.938-0.047-1.388-0.139c0.938,2.934,3.665,5.066,6.895,5.128
	c-2.521,1.98-5.704,3.161-9.164,3.161c-0.594,0-1.18-0.039-1.758-0.106c3.259,2.117,7.136,3.336,11.296,3.336
	c13.574,0,20.993-11.251,20.993-21.008c0-0.32-0.009-0.64-0.022-0.953C55.898,31.639,57.148,30.337,58.139,28.859z"/>
<g>
	<path fill="#676767" d="M40.166,3.019c20.402,0,37,16.598,37,37c0,20.402-16.598,37-37,37c-20.402,0-37-16.598-37-37
		C3.166,19.617,19.764,3.019,40.166,3.019 M40.166,1.019c-21.539,0-39,17.46-39,39c0,21.538,17.461,39,39,39
		c21.538,0,39-17.462,39-39C79.166,18.479,61.704,1.019,40.166,1.019L40.166,1.019z"/>
</g>
</svg>
